<svg width="1080" height="1080" xmlns="http://www.w3.org/2000/svg">
 <defs>
  <filter id="svg_181_blur">
   <feGaussianBlur stdDeviation="0" in="SourceGraphic"/>
  </filter>
 </defs>
 <g>
  <title>Layer 1</title>
  <g stroke="null" filter="url(#svg_181_blur)" id="svg_181">
   <g stroke="#000000" id="svg_5" stroke-width="0.3" stroke-opacity="0.99" fill-opacity="0" fill="None">
    <path stroke="null" id="svg_6" d="m599.68594,17.35687c-14.42392,-6.04304 -13.49893,11.74076 -18.32618,16.48311c-4.82724,4.74235 -2.26909,19.83268 -10.4783,22.73334c-8.2092,2.91217 -25.3358,2.46326 -36.23322,1.07048c-10.89743,-1.39278 -24.88776,5.08766 -14.0915,12.37384c10.81071,7.27467 12.09701,7.21712 21.67923,12.66161c9.58222,5.44449 17.09769,8.78255 11.66343,17.92193c-5.43426,9.15089 -2.5437,13.53641 -9.16309,22.62975c-6.63384,9.09334 6.128,17.30036 14.3661,10.29043c8.23811,-7.00993 14.12041,-6.76821 21.46244,-12.83427c7.34203,-6.06606 17.25667,-8.55234 24.54089,-1.7496c7.29867,6.79123 15.03093,5.35241 21.70814,12.63859c6.6772,7.28618 22.84991,5.16824 18.80312,-4.61573c-4.04679,-9.77246 -4.82724,-14.16949 -9.33652,-22.49162c-4.50928,-8.32213 -4.94286,-14.97523 5.67996,-18.91184c10.62282,-3.93661 11.30211,-9.4847 21.7515,-12.60406c10.46384,-3.11936 13.5712,-16.36801 -0.43358,-15.30904c-14.00478,1.05897 -23.74598,-1.6345 -37.57733,0c-13.83135,1.6345 -10.82516,-12.92635 -15.99927,-18.33631c-5.18856,-5.39845 -2.65932,-18.8658 -10.0158,-21.95063z"/>
   </g>
   <g stroke="#CDA52C" id="svg_7" stroke-width="0.3" stroke-opacity="0.96" fill-opacity="0" fill="None">
    <path stroke="null" id="svg_8" d="m293.28614,283.25065c-13.88916,-15.86154 -30.10523,-29.20227 -43.69088,-45.77747c-13.58565,-16.5752 -37.96756,-24.80524 -60.36943,-32.49429c9.68339,20.48879 24.16512,39.63084 34.68677,59.85488c-8.23811,-5.70923 -16.18716,-11.61415 -24.5698,-17.26583c6.6483,14.68747 8.85958,34.1403 15.92701,48.3213c7.08188,14.16949 3.28079,38.15748 23.08115,42.62358c19.80036,4.46609 43.40182,6.6531 62.63853,11.11919c19.22225,4.46609 21.10112,21.95063 34.20983,32.6094c22.66202,-9.73793 31.0013,13.36375 46.24903,21.87005c18.58633,-12.74218 -6.57603,-23.8844 -15.8981,-34.53166c2.25464,-4.0402 3.65656,-8.29911 4.33585,-12.66161c-30.32202,-21.67437 -62.32056,-41.90993 -92.49805,-63.30804c21.5347,6.8718 41.78311,16.96656 63.59241,23.02111c3.22298,-11.994 -4.61045,-22.64126 -1.44528,-34.53166c3.16517,-11.8904 -5.50652,-17.1277 -17.01097,-20.98374c-11.50445,-3.85604 -17.58908,-9.36959 -28.22636,-13.19109c-10.65173,-3.83301 -17.70471,-8.93219 -28.47206,-11.86738c8.75841,15.87305 19.69919,31.07849 27.46036,47.19327z"/>
   </g>
   <g stroke="#000000" id="svg_9" stroke-width="0.3" fill-opacity="0" fill="None">
    <path stroke="null" id="svg_10" d="m388.67476,681.5158c3.45422,-4.13229 2.35581,-16.31045 2.89056,-20.719c0.43358,-9.5998 -1.54645,-20.37368 2.89056,-28.77638c0.78045,13.70907 8.41154,27.32605 8.67169,40.28694c16.72191,-1.30069 31.95519,-14.0659 49.13959,-17.26583c-14.16376,10.22137 -29.31032,21.19093 -44.80374,29.92744c7.54437,25.82968 14.32275,56.67797 23.13897,81.71342c8.81622,25.03545 10.95524,54.34132 31.34817,74.02437c20.39293,19.67154 36.53673,35.1187 58.24487,52.60323c0.33241,-23.3434 -0.44804,-48.16016 0,-71.36543c0.44804,-23.20528 -0.85272,-48.70115 0,-71.36543c0.85272,-22.66428 -1.86441,-48.7587 0,-70.21438c1.86441,-21.45567 -20.68199,-28.29294 -37.21601,-41.72576c-16.53403,-13.43282 -28.81892,-22.74485 -46.24903,-34.53166c-17.44455,-11.7753 -28.24081,-26.63542 -32.15753,-44.60339c57.44996,12.7652 114.81321,25.65702 171.98857,39.13588c-3.22298,9.61131 -5.05849,18.65861 -7.54437,28.52315c-2.50034,9.86454 -5.72332,18.31329 -7.22641,28.77638c-1.51755,10.46309 -6.73501,16.58671 -8.35373,27.87856c-1.61872,11.29185 -8.03577,14.99825 6.86509,24.45993c14.90086,9.46167 30.09077,22.22688 45.16507,31.94179c6.02683,-8.74802 20.37848,-11.76379 27.09904,-19.8557c6.72056,-8.09192 23.24014,-10.93503 26.3764,-20.43123c3.13626,-9.49621 -8.00686,-22.99809 -8.67169,-33.3806c-0.66483,-10.37101 -6.21471,-23.89591 -8.67169,-34.53166c-2.45698,-10.62424 -5.17411,-22.84845 -8.67169,-33.3806c57.20427,-13.54792 114.62532,-26.23255 171.98857,-39.13588c-3.68547,18.47444 -14.66961,33.27701 -32.88017,45.17892c-18.21055,11.90191 -28.90564,21.50171 -46.24903,34.53166c-17.34339,13.02995 -37.59179,20.6154 -35.04809,42.30128c2.5437,21.68588 -1.22849,48.74719 0,71.36543c1.22849,22.61824 -0.72264,48.60907 0,71.36543c0.72264,22.75636 -0.69374,46.58321 0,67.91227c4.50928,-16.28743 7.6889,-35.64818 11.57671,-51.78598c3.88781,-16.14931 6.24362,-34.19785 11.07086,-49.88674c4.82724,-15.68888 1.57536,-36.67262 16.01373,-45.95013c14.45282,-9.27751 30.5099,-17.59964 45.59865,-24.69014c15.1032,-7.07899 31.40598,-23.52757 46.8994,-13.87022c15.49342,9.64584 27.99511,16.22988 43.71978,25.03545c-6.80728,-36.82226 -22.31516,-75.71642 -26.01508,-111.65237c5.56434,6.26174 12.25599,11.86738 17.34339,18.41689c4.01788,-46.80191 7.21196,-94.96207 8.67169,-142.73086c-34.41217,10.58971 -67.92826,24.39086 -102.61503,34.53166c13.68682,-10.44007 29.54157,-18.37084 44.47133,-27.89007c14.92976,-9.51923 37.82303,-16.87447 32.43213,-32.85112c-5.3909,-15.97665 -8.7006,-31.27417 -18.62969,-45.52424c-9.91464,-14.25007 -16.98206,-27.51022 -29.72945,-39.63084c-12.74739,-12.12061 -25.24908,-21.84703 -40.4679,-31.07849c-15.20437,-9.23146 -30.74115,-17.64568 -48.77827,-23.30887c-13.83135,28.05122 -32.14307,55.06649 -46.24903,82.87598c8.03577,-39.90709 26.86779,-81.26451 37.57733,-122.01187c-28.35643,-24.35633 -59.83468,-48.4249 -86.71693,-73.66754c-32.66338,21.76646 -59.80577,50.16299 -91.05277,73.66754c13.10871,41.15023 26.80998,82.16233 40.4679,123.16292c-18.12384,-26.72751 -33.37156,-55.99884 -49.13959,-84.02704c-75.99293,26.24406 -131.11599,87.15791 -140.19236,151.93931c27.12794,15.48169 56.46717,32.13747 80.9358,49.49538c-34.84575,-11.32638 -68.93996,-24.71316 -104.06031,-35.68272c3.3097,47.50405 2.86166,96.44693 10.11697,142.73086c4.13351,-7.07899 11.77905,-12.90333 17.34339,-19.56794c-2.58705,26.02536 -14.22158,53.25933 -18.78867,80.57387c9.95799,-6.84878 27.04123,-9.50772 36.13205,-17.26583z"/>
   </g>
   <g stroke="#EF5223" id="svg_11" stroke-width="0.3" stroke-opacity="0.99" fill-opacity="0" fill="None">
    <path stroke="null" id="svg_12" d="m932.10082,244.11477c-76.45542,10.5782 -149.77458,30.50297 -222.57344,50.64644c-2.06675,6.89482 -5.81003,13.42131 -5.78113,20.719c20.63863,8.86313 41.00265,-4.62724 62.04596,-9.28902c21.02885,-4.67328 41.98544,-11.85587 63.59241,-16.11477c21.59251,-4.27042 44.21118,-11.26883 66.58415,-13.73209c-2.41362,23.58512 -8.51271,47.46952 -12.5306,70.59422c-4.01788,23.1247 -10.11697,45.97315 -14.95867,68.66045c-4.85615,22.67579 -16.85199,44.08542 -8.64279,66.78423c8.87403,-2.30211 16.83754,-6.73367 26.01508,-8.05739c20.16169,-75.77397 37.95311,-152.05441 46.24903,-230.21107z"/>
   </g>
   <g stroke="#EF5223" id="svg_13" stroke-width="0.3" stroke-opacity="0.99" fill-opacity="0" fill="None">
    <path stroke="null" id="svg_14" d="m361.2144,439.79418c-12.63177,4.77688 -23.99168,12.59255 -36.01643,18.50897c-12.02475,5.91642 -23.41357,13.00693 -35.16371,19.18809c-11.7646,6.16966 -21.95383,12.90333 -33.31375,19.51039c-11.37437,6.59555 -22.73429,13.23714 -33.92077,20.178c-11.18648,6.94086 -21.10112,13.17958 -32.48994,20.16649c-11.37437,6.99842 -20.08942,14.46877 -31.79621,21.87005c-11.70678,7.38978 3.3386,17.64568 10.83962,26.47427c7.48656,8.82859 17.03988,18.37084 25.29244,27.0498c8.25256,8.67896 16.82308,17.24281 25.29244,25.89875c8.4549,8.65594 18.94765,16.64426 27.46036,25.32322c8.51271,8.67896 18.38399,15.64284 27.46036,24.17216c9.06192,8.54083 18.91874,15.76946 28.90564,24.17216c9.97245,8.41421 19.43904,22.18084 25.75493,7.27467c6.33034,-14.89466 2.08121,-22.58371 -11.30211,-31.44683c-13.38331,-8.86313 -17.01097,-15.12487 -28.183,-23.59663c-11.15758,-8.47177 -17.28557,-16.95505 -27.46036,-25.32322c-10.17479,-8.37968 -16.77973,-16.72483 -26.01508,-25.32322c-9.2209,-8.59838 -17.56018,-17.58813 -26.01508,-26.47427c-8.4549,-8.89766 -21.7515,-18.18667 -7.94905,-25.32322c13.78799,-7.13654 20.68199,-14.00834 33.24149,-20.719c12.54505,-6.71065 20.37848,-13.75511 32.54775,-20.12045c12.16928,-6.36534 22.12727,-13.42131 34.00749,-20.10894c11.88022,-6.67612 30.10523,-11.8904 24.13621,-26.81959c9.64003,6.51497 25.30689,5.1222 26.04398,-5.73226c0.75155,-10.84294 7.54437,-18.27876 8.64279,-28.7994z"/>
   </g>
   <g stroke="#1E1F1F" id="svg_15" stroke-width="0.3" stroke-opacity="0.71" fill-opacity="0" fill="None">
    <path stroke="null" id="svg_16" d="m388.67476,681.5158c5.28973,-4.51214 2.89056,-14.33064 2.89056,-20.719c-0.53475,4.40854 0.56366,16.58671 -2.89056,20.719z"/>
   </g>
   <g stroke="#E7E7E6" id="svg_17" stroke-width="0.3" stroke-opacity="0.96" fill-opacity="0" fill="None">
    <path stroke="null" id="svg_18" d="m391.56532,697.63058c-16.64965,10.4746 -32.72119,22.37652 -47.69431,34.53166c18.83203,14.12345 32.5333,32.18351 52.03016,46.04221c-3.64211,-26.42823 -4.84169,-53.31688 -4.33585,-80.57387z"/>
   </g>
   <g stroke="#CBA32C" id="svg_19" stroke-width="0.3" stroke-opacity="0.91" fill-opacity="0" fill="None">
    <path stroke="null" id="svg_20" d="m763.00282,742.52173c-5.23192,1.77263 -9.19199,5.11069 -14.45282,6.90633c52.49265,52.03921 108.75748,103.27269 163.31688,154.24142c-32.15753,-61.85771 -95.80775,-109.01645 -148.86406,-161.14775z"/>
   </g>
   <g stroke="#EF5223" id="svg_21" stroke-width="0.3" stroke-opacity="0.99" fill-opacity="0" fill="None">
    <path stroke="null" id="svg_22" d="m656.05195,905.97159c-41.81201,-18.67012 -80.48776,-42.26675 -119.95841,-64.4591c-2.5726,14.58387 -1.7777,33.56477 14.88641,39.94162c16.67856,6.36534 22.93663,14.20402 37.57733,20.719c14.65516,6.50346 24.41081,13.68605 38.47341,20.00534c14.06259,6.31929 25.59595,13.82417 40.58352,18.3248c9.64003,-14.98674 21.39017,-29.38644 30.35092,-44.89116c-7.92015,-1.65752 -16.67856,-0.64459 -24.5698,-2.30211c-0.82381,-4.42005 1.71989,-10.2559 -1.44528,-13.81266c-3.69992,9.32355 -11.46109,17.51906 -15.8981,26.47427z"/>
   </g>
   <g stroke="#000000" id="svg_23" stroke-width="0.3" stroke-opacity="0.93" fill-opacity="0" fill="None">
    <path stroke="null" id="svg_24" d="m205.12393,950.86275c-18.78867,0 -37.57733,0 -56.366,0c-1.14177,4.22437 -3.26634,5.1222 -4.33585,9.20844c12.0392,0 24.09285,0 36.13205,0c-3.17962,9.18542 1.57536,18.9809 -7.22641,25.32322c11.88022,0.58704 3.07845,16.04571 5.78113,23.02111c8.67169,0 17.34339,0 26.01508,0c0.72264,-6.07757 -0.59257,-19.3032 -0.83826,-24.4369c-0.23125,-5.13371 10.7529,-7.5279 -0.60702,-8.9437c0,-4.60422 0,-9.20844 0,-13.81266c13.68682,-1.20861 35.95862,5.17975 37.57733,-10.3595c-10.59392,0 -21.20229,0 -31.79621,0c-1.14177,4.22437 -3.26634,5.1222 -4.33585,9.20844c-2.71713,-1.95679 -1.7777,-6.75669 0,-9.20844z"/>
   </g>
   <g stroke="#000000" id="svg_25" stroke-width="0.3" stroke-opacity="0.94" fill-opacity="0" fill="None">
    <path stroke="null" id="svg_26" d="m271.60691,950.86275c-8.19475,0 -16.37505,0 -24.5698,0c-1.14177,4.22437 -3.26634,5.1222 -4.33585,9.20844c13.38331,4.77688 2.02339,18.37084 -1.44528,25.32322c12.87746,-3.51072 6.4026,13.70907 5.78113,19.56794c14.03369,6.89482 37.6496,1.95679 56.366,3.45317c0.73709,-4.01718 4.16241,-7.24014 5.78113,-10.3595c-12.89192,0.71365 -26.73772,-1.46184 -39.02262,1.15106c-7.00962,-16.33348 13.0509,-17.54208 27.46036,-13.81266c0,-3.45317 0,-6.90633 0,-10.3595c-7.22641,0 -14.45282,0 -21.67923,0c0.75155,2.86613 -1.41638,5.84736 -4.33585,6.90633c0,-6.90633 0,-13.81266 0,-20.719c10.59392,0 21.20229,0 31.79621,0c-0.89607,-4.29344 3.17962,-5.74377 5.78113,-10.3595c-11.08531,0 -22.15617,0 -33.24149,0c1.35857,4.98407 -6.37369,10.08324 -4.33585,0z"/>
   </g>
   <g stroke="#000000" id="svg_27" stroke-width="0.3" stroke-opacity="0.98" fill-opacity="0" fill="None">
    <path stroke="null" id="svg_28" d="m335.19932,984.24336c-0.96834,-8.17249 -5.1163,-22.72183 7.22641,-24.17216c12.34271,-1.43882 24.65651,1.79565 18.78867,14.96372c-6.74947,0 -13.48448,0 -20.23395,0c0.92498,3.269 -1.90777,5.16824 -4.33585,8.05739c7.48656,2.48628 16.46176,0.52949 24.5698,1.15106c-3.22298,7.48186 -0.59257,16.19535 -1.44528,24.17216c8.19475,0 16.37505,0 24.5698,0c0.11562,-17.49604 -0.15898,-36.25824 0,-52.94855c-8.25256,-5.82434 -22.73429,-3.43014 -36.13205,-3.45317c-13.39776,-0.01151 -28.00957,-2.32513 -36.13205,3.45317c4.40811,11.93644 0.07226,21.09884 -5.78113,29.92744c11.88022,0.58704 3.064,16.04571 5.78113,23.02111c8.19475,0 16.37505,0 24.5698,0c0.88162,-8.10343 -0.54921,-16.50613 -1.44528,-24.17216z"/>
   </g>
   <g stroke="#000000" id="svg_29" stroke-width="0.3" stroke-opacity="0.96" fill-opacity="0" fill="None">
    <path stroke="null" id="svg_30" d="m419.02568,950.86275c-8.67169,0 -17.34339,0 -26.01508,0c-1.70543,4.16682 -2.38472,6.06606 -5.78113,9.20844c10.13143,2.57836 4.78388,13.8472 5.78113,21.87005c0.99724,8.02286 -0.75155,18.24423 0,26.47427c7.70335,0 15.42116,0 23.12451,0c0,-9.97965 0,-19.94779 0,-29.92744c7.89124,8.71349 14.71297,19.62549 18.78867,29.92744c13.51339,1.43882 14.20712,-8.43724 18.51406,-13.5249c4.30694,-5.07615 4.91396,-10.39403 8.9463,-16.40254c3.36751,8.84011 0.4914,20.14347 1.44528,29.92744c8.19475,0 16.37505,0 24.5698,0c0,-19.18809 0,-38.36467 0,-57.55277c-8.80177,1.88773 -20.07497,1.88773 -28.90564,0c-5.37645,11.46451 -13.35441,26.76204 -21.67923,33.3806c-3.71437,-12.02853 -13.67237,-21.0528 -18.78867,-33.3806z"/>
   </g>
   <g stroke="#000000" id="svg_31" stroke-width="0.3" stroke-opacity="0.96" fill-opacity="0" fill="None">
    <path stroke="null" id="svg_32" d="m562.10861,950.86275c-10.95524,-0.6561 -17.9504,0.33381 -24.5698,4.60422c5.98347,13.11052 -3.55539,38.46827 2.61596,49.20762c6.1569,10.73935 38.6902,-0.35683 53.75004,3.74093c1.37302,-4.6848 3.55539,-6.03153 5.78113,-10.3595c-12.5306,0 -25.04674,0 -37.57733,0c0,-15.73493 0,-31.45834 0,-47.19327z"/>
   </g>
   <g stroke="#000000" id="svg_33" stroke-width="0.3" stroke-opacity="0.91" fill-opacity="0" fill="None">
    <path stroke="null" id="svg_34" d="m599.68594,950.86275c-12.74739,1.66903 -35.03364,-5.61715 -36.13205,9.20844c10.44939,-0.3223 22.32961,0.46042 31.79621,0c-1.19958,-3.9251 3.16517,-5.2373 4.33585,-9.20844z"/>
   </g>
   <g stroke="#000000" id="svg_35" stroke-width="0.3" stroke-opacity="0.98" fill-opacity="0" fill="None">
    <path stroke="null" id="svg_36" d="m625.70102,950.86275c-10.96969,-0.66761 -17.9504,0.34532 -24.5698,4.60422c2.39917,15.41263 2.39917,32.89716 0,48.34432c8.7295,6.96388 24.52644,4.3625 37.57733,4.60422c13.0509,0.24172 26.651,1.11652 34.68677,-3.45317c-0.13008,-15.45867 0,-34.05973 0,-49.49538c-9.78456,-5.53658 -43.32956,-11.08466 -46.24903,4.60422c7.70335,0 15.42116,0 23.12451,0c0,13.04146 0,26.09442 0,39.13588c-8.19475,0 -16.37505,0 -24.5698,0c0,-16.11477 0,-32.22955 0,-48.34432z"/>
   </g>
   <g stroke="#000000" id="svg_37" stroke-width="0.3" stroke-opacity="0.98" fill-opacity="0" fill="None">
    <path stroke="null" id="svg_38" d="m751.44056,953.16486c-7.90569,-1.66903 -23.25459,-1.51939 -36.13205,-1.15106c-12.87746,0.36834 -26.94006,-2.5093 -34.68677,3.45317c2.37026,7.76962 2.38472,17.53057 0,25.32322c13.65792,8.58687 31.18919,1.30069 49.13959,3.45317c0,4.99558 0,9.96814 0,14.96372c-8.19475,0 -16.37505,0 -24.5698,0c-0.37577,-3.23447 -0.75155,-5.1222 -1.44528,-8.05739c-7.51547,-1.76111 -14.27939,-2.728 -23.12451,-2.30211c-5.10185,16.70181 6.77837,21.46718 24.5698,19.56794c17.79142,-1.89924 35.79964,3.25749 47.69431,-3.45317c-0.33241,-7.99983 -0.05781,-18.53199 0,-26.47427c-9.75565,-5.60564 -27.9373,-2.71649 -43.35846,-3.45317c0.75155,2.86613 -1.43083,5.84736 -4.33585,6.90633c0,-7.28618 0,-14.58387 0,-21.87005c8.19475,0 16.37505,0 24.5698,0c-3.96007,11.60264 10.69509,10.49762 23.12451,10.3595c0.14453,-6.03153 0.10117,-12.12061 -1.44528,-17.26583z"/>
   </g>
   <g stroke="#000000" id="svg_39" stroke-width="0.3" stroke-opacity="0.96" fill-opacity="0" fill="None">
    <path stroke="null" id="svg_40" d="m787.57262,950.86275c-8.67169,0 -17.34339,0 -26.01508,0c-1.70543,4.16682 -2.38472,6.06606 -5.78113,9.20844c10.13143,2.57836 4.78388,13.8472 5.78113,21.87005c0.99724,8.02286 -0.75155,18.24423 0,26.47427c7.70335,0 15.42116,0 23.12451,0c0,-9.97965 0,-19.94779 0,-29.92744c7.89124,8.725 14.72742,19.62549 18.78867,29.92744c13.51339,1.43882 14.20712,-8.43724 18.51406,-13.5249c4.30694,-5.07615 4.91396,-10.39403 8.9463,-16.40254c3.36751,8.84011 0.4914,20.14347 1.44528,29.92744c8.19475,0 16.37505,0 24.5698,0c0,-19.18809 0,-38.36467 0,-57.55277c-8.80177,1.88773 -20.07497,1.88773 -28.90564,0c-5.37645,11.46451 -13.35441,26.76204 -21.67923,33.3806c-3.71437,-12.02853 -13.67237,-21.06431 -18.78867,-33.3806z"/>
   </g>
   <g stroke="#000000" id="svg_41" stroke-width="0.3" stroke-opacity="0.98" fill-opacity="0" fill="None">
    <path stroke="null" id="svg_42" d="m887.29708,950.86275c-10.95524,-0.66761 -17.9504,0.33381 -24.5698,4.60422c2.39917,15.41263 2.39917,32.89716 0,48.34432c8.7295,6.96388 24.52644,4.3625 37.57733,4.60422c13.0509,0.24172 26.651,1.11652 34.68677,-3.45317c-0.13008,-15.45867 0,-34.05973 0,-49.49538c-9.78456,-5.53658 -43.3151,-11.08466 -46.24903,4.60422c7.70335,0 15.42116,0 23.12451,0c0,13.04146 0,26.09442 0,39.13588c-8.19475,0 -16.37505,0 -24.5698,0c0,-16.11477 0,-32.22955 0,-48.34432z"/>
   </g>
   <g stroke="#000000" id="svg_43" stroke-width="0.3" stroke-opacity="0.15" fill-opacity="0" fill="None">
    <path stroke="null" id="svg_44" d="m335.19932,984.24336c-0.02891,-0.13813 1.12732,-0.80574 1.44528,-1.15106c2.42807,-2.88915 5.26083,-4.78839 4.33585,-8.05739c6.74947,0 13.48448,0 20.23395,0c5.86785,-13.16807 -6.44596,-16.40254 -18.78867,-14.96372c-12.34271,1.45033 -8.19475,15.99967 -7.22641,24.17216z"/>
   </g>
   <g stroke="#EE5222" id="svg_45" stroke-width="0.3" stroke-opacity="0.84" fill-opacity="0" fill="None">
    <path stroke="null" id="svg_46" d="m550.54635,1039.49401c17.21331,2.12945 4.49483,-15.06731 -6.21471,-10.70481c-10.70954,4.35099 -8.33928,15.26299 0.43358,19.91326c-16.72191,0.14964 -3.98898,18.5435 8.33928,13.54792c12.32826,-4.99558 5.33309,-17.47302 -2.55815,-22.75636z"/>
   </g>
   <g stroke="#EE5222" id="svg_47" stroke-width="0.3" stroke-opacity="0.84" fill-opacity="0" fill="None">
    <path stroke="null" id="svg_48" d="m926.3197,1039.49401c17.21331,2.12945 4.49483,-15.06731 -6.21471,-10.70481c-10.70954,4.35099 -8.33928,15.26299 0.43358,19.91326c-16.72191,0.14964 -3.98898,18.5435 8.33928,13.54792c12.32826,-4.99558 5.33309,-17.47302 -2.55815,-22.75636z"/>
   </g>
   <g stroke="#F05322" id="svg_49" stroke-width="0.3" stroke-opacity="0.84" fill-opacity="0" fill="None">
    <path stroke="null" id="svg_50" d="m426.25209,1029.13451c-6.74947,0 -13.48448,0 -20.23395,0c0.21679,2.70498 -1.45973,8.21854 4.33585,6.90633c2.86166,6.12361 -6.30143,26.45125 5.76668,26.46276c12.06811,0.01151 2.97728,-20.32764 5.79558,-26.46276c5.89675,1.12803 4.16241,-4.07474 4.33585,-6.90633z"/>
   </g>
   <g stroke="#F05322" id="svg_51" stroke-width="0.3" stroke-opacity="0.84" fill-opacity="0" fill="None">
    <path stroke="null" id="svg_52" d="m453.71245,1029.13451c-6.25807,0 -12.5306,0 -18.78867,0c3.51204,9.85303 -4.85615,22.37652 0.37577,31.93028c5.21747,9.56527 33.53054,-8.44875 11.18648,-6.60706c-3.3386,-7.59697 11.07086,-4.54667 7.22641,-12.66161c-3.67102,-1.46184 -9.23535,-0.88631 -7.22641,-5.75528c6.70611,1.5309 8.44045,-2.38268 7.22641,-6.90633z"/>
   </g>
   <g stroke="#EE5222" id="svg_53" stroke-width="0.3" stroke-opacity="0.86" fill-opacity="0" fill="None">
    <path stroke="null" id="svg_54" d="m484.06338,1029.13451c-5.78113,0 -11.56226,0 -17.34339,0c-3.67102,8.85162 0.47694,16.01118 -2.99173,25.24264c-3.46868,9.21995 10.46384,11.32638 11.66343,1.23163c-2.51479,6.60706 5.17411,7.91926 11.56226,6.90633c0.766,-11.48753 -3.65656,-21.91609 -2.89056,-33.3806z"/>
   </g>
   <g stroke="#EF5322" id="svg_55" stroke-width="0.3" stroke-opacity="0.88" fill-opacity="0" fill="None">
    <path stroke="null" id="svg_56" d="m505.74261,1061.36406c-4.09015,-3.46468 3.064,-15.33206 0,-19.56794c3.87336,5.59413 0.41913,12.66161 2.89056,18.41689c4.19132,1.23163 3.22298,3.0503 8.67169,0c-3.07845,-4.7999 -0.10117,-10.88898 0,-16.11477c3.23743,4.70782 0.57811,11.69472 1.44528,17.26583c18.97655,3.97114 6.60494,-22.65277 10.11697,-32.22955c-8.57052,-0.44891 -17.83478,-1.24314 -17.34339,6.90633c3.3097,-8.60989 -7.32758,-7.06748 -14.45282,-6.90633c1.35857,6.35383 -5.49207,38.65244 8.67169,32.22955z"/>
   </g>
   <g stroke="#E74F21" id="svg_57" stroke-width="0.3" stroke-opacity="0.87" fill-opacity="0" fill="None">
    <path stroke="null" id="svg_58" d="m583.78784,1029.13451c-0.85272,8.49479 1.12732,19.37226 0,27.62533c-1.12732,8.25307 16.53403,8.31062 21.30346,2.00284c4.76943,-6.30778 -1.63317,-14.19251 1.8066,-21.55927c3.45422,-7.36675 -16.80863,-10.29043 -23.11006,-8.0689z"/>
   </g>
   <g stroke="#EF5222" id="svg_59" stroke-width="0.3" stroke-opacity="0.89" fill-opacity="0" fill="None">
    <path stroke="null" id="svg_60" d="m627.1463,1029.13451c1.0117,8.74802 -0.75155,17.70323 0,26.47427c-3.32415,-7.78113 -0.5203,-17.82985 -1.44528,-26.47427c-3.36751,0 -6.74947,0 -10.11697,0c3.0929,9.99116 -8.57052,33.36909 11.5478,33.36909c20.11833,0 8.52716,-23.35491 11.57671,-33.36909c-3.8589,0 -7.70335,0 -11.56226,0z"/>
   </g>
   <g stroke="#F0591E" id="svg_61" stroke-width="0.3" stroke-opacity="0.07" fill-opacity="0" fill="None">
    <path stroke="null" id="svg_62" d="m627.1463,1029.13451c0,0 -0.72264,0.05755 -1.44528,0c0.92498,8.64443 -1.87887,18.69314 1.44528,26.47427c-0.75155,-8.77104 1.0117,-17.72625 0,-26.47427z"/>
   </g>
   <g stroke="#F05322" id="svg_63" stroke-width="0.3" stroke-opacity="0.82" fill-opacity="0" fill="None">
    <path stroke="null" id="svg_64" d="m660.38779,1029.13451c-3.8589,0 -7.70335,0 -11.56226,0c3.22298,6.71065 -6.82173,33.35758 5.76668,33.36909c12.60286,0.02302 2.60151,-26.65844 5.79558,-33.36909z"/>
   </g>
   <g stroke="#F05322" id="svg_65" stroke-width="0.3" stroke-opacity="0.83" fill-opacity="0" fill="None">
    <path stroke="null" id="svg_66" d="m680.62174,1029.13451c-3.8589,0 -7.70335,0 -11.56226,0c2.8183,12.50046 -9.9869,39.19343 17.34339,33.3806c1.71989,-2.52081 1.79215,-5.42147 2.89056,-8.05739c-16.37505,1.70356 -5.57879,-17.28885 -8.67169,-25.32322z"/>
   </g>
   <g stroke="#EF5322" id="svg_67" stroke-width="0.3" stroke-opacity="0.91" fill-opacity="0" fill="None">
    <path stroke="null" id="svg_68" d="m697.96513,1029.13451c-1.40192,8.59838 1.86441,17.95646 0,26.47427c-1.86441,8.51781 13.5712,9.87605 19.87263,4.31646c6.28698,-5.57111 2.67377,-16.08024 3.22298,-23.84987c0.53475,-7.78113 -15.99927,-7.83869 -23.09561,-6.94086m11.56226,26.47427c-2.34136,-5.28334 -2.45698,-14.36517 0,-19.56794c2.47143,5.42147 2.26909,13.77813 0,19.56794z"/>
   </g>
   <g stroke="#EF5322" id="svg_69" stroke-width="0.3" stroke-opacity="0.91" fill-opacity="0" fill="None">
    <path stroke="null" id="svg_70" d="m745.65943,1029.13451c-1.40192,8.59838 1.86441,17.95646 0,26.47427c-1.86441,8.51781 13.5712,9.87605 19.87263,4.31646c6.28698,-5.57111 2.67377,-16.08024 3.22298,-23.84987c0.53475,-7.78113 -15.99927,-7.83869 -23.09561,-6.94086m11.56226,26.47427c-2.34136,-5.28334 -2.45698,-14.36517 0,-19.56794c2.47143,5.40996 2.26909,13.77813 0,19.56794z"/>
   </g>
   <g stroke="#F05322" id="svg_71" stroke-width="0.3" stroke-opacity="0.87" fill-opacity="0" fill="None">
    <path stroke="null" id="svg_72" d="m790.46318,1048.70246c-6.96626,7.36675 8.62833,20.29311 11.56226,10.3595c2.93392,-9.93361 -3.61321,-12.69614 0,-21.87005c3.61321,-9.17391 -16.49067,-8.98974 -23.12451,-8.05739c3.98898,10.22137 -9.53886,33.97915 10.11697,33.3806c0.82381,-4.42005 -1.71989,-10.2559 1.44528,-13.81266z"/>
   </g>
   <g stroke="#F05322" id="svg_73" stroke-width="0.3" stroke-opacity="0.84" fill-opacity="0" fill="None">
    <path stroke="null" id="svg_74" d="m829.4858,1029.13451c-6.25807,0 -12.5306,0 -18.78867,0c3.51204,9.86454 -4.85615,22.36501 0.37577,31.93028c5.21747,9.56527 33.53054,-8.44875 11.18648,-6.60706c-3.3386,-7.59697 11.07086,-4.54667 7.22641,-12.66161c-3.67102,-1.46184 -9.23535,-0.8748 -7.22641,-5.75528c6.70611,1.5309 8.44045,-2.38268 7.22641,-6.90633z"/>
   </g>
   <g stroke="#EE5222" id="svg_75" stroke-width="0.3" stroke-opacity="0.86" fill-opacity="0" fill="None">
    <path stroke="null" id="svg_76" d="m859.83672,1029.13451c-5.78113,0 -11.56226,0 -17.34339,0c-3.67102,8.85162 0.47694,16.01118 -2.99173,25.24264c-3.46868,9.21995 10.46384,11.32638 11.66343,1.23163c-2.51479,6.60706 5.17411,7.91926 11.56226,6.90633c0.766,-11.48753 -3.65656,-21.91609 -2.89056,-33.3806z"/>
   </g>
   <g stroke="#EF5322" id="svg_77" stroke-width="0.3" stroke-opacity="0.88" fill-opacity="0" fill="None">
    <path stroke="null" id="svg_78" d="m881.51595,1061.36406c-4.09015,-3.46468 3.064,-15.33206 0,-19.56794c3.87336,5.59413 0.41913,12.67312 2.89056,18.41689c4.19132,1.23163 3.22298,3.0503 8.67169,0c-3.07845,-4.7999 -0.10117,-10.88898 0,-16.11477c3.23743,4.70782 0.57811,11.69472 1.44528,17.26583c18.97655,3.97114 6.60494,-22.65277 10.11697,-32.22955c-8.57052,-0.44891 -17.83478,-1.23163 -17.34339,6.90633c3.3097,-8.60989 -7.32758,-7.05597 -14.45282,-6.90633c1.35857,6.35383 -5.49207,38.65244 8.67169,32.22955z"/>
   </g>
   <g stroke="#F0591E" id="svg_79" stroke-width="0.3" stroke-opacity="0.07" fill-opacity="0" fill="None">
    <path stroke="null" id="svg_80" d="m709.52738,1055.60879c2.26909,-5.78981 2.47143,-14.14647 0,-19.56794c-2.45698,5.20277 -2.34136,14.2846 0,19.56794z"/>
   </g>
   <g stroke="#F0591E" id="svg_81" stroke-width="0.3" stroke-opacity="0.07" fill-opacity="0" fill="None">
    <path stroke="null" id="svg_82" d="m757.22169,1055.60879c2.26909,-5.78981 2.47143,-14.15798 0,-19.56794c-2.45698,5.20277 -2.34136,14.2846 0,19.56794z"/>
   </g>
   <g stroke="#F05321" id="svg_83" stroke-width="0.3" stroke-opacity="0.43" fill-opacity="0" fill="None">
    <path stroke="null" id="svg_84" d="m505.74261,1061.36406c0.15898,-0.08057 2.77494,-1.18559 2.89056,-1.15106c-2.47143,-5.75528 0.98279,-12.82276 -2.89056,-18.41689c3.064,4.23588 -4.09015,16.10326 0,19.56794z"/>
   </g>
   <g stroke="#F05321" id="svg_85" stroke-width="0.3" stroke-opacity="0.43" fill-opacity="0" fill="None">
    <path stroke="null" id="svg_86" d="m881.51595,1061.36406c0.17343,-0.08057 2.77494,-1.18559 2.89056,-1.15106c-2.47143,-5.74377 0.98279,-12.82276 -2.89056,-18.41689c3.064,4.23588 -4.09015,16.10326 0,19.56794z"/>
   </g>
   <g stroke="#EF5222" id="svg_87" stroke-width="0.3" stroke-opacity="0.35" fill-opacity="0" fill="None">
    <path stroke="null" id="svg_88" d="m517.30486,1060.21301c0.2457,0.37985 1.02615,0.89782 1.44528,1.15106c-0.86717,-5.57111 1.79215,-12.55801 -1.44528,-17.26583c-0.10117,5.22579 -3.07845,11.31487 0,16.11477z"/>
   </g>
   <g stroke="#EF5222" id="svg_89" stroke-width="0.3" stroke-opacity="0.35" fill-opacity="0" fill="None">
    <path stroke="null" id="svg_90" d="m893.07821,1060.21301c0.2457,0.37985 1.02615,0.89782 1.44528,1.15106c-0.86717,-5.57111 1.79215,-12.55801 -1.44528,-17.26583c-0.10117,5.22579 -3.07845,11.31487 0,16.11477z"/>
   </g>
   <g stroke="None" id="svg_95" fill-opacity="0.99" fill="#000000">
    <path stroke="null" id="svg_96" d="m599.68594,17.35687c-14.42392,-6.04304 -13.49893,11.74076 -18.32618,16.48311c-4.82724,4.74235 -2.26909,19.83268 -10.4783,22.73334c-8.2092,2.91217 -25.3358,2.46326 -36.23322,1.07048c-10.89743,-1.39278 -24.88776,5.08766 -14.0915,12.37384c10.81071,7.27467 12.09701,7.21712 21.67923,12.66161c9.58222,5.44449 17.09769,8.78255 11.66343,17.92193c-5.43426,9.15089 -2.5437,13.53641 -9.16309,22.62975c-6.63384,9.09334 6.128,17.30036 14.3661,10.29043c8.23811,-7.00993 14.12041,-6.76821 21.46244,-12.83427c7.34203,-6.06606 17.25667,-8.55234 24.54089,-1.7496c7.29867,6.79123 15.03093,5.35241 21.70814,12.63859c6.6772,7.28618 22.84991,5.16824 18.80312,-4.61573c-4.04679,-9.77246 -4.82724,-14.16949 -9.33652,-22.49162c-4.50928,-8.32213 -4.94286,-14.97523 5.67996,-18.91184c10.62282,-3.93661 11.30211,-9.4847 21.7515,-12.60406c10.46384,-3.11936 13.5712,-16.36801 -0.43358,-15.30904c-14.00478,1.05897 -23.74598,-1.6345 -37.57733,0c-13.83135,1.6345 -10.82516,-12.92635 -15.99927,-18.33631c-5.18856,-5.39845 -2.65932,-18.8658 -10.0158,-21.95063z"/>
   </g>
   <g stroke="None" id="svg_97" fill-opacity="0.96" fill="#CDA52C">
    <path stroke="null" id="svg_98" d="m293.28614,283.25065c-13.88916,-15.86154 -30.10523,-29.20227 -43.69088,-45.77747c-13.58565,-16.5752 -37.96756,-24.80524 -60.36943,-32.49429c9.68339,20.48879 24.16512,39.63084 34.68677,59.85488c-8.23811,-5.70923 -16.18716,-11.61415 -24.5698,-17.26583c6.6483,14.68747 8.85958,34.1403 15.92701,48.3213c7.08188,14.16949 3.28079,38.15748 23.08115,42.62358c19.80036,4.46609 43.40182,6.6531 62.63853,11.11919c19.22225,4.46609 21.10112,21.95063 34.20983,32.6094c22.66202,-9.73793 31.0013,13.36375 46.24903,21.87005c18.58633,-12.74218 -6.57603,-23.8844 -15.8981,-34.53166c2.25464,-4.0402 3.65656,-8.29911 4.33585,-12.66161c-30.32202,-21.67437 -62.32056,-41.90993 -92.49805,-63.30804c21.5347,6.8718 41.78311,16.96656 63.59241,23.02111c3.22298,-11.994 -4.61045,-22.64126 -1.44528,-34.53166c3.16517,-11.8904 -5.50652,-17.1277 -17.01097,-20.98374c-11.50445,-3.85604 -17.58908,-9.36959 -28.22636,-13.19109c-10.65173,-3.83301 -17.70471,-8.93219 -28.47206,-11.86738c8.75841,15.87305 19.69919,31.07849 27.46036,47.19327z"/>
   </g>
   <g stroke="None" id="svg_99" fill="#000000">
    <path stroke="null" id="svg_100" d="m388.67476,681.5158c3.45422,-4.13229 2.35581,-16.31045 2.89056,-20.719c0.43358,-9.5998 -1.54645,-20.37368 2.89056,-28.77638c0.78045,13.70907 8.41154,27.32605 8.67169,40.28694c16.72191,-1.30069 31.95519,-14.0659 49.13959,-17.26583c-14.16376,10.22137 -29.31032,21.19093 -44.80374,29.92744c7.54437,25.82968 14.32275,56.67797 23.13897,81.71342c8.81622,25.03545 10.95524,54.34132 31.34817,74.02437c20.39293,19.67154 36.53673,35.1187 58.24487,52.60323c0.33241,-23.3434 -0.44804,-48.16016 0,-71.36543c0.44804,-23.20528 -0.85272,-48.70115 0,-71.36543c0.85272,-22.66428 -1.86441,-48.7587 0,-70.21438c1.86441,-21.45567 -20.68199,-28.29294 -37.21601,-41.72576c-16.53403,-13.43282 -28.81892,-22.74485 -46.24903,-34.53166c-17.44455,-11.7753 -28.24081,-26.63542 -32.15753,-44.60339c57.44996,12.7652 114.81321,25.65702 171.98857,39.13588c-3.22298,9.61131 -5.05849,18.65861 -7.54437,28.52315c-2.50034,9.86454 -5.72332,18.31329 -7.22641,28.77638c-1.51755,10.46309 -6.73501,16.58671 -8.35373,27.87856c-1.61872,11.29185 -8.03577,14.99825 6.86509,24.45993c14.90086,9.46167 30.09077,22.22688 45.16507,31.94179c6.02683,-8.74802 20.37848,-11.76379 27.09904,-19.8557c6.72056,-8.09192 23.24014,-10.93503 26.3764,-20.43123c3.13626,-9.49621 -8.00686,-22.99809 -8.67169,-33.3806c-0.66483,-10.37101 -6.21471,-23.89591 -8.67169,-34.53166c-2.45698,-10.62424 -5.17411,-22.84845 -8.67169,-33.3806c57.20427,-13.54792 114.62532,-26.23255 171.98857,-39.13588c-3.68547,18.47444 -14.66961,33.27701 -32.88017,45.17892c-18.21055,11.90191 -28.90564,21.50171 -46.24903,34.53166c-17.34339,13.02995 -37.59179,20.6154 -35.04809,42.30128c2.5437,21.68588 -1.22849,48.74719 0,71.36543c1.22849,22.61824 -0.72264,48.60907 0,71.36543c0.72264,22.75636 -0.69374,46.58321 0,67.91227c4.50928,-16.28743 7.6889,-35.64818 11.57671,-51.78598c3.88781,-16.14931 6.24362,-34.19785 11.07086,-49.88674c4.82724,-15.68888 1.57536,-36.67262 16.01373,-45.95013c14.45282,-9.27751 30.5099,-17.59964 45.59865,-24.69014c15.1032,-7.07899 31.40598,-23.52757 46.8994,-13.87022c15.49342,9.64584 27.99511,16.22988 43.71978,25.03545c-6.80728,-36.82226 -22.31516,-75.71642 -26.01508,-111.65237c5.56434,6.26174 12.25599,11.86738 17.34339,18.41689c4.01788,-46.80191 7.21196,-94.96207 8.67169,-142.73086c-34.41217,10.58971 -67.92826,24.39086 -102.61503,34.53166c13.68682,-10.44007 29.54157,-18.37084 44.47133,-27.89007c14.92976,-9.51923 37.82303,-16.87447 32.43213,-32.85112c-5.3909,-15.97665 -8.7006,-31.27417 -18.62969,-45.52424c-9.91464,-14.25007 -16.98206,-27.51022 -29.72945,-39.63084c-12.74739,-12.12061 -25.24908,-21.84703 -40.4679,-31.07849c-15.20437,-9.23146 -30.74115,-17.64568 -48.77827,-23.30887c-13.83135,28.05122 -32.14307,55.06649 -46.24903,82.87598c8.03577,-39.90709 26.86779,-81.26451 37.57733,-122.01187c-28.35643,-24.35633 -59.83468,-48.4249 -86.71693,-73.66754c-32.66338,21.76646 -59.80577,50.16299 -91.05277,73.66754c13.10871,41.15023 26.80998,82.16233 40.4679,123.16292c-18.12384,-26.72751 -33.37156,-55.99884 -49.13959,-84.02704c-75.99293,26.24406 -131.11599,87.15791 -140.19236,151.93931c27.12794,15.48169 56.46717,32.13747 80.9358,49.49538c-34.84575,-11.32638 -68.93996,-24.71316 -104.06031,-35.68272c3.3097,47.50405 2.86166,96.44693 10.11697,142.73086c4.13351,-7.07899 11.77905,-12.90333 17.34339,-19.56794c-2.58705,26.02536 -14.22158,53.25933 -18.78867,80.57387c9.95799,-6.84878 27.04123,-9.50772 36.13205,-17.26583z"/>
   </g>
   <g stroke="None" id="svg_101" fill-opacity="0.99" fill="#EF5223">
    <path stroke="null" id="svg_102" d="m932.10082,244.11477c-76.45542,10.5782 -149.77458,30.50297 -222.57344,50.64644c-2.06675,6.89482 -5.81003,13.42131 -5.78113,20.719c20.63863,8.86313 41.00265,-4.62724 62.04596,-9.28902c21.02885,-4.67328 41.98544,-11.85587 63.59241,-16.11477c21.59251,-4.27042 44.21118,-11.26883 66.58415,-13.73209c-2.41362,23.58512 -8.51271,47.46952 -12.5306,70.59422c-4.01788,23.1247 -10.11697,45.97315 -14.95867,68.66045c-4.85615,22.67579 -16.85199,44.08542 -8.64279,66.78423c8.87403,-2.30211 16.83754,-6.73367 26.01508,-8.05739c20.16169,-75.77397 37.95311,-152.05441 46.24903,-230.21107z"/>
   </g>
   <g stroke="None" id="svg_103" fill-opacity="0.99" fill="#EF5223">
    <path stroke="null" id="svg_104" d="m361.2144,439.79418c-12.63177,4.77688 -23.99168,12.59255 -36.01643,18.50897c-12.02475,5.91642 -23.41357,13.00693 -35.16371,19.18809c-11.7646,6.16966 -21.95383,12.90333 -33.31375,19.51039c-11.37437,6.59555 -22.73429,13.23714 -33.92077,20.178c-11.18648,6.94086 -21.10112,13.17958 -32.48994,20.16649c-11.37437,6.99842 -20.08942,14.46877 -31.79621,21.87005c-11.70678,7.38978 3.3386,17.64568 10.83962,26.47427c7.48656,8.82859 17.03988,18.37084 25.29244,27.0498c8.25256,8.67896 16.82308,17.24281 25.29244,25.89875c8.4549,8.65594 18.94765,16.64426 27.46036,25.32322c8.51271,8.67896 18.38399,15.64284 27.46036,24.17216c9.06192,8.54083 18.91874,15.76946 28.90564,24.17216c9.97245,8.41421 19.43904,22.18084 25.75493,7.27467c6.33034,-14.89466 2.08121,-22.58371 -11.30211,-31.44683c-13.38331,-8.86313 -17.01097,-15.12487 -28.183,-23.59663c-11.15758,-8.47177 -17.28557,-16.95505 -27.46036,-25.32322c-10.17479,-8.37968 -16.77973,-16.72483 -26.01508,-25.32322c-9.2209,-8.59838 -17.56018,-17.58813 -26.01508,-26.47427c-8.4549,-8.89766 -21.7515,-18.18667 -7.94905,-25.32322c13.78799,-7.13654 20.68199,-14.00834 33.24149,-20.719c12.54505,-6.71065 20.37848,-13.75511 32.54775,-20.12045c12.16928,-6.36534 22.12727,-13.42131 34.00749,-20.10894c11.88022,-6.67612 30.10523,-11.8904 24.13621,-26.81959c9.64003,6.51497 25.30689,5.1222 26.04398,-5.73226c0.75155,-10.84294 7.54437,-18.27876 8.64279,-28.7994z"/>
   </g>
   <g stroke="None" id="svg_105" fill-opacity="0.71" fill="#1E1F1F">
    <path stroke="null" id="svg_106" d="m388.67476,681.5158c5.28973,-4.51214 2.89056,-14.33064 2.89056,-20.719c-0.53475,4.40854 0.56366,16.58671 -2.89056,20.719z"/>
   </g>
   <g stroke="None" id="svg_107" fill-opacity="0.96" fill="#E7E7E6">
    <path stroke="null" id="svg_108" d="m391.56532,697.63058c-16.64965,10.4746 -32.72119,22.37652 -47.69431,34.53166c18.83203,14.12345 32.5333,32.18351 52.03016,46.04221c-3.64211,-26.42823 -4.84169,-53.31688 -4.33585,-80.57387z"/>
   </g>
   <g stroke="None" id="svg_109" fill-opacity="0.91" fill="#CBA32C">
    <path stroke="null" id="svg_110" d="m763.00282,742.52173c-5.23192,1.77263 -9.19199,5.11069 -14.45282,6.90633c52.49265,52.03921 108.75748,103.27269 163.31688,154.24142c-32.15753,-61.85771 -95.80775,-109.01645 -148.86406,-161.14775z"/>
   </g>
   <g stroke="None" id="svg_111" fill-opacity="0.99" fill="#EF5223">
    <path stroke="null" id="svg_112" d="m656.05195,905.97159c-41.81201,-18.67012 -80.48776,-42.26675 -119.95841,-64.4591c-2.5726,14.58387 -1.7777,33.56477 14.88641,39.94162c16.67856,6.36534 22.93663,14.20402 37.57733,20.719c14.65516,6.50346 24.41081,13.68605 38.47341,20.00534c14.06259,6.31929 25.59595,13.82417 40.58352,18.3248c9.64003,-14.98674 21.39017,-29.38644 30.35092,-44.89116c-7.92015,-1.65752 -16.67856,-0.64459 -24.5698,-2.30211c-0.82381,-4.42005 1.71989,-10.2559 -1.44528,-13.81266c-3.69992,9.32355 -11.46109,17.51906 -15.8981,26.47427z"/>
   </g>
   <g stroke="None" id="svg_113" fill-opacity="0.93" fill="#000000">
    <path stroke="null" id="svg_114" d="m205.12393,950.86275c-18.78867,0 -37.57733,0 -56.366,0c-1.14177,4.22437 -3.26634,5.1222 -4.33585,9.20844c12.0392,0 24.09285,0 36.13205,0c-3.17962,9.18542 1.57536,18.9809 -7.22641,25.32322c11.88022,0.58704 3.07845,16.04571 5.78113,23.02111c8.67169,0 17.34339,0 26.01508,0c0.72264,-6.07757 -0.59257,-19.3032 -0.83826,-24.4369c-0.23125,-5.13371 10.7529,-7.5279 -0.60702,-8.9437c0,-4.60422 0,-9.20844 0,-13.81266c13.68682,-1.20861 35.95862,5.17975 37.57733,-10.3595c-10.59392,0 -21.20229,0 -31.79621,0c-1.14177,4.22437 -3.26634,5.1222 -4.33585,9.20844c-2.71713,-1.95679 -1.7777,-6.75669 0,-9.20844z"/>
   </g>
   <g stroke="None" id="svg_115" fill-opacity="0.94" fill="#000000">
    <path stroke="null" id="svg_116" d="m271.60691,950.86275c-8.19475,0 -16.37505,0 -24.5698,0c-1.14177,4.22437 -3.26634,5.1222 -4.33585,9.20844c13.38331,4.77688 2.02339,18.37084 -1.44528,25.32322c12.87746,-3.51072 6.4026,13.70907 5.78113,19.56794c14.03369,6.89482 37.6496,1.95679 56.366,3.45317c0.73709,-4.01718 4.16241,-7.24014 5.78113,-10.3595c-12.89192,0.71365 -26.73772,-1.46184 -39.02262,1.15106c-7.00962,-16.33348 13.0509,-17.54208 27.46036,-13.81266c0,-3.45317 0,-6.90633 0,-10.3595c-7.22641,0 -14.45282,0 -21.67923,0c0.75155,2.86613 -1.41638,5.84736 -4.33585,6.90633c0,-6.90633 0,-13.81266 0,-20.719c10.59392,0 21.20229,0 31.79621,0c-0.89607,-4.29344 3.17962,-5.74377 5.78113,-10.3595c-11.08531,0 -22.15617,0 -33.24149,0c1.35857,4.98407 -6.37369,10.08324 -4.33585,0z"/>
   </g>
   <g stroke="None" id="svg_117" fill-opacity="0.98" fill="#000000">
    <path stroke="null" id="svg_118" d="m335.19932,984.24336c-0.96834,-8.17249 -5.1163,-22.72183 7.22641,-24.17216c12.34271,-1.43882 24.65651,1.79565 18.78867,14.96372c-6.74947,0 -13.48448,0 -20.23395,0c0.92498,3.269 -1.90777,5.16824 -4.33585,8.05739c7.48656,2.48628 16.46176,0.52949 24.5698,1.15106c-3.22298,7.48186 -0.59257,16.19535 -1.44528,24.17216c8.19475,0 16.37505,0 24.5698,0c0.11562,-17.49604 -0.15898,-36.25824 0,-52.94855c-8.25256,-5.82434 -22.73429,-3.43014 -36.13205,-3.45317c-13.39776,-0.01151 -28.00957,-2.32513 -36.13205,3.45317c4.40811,11.93644 0.07226,21.09884 -5.78113,29.92744c11.88022,0.58704 3.064,16.04571 5.78113,23.02111c8.19475,0 16.37505,0 24.5698,0c0.88162,-8.10343 -0.54921,-16.50613 -1.44528,-24.17216z"/>
   </g>
   <g stroke="None" id="svg_119" fill-opacity="0.96" fill="#000000">
    <path stroke="null" id="svg_120" d="m419.02568,950.86275c-8.67169,0 -17.34339,0 -26.01508,0c-1.70543,4.16682 -2.38472,6.06606 -5.78113,9.20844c10.13143,2.57836 4.78388,13.8472 5.78113,21.87005c0.99724,8.02286 -0.75155,18.24423 0,26.47427c7.70335,0 15.42116,0 23.12451,0c0,-9.97965 0,-19.94779 0,-29.92744c7.89124,8.71349 14.71297,19.62549 18.78867,29.92744c13.51339,1.43882 14.20712,-8.43724 18.51406,-13.5249c4.30694,-5.07615 4.91396,-10.39403 8.9463,-16.40254c3.36751,8.84011 0.4914,20.14347 1.44528,29.92744c8.19475,0 16.37505,0 24.5698,0c0,-19.18809 0,-38.36467 0,-57.55277c-8.80177,1.88773 -20.07497,1.88773 -28.90564,0c-5.37645,11.46451 -13.35441,26.76204 -21.67923,33.3806c-3.71437,-12.02853 -13.67237,-21.0528 -18.78867,-33.3806z"/>
   </g>
   <g stroke="None" id="svg_121" fill-opacity="0.96" fill="#000000">
    <path stroke="null" id="svg_122" d="m562.10861,950.86275c-10.95524,-0.6561 -17.9504,0.33381 -24.5698,4.60422c5.98347,13.11052 -3.55539,38.46827 2.61596,49.20762c6.1569,10.73935 38.6902,-0.35683 53.75004,3.74093c1.37302,-4.6848 3.55539,-6.03153 5.78113,-10.3595c-12.5306,0 -25.04674,0 -37.57733,0c0,-15.73493 0,-31.45834 0,-47.19327z"/>
   </g>
   <g stroke="None" id="svg_123" fill-opacity="0.91" fill="#000000">
    <path stroke="null" id="svg_124" d="m599.68594,950.86275c-12.74739,1.66903 -35.03364,-5.61715 -36.13205,9.20844c10.44939,-0.3223 22.32961,0.46042 31.79621,0c-1.19958,-3.9251 3.16517,-5.2373 4.33585,-9.20844z"/>
   </g>
   <g stroke="None" id="svg_125" fill-opacity="0.98" fill="#000000">
    <path stroke="null" id="svg_126" d="m625.70102,950.86275c-10.96969,-0.66761 -17.9504,0.34532 -24.5698,4.60422c2.39917,15.41263 2.39917,32.89716 0,48.34432c8.7295,6.96388 24.52644,4.3625 37.57733,4.60422c13.0509,0.24172 26.651,1.11652 34.68677,-3.45317c-0.13008,-15.45867 0,-34.05973 0,-49.49538c-9.78456,-5.53658 -43.32956,-11.08466 -46.24903,4.60422c7.70335,0 15.42116,0 23.12451,0c0,13.04146 0,26.09442 0,39.13588c-8.19475,0 -16.37505,0 -24.5698,0c0,-16.11477 0,-32.22955 0,-48.34432z"/>
   </g>
   <g stroke="None" id="svg_127" fill-opacity="0.98" fill="#000000">
    <path stroke="null" id="svg_128" d="m751.44056,953.16486c-7.90569,-1.66903 -23.25459,-1.51939 -36.13205,-1.15106c-12.87746,0.36834 -26.94006,-2.5093 -34.68677,3.45317c2.37026,7.76962 2.38472,17.53057 0,25.32322c13.65792,8.58687 31.18919,1.30069 49.13959,3.45317c0,4.99558 0,9.96814 0,14.96372c-8.19475,0 -16.37505,0 -24.5698,0c-0.37577,-3.23447 -0.75155,-5.1222 -1.44528,-8.05739c-7.51547,-1.76111 -14.27939,-2.728 -23.12451,-2.30211c-5.10185,16.70181 6.77837,21.46718 24.5698,19.56794c17.79142,-1.89924 35.79964,3.25749 47.69431,-3.45317c-0.33241,-7.99983 -0.05781,-18.53199 0,-26.47427c-9.75565,-5.60564 -27.9373,-2.71649 -43.35846,-3.45317c0.75155,2.86613 -1.43083,5.84736 -4.33585,6.90633c0,-7.28618 0,-14.58387 0,-21.87005c8.19475,0 16.37505,0 24.5698,0c-3.96007,11.60264 10.69509,10.49762 23.12451,10.3595c0.14453,-6.03153 0.10117,-12.12061 -1.44528,-17.26583z"/>
   </g>
   <g stroke="None" id="svg_129" fill-opacity="0.96" fill="#000000">
    <path stroke="null" id="svg_130" d="m787.57262,950.86275c-8.67169,0 -17.34339,0 -26.01508,0c-1.70543,4.16682 -2.38472,6.06606 -5.78113,9.20844c10.13143,2.57836 4.78388,13.8472 5.78113,21.87005c0.99724,8.02286 -0.75155,18.24423 0,26.47427c7.70335,0 15.42116,0 23.12451,0c0,-9.97965 0,-19.94779 0,-29.92744c7.89124,8.725 14.72742,19.62549 18.78867,29.92744c13.51339,1.43882 14.20712,-8.43724 18.51406,-13.5249c4.30694,-5.07615 4.91396,-10.39403 8.9463,-16.40254c3.36751,8.84011 0.4914,20.14347 1.44528,29.92744c8.19475,0 16.37505,0 24.5698,0c0,-19.18809 0,-38.36467 0,-57.55277c-8.80177,1.88773 -20.07497,1.88773 -28.90564,0c-5.37645,11.46451 -13.35441,26.76204 -21.67923,33.3806c-3.71437,-12.02853 -13.67237,-21.06431 -18.78867,-33.3806z"/>
   </g>
   <g stroke="None" id="svg_131" fill-opacity="0.98" fill="#000000">
    <path stroke="null" id="svg_132" d="m887.29708,950.86275c-10.95524,-0.66761 -17.9504,0.33381 -24.5698,4.60422c2.39917,15.41263 2.39917,32.89716 0,48.34432c8.7295,6.96388 24.52644,4.3625 37.57733,4.60422c13.0509,0.24172 26.651,1.11652 34.68677,-3.45317c-0.13008,-15.45867 0,-34.05973 0,-49.49538c-9.78456,-5.53658 -43.3151,-11.08466 -46.24903,4.60422c7.70335,0 15.42116,0 23.12451,0c0,13.04146 0,26.09442 0,39.13588c-8.19475,0 -16.37505,0 -24.5698,0c0,-16.11477 0,-32.22955 0,-48.34432z"/>
   </g>
   <g stroke="None" id="svg_133" fill-opacity="0.15" fill="#000000">
    <path stroke="null" id="svg_134" d="m335.19932,984.24336c-0.02891,-0.13813 1.12732,-0.80574 1.44528,-1.15106c2.42807,-2.88915 5.26083,-4.78839 4.33585,-8.05739c6.74947,0 13.48448,0 20.23395,0c5.86785,-13.16807 -6.44596,-16.40254 -18.78867,-14.96372c-12.34271,1.45033 -8.19475,15.99967 -7.22641,24.17216z"/>
   </g>
   <g stroke="None" id="svg_135" fill-opacity="0.84" fill="#EE5222">
    <path stroke="null" id="svg_136" d="m550.54635,1039.49401c17.21331,2.12945 4.49483,-15.06731 -6.21471,-10.70481c-10.70954,4.35099 -8.33928,15.26299 0.43358,19.91326c-16.72191,0.14964 -3.98898,18.5435 8.33928,13.54792c12.32826,-4.99558 5.33309,-17.47302 -2.55815,-22.75636z"/>
   </g>
   <g stroke="None" id="svg_137" fill-opacity="0.84" fill="#EE5222">
    <path stroke="null" id="svg_138" d="m926.3197,1039.49401c17.21331,2.12945 4.49483,-15.06731 -6.21471,-10.70481c-10.70954,4.35099 -8.33928,15.26299 0.43358,19.91326c-16.72191,0.14964 -3.98898,18.5435 8.33928,13.54792c12.32826,-4.99558 5.33309,-17.47302 -2.55815,-22.75636z"/>
   </g>
   <g stroke="None" id="svg_139" fill-opacity="0.84" fill="#F05322">
    <path stroke="null" id="svg_140" d="m426.25209,1029.13451c-6.74947,0 -13.48448,0 -20.23395,0c0.21679,2.70498 -1.45973,8.21854 4.33585,6.90633c2.86166,6.12361 -6.30143,26.45125 5.76668,26.46276c12.06811,0.01151 2.97728,-20.32764 5.79558,-26.46276c5.89675,1.12803 4.16241,-4.07474 4.33585,-6.90633z"/>
   </g>
   <g stroke="None" id="svg_141" fill-opacity="0.84" fill="#F05322">
    <path stroke="null" id="svg_142" d="m453.71245,1029.13451c-6.25807,0 -12.5306,0 -18.78867,0c3.51204,9.85303 -4.85615,22.37652 0.37577,31.93028c5.21747,9.56527 33.53054,-8.44875 11.18648,-6.60706c-3.3386,-7.59697 11.07086,-4.54667 7.22641,-12.66161c-3.67102,-1.46184 -9.23535,-0.88631 -7.22641,-5.75528c6.70611,1.5309 8.44045,-2.38268 7.22641,-6.90633z"/>
   </g>
   <g stroke="None" id="svg_143" fill-opacity="0.86" fill="#EE5222">
    <path stroke="null" id="svg_144" d="m484.06338,1029.13451c-5.78113,0 -11.56226,0 -17.34339,0c-3.67102,8.85162 0.47694,16.01118 -2.99173,25.24264c-3.46868,9.21995 10.46384,11.32638 11.66343,1.23163c-2.51479,6.60706 5.17411,7.91926 11.56226,6.90633c0.766,-11.48753 -3.65656,-21.91609 -2.89056,-33.3806z"/>
   </g>
   <g stroke="None" id="svg_145" fill-opacity="0.88" fill="#EF5322">
    <path stroke="null" id="svg_146" d="m505.74261,1061.36406c-4.09015,-3.46468 3.064,-15.33206 0,-19.56794c3.87336,5.59413 0.41913,12.66161 2.89056,18.41689c4.19132,1.23163 3.22298,3.0503 8.67169,0c-3.07845,-4.7999 -0.10117,-10.88898 0,-16.11477c3.23743,4.70782 0.57811,11.69472 1.44528,17.26583c18.97655,3.97114 6.60494,-22.65277 10.11697,-32.22955c-8.57052,-0.44891 -17.83478,-1.24314 -17.34339,6.90633c3.3097,-8.60989 -7.32758,-7.06748 -14.45282,-6.90633c1.35857,6.35383 -5.49207,38.65244 8.67169,32.22955z"/>
   </g>
   <g stroke="None" id="svg_147" fill-opacity="0.87" fill="#E74F21">
    <path stroke="null" id="svg_148" d="m583.78784,1029.13451c-0.85272,8.49479 1.12732,19.37226 0,27.62533c-1.12732,8.25307 16.53403,8.31062 21.30346,2.00284c4.76943,-6.30778 -1.63317,-14.19251 1.8066,-21.55927c3.45422,-7.36675 -16.80863,-10.29043 -23.11006,-8.0689z"/>
   </g>
   <g stroke="None" id="svg_149" fill-opacity="0.89" fill="#EF5222">
    <path stroke="null" id="svg_150" d="m627.1463,1029.13451c1.0117,8.74802 -0.75155,17.70323 0,26.47427c-3.32415,-7.78113 -0.5203,-17.82985 -1.44528,-26.47427c-3.36751,0 -6.74947,0 -10.11697,0c3.0929,9.99116 -8.57052,33.36909 11.5478,33.36909c20.11833,0 8.52716,-23.35491 11.57671,-33.36909c-3.8589,0 -7.70335,0 -11.56226,0z"/>
   </g>
   <g stroke="None" id="svg_151" fill-opacity="0.07" fill="#F0591E">
    <path stroke="null" id="svg_152" d="m627.1463,1029.13451c0,0 -0.72264,0.05755 -1.44528,0c0.92498,8.64443 -1.87887,18.69314 1.44528,26.47427c-0.75155,-8.77104 1.0117,-17.72625 0,-26.47427z"/>
   </g>
   <g stroke="None" id="svg_153" fill-opacity="0.82" fill="#F05322">
    <path stroke="null" id="svg_154" d="m660.38779,1029.13451c-3.8589,0 -7.70335,0 -11.56226,0c3.22298,6.71065 -6.82173,33.35758 5.76668,33.36909c12.60286,0.02302 2.60151,-26.65844 5.79558,-33.36909z"/>
   </g>
   <g stroke="None" id="svg_155" fill-opacity="0.83" fill="#F05322">
    <path stroke="null" id="svg_156" d="m680.62174,1029.13451c-3.8589,0 -7.70335,0 -11.56226,0c2.8183,12.50046 -9.9869,39.19343 17.34339,33.3806c1.71989,-2.52081 1.79215,-5.42147 2.89056,-8.05739c-16.37505,1.70356 -5.57879,-17.28885 -8.67169,-25.32322z"/>
   </g>
   <g stroke="None" id="svg_157" fill-opacity="0.91" fill="#EF5322">
    <path stroke="null" id="svg_158" d="m697.96513,1029.13451c-1.40192,8.59838 1.86441,17.95646 0,26.47427c-1.86441,8.51781 13.5712,9.87605 19.87263,4.31646c6.28698,-5.57111 2.67377,-16.08024 3.22298,-23.84987c0.53475,-7.78113 -15.99927,-7.83869 -23.09561,-6.94086m11.56226,26.47427c-2.34136,-5.28334 -2.45698,-14.36517 0,-19.56794c2.47143,5.42147 2.26909,13.77813 0,19.56794z"/>
   </g>
   <g stroke="None" id="svg_159" fill-opacity="0.91" fill="#EF5322">
    <path stroke="null" id="svg_160" d="m745.65943,1029.13451c-1.40192,8.59838 1.86441,17.95646 0,26.47427c-1.86441,8.51781 13.5712,9.87605 19.87263,4.31646c6.28698,-5.57111 2.67377,-16.08024 3.22298,-23.84987c0.53475,-7.78113 -15.99927,-7.83869 -23.09561,-6.94086m11.56226,26.47427c-2.34136,-5.28334 -2.45698,-14.36517 0,-19.56794c2.47143,5.40996 2.26909,13.77813 0,19.56794z"/>
   </g>
   <g stroke="None" id="svg_161" fill-opacity="0.87" fill="#F05322">
    <path stroke="null" id="svg_162" d="m790.46318,1048.70246c-6.96626,7.36675 8.62833,20.29311 11.56226,10.3595c2.93392,-9.93361 -3.61321,-12.69614 0,-21.87005c3.61321,-9.17391 -16.49067,-8.98974 -23.12451,-8.05739c3.98898,10.22137 -9.53886,33.97915 10.11697,33.3806c0.82381,-4.42005 -1.71989,-10.2559 1.44528,-13.81266z"/>
   </g>
   <g stroke="None" id="svg_163" fill-opacity="0.84" fill="#F05322">
    <path stroke="null" id="svg_164" d="m829.4858,1029.13451c-6.25807,0 -12.5306,0 -18.78867,0c3.51204,9.86454 -4.85615,22.36501 0.37577,31.93028c5.21747,9.56527 33.53054,-8.44875 11.18648,-6.60706c-3.3386,-7.59697 11.07086,-4.54667 7.22641,-12.66161c-3.67102,-1.46184 -9.23535,-0.8748 -7.22641,-5.75528c6.70611,1.5309 8.44045,-2.38268 7.22641,-6.90633z"/>
   </g>
   <g stroke="None" id="svg_165" fill-opacity="0.86" fill="#EE5222">
    <path stroke="null" id="svg_166" d="m859.83672,1029.13451c-5.78113,0 -11.56226,0 -17.34339,0c-3.67102,8.85162 0.47694,16.01118 -2.99173,25.24264c-3.46868,9.21995 10.46384,11.32638 11.66343,1.23163c-2.51479,6.60706 5.17411,7.91926 11.56226,6.90633c0.766,-11.48753 -3.65656,-21.91609 -2.89056,-33.3806z"/>
   </g>
   <g stroke="None" id="svg_167" fill-opacity="0.88" fill="#EF5322">
    <path stroke="null" id="svg_168" d="m881.51595,1061.36406c-4.09015,-3.46468 3.064,-15.33206 0,-19.56794c3.87336,5.59413 0.41913,12.67312 2.89056,18.41689c4.19132,1.23163 3.22298,3.0503 8.67169,0c-3.07845,-4.7999 -0.10117,-10.88898 0,-16.11477c3.23743,4.70782 0.57811,11.69472 1.44528,17.26583c18.97655,3.97114 6.60494,-22.65277 10.11697,-32.22955c-8.57052,-0.44891 -17.83478,-1.23163 -17.34339,6.90633c3.3097,-8.60989 -7.32758,-7.05597 -14.45282,-6.90633c1.35857,6.35383 -5.49207,38.65244 8.67169,32.22955z"/>
   </g>
   <g stroke="None" id="svg_169" fill-opacity="0.07" fill="#F0591E">
    <path stroke="null" id="svg_170" d="m709.52738,1055.60879c2.26909,-5.78981 2.47143,-14.14647 0,-19.56794c-2.45698,5.20277 -2.34136,14.2846 0,19.56794z"/>
   </g>
   <g stroke="None" id="svg_171" fill-opacity="0.07" fill="#F0591E">
    <path stroke="null" id="svg_172" d="m757.22169,1055.60879c2.26909,-5.78981 2.47143,-14.15798 0,-19.56794c-2.45698,5.20277 -2.34136,14.2846 0,19.56794z"/>
   </g>
   <g stroke="None" id="svg_173" fill-opacity="0.43" fill="#F05321">
    <path stroke="null" id="svg_174" d="m505.74261,1061.36406c0.15898,-0.08057 2.77494,-1.18559 2.89056,-1.15106c-2.47143,-5.75528 0.98279,-12.82276 -2.89056,-18.41689c3.064,4.23588 -4.09015,16.10326 0,19.56794z"/>
   </g>
   <g stroke="None" id="svg_175" fill-opacity="0.43" fill="#F05321">
    <path stroke="null" id="svg_176" d="m881.51595,1061.36406c0.17343,-0.08057 2.77494,-1.18559 2.89056,-1.15106c-2.47143,-5.74377 0.98279,-12.82276 -2.89056,-18.41689c3.064,4.23588 -4.09015,16.10326 0,19.56794z"/>
   </g>
   <g stroke="None" id="svg_177" fill-opacity="0.35" fill="#EF5222">
    <path stroke="null" id="svg_178" d="m517.30486,1060.21301c0.2457,0.37985 1.02615,0.89782 1.44528,1.15106c-0.86717,-5.57111 1.79215,-12.55801 -1.44528,-17.26583c-0.10117,5.22579 -3.07845,11.31487 0,16.11477z"/>
   </g>
   <g stroke="None" id="svg_179" fill-opacity="0.35" fill="#EF5222">
    <path stroke="null" id="svg_180" d="m893.07821,1060.21301c0.2457,0.37985 1.02615,0.89782 1.44528,1.15106c-0.86717,-5.57111 1.79215,-12.55801 -1.44528,-17.26583c-0.10117,5.22579 -3.07845,11.31487 0,16.11477z"/>
   </g>
  </g>
 </g>
</svg>