<svg width="1080" height="1080" xmlns="http://www.w3.org/2000/svg">

 <g>
  <title>Layer 1</title>
  <g stroke="null" id="svg_149">
   <g stroke="#000000" id="svg_1" stroke-width="0.3" stroke-opacity="0" fill-opacity="0" fill="None">
    <path stroke="null" id="svg_2" d="m-1.66675,1155.49999l1083.33349,0l0,-1231.00011l-1083.33349,0l0,1231.00011m981.77098,-782.76269c0.06771,1.75857 0,3.53037 0,5.28894c0,3.9667 0,7.93341 0,11.90011c0,11.46377 0,22.91432 0,34.37809c0,3.9667 0.08125,7.93341 0,11.90011c-0.31146,15.37758 -3.23646,27.59503 -4.04896,42.32472c-0.82604,14.72969 -3.45313,28.00492 -5.14583,41.28015c-1.67917,13.27523 -5.63333,27.72725 -8.38229,40.71159c-2.73542,12.99756 -7.40729,28.05781 -10.84688,40.97604c-3.45313,12.91823 -9.1,25.95546 -13.46042,38.42413c-4.36042,12.46867 -9.61458,25.17534 -14.95,36.96967c-5.34896,11.78111 -11.18542,23.65477 -17.33334,34.64254c-6.14792,10.98777 -11.64584,23.16554 -18.95834,33.05586c-7.3125,9.89031 -11.79479,26.68269 -23.3323,27.46281c-0.86667,10.20765 1.15104,23.12588 0,33.05586c-1.15104,9.92998 4.00833,24.76545 -4.0625,29.08915c11.03646,38.64891 2.925,82.16364 5.41667,122.96779c-26.46042,-1.46768 -57.6198,-8.06563 -83.97189,-10.56465c-26.35209,-2.51225 -61.31668,-15.81392 -82.63126,2.59158c-21.31459,18.39228 -40.35417,26.92069 -63.19897,42.76106c-22.83125,15.82714 -43.27917,20.45496 -66.42188,36.94323c-23.12917,16.50148 -51.74272,5.92361 -73.80209,-9.25564c-22.04584,-15.19247 -45.7573,-22.30609 -66.12397,-37.24734c-20.35313,-14.95447 -41.31563,-25.34723 -59.47501,-43.73951c-15.08542,2.0098 -32.79792,2.69736 -48.75001,5.28894c-4.90208,0.52889 -10.21042,1.22968 -14.89584,0c-6.48646,-1.70568 -10.8875,-5.91039 -16.25,-9.25564c-14.90938,24.36878 -46.31251,14.72969 -71.77084,19.83351c-4.59063,-0.95201 -2.70833,-14.24046 -2.70833,-21.15575c0,-23.83988 1.20521,-53.41826 0,-76.68959c-1.20521,-23.27132 3.20938,-55.52062 0,-76.68959c-3.20938,-21.16897 -22.24896,-28.82471 -29.48021,-47.90455c-7.23125,-19.07984 -19.08021,-32.03774 -26.46042,-50.85313c-7.36667,-18.82862 -15.7625,-35.36977 -22.30313,-54.91239c-6.52708,-19.55584 -11.84896,-38.10679 -16.53438,-57.90064c-4.68542,-19.78062 -9.27604,-35.89866 -11.32083,-55.12395c-2.05833,-19.21206 -7.90833,-42.74783 -6.29688,-62.54168c-0.1625,-3.63614 -2.47813,-8.8193 -2.70833,-13.22234c-0.10833,-2.19491 0,-4.41626 0,-6.61117c0,-15.43047 0,-30.84773 0,-46.2782c0,-2.19491 -0.10833,-4.41626 0,-6.61117c0.23021,-4.31048 2.55938,-9.7052 2.70833,-13.22234c-3.0875,-37.9349 9.11354,-75.94914 13.52813,-111.0809c4.41458,-35.13176 17.98334,-71.37421 25.71563,-107.1142c7.71875,-35.75321 50.37501,-37.03578 80.83022,-50.65479c30.45521,-13.61901 56.56355,-16.95104 89.93022,-25.91579c33.36667,-8.96475 68.95418,-13.06367 105.61147,-18.69639c36.67084,-5.64594 81.98126,-11.05388 123.13439,-10.48532c41.15313,0.56856 84.8521,4.98482 121.98335,10.4721c37.11771,5.50049 71.63543,9.5862 105.54377,18.59061c33.92188,8.99119 61.05938,14.61069 92.1646,26.36535c31.10521,11.76789 73.76147,19.96574 79.69272,57.05441c5.91771,37.10189 20.55625,69.99908 25.26875,106.67786c4.72604,36.66556 12.62084,74.42857 14.09688,112.72047z"/>
   </g>
   <g stroke="#F1C910" id="svg_3" stroke-width="0.3" fill-opacity="0" fill="None">
    <path stroke="null" id="svg_4" d="m102.6041,364.80389c0.46042,5.71205 -2.01771,10.27376 -2.70833,13.22234c-0.10833,2.19491 0,4.41626 0,6.61117c1.55729,14.28013 -0.69063,31.32373 1.35417,46.2782c0.29792,2.1288 1.16458,4.17826 1.35417,6.61117c0.325,4.23115 0.33854,8.99119 0,13.22234c-1.61146,19.79385 4.23854,43.32962 6.29688,62.54168c2.04479,19.22529 6.63542,35.34332 11.32083,55.12395c4.68542,19.79385 10.00729,38.34479 16.53438,57.90064c6.54063,19.54262 14.93646,36.08377 22.30313,54.91239c7.38021,18.81539 19.22917,31.77329 26.46042,50.85313c7.23125,19.07984 26.27084,26.73558 29.48021,47.90455c3.20938,21.16897 -1.20521,53.41826 0,76.68959c1.20521,23.27132 0,52.8497 0,76.68959c0.29792,3.04114 0.14896,19.42362 2.70833,21.15575c25.45834,-5.10382 56.86147,4.53526 71.77084,-19.83351c5.3625,3.34525 9.76354,7.54996 16.25,9.25564c2.74896,0.29089 11.93021,-0.07933 14.89584,0c15.95209,-2.59158 33.66459,-3.27914 48.75001,-5.28894c18.15938,18.39228 39.12188,28.78504 59.47501,43.73951c20.36667,14.94125 44.07813,22.05487 66.12397,37.24734c22.05938,15.17925 50.67292,25.75712 73.80209,9.25564c23.14271,-16.48826 43.59063,-21.11608 66.42188,-36.94323c22.8448,-15.84037 41.88438,-24.36878 63.19897,-42.76106c21.31459,-18.4055 56.27917,-5.10382 82.63126,-2.59158c26.35209,2.49902 57.51147,9.09697 83.97189,10.56465c-2.49167,-40.80415 5.61979,-84.31888 -5.41667,-122.96779c8.07083,-4.32371 2.91146,-19.15917 4.0625,-29.08915c1.15104,-9.92998 -0.86667,-22.84821 0,-33.05586c11.5375,-0.78012 16.01979,-17.57249 23.3323,-27.46281c7.3125,-9.89031 12.81042,-22.06809 18.95834,-33.05586c6.14792,-10.98777 11.98438,-22.86143 17.33334,-34.64254c5.33542,-11.79433 10.58958,-24.501 14.95,-36.96967c4.36042,-12.46867 10.00729,-25.5059 13.46042,-38.42413c3.43958,-12.91823 8.11146,-27.97848 10.84688,-40.97604c2.74896,-12.98434 6.70313,-27.43636 8.38229,-40.71159c1.69271,-13.27523 4.31979,-26.55046 5.14583,-41.28015c0.8125,-14.72969 3.7375,-26.94713 4.04896,-42.32472c-0.24375,-3.12047 -1.35417,-7.86729 -1.35417,-11.90011c0,-11.46377 0,-22.91432 0,-34.37809c0,-2.98825 -0.40625,-6.29384 0,-9.25564c-0.09479,-1.19001 -0.02708,-1.81146 -1.34063,-3.97993c-1.3,-2.16846 2.70833,-4.05926 2.69479,-3.95348c-1.47604,-38.2919 -9.37083,-76.05492 -14.09688,-112.72047c-4.7125,-36.67878 -19.35104,-69.57597 -25.26875,-106.67786c-5.93125,-37.08867 -48.58751,-45.28652 -79.69272,-57.05441c-31.10521,-11.75466 -58.24272,-17.37416 -92.1646,-26.36535c-33.90834,-9.00442 -68.42605,-13.09012 -105.54377,-18.59061c-37.13126,-5.48727 -80.83022,-9.90353 -121.98335,-10.4721c-41.15313,-0.56856 -86.46355,4.83938 -123.13439,10.48532c-36.6573,5.63272 -72.2448,9.73164 -105.61147,18.69639c-33.36667,8.96475 -59.47501,12.29678 -89.93022,25.91579c-30.45521,13.61901 -73.11147,14.90158 -80.83022,50.65479c-7.73229,35.73999 -21.30104,71.98243 -25.71563,107.1142c-4.41458,35.13176 -16.61563,73.146 -13.52813,111.0809m827.39595,59.50054c0,-11.46377 0,-22.91432 0,-34.37809c0,-25.75712 -1.31354,-56.23462 -5.41667,-80.65629c-4.10313,-24.42167 -6.825,-51.32913 -13.52813,-74.05834c-6.70313,-22.72921 -7.85417,-48.38055 -17.60417,-68.75618c-9.75,-20.36241 -40.2323,-18.92117 -59.8948,-28.78504c-19.6625,-9.85065 -45.78438,-12.548 -68.31772,-19.23851c-22.54688,-6.67728 -49.02084,-11.15966 -73.58543,-15.41725c-24.55105,-4.27082 -52.71772,-8.14496 -78.54168,-10.57787c-25.82396,-2.43291 -55.96772,-5.75172 -82.59064,-5.30216c-26.62292,0.44956 -55.3448,5.2096 -81.26355,7.92018c-25.91875,2.71058 -52.2573,6.01617 -77.17397,10.5911c-24.91667,4.57493 -48.61459,10.51176 -72.67814,16.30315c-24.07709,5.77816 -43.34688,13.42068 -66.89584,20.62685c-23.54896,7.19295 -45.71667,13.7909 -49.10209,39.32325c-3.37188,25.53234 -12.64792,45.41875 -17.14375,70.52798c-4.49583,25.10923 -9.18125,48.10288 -12.1875,74.04512c-3.01979,25.92901 -4.42813,56.31396 -4.07604,83.28754c0.35208,26.97358 2.19375,55.57351 5.11875,80.94718c2.925,25.37368 7.32604,50.61513 13.74479,73.84678c6.41875,23.23166 12.25521,44.18907 20.84063,65.59604c8.58542,21.39375 17.34688,40.26203 27.69271,60.22777c10.34583,19.95252 22.12709,35.96477 32.81146,55.22973c-11.76771,2.56513 -34.61251,-7.1004 -35.20834,9.25564c-15.47813,-22.45154 -26.59584,-42.91972 -38.95938,-67.73806c-12.36354,-24.81834 -21.54479,-48.77722 -30.55,-75.94914c-9.00521,-27.18514 -16.46667,-55.29584 -21.21979,-85.05933c-4.73958,-29.77672 -10.22396,-63.34824 -10.81979,-95.21409c-0.59583,-31.86585 1.39479,-70.56764 4.04896,-101.79882c2.65417,-31.23117 9.73646,-61.20622 14.86875,-91.26061c5.11875,-30.06761 14.96354,-55.3355 21.59896,-84.68911c6.62188,-29.36682 39.00001,-31.97162 65.39272,-43.25028c26.40625,-11.26544 54.95209,-16.62048 83.67397,-24.07789c28.70834,-7.47062 58.93334,-13.10334 89.37501,-18.51128c30.42813,-5.40794 64.35001,-8.3433 96.13231,-11.91333c31.7823,-3.57003 71.12084,-3.39814 102.91668,0c31.79584,3.39814 65.79897,6.83595 96.24064,11.80755c30.45521,4.9716 61.30313,10.37954 89.57814,18.31294c28.275,7.92018 57.57918,13.11656 83.2271,24.51422c25.63438,11.41088 59.43438,12.99756 66.48959,42.17927c7.04167,29.18171 14.44896,55.94373 20.61042,85.65434c6.14792,29.72383 12.11979,60.12199 14.89584,91.23416c2.77604,31.12539 5.2,69.98586 4.0625,101.81204c-1.1375,31.82618 -5.45729,65.75471 -10.53542,95.49176c-5.07813,29.75027 -12.10625,57.94031 -21.04375,85.23122c-8.9375,27.29092 -18.90417,50.66802 -30.61771,75.88302c-11.7,25.22823 -25.75625,44.90308 -39.36563,68.66363c-2.74896,-2.34035 -0.71771,-7.24584 -1.35417,-10.57787c-11.28021,0 -22.57396,0 -33.85417,0c63.42918,-95.35954 99.35522,-205.48843 100.20835,-321.30293m-376.45839,-245.93557c107.16877,10.12831 203.69378,73.503 236.88441,178.59418c33.17709,105.1044 -5.83646,223.24603 -100.42501,287.8504c-94.58856,64.60437 -224.92712,58.85265 -314.87088,-10.60432c-89.93022,-69.47019 -120.35835,-196.61624 -78.46043,-295.44003c41.88438,-98.83701 145.9521,-170.88556 256.87191,-160.40024m-281.66671,688.88406c0.62292,14.49169 -0.82604,24.75223 0,39.66703c0.82604,14.9148 -0.62292,20.21696 -16.26354,23.78699c-15.64063,3.58325 -20.84063,0.119 -18.94479,-15.85359c1.89583,-15.97259 -0.86667,-25.34723 0,-39.66703c0.86667,-14.3198 -0.40625,-26.25957 0,-39.66703c0.40625,-13.40746 -0.21667,-27.05291 0,-39.66703c0.21667,-12.61411 -4.31979,-30.42461 10.83333,-29.08915c15.15313,1.33546 26.77188,-1.08423 40.62501,0c13.85313,1.08423 27.20521,-2.85603 38.85105,3.05436c11.65938,5.89716 13.10834,14.09502 13.96146,26.03479c0.85313,11.93978 -1.69271,27.42314 0,39.66703c1.69271,12.24389 -9.5875,17.0436 -14.58438,25.42657c-4.99688,8.38297 7.19063,25.42657 6.43229,32.77819c-0.77188,7.36484 14.36771,27.40992 1.34063,27.70081c-13.01354,0.30411 -23.0073,8.7003 -30.8073,-6.8624c-7.78646,-15.5627 -3.69688,-55.3355 -31.44375,-47.30954m90.72918,50.2449c-0.12188,-11.25221 0.1625,-21.71109 0,-33.05586c-0.1625,-11.33155 0.29792,-21.4202 0,-33.05586c-0.29792,-11.63566 0.65,-20.71941 0,-33.05586c-0.65,-12.33645 1.36771,-20.73263 0,-34.37809c-1.36771,-13.64546 1.38125,-17.42705 16.25,-17.18905c14.86875,0.238 19.06667,2.07591 17.60417,15.86681c-1.4625,13.7909 0.90729,20.98386 0,33.05586c-0.90729,12.072 0.975,23.31099 0,34.37809c-0.975,11.0671 1.74688,23.24488 0,33.05586c-1.74688,9.81098 4.48229,24.39522 -1.70625,31.38984c-6.175,7.00784 -24.09063,-0.33056 -32.14792,2.98825m109.68752,-56.85607c4.59063,-13.68512 8.84271,-24.88445 12.09271,-39.75958c3.25,-14.88836 8.38229,-24.56711 10.91458,-40.90993c2.53229,-16.32959 24.5375,-14.38591 39.28438,-13.20912c-5.45729,21.72431 -13.13542,42.80072 -17.59063,64.8027c-4.45521,22.00198 -15.50521,41.33304 -18.67396,63.74491c-3.15521,22.41187 -47.08438,25.73068 -52.81251,3.38492c-5.71458,-22.35898 -10.71146,-43.36928 -16.99479,-65.38448c-6.26979,-22.02842 -13.29792,-43.84529 -17.15729,-66.54805c14.84167,-1.53379 34.74792,-2.43291 37.82188,13.3149c3.07396,15.76103 7.62396,26.23313 10.91458,40.90993c3.29063,14.6768 8.30104,25.45301 12.20104,39.65381m69.06251,48.92267c-3.80521,0.70078 -21.62604,4.33693 -24.375,0c-2.36979,-3.7287 5.13229,-12.91823 5.32188,-18.60384c0.17604,-5.69883 4.00833,-12.89178 5.48438,-19.7674c1.4625,-6.88884 3.10104,-11.51666 5.41667,-19.83351c2.30208,-8.33008 2.23438,-8.79286 5.41667,-19.83351c3.16875,-11.05388 7.71875,-27.2248 10.83333,-38.34479c3.10104,-11.13321 2.95208,-10.86877 5.41667,-19.83351c2.45104,-8.97797 11.88959,-7.11362 18.98542,-6.58473c7.09583,0.52889 16.76459,-2.88247 23.11563,1.22968c6.36458,4.11215 7.20417,7.60285 9.28958,16.05192c2.08542,8.4623 2.65417,8.25074 5.41667,19.83351c2.74896,11.59599 7.19063,26.96036 10.63021,38.54313c3.43958,11.58277 2.07188,7.76152 5.41667,19.83351c3.34479,12.072 7.06875,27.89914 10.83333,39.66703c3.75104,11.76789 -0.62292,10.00931 -9.47917,11.31833c-8.86979,1.29579 -11.40209,0.40989 -21.46354,-3.58325c-10.075,-3.97993 -21.84271,-13.39423 -29.35834,-21.57886c-7.51563,-8.18463 -7.61042,-5.18316 -12.52604,-12.89178c10.38646,0 20.75938,0 31.14584,0c-6.14792,-21.39375 -9.99375,-44.28163 -17.60417,-64.78948c-8.46354,15.12636 -8.04375,37.08867 -14.86875,52.91582c-6.81146,15.84037 -2.88438,42.32472 -23.04792,46.25175m143.54169,-141.47907c6.83854,4.72038 1.81458,20.64008 2.70833,30.41139c0.89375,9.77131 0.325,23.48288 0,34.37809c-0.325,10.89521 1.93646,21.14253 0,33.05586c-1.93646,11.91333 1.81458,21.52597 13.83959,20.86486c12.03854,-0.66112 21.65313,-1.30901 27.82813,5.88394c6.175,7.20618 1.92292,19.7674 7.08229,27.46281c-27.20521,-3.43781 -56.21147,-3.35848 -82.60418,-7.93341c-6.51354,-6.35995 0.29792,-24.64645 -1.35417,-34.37809c-1.65208,-9.73164 0.12188,-26.52402 0,-37.02256c-0.12188,-10.49854 -1.50313,-25.5059 0,-35.70033c1.50313,-10.19443 -4.55,-27.8727 1.35417,-35.70033c0.29792,-0.39667 0.94792,-1.03134 1.35417,-1.32223c4.29271,-3.09403 25.55313,-2.92214 29.79167,0m90.72918,101.81204c3.64271,3.35848 0.41979,12.48189 1.35417,17.18905c2.7625,8.1053 23.6573,10.57787 28.4375,3.9667c1.05625,-2.14202 1.16458,-11.34477 1.35417,-13.22234c0,-15.54948 -5.38958,-20.46819 -20.3125,-19.83351c-14.92292,0.63467 -23.31875,0 -33.9625,-6.50539c-10.64375,-6.50539 -12.07917,-17.1626 -12.07917,-27.8727c0,-10.61754 -0.05417,-22.12098 1.35417,-31.73362c0.79896,-20.52108 16.64271,-26.69591 36.56251,-25.12245c19.91979,1.57346 43.40105,-1.17679 63.64584,0c0,15.86681 0,31.73362 0,47.60043c-7.67813,-3.71548 -28.99271,5.14349 -32.90625,-4.89227c-3.9,-10.03576 -15.20729,-13.0769 -25.62084,-9.9432c-10.41354,3.1337 -11.19896,18.55095 -2.74896,24.42167c8.46354,5.8575 24.02292,1.8908 34.19271,3.63614c10.16979,1.74535 19.52709,4.36337 24.26667,14.65036c4.75313,10.27376 3.48021,20.74586 4.17083,32.95008c0.69063,12.20422 -1.93646,24.01177 0,37.02256c1.93646,13.01079 -1.09688,24.10433 -14.89584,19.83351c-13.79896,-4.27082 -22.05938,-2.63125 -34.15209,-4.99805c-12.09271,-2.3668 -22.28959,-2.28747 -32.5,-5.28894c-10.21042,-3.00147 -15.35625,-10.4721 -18.61979,-18.84184c-3.27708,-8.35652 -6.0125,-24.88445 -1.39479,-33.01619c4.61771,-8.13174 26.40625,1.93046 33.85417,0m-89.37501,66.11171c-10.33229,11.74144 -24.80834,17.83694 -38.02501,27.66114c-13.21667,9.8242 -28.00417,15.5627 -41.97917,25.12245c-13.96146,9.57298 -28.77605,13.56612 -43.33334,23.80022c-14.54375,10.24732 -30.23855,10.76299 -44.89063,0.40989c-14.63854,-10.35309 -29.33125,-14.13468 -43.36042,-23.77377c-14.02917,-9.65231 -28.74896,-15.08669 -41.95209,-25.1489c-13.20313,-10.0622 -28.55938,-16.18415 -38.95938,-28.07103c6.14792,-2.53869 14.7875,0.84623 20.61042,-2.35358c5.82292,-3.19981 0.63646,-15.57592 2.41042,-21.44664c14.02917,6.06906 26.29792,19.23851 40.28646,25.45301c13.98854,6.22772 27.81459,19.09306 41.91146,23.86633c14.08334,4.78649 28.30209,24.58034 43.73959,22.08131c15.4375,-2.49902 26.7448,-18.32617 42.08751,-23.69444c15.32917,-5.38149 25.2823,-17.69149 41.46459,-24.30267c16.16875,-6.62439 41.70834,1.11068 59.98959,0.39667z"/>
   </g>
   <g stroke="#DF2225" id="svg_5" stroke-width="0.3" fill-opacity="0" fill="None">
    <path stroke="null" id="svg_6" d="m930.00006,389.92634c1.06979,10.81588 1.06979,23.65477 0,34.37809c-0.85313,115.8145 -36.77917,225.94339 -100.20835,321.30293c11.28021,0 22.57396,0 33.85417,0c0.63646,3.33203 -1.39479,8.23752 1.35417,10.57787c13.60938,-23.76055 27.66563,-43.4354 39.36563,-68.66363c11.71354,-25.21501 21.68021,-48.59211 30.61771,-75.88302c8.9375,-27.29092 15.96563,-55.48095 21.04375,-85.23122c5.07813,-29.73705 9.39792,-63.66558 10.53542,-95.49176c1.1375,-31.82618 -1.28646,-70.68664 -4.0625,-101.81204c-2.77604,-31.11217 -8.74792,-61.51034 -14.89584,-91.23416c-6.16146,-29.7106 -13.56875,-56.47263 -20.61042,-85.65434c-7.05521,-29.18171 -40.85521,-30.76839 -66.48959,-42.17927c-25.64792,-11.39766 -54.95209,-16.59404 -83.2271,-24.51422c-28.275,-7.93341 -59.12293,-13.34134 -89.57814,-18.31294c-30.44167,-4.9716 -64.4448,-8.40941 -96.24064,-11.80755c-31.79584,-3.39814 -71.13439,-3.57003 -102.91668,0c-31.7823,3.57003 -65.70418,6.50539 -96.13231,11.91333c-30.44167,5.40794 -60.66668,11.04066 -89.37501,18.51128c-28.72188,7.4574 -57.26772,12.81245 -83.67397,24.07789c-26.39271,11.27866 -58.77084,13.88346 -65.39272,43.25028c-6.63542,29.3536 -16.48021,54.6215 -21.59896,84.68911c-5.13229,30.05439 -12.21459,60.02944 -14.86875,91.26061c-2.65417,31.23117 -4.64479,69.93297 -4.04896,101.79882c0.59583,31.86585 6.08021,65.43737 10.81979,95.21409c4.75313,29.76349 12.21459,57.87419 21.21979,85.05933c9.00521,27.17191 18.18646,51.1308 30.55,75.94914c12.36354,24.81834 23.48125,45.28652 38.95938,67.73806c0.59583,-16.35604 23.44063,-6.69051 35.20834,-9.25564c-10.68438,-19.26495 -22.46563,-35.27721 -32.81146,-55.22973c-10.34583,-19.96574 -19.10729,-38.83402 -27.69271,-60.22777c-8.58542,-21.40697 -14.42188,-42.36439 -20.84063,-65.59604c-6.41875,-23.23166 -10.81979,-48.47311 -13.74479,-73.84678c-2.925,-25.37368 -4.76667,-53.9736 -5.11875,-80.94718c-0.35208,-26.97358 1.05625,-57.35852 4.07604,-83.28754c3.00625,-25.94224 7.69167,-48.93589 12.1875,-74.04512c4.49583,-25.10923 13.77188,-44.99563 17.14375,-70.52798c3.38542,-25.53234 25.55313,-32.13029 49.10209,-39.32325c23.54896,-7.20618 42.81876,-14.84869 66.89584,-20.62685c24.06355,-5.79139 47.76147,-11.72822 72.67814,-16.30315c24.91667,-4.57493 51.25522,-7.88052 77.17397,-10.5911c25.91875,-2.71058 54.64063,-7.47062 81.26355,-7.92018c26.62292,-0.44956 56.76667,2.86925 82.59064,5.30216c25.82396,2.43291 53.99063,6.30706 78.54168,10.57787c24.56459,4.25759 51.03855,8.73997 73.58543,15.41725c22.53334,6.69051 48.65522,9.38786 68.31772,19.23851c19.6625,9.86387 50.1448,8.42263 59.8948,28.78504c9.75,20.37563 10.90104,46.02698 17.60417,68.75618c6.70313,22.72921 9.425,49.63667 13.52813,74.05834c4.10313,24.42167 5.41667,54.89917 5.41667,80.65629z"/>
   </g>
   <g stroke="#DF2125" id="svg_7" stroke-width="0.3" fill-opacity="0" fill="None">
    <path stroke="null" id="svg_8" d="m553.54167,178.36886c-110.91981,-10.48532 -214.98753,61.56323 -256.87191,160.40024c-41.89792,98.82379 -11.46979,225.96984 78.46043,295.44003c89.94376,69.45697 220.28232,75.20869 314.87088,10.60432c94.58856,-64.60437 133.6021,-182.746 100.42501,-287.8504c-33.19063,-105.09118 -129.71564,-168.46587 -236.88441,-178.59418m-13.54167,107.10098c-1.17813,-11.953 -3.65625,-29.2346 0,-40.98926c2.89792,-9.32175 15.69479,-7.16651 14.89584,-18.51128c-0.79896,-11.34477 0.59583,-21.79042 0,-33.05586c115.7271,2.98825 219.60524,99.96091 231.56253,211.55748c-13.75834,-13.47357 -29.72396,-24.10433 -43.33334,-37.02256c-12.11979,6.69051 -16.92709,22.27965 -28.4375,30.41139c26.10834,-60.90211 4.48229,-137.8297 -56.87501,-170.56822c0.18958,21.79042 -6.73021,44.71796 -18.85,62.25079c-12.11979,17.53283 -27.81459,25.78357 -44.38959,37.31345c-16.56146,11.52988 -39.81251,12.57445 -54.16667,27.76692c-14.35417,15.20569 -25.1875,27.88592 -33.3125,48.12933c-8.125,20.23018 -30.0625,23.74733 -48.64167,33.16164c-18.59271,9.40109 -41.92501,9.78453 -56.91563,26.40502c-14.99063,16.63371 6.9875,35.66066 22.95313,48.32766c15.96563,12.68023 44.20001,7.64251 64.35001,-0.10578c20.15,-7.73507 45.13438,-11.14643 67.41043,-14.83547c22.27604,-3.68903 52.28438,0.02644 73.15209,6.58473c20.88125,6.54506 36.64376,18.11461 55.49376,27.79336c4.07604,-11.33155 6.18854,-23.20521 10.83333,-34.37809c11.29375,10.51176 22.95313,24.40844 28.32917,38.45057c5.38958,14.02891 19.02604,37.27378 10.60313,51.1308c-8.42292,13.85702 -22.2625,24.43489 -34.8698,33.38642c2.38333,-20.87808 2.39688,-44.25518 -4.0625,-63.46725c-5.53854,8.67386 -12.675,17.41383 -17.60417,26.44469c-24.4698,-27.59503 -43.33334,-65.67538 -86.2198,-71.83699c-42.90001,-6.16161 -93.58647,10.86877 -134.50939,20.26985c14.63854,2.8428 33.71875,3.19981 48.76355,5.27571c15.03125,2.07591 30.69896,5.88394 44.25417,11.00099c13.56875,5.11705 23.26459,11.04066 34.61251,19.09306c11.33438,8.06563 19.83854,15.74781 27.99063,26.88102c8.13854,11.13321 15.05834,21.49953 20.12292,34.5632c5.05104,13.0769 11.99792,30.02794 -4.68542,34.51031c-16.68334,4.4956 -26.78542,9.20275 -43.3198,11.91333c-16.53438,2.71058 -33.42084,3.9667 -50.55105,3.53037c-17.13021,-0.43634 -34.49063,-1.38835 -50.11772,-5.27571c-15.61354,-3.90059 -27.05625,-8.29041 -41.96563,-13.23557c19.59479,-16.36926 42.79167,-17.88983 68.61564,-12.78601c25.82396,5.10382 58.09376,2.22135 83.05105,-4.40304c-8.26042,-8.95153 -24.32084,0.18511 -37.91667,0c-13.59584,-0.19834 -33.23125,-0.357 -46.13647,-2.55191c-12.91875,-2.19491 -28.51875,-1.05779 -35.5198,-12.91823c-7.00104,-11.84722 -13.25729,-16.88493 -19.56771,-28.49415c-6.32396,-11.60922 -13.21667,-17.9295 -18.98542,-30.38494c-5.76875,-12.44222 -23.64375,-9.99609 -36.42709,-12.03233c-12.78334,-2.03624 -23.79271,-7.95985 -35.96667,-12.48189c-12.17396,-4.53526 -18.49792,-13.1959 -23.11563,-25.01667c-4.63125,-11.834 -10.76563,-21.15575 -14.19167,-33.75664c-3.4125,-12.61411 -7.85417,-27.07936 -8.42292,-40.69837c-0.56875,-13.61901 6.60833,-23.98533 11.87604,-36.00444c5.26771,-12.00589 10.87396,-18.08816 18.32188,-29.7106c7.44792,-11.60922 20.20417,-13.75124 32.39167,-8.62097c12.20104,5.13027 27.16459,4.62782 39.06771,9.45398c11.91667,4.82616 30.1573,0.96523 32.40521,17.2816c20.43438,-3.76837 26.39271,-25.37368 35.20834,-40.98926c-12.98646,3.12047 -20.52917,20.28307 -33.44792,22.87465c-12.90521,2.6048 -34.07084,-5.51372 -46.54272,-9.55975c-12.47188,-4.04604 -36.72501,-2.16846 -42.31771,-15.53625c-5.59271,-13.36779 -3.65625,-37.52501 -2.36979,-52.08281c1.27292,-14.5578 13.36563,-24.11755 24.13125,-33.29386c10.76563,-9.17631 20.48854,-15.61559 32.5,-23.80022c12.01146,-8.18463 23.68438,-13.03723 37.21251,-20.52108c13.52813,-7.48385 30.45521,-0.63467 44.40313,4.95838c13.96146,5.57983 34.89688,6.74339 31.11875,26.47113c-3.77813,19.72774 3.45313,36.25566 1.35417,55.53384c11.74063,-0.64789 4.99688,-16.26348 6.77083,-23.80022m-74.47918,-81.97852c-14.73334,20.04507 -43.36042,26.94713 -63.23959,42.70817c-19.87917,15.77425 -38.26876,34.43098 -61.34376,44.55929c29.9,-42.45694 76.09064,-71.86343 124.58335,-87.26746m148.95836,181.1461c-7.42083,6.26739 -7.28542,21.61853 -17.91563,24.81834c-10.64375,3.19981 -28.925,-2.80314 -38.95938,-3.66259c17.03542,-11.29188 36.44063,-18.82862 56.87501,-21.15575m-304.68754,47.60043c1.55729,17.73116 4.56354,36.55978 10.73854,52.98193c6.175,16.43537 9.5875,30.57006 19.47292,45.77575c9.87188,15.21892 9.49271,38.37124 6.35104,55.94373c-38.09271,-47.15087 -58.05313,-105.1044 -54.16667,-166.60152c6.68958,2.73702 11.06354,9.01764 17.60417,11.90011z"/>
   </g>
   <g stroke="#F2C911" id="svg_9" stroke-width="0.3" fill-opacity="0" fill="None">
    <path stroke="null" id="svg_10" d="m540,244.48057c-2.22083,12.82567 0,27.95203 0,40.98926c-1.77396,7.53674 4.96979,23.15232 -6.77083,23.80022c2.09896,-19.27818 -5.13229,-35.8061 -1.35417,-55.53384c3.77813,-19.72774 -17.15729,-20.8913 -31.11875,-26.47113c-13.94792,-5.59305 -30.875,-12.44222 -44.40313,-4.95838c-13.52813,7.48385 -25.20105,12.33645 -37.21251,20.52108c-12.01146,8.18463 -21.73438,14.62391 -32.5,23.80022c-10.76563,9.17631 -22.85834,18.73606 -24.13125,33.29386c-1.28646,14.5578 -3.22292,38.71502 2.36979,52.08281c5.59271,13.36779 29.84584,11.49022 42.31771,15.53625c12.47188,4.04604 33.6375,12.16456 46.54272,9.55975c12.91875,-2.59158 20.46146,-19.75418 33.44792,-22.87465c-8.81563,15.61559 -14.77396,37.22089 -35.20834,40.98926c-2.24792,-16.31637 -20.48854,-12.45545 -32.40521,-17.2816c-11.90313,-4.82616 -26.86667,-4.32371 -39.06771,-9.45398c-12.1875,-5.13027 -24.94375,-2.98825 -32.39167,8.62097c-7.44792,11.62244 -13.05417,17.70472 -18.32188,29.7106c-5.26771,12.01911 -12.44479,22.38543 -11.87604,36.00444c0.56875,13.61901 5.01042,28.08426 8.42292,40.69837c3.42604,12.60089 9.56042,21.92264 14.19167,33.75664c4.61771,11.82077 10.94167,20.48141 23.11563,25.01667c12.17396,4.52204 23.18334,10.44565 35.96667,12.48189c12.78334,2.03624 30.65834,-0.40989 36.42709,12.03233c5.76875,12.45545 12.66146,18.77573 18.98542,30.38494c6.31042,11.60922 12.56667,16.64693 19.56771,28.49415c7.00104,11.86044 22.60104,10.72332 35.5198,12.91823c12.90521,2.19491 32.54063,2.35358 46.13647,2.55191c13.59584,0.18511 29.65625,-8.95153 37.91667,0c-24.9573,6.62439 -57.22709,9.50686 -83.05105,4.40304c-25.82396,-5.10382 -49.02084,-3.58325 -68.61564,12.78601c14.90938,4.94516 26.35209,9.33497 41.96563,13.23557c15.62709,3.88737 32.9875,4.83938 50.11772,5.27571c17.13021,0.43634 34.01667,-0.81979 50.55105,-3.53037c16.53438,-2.71058 26.63646,-7.41773 43.3198,-11.91333c16.68334,-4.48237 9.73646,-21.43342 4.68542,-34.51031c-5.06458,-13.06367 -11.98438,-23.42999 -20.12292,-34.5632c-8.15208,-11.13321 -16.65625,-18.81539 -27.99063,-26.88102c-11.34792,-8.05241 -21.04375,-13.97602 -34.61251,-19.09306c-13.55521,-5.11705 -29.22292,-8.92508 -44.25417,-11.00099c-15.04479,-2.07591 -34.12501,-2.43291 -48.76355,-5.27571c40.92292,-9.40109 91.60939,-26.43146 134.50939,-20.26985c42.88646,6.16161 61.75001,44.24196 86.2198,71.83699c4.92917,-9.03086 12.06563,-17.77083 17.60417,-26.44469c6.45938,19.21206 6.44583,42.58917 4.0625,63.46725c12.60729,-8.95153 26.44688,-19.5294 34.8698,-33.38642c8.42292,-13.85702 -5.21354,-37.10189 -10.60313,-51.1308c-5.37604,-14.04213 -17.03542,-27.93881 -28.32917,-38.45057c-4.64479,11.17288 -6.75729,23.04654 -10.83333,34.37809c-18.85,-9.67875 -34.61251,-21.2483 -55.49376,-27.79336c-20.86771,-6.55828 -50.87605,-10.27376 -73.15209,-6.58473c-22.27604,3.68903 -47.26042,7.1004 -67.41043,14.83547c-20.15,7.74829 -48.38438,12.78601 -64.35001,0.10578c-15.96563,-12.667 -37.94376,-31.69396 -22.95313,-48.32766c14.99063,-16.62048 38.32292,-17.00393 56.91563,-26.40502c18.57917,-9.41431 40.51667,-12.93145 48.64167,-33.16164c8.125,-20.24341 18.95834,-32.92363 33.3125,-48.12933c14.35417,-15.19247 37.60521,-16.23704 54.16667,-27.76692c16.575,-11.52988 32.2698,-19.78062 44.38959,-37.31345c12.11979,-17.53283 19.03959,-40.46037 18.85,-62.25079c61.3573,32.73852 82.98335,109.66611 56.87501,170.56822c11.51042,-8.13174 16.31771,-23.72088 28.4375,-30.41139c13.60938,12.91823 29.575,23.54899 43.33334,37.02256c-11.95729,-111.59657 -115.83543,-208.56923 -231.56253,-211.55748c0.59583,11.26544 -0.79896,21.71109 0,33.05586c0.79896,11.34477 -11.99792,9.18953 -14.89584,18.51128m54.16667,56.85607c0,-4.53526 1.00208,-9.66553 1.35417,-13.22234c0,-17.38738 -0.18958,-34.57643 1.35417,-51.56714c18.74167,-2.26102 45.56772,19.63518 38.01146,38.43735c-7.54271,18.80217 -23.64375,30.86095 -40.7198,39.57447c0,-4.40304 0,-8.8193 0,-13.22234z"/>
   </g>
   <g stroke="#F2C712" id="svg_11" stroke-width="0.3" fill-opacity="0" fill="None">
    <path stroke="null" id="svg_12" d="m465.52082,203.49131c-48.49272,15.40403 -94.68335,44.81052 -124.58335,87.26746c23.075,-10.12831 41.46459,-28.78504 61.34376,-44.55929c19.87917,-15.76103 48.50626,-22.6631 63.23959,-42.70817z"/>
   </g>
   <g stroke="#DF2425" id="svg_13" stroke-width="0.3" fill-opacity="0" fill="None">
    <path stroke="null" id="svg_14" d="m595.52084,288.1143c0,4.52204 -1.00208,9.66553 -1.35417,13.22234c0,4.40304 0,8.8193 0,13.22234c17.07604,-8.71352 33.17709,-20.7723 40.7198,-39.57447c7.55625,-18.80217 -19.26979,-40.69837 -38.01146,-38.43735c-1.54375,16.99071 -1.35417,34.17976 -1.35417,51.56714z"/>
   </g>
   <g stroke="#E9781B" id="svg_15" stroke-width="0.3" fill-opacity="0" fill="None">
    <path stroke="null" id="svg_16" d="m540,285.46983c0,-13.03723 -2.22083,-28.16359 0,-40.98926c-3.65625,11.75466 -1.17813,29.03626 0,40.98926z"/>
   </g>
   <g stroke="#EA821A" id="svg_17" stroke-width="0.3" fill-opacity="0" fill="None">
    <path stroke="null" id="svg_18" d="m594.16667,301.33664c0.35208,-3.55681 1.35417,-8.7003 1.35417,-13.22234c-0.35208,3.55681 -1.35417,8.68708 -1.35417,13.22234z"/>
   </g>
   <g stroke="#7C6E0C" id="svg_19" stroke-width="0.3" stroke-opacity="0.31" fill-opacity="0" fill="None">
    <path stroke="null" id="svg_20" d="m99.89577,378.02623c0.69063,-2.94858 3.16875,-7.51029 2.70833,-13.22234c-0.14896,3.51714 -2.47813,8.91186 -2.70833,13.22234z"/>
   </g>
   <g stroke="#BA9E17" id="svg_21" stroke-width="0.3" stroke-opacity="0.47" fill-opacity="0" fill="None">
    <path stroke="null" id="svg_22" d="m978.75006,380.6707c0.21667,-1.57346 1.06979,-1.69246 1.35417,-2.64447c0,-1.75857 0.06771,-3.53037 0,-5.28894c0.01354,-0.10578 -3.99479,1.78502 -2.69479,3.95348c1.31354,2.16846 1.24583,2.78991 1.34063,3.97993z"/>
   </g>
   <g stroke="#C5BC96" id="svg_23" stroke-width="0.3" stroke-opacity="0.16" fill-opacity="0" fill="None">
    <path stroke="null" id="svg_24" d="m978.75006,380.6707c-0.40625,2.9618 0,6.26739 0,9.25564c0.01354,0.09256 1.35417,0 1.35417,0c0,-3.9667 0,-7.93341 0,-11.90011c-0.28438,0.95201 -1.1375,1.07101 -1.35417,2.64447z"/>
   </g>
   <g stroke="#EFE6B8" id="svg_25" stroke-width="0.3" stroke-opacity="0.18" fill-opacity="0" fill="None">
    <path stroke="null" id="svg_26" d="m99.89577,430.9156c0.06771,-0.19834 1.35417,0 1.35417,0c-2.04479,-14.95447 0.20313,-31.99807 -1.35417,-46.2782c0,15.43047 0,30.84773 0,46.2782z"/>
   </g>
   <g stroke="#F1C712" id="svg_27" stroke-width="0.3" fill-opacity="0" fill="None">
    <path stroke="null" id="svg_28" d="m614.47918,384.6374c-20.43438,2.32713 -39.83959,9.86387 -56.87501,21.15575c10.03438,0.85945 28.31563,6.8624 38.95938,3.66259c10.63021,-3.19981 10.49479,-18.55095 17.91563,-24.81834z"/>
   </g>
   <g stroke="#EA831A" id="svg_29" stroke-width="0.3" fill-opacity="0" fill="None">
    <path stroke="null" id="svg_30" d="m930.00006,424.30443c1.06979,-10.72332 1.06979,-23.56221 0,-34.37809c0,11.46377 0,22.91432 0,34.37809z"/>
   </g>
   <g stroke="#F8E798" id="svg_31" stroke-width="0.3" stroke-opacity="0.35" fill-opacity="0" fill="None">
    <path stroke="null" id="svg_32" d="m978.75006,424.30443c0,-0.05289 1.35417,0 1.35417,0c0,-11.46377 0,-22.91432 0,-34.37809c0,0 -1.34063,0.09256 -1.35417,0c0,11.46377 0,22.91432 0,34.37809z"/>
   </g>
   <g stroke="#F2C912" id="svg_33" stroke-width="0.3" fill-opacity="0" fill="None">
    <path stroke="null" id="svg_34" d="m309.79163,432.23784c-6.54063,-2.88247 -10.91458,-9.16308 -17.60417,-11.90011c-3.88646,61.49712 16.07396,119.45064 54.16667,166.60152c3.14167,-17.57249 3.52083,-40.72482 -6.35104,-55.94373c-9.88542,-15.20569 -13.29792,-29.34038 -19.47292,-45.77575c-6.175,-16.42215 -9.18125,-35.25077 -10.73854,-52.98193z"/>
   </g>
   <g stroke="#C5BD95" id="svg_35" stroke-width="0.3" stroke-opacity="0.15" fill-opacity="0" fill="None">
    <path stroke="null" id="svg_36" d="m980.10423,436.20454c0.08125,-3.9667 0,-7.93341 0,-11.90011c0,0 -1.35417,-0.05289 -1.35417,0c0,4.03281 1.11042,8.77964 1.35417,11.90011z"/>
   </g>
   <g stroke="#C1A215" id="svg_37" stroke-width="0.3" stroke-opacity="0.34" fill-opacity="0" fill="None">
    <path stroke="null" id="svg_38" d="m99.89577,437.52677c0.37917,0.33056 2.6,-0.25122 2.70833,0c-0.18958,-2.43291 -1.05625,-4.48237 -1.35417,-6.61117c0,0 -1.28646,-0.19834 -1.35417,0c0,2.19491 -0.10833,4.41626 0,6.61117z"/>
   </g>
   <g stroke="#846D0C" id="svg_39" stroke-width="0.3" stroke-opacity="0.31" fill-opacity="0" fill="None">
    <path stroke="null" id="svg_40" d="m102.6041,450.74912c0.33854,-4.23115 0.325,-8.99119 0,-13.22234c-0.10833,-0.25122 -2.32917,0.33056 -2.70833,0c0.23021,4.40304 2.54583,9.5862 2.70833,13.22234z"/>
   </g>
   <g stroke="#DF2325" id="svg_41" stroke-width="0.3" fill-opacity="0" fill="None">
    <path stroke="null" id="svg_42" d="m271.87496,867.25291c27.74688,-8.02596 23.6573,31.74684 31.44375,47.30954c7.8,15.5627 17.79375,7.16651 30.8073,6.8624c13.02709,-0.29089 -2.1125,-20.33596 -1.34063,-27.70081c0.75833,-7.35162 -11.42917,-24.39522 -6.43229,-32.77819c4.99688,-8.38297 16.27709,-13.18268 14.58438,-25.42657c-1.69271,-12.24389 0.85313,-27.72725 0,-39.66703c-0.85313,-11.93978 -2.30208,-20.13763 -13.96146,-26.03479c-11.64584,-5.91039 -24.99792,-1.97013 -38.85105,-3.05436c-13.85313,-1.08423 -25.47188,1.33546 -40.62501,0c-15.15313,-1.33546 -10.61667,16.47504 -10.83333,29.08915c-0.21667,12.61411 0.40625,26.25957 0,39.66703c-0.40625,13.40746 0.86667,25.34723 0,39.66703c-0.86667,14.3198 1.89583,23.69444 0,39.66703c-1.89583,15.97259 3.30417,19.43684 18.94479,15.85359c15.64063,-3.57003 17.08959,-8.87219 16.26354,-23.78699c-0.82604,-14.9148 0.62292,-25.17534 0,-39.66703m31.14584,-67.43395c4.23854,3.08081 5.66042,28.82471 -0.33854,31.40306c-6.0125,2.56513 -31.87709,7.52351 -30.8073,-4.95838c1.08333,-12.49511 -5.75521,-26.44469 12.1875,-26.44469c4.98333,-0.476 14.12396,-3.51714 18.95834,0z"/>
   </g>
   <g stroke="#DF2225" id="svg_43" stroke-width="0.3" fill-opacity="0" fill="None">
    <path stroke="null" id="svg_44" d="m362.60414,917.49782c8.05729,-3.31881 25.97292,4.01959 32.14792,-2.98825c6.18854,-6.99462 -0.04063,-21.57886 1.70625,-31.38984c1.74688,-9.81098 -0.975,-21.98876 0,-33.05586c0.975,-11.0671 -0.90729,-22.30609 0,-34.37809c0.90729,-12.072 -1.4625,-19.26495 0,-33.05586c1.4625,-13.7909 -2.73542,-15.62881 -17.60417,-15.86681c-14.86875,-0.238 -17.61771,3.54359 -16.25,17.18905c1.36771,13.64546 -0.65,22.04165 0,34.37809c0.65,12.33645 -0.29792,21.4202 0,33.05586c0.29792,11.63566 -0.1625,21.72431 0,33.05586c0.1625,11.34477 -0.12188,21.80364 0,33.05586z"/>
   </g>
   <g stroke="#DF2225" id="svg_45" stroke-width="0.3" fill-opacity="0" fill="None">
    <path stroke="null" id="svg_46" d="m472.29165,860.64174c-3.9,-14.2008 -8.91042,-24.97701 -12.20104,-39.65381c-3.29063,-14.6768 -7.84063,-25.1489 -10.91458,-40.90993c-3.07396,-15.74781 -22.98021,-14.84869 -37.82188,-13.3149c3.85938,22.70276 10.8875,44.51963 17.15729,66.54805c6.28333,22.0152 11.28021,43.0255 16.99479,65.38448c5.72813,22.34576 49.6573,19.02695 52.81251,-3.38492c3.16875,-22.41187 14.21875,-41.74294 18.67396,-63.74491c4.45521,-22.00198 12.13334,-43.07839 17.59063,-64.8027c-14.74688,-1.17679 -36.75209,-3.12047 -39.28438,13.20912c-2.53229,16.34282 -7.66458,26.02157 -10.91458,40.90993c-3.25,14.87514 -7.50208,26.07446 -12.09271,39.75958z"/>
   </g>
   <g stroke="#DF2225" id="svg_47" stroke-width="0.3" fill-opacity="0" fill="None">
    <path stroke="null" id="svg_48" d="m516.97916,909.56441c8.08438,-0.44956 16.29063,0.60823 24.375,0c20.16354,-3.92704 16.23646,-30.41139 23.04792,-46.25175c6.825,-15.82714 6.40521,-37.78946 14.86875,-52.91582c7.61042,20.50785 11.45625,43.39573 17.60417,64.78948c-10.38646,0 -20.75938,0 -31.14584,0c4.91563,7.70863 5.01042,4.70715 12.52604,12.89178c7.51563,8.18463 19.28334,17.59894 29.35834,21.57886c10.06146,3.99315 12.59375,4.87904 21.46354,3.58325c8.85625,-1.30901 13.23021,0.44956 9.47917,-11.31833c-3.76458,-11.76789 -7.48854,-27.59503 -10.83333,-39.66703c-3.34479,-12.072 -1.97708,-8.25074 -5.41667,-19.83351c-3.43958,-11.58277 -7.88125,-26.94713 -10.63021,-38.54313c-2.7625,-11.58277 -3.33125,-11.37121 -5.41667,-19.83351c-2.08542,-8.44908 -2.925,-11.93978 -9.28958,-16.05192c-6.35104,-4.11215 -16.01979,-0.70078 -23.11563,-1.22968c-7.09583,-0.52889 -16.53438,-2.39324 -18.98542,6.58473c-2.46458,8.96475 -2.31563,8.7003 -5.41667,19.83351c-3.11458,11.11999 -7.66458,27.29092 -10.83333,38.34479c-3.18229,11.04066 -3.11458,11.50344 -5.41667,19.83351c-2.31563,8.31685 -3.95417,12.94467 -5.41667,19.83351c-1.47604,6.87562 -5.30833,14.06857 -5.48438,19.7674c-0.18958,5.68561 -7.69167,14.87514 -5.32188,18.60384z"/>
   </g>
   <g stroke="#E97E1B" id="svg_49" stroke-width="0.3" fill-opacity="0" fill="None">
    <path stroke="null" id="svg_50" d="m655.10418,768.08534c6.20208,-0.87267 24.26667,-2.6048 29.79167,0c-4.23854,-2.92214 -25.49896,-3.09403 -29.79167,0z"/>
   </g>
   <g stroke="#DF2125" id="svg_51" stroke-width="0.3" fill-opacity="0" fill="None">
    <path stroke="null" id="svg_52" d="m741.77086,791.88556c-0.40625,10.55143 -0.40625,22.14742 -1.35417,31.73362c0,10.7101 1.43542,21.36731 12.07917,27.8727c10.64375,6.50539 19.03959,7.14007 33.9625,6.50539c14.92292,-0.63467 20.3125,4.28404 20.3125,19.83351c0,4.29726 1.00208,9.96965 -1.35417,13.22234c-4.78021,6.61117 -25.675,4.13859 -28.4375,-3.9667c-1.69271,-4.94516 -1.54375,-11.34477 -1.35417,-17.18905c-7.44792,1.93046 -29.23646,-8.13174 -33.85417,0c-4.61771,8.13174 -1.88229,24.65967 1.39479,33.01619c3.26354,8.36974 8.40938,15.84037 18.61979,18.84184c10.21042,3.00147 20.40729,2.92214 32.5,5.28894c12.09271,2.3668 20.35313,0.72723 34.15209,4.99805c13.79896,4.27082 16.83229,-6.82273 14.89584,-19.83351c-1.93646,-13.01079 0.69063,-24.81834 0,-37.02256c-0.69063,-12.20422 0.58229,-22.67632 -4.17083,-32.95008c-4.73958,-10.28698 -14.09688,-12.90501 -24.26667,-14.65036c-10.16979,-1.74535 -25.72917,2.22135 -34.19271,-3.63614c-8.45,-5.87072 -7.66458,-21.28797 2.74896,-24.42167c10.41354,-3.1337 21.72084,-0.09256 25.62084,9.9432c3.91354,10.03576 25.22813,1.17679 32.90625,4.89227c0,-15.86681 0,-31.73362 0,-47.60043c-20.24479,-1.17679 -43.72605,1.57346 -63.64584,0c-19.91979,-1.57346 -35.76355,4.60138 -36.56251,25.12245z"/>
   </g>
   <g stroke="#DF2025" id="svg_53" stroke-width="0.3" fill-opacity="0" fill="None">
    <path stroke="null" id="svg_54" d="m653.75001,769.40758c-1.1375,7.72185 0.46042,15.99903 0,23.80022c-0.46042,7.80118 0.08125,16.01226 0,23.80022c-0.08125,7.78796 -0.24375,16.11804 0,23.80022c0.24375,7.68218 -0.73125,16.40893 0,23.80022c0.73125,7.39129 -1.70625,17.05682 0,23.80022c1.70625,6.74339 -3.80521,18.48484 0,23.80022c26.39271,4.57493 55.39897,4.4956 82.60418,7.93341c-5.15938,-7.6954 -0.90729,-20.25663 -7.08229,-27.46281c-6.175,-7.19295 -15.78959,-6.54506 -27.82813,-5.88394c-12.025,0.66112 -15.77604,-8.95153 -13.83959,-20.86486c1.93646,-11.91333 -0.325,-22.16065 0,-33.05586c0.325,-10.89521 0.89375,-24.60678 0,-34.37809c-0.89375,-9.77131 4.13021,-25.69101 -2.70833,-30.41139c-5.525,-2.6048 -23.58959,-0.87267 -29.79167,0c-0.40625,0.29089 -1.05625,0.92556 -1.35417,1.32223z"/>
   </g>
   <g stroke="#EA8A19" id="svg_55" stroke-width="0.3" fill-opacity="0" fill="None">
    <path stroke="null" id="svg_56" d="m653.75001,912.20888c-3.80521,-5.31538 1.70625,-17.05682 0,-23.80022c-1.70625,-6.74339 0.73125,-16.40893 0,-23.80022c-0.73125,-7.39129 0.24375,-16.11804 0,-23.80022c-0.24375,-7.68218 -0.08125,-16.01226 0,-23.80022c0.08125,-7.78796 -0.46042,-15.99903 0,-23.80022c0.46042,-7.80118 -1.1375,-16.07837 0,-23.80022c-5.90417,7.82763 0.14896,25.5059 -1.35417,35.70033c-1.50313,10.19443 -0.12188,25.20179 0,35.70033c0.12188,10.49854 -1.65208,27.29092 0,37.02256c1.65208,9.73164 -5.15938,28.01814 1.35417,34.37809z"/>
   </g>
   <g stroke="#EA811A" id="svg_57" stroke-width="0.3" fill-opacity="0" fill="None">
    <path stroke="null" id="svg_58" d="m740.41669,823.61918c0.94792,-9.5862 0.94792,-21.18219 1.35417,-31.73362c-1.40833,9.61264 -1.35417,21.11608 -1.35417,31.73362z"/>
   </g>
   <g stroke="#EA801A" id="svg_59" stroke-width="0.3" fill-opacity="0" fill="None">
    <path stroke="null" id="svg_60" d="m284.06246,799.81897c4.55,0 15.00417,-1.97013 18.95834,0c-4.83438,-3.51714 -13.975,-0.476 -18.95834,0z"/>
   </g>
   <g stroke="#F2C912" id="svg_61" stroke-width="0.3" fill-opacity="0" fill="None">
    <path stroke="null" id="svg_62" d="m303.0208,799.81897c-3.95417,-1.97013 -14.40834,0 -18.95834,0c-17.94271,0 -11.10417,13.94957 -12.1875,26.44469c-1.06979,12.48189 24.7948,7.52351 30.8073,4.95838c5.99896,-2.57836 4.57708,-28.32226 0.33854,-31.40306z"/>
   </g>
   <g stroke="#E97F1B" id="svg_63" stroke-width="0.3" fill-opacity="0" fill="None">
    <path stroke="null" id="svg_64" d="m776.9792,887.08643c-0.93438,-4.70715 2.28854,-13.83057 -1.35417,-17.18905c-0.18958,5.84428 -0.33854,12.24389 1.35417,17.18905z"/>
   </g>
   <g stroke="#E9761C" id="svg_65" stroke-width="0.3" fill-opacity="0" fill="None">
    <path stroke="null" id="svg_66" d="m805.4167,891.05313c2.35625,-3.2527 1.35417,-8.92508 1.35417,-13.22234c-0.18958,1.87757 -0.29792,11.08032 -1.35417,13.22234z"/>
   </g>
   <g stroke="#EA811A" id="svg_67" stroke-width="0.3" fill-opacity="0" fill="None">
    <path stroke="null" id="svg_68" d="m541.35416,909.56441c-8.08438,0.60823 -16.29063,-0.44956 -24.375,0c2.74896,4.33693 20.56979,0.70078 24.375,0z"/>
   </g>
   <g stroke="#DF2225" id="svg_69" stroke-width="0.3" fill-opacity="0" fill="None">
    <path stroke="null" id="svg_70" d="m686.25002,936.0091c-18.28125,0.71401 -43.82084,-7.02106 -59.98959,-0.39667c-16.18229,6.61117 -26.13542,18.92117 -41.46459,24.30267c-15.34271,5.36827 -26.65,21.19542 -42.08751,23.69444c-15.4375,2.49902 -29.65625,-17.29482 -43.73959,-22.08131c-14.09688,-4.77327 -27.92292,-17.63861 -41.91146,-23.86633c-13.98854,-6.2145 -26.2573,-19.38395 -40.28646,-25.45301c-1.77396,5.87072 3.4125,18.24683 -2.41042,21.44664c-5.82292,3.19981 -14.4625,-0.18511 -20.61042,2.35358c10.4,11.88689 25.75625,18.00883 38.95938,28.07103c13.20313,10.0622 27.92292,15.49659 41.95209,25.1489c14.02917,9.63909 28.72188,13.42068 43.36042,23.77377c14.65209,10.35309 30.34688,9.83742 44.89063,-0.40989c14.55729,-10.23409 29.37188,-14.22724 43.33334,-23.80022c13.975,-9.55975 28.7625,-15.29825 41.97917,-25.12245c13.21667,-9.8242 27.69271,-15.9197 38.02501,-27.66114z"/>
   </g>
   <g stroke="#776508" id="svg_71" stroke-width="0.3" stroke-opacity="0.42" fill-opacity="0" fill="None">
    <path stroke="null" id="svg_72" d="m217.70828,954.52038c-2.55938,-1.73213 -2.41042,-18.11461 -2.70833,-21.15575c0,6.91529 -1.88229,20.20374 2.70833,21.15575z"/>
   </g>
   <g stroke="#7F6B08" id="svg_73" stroke-width="0.3" stroke-opacity="0.44" fill-opacity="0" fill="None">
    <path stroke="null" id="svg_74" d="m305.72913,943.9425c4.68542,1.22968 9.99375,0.52889 14.89584,0c-2.96563,-0.07933 -12.14688,0.29089 -14.89584,0z"/>
   </g>
   <g stroke="None" id="svg_75" fill-opacity="0" fill="#000000">
    <path stroke="null" id="svg_76" d="m-1.66675,1155.49999l1083.33349,0l0,-1231.00011l-1083.33349,0l0,1231.00011m981.77098,-782.76269c0.06771,1.75857 0,3.53037 0,5.28894c0,3.9667 0,7.93341 0,11.90011c0,11.46377 0,22.91432 0,34.37809c0,3.9667 0.08125,7.93341 0,11.90011c-0.31146,15.37758 -3.23646,27.59503 -4.04896,42.32472c-0.82604,14.72969 -3.45313,28.00492 -5.14583,41.28015c-1.67917,13.27523 -5.63333,27.72725 -8.38229,40.71159c-2.73542,12.99756 -7.40729,28.05781 -10.84688,40.97604c-3.45313,12.91823 -9.1,25.95546 -13.46042,38.42413c-4.36042,12.46867 -9.61458,25.17534 -14.95,36.96967c-5.34896,11.78111 -11.18542,23.65477 -17.33334,34.64254c-6.14792,10.98777 -11.64584,23.16554 -18.95834,33.05586c-7.3125,9.89031 -11.79479,26.68269 -23.3323,27.46281c-0.86667,10.20765 1.15104,23.12588 0,33.05586c-1.15104,9.92998 4.00833,24.76545 -4.0625,29.08915c11.03646,38.64891 2.925,82.16364 5.41667,122.96779c-26.46042,-1.46768 -57.6198,-8.06563 -83.97189,-10.56465c-26.35209,-2.51225 -61.31668,-15.81392 -82.63126,2.59158c-21.31459,18.39228 -40.35417,26.92069 -63.19897,42.76106c-22.83125,15.82714 -43.27917,20.45496 -66.42188,36.94323c-23.12917,16.50148 -51.74272,5.92361 -73.80209,-9.25564c-22.04584,-15.19247 -45.7573,-22.30609 -66.12397,-37.24734c-20.35313,-14.95447 -41.31563,-25.34723 -59.47501,-43.73951c-15.08542,2.0098 -32.79792,2.69736 -48.75001,5.28894c-4.90208,0.52889 -10.21042,1.22968 -14.89584,0c-6.48646,-1.70568 -10.8875,-5.91039 -16.25,-9.25564c-14.90938,24.36878 -46.31251,14.72969 -71.77084,19.83351c-4.59063,-0.95201 -2.70833,-14.24046 -2.70833,-21.15575c0,-23.83988 1.20521,-53.41826 0,-76.68959c-1.20521,-23.27132 3.20938,-55.52062 0,-76.68959c-3.20938,-21.16897 -22.24896,-28.82471 -29.48021,-47.90455c-7.23125,-19.07984 -19.08021,-32.03774 -26.46042,-50.85313c-7.36667,-18.82862 -15.7625,-35.36977 -22.30313,-54.91239c-6.52708,-19.55584 -11.84896,-38.10679 -16.53438,-57.90064c-4.68542,-19.78062 -9.27604,-35.89866 -11.32083,-55.12395c-2.05833,-19.21206 -7.90833,-42.74783 -6.29688,-62.54168c-0.1625,-3.63614 -2.47813,-8.8193 -2.70833,-13.22234c-0.10833,-2.19491 0,-4.41626 0,-6.61117c0,-15.43047 0,-30.84773 0,-46.2782c0,-2.19491 -0.10833,-4.41626 0,-6.61117c0.23021,-4.31048 2.55938,-9.7052 2.70833,-13.22234c-3.0875,-37.9349 9.11354,-75.94914 13.52813,-111.0809c4.41458,-35.13176 17.98334,-71.37421 25.71563,-107.1142c7.71875,-35.75321 50.37501,-37.03578 80.83022,-50.65479c30.45521,-13.61901 56.56355,-16.95104 89.93022,-25.91579c33.36667,-8.96475 68.95418,-13.06367 105.61147,-18.69639c36.67084,-5.64594 81.98126,-11.05388 123.13439,-10.48532c41.15313,0.56856 84.8521,4.98482 121.98335,10.4721c37.11771,5.50049 71.63543,9.5862 105.54377,18.59061c33.92188,8.99119 61.05938,14.61069 92.1646,26.36535c31.10521,11.76789 73.76147,19.96574 79.69272,57.05441c5.91771,37.10189 20.55625,69.99908 25.26875,106.67786c4.72604,36.66556 12.62084,74.42857 14.09688,112.72047z"/>
   </g>
   <g stroke="None" id="svg_77" fill="#F1C910">
    <path stroke="null" id="svg_78" d="m102.6041,364.80389c0.46042,5.71205 -2.01771,10.27376 -2.70833,13.22234c-0.10833,2.19491 0,4.41626 0,6.61117c1.55729,14.28013 -0.69063,31.32373 1.35417,46.2782c0.29792,2.1288 1.16458,4.17826 1.35417,6.61117c0.325,4.23115 0.33854,8.99119 0,13.22234c-1.61146,19.79385 4.23854,43.32962 6.29688,62.54168c2.04479,19.22529 6.63542,35.34332 11.32083,55.12395c4.68542,19.79385 10.00729,38.34479 16.53438,57.90064c6.54063,19.54262 14.93646,36.08377 22.30313,54.91239c7.38021,18.81539 19.22917,31.77329 26.46042,50.85313c7.23125,19.07984 26.27084,26.73558 29.48021,47.90455c3.20938,21.16897 -1.20521,53.41826 0,76.68959c1.20521,23.27132 0,52.8497 0,76.68959c0.29792,3.04114 0.14896,19.42362 2.70833,21.15575c25.45834,-5.10382 56.86147,4.53526 71.77084,-19.83351c5.3625,3.34525 9.76354,7.54996 16.25,9.25564c2.74896,0.29089 11.93021,-0.07933 14.89584,0c15.95209,-2.59158 33.66459,-3.27914 48.75001,-5.28894c18.15938,18.39228 39.12188,28.78504 59.47501,43.73951c20.36667,14.94125 44.07813,22.05487 66.12397,37.24734c22.05938,15.17925 50.67292,25.75712 73.80209,9.25564c23.14271,-16.48826 43.59063,-21.11608 66.42188,-36.94323c22.8448,-15.84037 41.88438,-24.36878 63.19897,-42.76106c21.31459,-18.4055 56.27917,-5.10382 82.63126,-2.59158c26.35209,2.49902 57.51147,9.09697 83.97189,10.56465c-2.49167,-40.80415 5.61979,-84.31888 -5.41667,-122.96779c8.07083,-4.32371 2.91146,-19.15917 4.0625,-29.08915c1.15104,-9.92998 -0.86667,-22.84821 0,-33.05586c11.5375,-0.78012 16.01979,-17.57249 23.3323,-27.46281c7.3125,-9.89031 12.81042,-22.06809 18.95834,-33.05586c6.14792,-10.98777 11.98438,-22.86143 17.33334,-34.64254c5.33542,-11.79433 10.58958,-24.501 14.95,-36.96967c4.36042,-12.46867 10.00729,-25.5059 13.46042,-38.42413c3.43958,-12.91823 8.11146,-27.97848 10.84688,-40.97604c2.74896,-12.98434 6.70313,-27.43636 8.38229,-40.71159c1.69271,-13.27523 4.31979,-26.55046 5.14583,-41.28015c0.8125,-14.72969 3.7375,-26.94713 4.04896,-42.32472c-0.24375,-3.12047 -1.35417,-7.86729 -1.35417,-11.90011c0,-11.46377 0,-22.91432 0,-34.37809c0,-2.98825 -0.40625,-6.29384 0,-9.25564c-0.09479,-1.19001 -0.02708,-1.81146 -1.34063,-3.97993c-1.3,-2.16846 2.70833,-4.05926 2.69479,-3.95348c-1.47604,-38.2919 -9.37083,-76.05492 -14.09688,-112.72047c-4.7125,-36.67878 -19.35104,-69.57597 -25.26875,-106.67786c-5.93125,-37.08867 -48.58751,-45.28652 -79.69272,-57.05441c-31.10521,-11.75466 -58.24272,-17.37416 -92.1646,-26.36535c-33.90834,-9.00442 -68.42605,-13.09012 -105.54377,-18.59061c-37.13126,-5.48727 -80.83022,-9.90353 -121.98335,-10.4721c-41.15313,-0.56856 -86.46355,4.83938 -123.13439,10.48532c-36.6573,5.63272 -72.2448,9.73164 -105.61147,18.69639c-33.36667,8.96475 -59.47501,12.29678 -89.93022,25.91579c-30.45521,13.61901 -73.11147,14.90158 -80.83022,50.65479c-7.73229,35.73999 -21.30104,71.98243 -25.71563,107.1142c-4.41458,35.13176 -16.61563,73.146 -13.52813,111.0809m827.39595,59.50054c0,-11.46377 0,-22.91432 0,-34.37809c0,-25.75712 -1.31354,-56.23462 -5.41667,-80.65629c-4.10313,-24.42167 -6.825,-51.32913 -13.52813,-74.05834c-6.70313,-22.72921 -7.85417,-48.38055 -17.60417,-68.75618c-9.75,-20.36241 -40.2323,-18.92117 -59.8948,-28.78504c-19.6625,-9.85065 -45.78438,-12.548 -68.31772,-19.23851c-22.54688,-6.67728 -49.02084,-11.15966 -73.58543,-15.41725c-24.55105,-4.27082 -52.71772,-8.14496 -78.54168,-10.57787c-25.82396,-2.43291 -55.96772,-5.75172 -82.59064,-5.30216c-26.62292,0.44956 -55.3448,5.2096 -81.26355,7.92018c-25.91875,2.71058 -52.2573,6.01617 -77.17397,10.5911c-24.91667,4.57493 -48.61459,10.51176 -72.67814,16.30315c-24.07709,5.77816 -43.34688,13.42068 -66.89584,20.62685c-23.54896,7.19295 -45.71667,13.7909 -49.10209,39.32325c-3.37188,25.53234 -12.64792,45.41875 -17.14375,70.52798c-4.49583,25.10923 -9.18125,48.10288 -12.1875,74.04512c-3.01979,25.92901 -4.42813,56.31396 -4.07604,83.28754c0.35208,26.97358 2.19375,55.57351 5.11875,80.94718c2.925,25.37368 7.32604,50.61513 13.74479,73.84678c6.41875,23.23166 12.25521,44.18907 20.84063,65.59604c8.58542,21.39375 17.34688,40.26203 27.69271,60.22777c10.34583,19.95252 22.12709,35.96477 32.81146,55.22973c-11.76771,2.56513 -34.61251,-7.1004 -35.20834,9.25564c-15.47813,-22.45154 -26.59584,-42.91972 -38.95938,-67.73806c-12.36354,-24.81834 -21.54479,-48.77722 -30.55,-75.94914c-9.00521,-27.18514 -16.46667,-55.29584 -21.21979,-85.05933c-4.73958,-29.77672 -10.22396,-63.34824 -10.81979,-95.21409c-0.59583,-31.86585 1.39479,-70.56764 4.04896,-101.79882c2.65417,-31.23117 9.73646,-61.20622 14.86875,-91.26061c5.11875,-30.06761 14.96354,-55.3355 21.59896,-84.68911c6.62188,-29.36682 39.00001,-31.97162 65.39272,-43.25028c26.40625,-11.26544 54.95209,-16.62048 83.67397,-24.07789c28.70834,-7.47062 58.93334,-13.10334 89.37501,-18.51128c30.42813,-5.40794 64.35001,-8.3433 96.13231,-11.91333c31.7823,-3.57003 71.12084,-3.39814 102.91668,0c31.79584,3.39814 65.79897,6.83595 96.24064,11.80755c30.45521,4.9716 61.30313,10.37954 89.57814,18.31294c28.275,7.92018 57.57918,13.11656 83.2271,24.51422c25.63438,11.41088 59.43438,12.99756 66.48959,42.17927c7.04167,29.18171 14.44896,55.94373 20.61042,85.65434c6.14792,29.72383 12.11979,60.12199 14.89584,91.23416c2.77604,31.12539 5.2,69.98586 4.0625,101.81204c-1.1375,31.82618 -5.45729,65.75471 -10.53542,95.49176c-5.07813,29.75027 -12.10625,57.94031 -21.04375,85.23122c-8.9375,27.29092 -18.90417,50.66802 -30.61771,75.88302c-11.7,25.22823 -25.75625,44.90308 -39.36563,68.66363c-2.74896,-2.34035 -0.71771,-7.24584 -1.35417,-10.57787c-11.28021,0 -22.57396,0 -33.85417,0c63.42918,-95.35954 99.35522,-205.48843 100.20835,-321.30293m-376.45839,-245.93557c107.16877,10.12831 203.69378,73.503 236.88441,178.59418c33.17709,105.1044 -5.83646,223.24603 -100.42501,287.8504c-94.58856,64.60437 -224.92712,58.85265 -314.87088,-10.60432c-89.93022,-69.47019 -120.35835,-196.61624 -78.46043,-295.44003c41.88438,-98.83701 145.9521,-170.88556 256.87191,-160.40024m-281.66671,688.88406c0.62292,14.49169 -0.82604,24.75223 0,39.66703c0.82604,14.9148 -0.62292,20.21696 -16.26354,23.78699c-15.64063,3.58325 -20.84063,0.119 -18.94479,-15.85359c1.89583,-15.97259 -0.86667,-25.34723 0,-39.66703c0.86667,-14.3198 -0.40625,-26.25957 0,-39.66703c0.40625,-13.40746 -0.21667,-27.05291 0,-39.66703c0.21667,-12.61411 -4.31979,-30.42461 10.83333,-29.08915c15.15313,1.33546 26.77188,-1.08423 40.62501,0c13.85313,1.08423 27.20521,-2.85603 38.85105,3.05436c11.65938,5.89716 13.10834,14.09502 13.96146,26.03479c0.85313,11.93978 -1.69271,27.42314 0,39.66703c1.69271,12.24389 -9.5875,17.0436 -14.58438,25.42657c-4.99688,8.38297 7.19063,25.42657 6.43229,32.77819c-0.77188,7.36484 14.36771,27.40992 1.34063,27.70081c-13.01354,0.30411 -23.0073,8.7003 -30.8073,-6.8624c-7.78646,-15.5627 -3.69688,-55.3355 -31.44375,-47.30954m90.72918,50.2449c-0.12188,-11.25221 0.1625,-21.71109 0,-33.05586c-0.1625,-11.33155 0.29792,-21.4202 0,-33.05586c-0.29792,-11.63566 0.65,-20.71941 0,-33.05586c-0.65,-12.33645 1.36771,-20.73263 0,-34.37809c-1.36771,-13.64546 1.38125,-17.42705 16.25,-17.18905c14.86875,0.238 19.06667,2.07591 17.60417,15.86681c-1.4625,13.7909 0.90729,20.98386 0,33.05586c-0.90729,12.072 0.975,23.31099 0,34.37809c-0.975,11.0671 1.74688,23.24488 0,33.05586c-1.74688,9.81098 4.48229,24.39522 -1.70625,31.38984c-6.175,7.00784 -24.09063,-0.33056 -32.14792,2.98825m109.68752,-56.85607c4.59063,-13.68512 8.84271,-24.88445 12.09271,-39.75958c3.25,-14.88836 8.38229,-24.56711 10.91458,-40.90993c2.53229,-16.32959 24.5375,-14.38591 39.28438,-13.20912c-5.45729,21.72431 -13.13542,42.80072 -17.59063,64.8027c-4.45521,22.00198 -15.50521,41.33304 -18.67396,63.74491c-3.15521,22.41187 -47.08438,25.73068 -52.81251,3.38492c-5.71458,-22.35898 -10.71146,-43.36928 -16.99479,-65.38448c-6.26979,-22.02842 -13.29792,-43.84529 -17.15729,-66.54805c14.84167,-1.53379 34.74792,-2.43291 37.82188,13.3149c3.07396,15.76103 7.62396,26.23313 10.91458,40.90993c3.29063,14.6768 8.30104,25.45301 12.20104,39.65381m69.06251,48.92267c-3.80521,0.70078 -21.62604,4.33693 -24.375,0c-2.36979,-3.7287 5.13229,-12.91823 5.32188,-18.60384c0.17604,-5.69883 4.00833,-12.89178 5.48438,-19.7674c1.4625,-6.88884 3.10104,-11.51666 5.41667,-19.83351c2.30208,-8.33008 2.23438,-8.79286 5.41667,-19.83351c3.16875,-11.05388 7.71875,-27.2248 10.83333,-38.34479c3.10104,-11.13321 2.95208,-10.86877 5.41667,-19.83351c2.45104,-8.97797 11.88959,-7.11362 18.98542,-6.58473c7.09583,0.52889 16.76459,-2.88247 23.11563,1.22968c6.36458,4.11215 7.20417,7.60285 9.28958,16.05192c2.08542,8.4623 2.65417,8.25074 5.41667,19.83351c2.74896,11.59599 7.19063,26.96036 10.63021,38.54313c3.43958,11.58277 2.07188,7.76152 5.41667,19.83351c3.34479,12.072 7.06875,27.89914 10.83333,39.66703c3.75104,11.76789 -0.62292,10.00931 -9.47917,11.31833c-8.86979,1.29579 -11.40209,0.40989 -21.46354,-3.58325c-10.075,-3.97993 -21.84271,-13.39423 -29.35834,-21.57886c-7.51563,-8.18463 -7.61042,-5.18316 -12.52604,-12.89178c10.38646,0 20.75938,0 31.14584,0c-6.14792,-21.39375 -9.99375,-44.28163 -17.60417,-64.78948c-8.46354,15.12636 -8.04375,37.08867 -14.86875,52.91582c-6.81146,15.84037 -2.88438,42.32472 -23.04792,46.25175m143.54169,-141.47907c6.83854,4.72038 1.81458,20.64008 2.70833,30.41139c0.89375,9.77131 0.325,23.48288 0,34.37809c-0.325,10.89521 1.93646,21.14253 0,33.05586c-1.93646,11.91333 1.81458,21.52597 13.83959,20.86486c12.03854,-0.66112 21.65313,-1.30901 27.82813,5.88394c6.175,7.20618 1.92292,19.7674 7.08229,27.46281c-27.20521,-3.43781 -56.21147,-3.35848 -82.60418,-7.93341c-6.51354,-6.35995 0.29792,-24.64645 -1.35417,-34.37809c-1.65208,-9.73164 0.12188,-26.52402 0,-37.02256c-0.12188,-10.49854 -1.50313,-25.5059 0,-35.70033c1.50313,-10.19443 -4.55,-27.8727 1.35417,-35.70033c0.29792,-0.39667 0.94792,-1.03134 1.35417,-1.32223c4.29271,-3.09403 25.55313,-2.92214 29.79167,0m90.72918,101.81204c3.64271,3.35848 0.41979,12.48189 1.35417,17.18905c2.7625,8.1053 23.6573,10.57787 28.4375,3.9667c1.05625,-2.14202 1.16458,-11.34477 1.35417,-13.22234c0,-15.54948 -5.38958,-20.46819 -20.3125,-19.83351c-14.92292,0.63467 -23.31875,0 -33.9625,-6.50539c-10.64375,-6.50539 -12.07917,-17.1626 -12.07917,-27.8727c0,-10.61754 -0.05417,-22.12098 1.35417,-31.73362c0.79896,-20.52108 16.64271,-26.69591 36.56251,-25.12245c19.91979,1.57346 43.40105,-1.17679 63.64584,0c0,15.86681 0,31.73362 0,47.60043c-7.67813,-3.71548 -28.99271,5.14349 -32.90625,-4.89227c-3.9,-10.03576 -15.20729,-13.0769 -25.62084,-9.9432c-10.41354,3.1337 -11.19896,18.55095 -2.74896,24.42167c8.46354,5.8575 24.02292,1.8908 34.19271,3.63614c10.16979,1.74535 19.52709,4.36337 24.26667,14.65036c4.75313,10.27376 3.48021,20.74586 4.17083,32.95008c0.69063,12.20422 -1.93646,24.01177 0,37.02256c1.93646,13.01079 -1.09688,24.10433 -14.89584,19.83351c-13.79896,-4.27082 -22.05938,-2.63125 -34.15209,-4.99805c-12.09271,-2.3668 -22.28959,-2.28747 -32.5,-5.28894c-10.21042,-3.00147 -15.35625,-10.4721 -18.61979,-18.84184c-3.27708,-8.35652 -6.0125,-24.88445 -1.39479,-33.01619c4.61771,-8.13174 26.40625,1.93046 33.85417,0m-89.37501,66.11171c-10.33229,11.74144 -24.80834,17.83694 -38.02501,27.66114c-13.21667,9.8242 -28.00417,15.5627 -41.97917,25.12245c-13.96146,9.57298 -28.77605,13.56612 -43.33334,23.80022c-14.54375,10.24732 -30.23855,10.76299 -44.89063,0.40989c-14.63854,-10.35309 -29.33125,-14.13468 -43.36042,-23.77377c-14.02917,-9.65231 -28.74896,-15.08669 -41.95209,-25.1489c-13.20313,-10.0622 -28.55938,-16.18415 -38.95938,-28.07103c6.14792,-2.53869 14.7875,0.84623 20.61042,-2.35358c5.82292,-3.19981 0.63646,-15.57592 2.41042,-21.44664c14.02917,6.06906 26.29792,19.23851 40.28646,25.45301c13.98854,6.22772 27.81459,19.09306 41.91146,23.86633c14.08334,4.78649 28.30209,24.58034 43.73959,22.08131c15.4375,-2.49902 26.7448,-18.32617 42.08751,-23.69444c15.32917,-5.38149 25.2823,-17.69149 41.46459,-24.30267c16.16875,-6.62439 41.70834,1.11068 59.98959,0.39667z"/>
   </g>
   <g stroke="None" id="svg_79" fill="#DF2225">
    <path stroke="null" id="svg_80" d="m930.00006,389.92634c1.06979,10.81588 1.06979,23.65477 0,34.37809c-0.85313,115.8145 -36.77917,225.94339 -100.20835,321.30293c11.28021,0 22.57396,0 33.85417,0c0.63646,3.33203 -1.39479,8.23752 1.35417,10.57787c13.60938,-23.76055 27.66563,-43.4354 39.36563,-68.66363c11.71354,-25.21501 21.68021,-48.59211 30.61771,-75.88302c8.9375,-27.29092 15.96563,-55.48095 21.04375,-85.23122c5.07813,-29.73705 9.39792,-63.66558 10.53542,-95.49176c1.1375,-31.82618 -1.28646,-70.68664 -4.0625,-101.81204c-2.77604,-31.11217 -8.74792,-61.51034 -14.89584,-91.23416c-6.16146,-29.7106 -13.56875,-56.47263 -20.61042,-85.65434c-7.05521,-29.18171 -40.85521,-30.76839 -66.48959,-42.17927c-25.64792,-11.39766 -54.95209,-16.59404 -83.2271,-24.51422c-28.275,-7.93341 -59.12293,-13.34134 -89.57814,-18.31294c-30.44167,-4.9716 -64.4448,-8.40941 -96.24064,-11.80755c-31.79584,-3.39814 -71.13439,-3.57003 -102.91668,0c-31.7823,3.57003 -65.70418,6.50539 -96.13231,11.91333c-30.44167,5.40794 -60.66668,11.04066 -89.37501,18.51128c-28.72188,7.4574 -57.26772,12.81245 -83.67397,24.07789c-26.39271,11.27866 -58.77084,13.88346 -65.39272,43.25028c-6.63542,29.3536 -16.48021,54.6215 -21.59896,84.68911c-5.13229,30.05439 -12.21459,60.02944 -14.86875,91.26061c-2.65417,31.23117 -4.64479,69.93297 -4.04896,101.79882c0.59583,31.86585 6.08021,65.43737 10.81979,95.21409c4.75313,29.76349 12.21459,57.87419 21.21979,85.05933c9.00521,27.17191 18.18646,51.1308 30.55,75.94914c12.36354,24.81834 23.48125,45.28652 38.95938,67.73806c0.59583,-16.35604 23.44063,-6.69051 35.20834,-9.25564c-10.68438,-19.26495 -22.46563,-35.27721 -32.81146,-55.22973c-10.34583,-19.96574 -19.10729,-38.83402 -27.69271,-60.22777c-8.58542,-21.40697 -14.42188,-42.36439 -20.84063,-65.59604c-6.41875,-23.23166 -10.81979,-48.47311 -13.74479,-73.84678c-2.925,-25.37368 -4.76667,-53.9736 -5.11875,-80.94718c-0.35208,-26.97358 1.05625,-57.35852 4.07604,-83.28754c3.00625,-25.94224 7.69167,-48.93589 12.1875,-74.04512c4.49583,-25.10923 13.77188,-44.99563 17.14375,-70.52798c3.38542,-25.53234 25.55313,-32.13029 49.10209,-39.32325c23.54896,-7.20618 42.81876,-14.84869 66.89584,-20.62685c24.06355,-5.79139 47.76147,-11.72822 72.67814,-16.30315c24.91667,-4.57493 51.25522,-7.88052 77.17397,-10.5911c25.91875,-2.71058 54.64063,-7.47062 81.26355,-7.92018c26.62292,-0.44956 56.76667,2.86925 82.59064,5.30216c25.82396,2.43291 53.99063,6.30706 78.54168,10.57787c24.56459,4.25759 51.03855,8.73997 73.58543,15.41725c22.53334,6.69051 48.65522,9.38786 68.31772,19.23851c19.6625,9.86387 50.1448,8.42263 59.8948,28.78504c9.75,20.37563 10.90104,46.02698 17.60417,68.75618c6.70313,22.72921 9.425,49.63667 13.52813,74.05834c4.10313,24.42167 5.41667,54.89917 5.41667,80.65629z"/>
   </g>
   <g stroke="None" id="svg_81" fill="#DF2125">
    <path stroke="null" id="svg_82" d="m553.54167,178.36886c-110.91981,-10.48532 -214.98753,61.56323 -256.87191,160.40024c-41.89792,98.82379 -11.46979,225.96984 78.46043,295.44003c89.94376,69.45697 220.28232,75.20869 314.87088,10.60432c94.58856,-64.60437 133.6021,-182.746 100.42501,-287.8504c-33.19063,-105.09118 -129.71564,-168.46587 -236.88441,-178.59418m-13.54167,107.10098c-1.17813,-11.953 -3.65625,-29.2346 0,-40.98926c2.89792,-9.32175 15.69479,-7.16651 14.89584,-18.51128c-0.79896,-11.34477 0.59583,-21.79042 0,-33.05586c115.7271,2.98825 219.60524,99.96091 231.56253,211.55748c-13.75834,-13.47357 -29.72396,-24.10433 -43.33334,-37.02256c-12.11979,6.69051 -16.92709,22.27965 -28.4375,30.41139c26.10834,-60.90211 4.48229,-137.8297 -56.87501,-170.56822c0.18958,21.79042 -6.73021,44.71796 -18.85,62.25079c-12.11979,17.53283 -27.81459,25.78357 -44.38959,37.31345c-16.56146,11.52988 -39.81251,12.57445 -54.16667,27.76692c-14.35417,15.20569 -25.1875,27.88592 -33.3125,48.12933c-8.125,20.23018 -30.0625,23.74733 -48.64167,33.16164c-18.59271,9.40109 -41.92501,9.78453 -56.91563,26.40502c-14.99063,16.63371 6.9875,35.66066 22.95313,48.32766c15.96563,12.68023 44.20001,7.64251 64.35001,-0.10578c20.15,-7.73507 45.13438,-11.14643 67.41043,-14.83547c22.27604,-3.68903 52.28438,0.02644 73.15209,6.58473c20.88125,6.54506 36.64376,18.11461 55.49376,27.79336c4.07604,-11.33155 6.18854,-23.20521 10.83333,-34.37809c11.29375,10.51176 22.95313,24.40844 28.32917,38.45057c5.38958,14.02891 19.02604,37.27378 10.60313,51.1308c-8.42292,13.85702 -22.2625,24.43489 -34.8698,33.38642c2.38333,-20.87808 2.39688,-44.25518 -4.0625,-63.46725c-5.53854,8.67386 -12.675,17.41383 -17.60417,26.44469c-24.4698,-27.59503 -43.33334,-65.67538 -86.2198,-71.83699c-42.90001,-6.16161 -93.58647,10.86877 -134.50939,20.26985c14.63854,2.8428 33.71875,3.19981 48.76355,5.27571c15.03125,2.07591 30.69896,5.88394 44.25417,11.00099c13.56875,5.11705 23.26459,11.04066 34.61251,19.09306c11.33438,8.06563 19.83854,15.74781 27.99063,26.88102c8.13854,11.13321 15.05834,21.49953 20.12292,34.5632c5.05104,13.0769 11.99792,30.02794 -4.68542,34.51031c-16.68334,4.4956 -26.78542,9.20275 -43.3198,11.91333c-16.53438,2.71058 -33.42084,3.9667 -50.55105,3.53037c-17.13021,-0.43634 -34.49063,-1.38835 -50.11772,-5.27571c-15.61354,-3.90059 -27.05625,-8.29041 -41.96563,-13.23557c19.59479,-16.36926 42.79167,-17.88983 68.61564,-12.78601c25.82396,5.10382 58.09376,2.22135 83.05105,-4.40304c-8.26042,-8.95153 -24.32084,0.18511 -37.91667,0c-13.59584,-0.19834 -33.23125,-0.357 -46.13647,-2.55191c-12.91875,-2.19491 -28.51875,-1.05779 -35.5198,-12.91823c-7.00104,-11.84722 -13.25729,-16.88493 -19.56771,-28.49415c-6.32396,-11.60922 -13.21667,-17.9295 -18.98542,-30.38494c-5.76875,-12.44222 -23.64375,-9.99609 -36.42709,-12.03233c-12.78334,-2.03624 -23.79271,-7.95985 -35.96667,-12.48189c-12.17396,-4.53526 -18.49792,-13.1959 -23.11563,-25.01667c-4.63125,-11.834 -10.76563,-21.15575 -14.19167,-33.75664c-3.4125,-12.61411 -7.85417,-27.07936 -8.42292,-40.69837c-0.56875,-13.61901 6.60833,-23.98533 11.87604,-36.00444c5.26771,-12.00589 10.87396,-18.08816 18.32188,-29.7106c7.44792,-11.60922 20.20417,-13.75124 32.39167,-8.62097c12.20104,5.13027 27.16459,4.62782 39.06771,9.45398c11.91667,4.82616 30.1573,0.96523 32.40521,17.2816c20.43438,-3.76837 26.39271,-25.37368 35.20834,-40.98926c-12.98646,3.12047 -20.52917,20.28307 -33.44792,22.87465c-12.90521,2.6048 -34.07084,-5.51372 -46.54272,-9.55975c-12.47188,-4.04604 -36.72501,-2.16846 -42.31771,-15.53625c-5.59271,-13.36779 -3.65625,-37.52501 -2.36979,-52.08281c1.27292,-14.5578 13.36563,-24.11755 24.13125,-33.29386c10.76563,-9.17631 20.48854,-15.61559 32.5,-23.80022c12.01146,-8.18463 23.68438,-13.03723 37.21251,-20.52108c13.52813,-7.48385 30.45521,-0.63467 44.40313,4.95838c13.96146,5.57983 34.89688,6.74339 31.11875,26.47113c-3.77813,19.72774 3.45313,36.25566 1.35417,55.53384c11.74063,-0.64789 4.99688,-16.26348 6.77083,-23.80022m-74.47918,-81.97852c-14.73334,20.04507 -43.36042,26.94713 -63.23959,42.70817c-19.87917,15.77425 -38.26876,34.43098 -61.34376,44.55929c29.9,-42.45694 76.09064,-71.86343 124.58335,-87.26746m148.95836,181.1461c-7.42083,6.26739 -7.28542,21.61853 -17.91563,24.81834c-10.64375,3.19981 -28.925,-2.80314 -38.95938,-3.66259c17.03542,-11.29188 36.44063,-18.82862 56.87501,-21.15575m-304.68754,47.60043c1.55729,17.73116 4.56354,36.55978 10.73854,52.98193c6.175,16.43537 9.5875,30.57006 19.47292,45.77575c9.87188,15.21892 9.49271,38.37124 6.35104,55.94373c-38.09271,-47.15087 -58.05313,-105.1044 -54.16667,-166.60152c6.68958,2.73702 11.06354,9.01764 17.60417,11.90011z"/>
   </g>
   <g stroke="None" id="svg_83" fill="#F2C911">
    <path stroke="null" id="svg_84" d="m540,244.48057c-2.22083,12.82567 0,27.95203 0,40.98926c-1.77396,7.53674 4.96979,23.15232 -6.77083,23.80022c2.09896,-19.27818 -5.13229,-35.8061 -1.35417,-55.53384c3.77813,-19.72774 -17.15729,-20.8913 -31.11875,-26.47113c-13.94792,-5.59305 -30.875,-12.44222 -44.40313,-4.95838c-13.52813,7.48385 -25.20105,12.33645 -37.21251,20.52108c-12.01146,8.18463 -21.73438,14.62391 -32.5,23.80022c-10.76563,9.17631 -22.85834,18.73606 -24.13125,33.29386c-1.28646,14.5578 -3.22292,38.71502 2.36979,52.08281c5.59271,13.36779 29.84584,11.49022 42.31771,15.53625c12.47188,4.04604 33.6375,12.16456 46.54272,9.55975c12.91875,-2.59158 20.46146,-19.75418 33.44792,-22.87465c-8.81563,15.61559 -14.77396,37.22089 -35.20834,40.98926c-2.24792,-16.31637 -20.48854,-12.45545 -32.40521,-17.2816c-11.90313,-4.82616 -26.86667,-4.32371 -39.06771,-9.45398c-12.1875,-5.13027 -24.94375,-2.98825 -32.39167,8.62097c-7.44792,11.62244 -13.05417,17.70472 -18.32188,29.7106c-5.26771,12.01911 -12.44479,22.38543 -11.87604,36.00444c0.56875,13.61901 5.01042,28.08426 8.42292,40.69837c3.42604,12.60089 9.56042,21.92264 14.19167,33.75664c4.61771,11.82077 10.94167,20.48141 23.11563,25.01667c12.17396,4.52204 23.18334,10.44565 35.96667,12.48189c12.78334,2.03624 30.65834,-0.40989 36.42709,12.03233c5.76875,12.45545 12.66146,18.77573 18.98542,30.38494c6.31042,11.60922 12.56667,16.64693 19.56771,28.49415c7.00104,11.86044 22.60104,10.72332 35.5198,12.91823c12.90521,2.19491 32.54063,2.35358 46.13647,2.55191c13.59584,0.18511 29.65625,-8.95153 37.91667,0c-24.9573,6.62439 -57.22709,9.50686 -83.05105,4.40304c-25.82396,-5.10382 -49.02084,-3.58325 -68.61564,12.78601c14.90938,4.94516 26.35209,9.33497 41.96563,13.23557c15.62709,3.88737 32.9875,4.83938 50.11772,5.27571c17.13021,0.43634 34.01667,-0.81979 50.55105,-3.53037c16.53438,-2.71058 26.63646,-7.41773 43.3198,-11.91333c16.68334,-4.48237 9.73646,-21.43342 4.68542,-34.51031c-5.06458,-13.06367 -11.98438,-23.42999 -20.12292,-34.5632c-8.15208,-11.13321 -16.65625,-18.81539 -27.99063,-26.88102c-11.34792,-8.05241 -21.04375,-13.97602 -34.61251,-19.09306c-13.55521,-5.11705 -29.22292,-8.92508 -44.25417,-11.00099c-15.04479,-2.07591 -34.12501,-2.43291 -48.76355,-5.27571c40.92292,-9.40109 91.60939,-26.43146 134.50939,-20.26985c42.88646,6.16161 61.75001,44.24196 86.2198,71.83699c4.92917,-9.03086 12.06563,-17.77083 17.60417,-26.44469c6.45938,19.21206 6.44583,42.58917 4.0625,63.46725c12.60729,-8.95153 26.44688,-19.5294 34.8698,-33.38642c8.42292,-13.85702 -5.21354,-37.10189 -10.60313,-51.1308c-5.37604,-14.04213 -17.03542,-27.93881 -28.32917,-38.45057c-4.64479,11.17288 -6.75729,23.04654 -10.83333,34.37809c-18.85,-9.67875 -34.61251,-21.2483 -55.49376,-27.79336c-20.86771,-6.55828 -50.87605,-10.27376 -73.15209,-6.58473c-22.27604,3.68903 -47.26042,7.1004 -67.41043,14.83547c-20.15,7.74829 -48.38438,12.78601 -64.35001,0.10578c-15.96563,-12.667 -37.94376,-31.69396 -22.95313,-48.32766c14.99063,-16.62048 38.32292,-17.00393 56.91563,-26.40502c18.57917,-9.41431 40.51667,-12.93145 48.64167,-33.16164c8.125,-20.24341 18.95834,-32.92363 33.3125,-48.12933c14.35417,-15.19247 37.60521,-16.23704 54.16667,-27.76692c16.575,-11.52988 32.2698,-19.78062 44.38959,-37.31345c12.11979,-17.53283 19.03959,-40.46037 18.85,-62.25079c61.3573,32.73852 82.98335,109.66611 56.87501,170.56822c11.51042,-8.13174 16.31771,-23.72088 28.4375,-30.41139c13.60938,12.91823 29.575,23.54899 43.33334,37.02256c-11.95729,-111.59657 -115.83543,-208.56923 -231.56253,-211.55748c0.59583,11.26544 -0.79896,21.71109 0,33.05586c0.79896,11.34477 -11.99792,9.18953 -14.89584,18.51128m54.16667,56.85607c0,-4.53526 1.00208,-9.66553 1.35417,-13.22234c0,-17.38738 -0.18958,-34.57643 1.35417,-51.56714c18.74167,-2.26102 45.56772,19.63518 38.01146,38.43735c-7.54271,18.80217 -23.64375,30.86095 -40.7198,39.57447c0,-4.40304 0,-8.8193 0,-13.22234z"/>
   </g>
   <g stroke="None" id="svg_85" fill="#F2C712">
    <path stroke="null" id="svg_86" d="m465.52082,203.49131c-48.49272,15.40403 -94.68335,44.81052 -124.58335,87.26746c23.075,-10.12831 41.46459,-28.78504 61.34376,-44.55929c19.87917,-15.76103 48.50626,-22.6631 63.23959,-42.70817z"/>
   </g>
   <g stroke="None" id="svg_87" fill="#DF2425">
    <path stroke="null" id="svg_88" d="m595.52084,288.1143c0,4.52204 -1.00208,9.66553 -1.35417,13.22234c0,4.40304 0,8.8193 0,13.22234c17.07604,-8.71352 33.17709,-20.7723 40.7198,-39.57447c7.55625,-18.80217 -19.26979,-40.69837 -38.01146,-38.43735c-1.54375,16.99071 -1.35417,34.17976 -1.35417,51.56714z"/>
   </g>
   <g stroke="None" id="svg_89" fill="#E9781B">
    <path stroke="null" id="svg_90" d="m540,285.46983c0,-13.03723 -2.22083,-28.16359 0,-40.98926c-3.65625,11.75466 -1.17813,29.03626 0,40.98926z"/>
   </g>
   <g stroke="None" id="svg_91" fill="#EA821A">
    <path stroke="null" id="svg_92" d="m594.16667,301.33664c0.35208,-3.55681 1.35417,-8.7003 1.35417,-13.22234c-0.35208,3.55681 -1.35417,8.68708 -1.35417,13.22234z"/>
   </g>
   <g stroke="None" id="svg_93" fill-opacity="0.31" fill="#7C6E0C">
    <path stroke="null" id="svg_94" d="m99.89577,378.02623c0.69063,-2.94858 3.16875,-7.51029 2.70833,-13.22234c-0.14896,3.51714 -2.47813,8.91186 -2.70833,13.22234z"/>
   </g>
   <g stroke="None" id="svg_95" fill-opacity="0.47" fill="#BA9E17">
    <path stroke="null" id="svg_96" d="m978.75006,380.6707c0.21667,-1.57346 1.06979,-1.69246 1.35417,-2.64447c0,-1.75857 0.06771,-3.53037 0,-5.28894c0.01354,-0.10578 -3.99479,1.78502 -2.69479,3.95348c1.31354,2.16846 1.24583,2.78991 1.34063,3.97993z"/>
   </g>
   <g stroke="None" id="svg_97" fill-opacity="0.16" fill="#C5BC96">
    <path stroke="null" id="svg_98" d="m978.75006,380.6707c-0.40625,2.9618 0,6.26739 0,9.25564c0.01354,0.09256 1.35417,0 1.35417,0c0,-3.9667 0,-7.93341 0,-11.90011c-0.28438,0.95201 -1.1375,1.07101 -1.35417,2.64447z"/>
   </g>
   <g stroke="None" id="svg_99" fill-opacity="0.18" fill="#EFE6B8">
    <path stroke="null" id="svg_100" d="m99.89577,430.9156c0.06771,-0.19834 1.35417,0 1.35417,0c-2.04479,-14.95447 0.20313,-31.99807 -1.35417,-46.2782c0,15.43047 0,30.84773 0,46.2782z"/>
   </g>
   <g stroke="None" id="svg_101" fill="#F1C712">
    <path stroke="null" id="svg_102" d="m614.47918,384.6374c-20.43438,2.32713 -39.83959,9.86387 -56.87501,21.15575c10.03438,0.85945 28.31563,6.8624 38.95938,3.66259c10.63021,-3.19981 10.49479,-18.55095 17.91563,-24.81834z"/>
   </g>
   <g stroke="None" id="svg_103" fill="#EA831A">
    <path stroke="null" id="svg_104" d="m930.00006,424.30443c1.06979,-10.72332 1.06979,-23.56221 0,-34.37809c0,11.46377 0,22.91432 0,34.37809z"/>
   </g>
   <g stroke="None" id="svg_105" fill-opacity="0.35" fill="#F8E798">
    <path stroke="null" id="svg_106" d="m978.75006,424.30443c0,-0.05289 1.35417,0 1.35417,0c0,-11.46377 0,-22.91432 0,-34.37809c0,0 -1.34063,0.09256 -1.35417,0c0,11.46377 0,22.91432 0,34.37809z"/>
   </g>
   <g stroke="None" id="svg_107" fill="#F2C912">
    <path stroke="null" id="svg_108" d="m309.79163,432.23784c-6.54063,-2.88247 -10.91458,-9.16308 -17.60417,-11.90011c-3.88646,61.49712 16.07396,119.45064 54.16667,166.60152c3.14167,-17.57249 3.52083,-40.72482 -6.35104,-55.94373c-9.88542,-15.20569 -13.29792,-29.34038 -19.47292,-45.77575c-6.175,-16.42215 -9.18125,-35.25077 -10.73854,-52.98193z"/>
   </g>
   <g stroke="None" id="svg_109" fill-opacity="0.15" fill="#C5BD95">
    <path stroke="null" id="svg_110" d="m980.10423,436.20454c0.08125,-3.9667 0,-7.93341 0,-11.90011c0,0 -1.35417,-0.05289 -1.35417,0c0,4.03281 1.11042,8.77964 1.35417,11.90011z"/>
   </g>
   <g stroke="None" id="svg_111" fill-opacity="0.34" fill="#C1A215">
    <path stroke="null" id="svg_112" d="m99.89577,437.52677c0.37917,0.33056 2.6,-0.25122 2.70833,0c-0.18958,-2.43291 -1.05625,-4.48237 -1.35417,-6.61117c0,0 -1.28646,-0.19834 -1.35417,0c0,2.19491 -0.10833,4.41626 0,6.61117z"/>
   </g>
   <g stroke="None" id="svg_113" fill-opacity="0.31" fill="#846D0C">
    <path stroke="null" id="svg_114" d="m102.6041,450.74912c0.33854,-4.23115 0.325,-8.99119 0,-13.22234c-0.10833,-0.25122 -2.32917,0.33056 -2.70833,0c0.23021,4.40304 2.54583,9.5862 2.70833,13.22234z"/>
   </g>
   <g stroke="None" id="svg_115" fill="#DF2325">
    <path stroke="null" id="svg_116" d="m271.87496,867.25291c27.74688,-8.02596 23.6573,31.74684 31.44375,47.30954c7.8,15.5627 17.79375,7.16651 30.8073,6.8624c13.02709,-0.29089 -2.1125,-20.33596 -1.34063,-27.70081c0.75833,-7.35162 -11.42917,-24.39522 -6.43229,-32.77819c4.99688,-8.38297 16.27709,-13.18268 14.58438,-25.42657c-1.69271,-12.24389 0.85313,-27.72725 0,-39.66703c-0.85313,-11.93978 -2.30208,-20.13763 -13.96146,-26.03479c-11.64584,-5.91039 -24.99792,-1.97013 -38.85105,-3.05436c-13.85313,-1.08423 -25.47188,1.33546 -40.62501,0c-15.15313,-1.33546 -10.61667,16.47504 -10.83333,29.08915c-0.21667,12.61411 0.40625,26.25957 0,39.66703c-0.40625,13.40746 0.86667,25.34723 0,39.66703c-0.86667,14.3198 1.89583,23.69444 0,39.66703c-1.89583,15.97259 3.30417,19.43684 18.94479,15.85359c15.64063,-3.57003 17.08959,-8.87219 16.26354,-23.78699c-0.82604,-14.9148 0.62292,-25.17534 0,-39.66703m31.14584,-67.43395c4.23854,3.08081 5.66042,28.82471 -0.33854,31.40306c-6.0125,2.56513 -31.87709,7.52351 -30.8073,-4.95838c1.08333,-12.49511 -5.75521,-26.44469 12.1875,-26.44469c4.98333,-0.476 14.12396,-3.51714 18.95834,0z"/>
   </g>
   <g stroke="None" id="svg_117" fill="#DF2225">
    <path stroke="null" id="svg_118" d="m362.60414,917.49782c8.05729,-3.31881 25.97292,4.01959 32.14792,-2.98825c6.18854,-6.99462 -0.04063,-21.57886 1.70625,-31.38984c1.74688,-9.81098 -0.975,-21.98876 0,-33.05586c0.975,-11.0671 -0.90729,-22.30609 0,-34.37809c0.90729,-12.072 -1.4625,-19.26495 0,-33.05586c1.4625,-13.7909 -2.73542,-15.62881 -17.60417,-15.86681c-14.86875,-0.238 -17.61771,3.54359 -16.25,17.18905c1.36771,13.64546 -0.65,22.04165 0,34.37809c0.65,12.33645 -0.29792,21.4202 0,33.05586c0.29792,11.63566 -0.1625,21.72431 0,33.05586c0.1625,11.34477 -0.12188,21.80364 0,33.05586z"/>
   </g>
   <g stroke="None" id="svg_119" fill="#DF2225">
    <path stroke="null" id="svg_120" d="m472.29165,860.64174c-3.9,-14.2008 -8.91042,-24.97701 -12.20104,-39.65381c-3.29063,-14.6768 -7.84063,-25.1489 -10.91458,-40.90993c-3.07396,-15.74781 -22.98021,-14.84869 -37.82188,-13.3149c3.85938,22.70276 10.8875,44.51963 17.15729,66.54805c6.28333,22.0152 11.28021,43.0255 16.99479,65.38448c5.72813,22.34576 49.6573,19.02695 52.81251,-3.38492c3.16875,-22.41187 14.21875,-41.74294 18.67396,-63.74491c4.45521,-22.00198 12.13334,-43.07839 17.59063,-64.8027c-14.74688,-1.17679 -36.75209,-3.12047 -39.28438,13.20912c-2.53229,16.34282 -7.66458,26.02157 -10.91458,40.90993c-3.25,14.87514 -7.50208,26.07446 -12.09271,39.75958z"/>
   </g>
   <g stroke="None" id="svg_121" fill="#DF2225">
    <path stroke="null" id="svg_122" d="m516.97916,909.56441c8.08438,-0.44956 16.29063,0.60823 24.375,0c20.16354,-3.92704 16.23646,-30.41139 23.04792,-46.25175c6.825,-15.82714 6.40521,-37.78946 14.86875,-52.91582c7.61042,20.50785 11.45625,43.39573 17.60417,64.78948c-10.38646,0 -20.75938,0 -31.14584,0c4.91563,7.70863 5.01042,4.70715 12.52604,12.89178c7.51563,8.18463 19.28334,17.59894 29.35834,21.57886c10.06146,3.99315 12.59375,4.87904 21.46354,3.58325c8.85625,-1.30901 13.23021,0.44956 9.47917,-11.31833c-3.76458,-11.76789 -7.48854,-27.59503 -10.83333,-39.66703c-3.34479,-12.072 -1.97708,-8.25074 -5.41667,-19.83351c-3.43958,-11.58277 -7.88125,-26.94713 -10.63021,-38.54313c-2.7625,-11.58277 -3.33125,-11.37121 -5.41667,-19.83351c-2.08542,-8.44908 -2.925,-11.93978 -9.28958,-16.05192c-6.35104,-4.11215 -16.01979,-0.70078 -23.11563,-1.22968c-7.09583,-0.52889 -16.53438,-2.39324 -18.98542,6.58473c-2.46458,8.96475 -2.31563,8.7003 -5.41667,19.83351c-3.11458,11.11999 -7.66458,27.29092 -10.83333,38.34479c-3.18229,11.04066 -3.11458,11.50344 -5.41667,19.83351c-2.31563,8.31685 -3.95417,12.94467 -5.41667,19.83351c-1.47604,6.87562 -5.30833,14.06857 -5.48438,19.7674c-0.18958,5.68561 -7.69167,14.87514 -5.32188,18.60384z"/>
   </g>
   <g stroke="None" id="svg_123" fill="#E97E1B">
    <path stroke="null" id="svg_124" d="m655.10418,768.08534c6.20208,-0.87267 24.26667,-2.6048 29.79167,0c-4.23854,-2.92214 -25.49896,-3.09403 -29.79167,0z"/>
   </g>
   <g stroke="None" id="svg_125" fill="#DF2125">
    <path stroke="null" id="svg_126" d="m741.77086,791.88556c-0.40625,10.55143 -0.40625,22.14742 -1.35417,31.73362c0,10.7101 1.43542,21.36731 12.07917,27.8727c10.64375,6.50539 19.03959,7.14007 33.9625,6.50539c14.92292,-0.63467 20.3125,4.28404 20.3125,19.83351c0,4.29726 1.00208,9.96965 -1.35417,13.22234c-4.78021,6.61117 -25.675,4.13859 -28.4375,-3.9667c-1.69271,-4.94516 -1.54375,-11.34477 -1.35417,-17.18905c-7.44792,1.93046 -29.23646,-8.13174 -33.85417,0c-4.61771,8.13174 -1.88229,24.65967 1.39479,33.01619c3.26354,8.36974 8.40938,15.84037 18.61979,18.84184c10.21042,3.00147 20.40729,2.92214 32.5,5.28894c12.09271,2.3668 20.35313,0.72723 34.15209,4.99805c13.79896,4.27082 16.83229,-6.82273 14.89584,-19.83351c-1.93646,-13.01079 0.69063,-24.81834 0,-37.02256c-0.69063,-12.20422 0.58229,-22.67632 -4.17083,-32.95008c-4.73958,-10.28698 -14.09688,-12.90501 -24.26667,-14.65036c-10.16979,-1.74535 -25.72917,2.22135 -34.19271,-3.63614c-8.45,-5.87072 -7.66458,-21.28797 2.74896,-24.42167c10.41354,-3.1337 21.72084,-0.09256 25.62084,9.9432c3.91354,10.03576 25.22813,1.17679 32.90625,4.89227c0,-15.86681 0,-31.73362 0,-47.60043c-20.24479,-1.17679 -43.72605,1.57346 -63.64584,0c-19.91979,-1.57346 -35.76355,4.60138 -36.56251,25.12245z"/>
   </g>
   <g stroke="None" id="svg_127" fill="#DF2025">
    <path stroke="null" id="svg_128" d="m653.75001,769.40758c-1.1375,7.72185 0.46042,15.99903 0,23.80022c-0.46042,7.80118 0.08125,16.01226 0,23.80022c-0.08125,7.78796 -0.24375,16.11804 0,23.80022c0.24375,7.68218 -0.73125,16.40893 0,23.80022c0.73125,7.39129 -1.70625,17.05682 0,23.80022c1.70625,6.74339 -3.80521,18.48484 0,23.80022c26.39271,4.57493 55.39897,4.4956 82.60418,7.93341c-5.15938,-7.6954 -0.90729,-20.25663 -7.08229,-27.46281c-6.175,-7.19295 -15.78959,-6.54506 -27.82813,-5.88394c-12.025,0.66112 -15.77604,-8.95153 -13.83959,-20.86486c1.93646,-11.91333 -0.325,-22.16065 0,-33.05586c0.325,-10.89521 0.89375,-24.60678 0,-34.37809c-0.89375,-9.77131 4.13021,-25.69101 -2.70833,-30.41139c-5.525,-2.6048 -23.58959,-0.87267 -29.79167,0c-0.40625,0.29089 -1.05625,0.92556 -1.35417,1.32223z"/>
   </g>
   <g stroke="None" id="svg_129" fill="#EA8A19">
    <path stroke="null" id="svg_130" d="m653.75001,912.20888c-3.80521,-5.31538 1.70625,-17.05682 0,-23.80022c-1.70625,-6.74339 0.73125,-16.40893 0,-23.80022c-0.73125,-7.39129 0.24375,-16.11804 0,-23.80022c-0.24375,-7.68218 -0.08125,-16.01226 0,-23.80022c0.08125,-7.78796 -0.46042,-15.99903 0,-23.80022c0.46042,-7.80118 -1.1375,-16.07837 0,-23.80022c-5.90417,7.82763 0.14896,25.5059 -1.35417,35.70033c-1.50313,10.19443 -0.12188,25.20179 0,35.70033c0.12188,10.49854 -1.65208,27.29092 0,37.02256c1.65208,9.73164 -5.15938,28.01814 1.35417,34.37809z"/>
   </g>
   <g stroke="None" id="svg_131" fill="#EA811A">
    <path stroke="null" id="svg_132" d="m740.41669,823.61918c0.94792,-9.5862 0.94792,-21.18219 1.35417,-31.73362c-1.40833,9.61264 -1.35417,21.11608 -1.35417,31.73362z"/>
   </g>
   <g stroke="None" id="svg_133" fill="#EA801A">
    <path stroke="null" id="svg_134" d="m284.06246,799.81897c4.55,0 15.00417,-1.97013 18.95834,0c-4.83438,-3.51714 -13.975,-0.476 -18.95834,0z"/>
   </g>
   <g stroke="None" id="svg_135" fill="#F2C912">
    <path stroke="null" id="svg_136" d="m303.0208,799.81897c-3.95417,-1.97013 -14.40834,0 -18.95834,0c-17.94271,0 -11.10417,13.94957 -12.1875,26.44469c-1.06979,12.48189 24.7948,7.52351 30.8073,4.95838c5.99896,-2.57836 4.57708,-28.32226 0.33854,-31.40306z"/>
   </g>
   <g stroke="None" id="svg_137" fill="#E97F1B">
    <path stroke="null" id="svg_138" d="m776.9792,887.08643c-0.93438,-4.70715 2.28854,-13.83057 -1.35417,-17.18905c-0.18958,5.84428 -0.33854,12.24389 1.35417,17.18905z"/>
   </g>
   <g stroke="None" id="svg_139" fill="#E9761C">
    <path stroke="null" id="svg_140" d="m805.4167,891.05313c2.35625,-3.2527 1.35417,-8.92508 1.35417,-13.22234c-0.18958,1.87757 -0.29792,11.08032 -1.35417,13.22234z"/>
   </g>
   <g stroke="None" id="svg_141" fill="#EA811A">
    <path stroke="null" id="svg_142" d="m541.35416,909.56441c-8.08438,0.60823 -16.29063,-0.44956 -24.375,0c2.74896,4.33693 20.56979,0.70078 24.375,0z"/>
   </g>
   <g stroke="None" id="svg_143" fill="#DF2225">
    <path stroke="null" id="svg_144" d="m686.25002,936.0091c-18.28125,0.71401 -43.82084,-7.02106 -59.98959,-0.39667c-16.18229,6.61117 -26.13542,18.92117 -41.46459,24.30267c-15.34271,5.36827 -26.65,21.19542 -42.08751,23.69444c-15.4375,2.49902 -29.65625,-17.29482 -43.73959,-22.08131c-14.09688,-4.77327 -27.92292,-17.63861 -41.91146,-23.86633c-13.98854,-6.2145 -26.2573,-19.38395 -40.28646,-25.45301c-1.77396,5.87072 3.4125,18.24683 -2.41042,21.44664c-5.82292,3.19981 -14.4625,-0.18511 -20.61042,2.35358c10.4,11.88689 25.75625,18.00883 38.95938,28.07103c13.20313,10.0622 27.92292,15.49659 41.95209,25.1489c14.02917,9.63909 28.72188,13.42068 43.36042,23.77377c14.65209,10.35309 30.34688,9.83742 44.89063,-0.40989c14.55729,-10.23409 29.37188,-14.22724 43.33334,-23.80022c13.975,-9.55975 28.7625,-15.29825 41.97917,-25.12245c13.21667,-9.8242 27.69271,-15.9197 38.02501,-27.66114z"/>
   </g>
   <g stroke="None" id="svg_145" fill-opacity="0.42" fill="#776508">
    <path stroke="null" id="svg_146" d="m217.70828,954.52038c-2.55938,-1.73213 -2.41042,-18.11461 -2.70833,-21.15575c0,6.91529 -1.88229,20.20374 2.70833,21.15575z"/>
   </g>
   <g stroke="None" id="svg_147" fill-opacity="0.44" fill="#7F6B08">
    <path stroke="null" id="svg_148" d="m305.72913,943.9425c4.68542,1.22968 9.99375,0.52889 14.89584,0c-2.96563,-0.07933 -12.14688,0.29089 -14.89584,0z"/>
   </g>
  </g>
 </g>
</svg>