<svg width="1080" height="1080" xmlns="http://www.w3.org/2000/svg">

 <g>
  <title>Layer 1</title>
  <g stroke="null" id="svg_149">
   <g stroke="#000000" id="svg_1" stroke-width="0.3" stroke-opacity="0" fill-opacity="0" fill="None">
    <path stroke="null" id="svg_2" d="m10.83337,1097.16666l1058.33331,0l0,-1114.33334l-1058.33331,0l0,1114.33334m959.11456,-708.57716c0.06615,1.5919 0,3.19578 0,4.78768c0,3.59076 0,7.18153 0,10.77229c0,10.3773 0,20.74264 0,31.11994c0,3.59076 0.07937,7.18153 0,10.77229c-0.30427,13.92019 -3.16177,24.97974 -3.95552,38.31344c-0.80698,13.3337 -3.37344,25.35078 -5.02708,37.36787c-1.64042,12.01709 -5.50333,25.09943 -8.18885,36.85319c-2.67229,11.76573 -7.23635,25.39866 -10.59656,37.09258c-3.37344,11.69392 -8.89,23.49556 -13.14979,34.78252c-4.25979,11.28696 -9.39271,22.78937 -14.605,33.46591c-5.22552,10.66457 -10.92729,21.41291 -16.93333,31.35933c-6.00604,9.94641 -11.37708,20.97005 -18.52083,29.92302c-7.14375,8.95297 -11.5226,24.15386 -22.79385,24.86005c-0.84667,9.24023 1.12448,20.93415 0,29.92302c-1.12448,8.98888 3.91583,22.41833 -3.96875,26.33226c10.78177,34.986 2.8575,74.37666 5.29167,111.31364c-25.84979,-1.32858 -56.2901,-7.30122 -82.03406,-9.5634c-25.74396,-2.27415 -59.90167,-14.31517 -80.72437,2.34596c-20.82271,16.64917 -39.42292,24.36931 -61.74052,38.70842c-22.30437,14.32714 -42.28042,18.51637 -64.88906,33.44197c-22.59542,14.93757 -50.54864,5.36221 -72.09896,-8.37845c-21.53708,-13.75262 -44.70135,-20.19206 -64.59802,-33.71726c-19.88344,-13.53718 -40.36219,-22.94497 -58.1025,-39.59414c-14.73729,1.81932 -32.04104,2.44172 -47.625,4.78768c-4.78896,0.47877 -9.97479,1.11314 -14.55208,0c-6.33677,-1.54403 -10.63625,-5.35024 -15.875,-8.37845c-14.56531,22.05925 -45.24375,13.3337 -70.11458,17.95381c-4.48469,-0.86178 -2.64583,-12.89084 -2.64583,-19.15073c0,-21.58048 1.1774,-48.3556 0,-69.42141c-1.1774,-21.06581 3.13531,-50.25871 0,-69.42141c-3.13531,-19.1627 -21.73552,-26.09288 -28.7999,-43.36444c-7.06437,-17.27157 -18.6399,-29.00139 -25.84979,-46.03358c-7.19667,-17.04415 -15.39875,-32.01763 -21.78844,-49.70812c-6.37646,-17.70246 -11.57552,-34.49526 -16.15281,-52.41317c-4.57729,-17.90594 -9.06198,-32.4964 -11.05958,-49.89963c-2.01083,-17.39126 -7.72583,-38.69645 -6.15156,-56.61436c-0.15875,-3.29153 -2.42094,-7.98346 -2.64583,-11.96921c-0.10583,-1.98689 0,-3.99772 0,-5.9846c0,-13.96807 0,-27.92416 0,-41.89223c0,-1.98689 -0.10583,-3.99772 0,-5.9846c0.2249,-3.90196 2.50031,-8.7854 2.64583,-11.96921c-3.01625,-34.33966 8.90323,-68.75114 13.21594,-100.55332c4.31271,-31.80219 17.56833,-64.60979 25.12219,-96.96256c7.54062,-32.36474 49.2125,-33.52575 78.96489,-45.85404c29.7524,-12.32829 55.25823,-15.34453 87.85489,-23.45965c32.59667,-8.11512 67.36292,-11.82558 103.17427,-16.92446c35.82458,-5.11085 80.08937,-10.00626 120.29281,-9.49158c40.20344,0.51468 82.89396,4.51239 119.16833,9.47961c36.26115,4.97919 69.98229,8.67768 103.10812,16.82871c33.13906,8.13906 59.65031,13.22598 90.03771,23.8666c30.3874,10.6526 72.05927,18.07351 77.85364,51.64714c5.78115,33.5856 20.08187,63.36499 24.68562,96.56758c4.61698,33.19062 12.32958,67.37468 13.77156,102.03751z"/>
   </g>
   <g stroke="#F1C910" id="svg_3" stroke-width="0.3" fill-opacity="0" fill="None">
    <path stroke="null" id="svg_4" d="m112.69795,381.40797c0.44979,5.1707 -1.97115,9.30008 -2.64583,11.96921c-0.10583,1.98689 0,3.99772 0,5.9846c1.52135,12.92675 -0.67469,28.35506 1.32292,41.89223c0.29104,1.92704 1.13771,3.78227 1.32292,5.9846c0.3175,3.83015 0.33073,8.13906 0,11.96921c-1.57427,17.91791 4.14073,39.2231 6.15156,56.61436c1.9976,17.40323 6.48229,31.9937 11.05958,49.89963c4.57729,17.91791 9.77635,34.71071 16.15281,52.41317c6.38969,17.69049 14.59177,32.66397 21.78844,49.70812c7.2099,17.03218 18.78542,28.76201 25.84979,46.03358c7.06437,17.27157 25.66458,24.20174 28.7999,43.36444c3.13531,19.1627 -1.1774,48.3556 0,69.42141c1.1774,21.06581 0,47.84093 0,69.42141c0.29104,2.75292 0.14552,17.58277 2.64583,19.15073c24.87083,-4.62011 55.54927,4.10544 70.11458,-17.95381c5.23875,3.02821 9.53823,6.83442 15.875,8.37845c2.68552,0.26332 11.6549,-0.07182 14.55208,0c15.58396,-2.34596 32.88771,-2.96836 47.625,-4.78768c17.74031,16.64917 38.21906,26.05697 58.1025,39.59414c19.89667,13.52521 43.06094,19.96464 64.59802,33.71726c21.55031,13.74065 49.50354,23.31602 72.09896,8.37845c22.60865,-14.9256 42.58469,-19.11483 64.88906,-33.44197c22.3176,-14.33911 40.91781,-22.05925 61.74052,-38.70842c20.82271,-16.66114 54.98042,-4.62011 80.72437,-2.34596c25.74396,2.26218 56.18427,8.23482 82.03406,9.5634c-2.43417,-36.93698 5.4901,-76.32764 -5.29167,-111.31364c7.88458,-3.91393 2.84427,-17.34338 3.96875,-26.33226c1.12448,-8.98888 -0.84667,-20.68279 0,-29.92302c11.27125,-0.70618 15.6501,-15.90708 22.79385,-24.86005c7.14375,-8.95297 12.51479,-19.97661 18.52083,-29.92302c6.00604,-9.94641 11.70781,-20.69476 16.93333,-31.35933c5.21229,-10.67653 10.34521,-22.17894 14.605,-33.46591c4.25979,-11.28696 9.77635,-23.0886 13.14979,-34.78252c3.36021,-11.69392 7.92427,-25.32685 10.59656,-37.09258c2.68552,-11.75376 6.54844,-24.83611 8.18885,-36.85319c1.65365,-12.01709 4.2201,-24.03417 5.02708,-37.36787c0.79375,-13.3337 3.65125,-24.39325 3.95552,-38.31344c-0.23812,-2.82473 -1.32292,-7.12168 -1.32292,-10.77229c0,-10.3773 0,-20.74264 0,-31.11994c0,-2.70504 -0.39687,-5.69734 0,-8.37845c-0.0926,-1.07723 -0.02646,-1.63978 -1.30969,-3.60273c-1.27,-1.96295 2.64583,-3.67455 2.6326,-3.57879c-1.44198,-34.66283 -9.15458,-68.84689 -13.77156,-102.03751c-4.60375,-33.20259 -18.90448,-62.98198 -24.68562,-96.56758c-5.79437,-33.57363 -47.46625,-40.99454 -77.85364,-51.64714c-30.3874,-10.64063 -56.89864,-15.72754 -90.03771,-23.8666c-33.12583,-8.15103 -66.84698,-11.84952 -103.10812,-16.82871c-36.27437,-4.96722 -78.96489,-8.96494 -119.16833,-9.47961c-40.20344,-0.51468 -84.46823,4.38073 -120.29281,9.49158c-35.81135,5.09888 -70.5776,8.80934 -103.17427,16.92446c-32.59667,8.11512 -58.1025,11.13136 -87.85489,23.45965c-29.7524,12.32829 -71.42427,13.4893 -78.96489,45.85404c-7.55385,32.35277 -20.80948,65.16037 -25.12219,96.96256c-4.31271,31.80219 -16.23219,66.21366 -13.21594,100.55332m808.30207,53.86144c0,-10.3773 0,-20.74264 0,-31.11994c0,-23.31602 -1.28323,-50.90505 -5.29167,-73.01217c-4.00844,-22.10713 -6.6675,-46.46447 -13.21594,-67.03954c-6.54844,-20.57507 -7.67292,-43.79534 -17.19792,-62.23989c-9.525,-18.43258 -39.30385,-17.12794 -58.5126,-26.05697c-19.20875,-8.91706 -44.72781,-11.35878 -66.74114,-17.4152c-22.02656,-6.04445 -47.88958,-10.10201 -71.88729,-13.9561c-23.98448,-3.86605 -51.50114,-7.37303 -76.72916,-9.57537c-25.22802,-2.20233 -54.67614,-5.20661 -80.68469,-4.79965c-26.00854,0.40695 -54.0676,4.71587 -79.38823,7.16956c-25.32062,2.45369 -51.05135,5.44599 -75.39302,9.58734c-24.34167,4.14135 -47.49271,9.51552 -71.00094,14.75803c-23.52146,5.23054 -42.34656,12.14875 -65.35208,18.67197c-23.00552,6.51125 -44.66167,12.48388 -47.96896,35.59643c-3.29406,23.11254 -12.35604,41.11423 -16.74812,63.84376c-4.39208,22.72953 -8.96937,43.54398 -11.90625,67.02757c-2.9501,23.47162 -4.32594,50.97686 -3.98198,75.39405c0.34396,24.41719 2.14312,50.30658 5.00062,73.2755c2.8575,22.96891 7.15698,45.81813 13.4276,66.84803c6.27062,21.0299 11.9724,40.0011 20.35969,59.37925c8.38729,19.36618 16.94656,36.44624 27.05365,54.51975c10.10708,18.06154 21.61646,32.55625 32.05427,49.99539c-11.49615,2.32203 -33.81375,-6.42747 -34.39583,8.37845c-15.12094,-20.32372 -25.98208,-38.85205 -38.06031,-61.31826c-12.07823,-22.46621 -21.0476,-44.15441 -29.845,-68.75114c-8.7974,-24.60869 -16.08667,-50.05523 -20.7301,-76.99792c-4.63021,-26.95466 -9.98802,-57.34448 -10.5701,-86.19027c-0.58208,-28.84579 1.3626,-63.87967 3.95552,-92.15094c2.59292,-28.27127 9.51177,-55.40547 14.52562,-82.61148c5.00062,-27.21798 14.61823,-50.09114 21.10052,-76.66278c6.46906,-26.58361 38.1,-28.94155 63.88364,-39.15128c25.79687,-10.19777 53.68396,-15.0453 81.74302,-21.79593c28.04583,-6.7626 57.57333,-11.86149 87.3125,-16.75689c29.72594,-4.89541 62.865,-7.55257 93.91385,-10.78426c31.04885,-3.23169 69.47958,-3.07609 100.54166,0c31.06208,3.07609 64.28052,6.18808 94.01969,10.6885c29.7524,4.50042 59.88844,9.39583 87.51094,16.57735c27.6225,7.16956 56.25042,11.87346 81.30646,22.19091c25.04281,10.32943 58.06281,11.76573 64.95521,38.18178c6.87917,26.41604 14.11552,50.64172 20.13479,77.53653c6.00604,26.90678 11.8401,54.42399 14.55208,82.58754c2.71198,28.17552 5.08,63.35302 3.96875,92.16291c-1.11125,28.80989 -5.33135,59.52288 -10.29229,86.44163c-4.96094,26.93072 -11.82687,52.44907 -20.55812,77.15352c-8.73125,24.70445 -18.46792,45.86601 -29.91115,68.69129c-11.43,22.83725 -25.16187,40.64743 -38.45719,62.1561c-2.68552,-2.11855 -0.70115,-6.55913 -1.32292,-9.57537c-11.0199,0 -22.05302,0 -33.07292,0c61.96542,-86.32193 97.06239,-186.01347 97.89583,-290.85177m-367.77083,-222.62728c104.69562,9.16841 198.99312,66.53683 231.41781,161.6681c32.41146,95.14324 -5.70177,202.08812 -98.1075,260.56968c-92.40573,58.48155 -219.73645,53.27495 -307.60458,-9.59931c-87.85489,-62.88622 -117.58083,-177.98214 -76.64979,-267.44c40.91781,-89.46984 142.58396,-154.69006 250.94406,-145.19847m-275.16666,623.59578c0.60854,13.11825 -0.80698,22.40636 0,35.90763c0.80698,13.50127 -0.60854,18.30092 -15.88823,21.53261c-15.27969,3.24366 -20.35969,0.10772 -18.5076,-14.35108c1.85208,-14.4588 -0.84667,-22.94497 0,-35.90763c0.84667,-12.96265 -0.39687,-23.77085 0,-35.90763c0.39687,-12.13678 -0.21167,-24.489 0,-35.90763c0.21167,-11.41863 -4.2201,-27.54115 10.58333,-26.33226c14.80344,1.20889 26.15406,-0.98148 39.6875,0c13.53344,0.98148 26.5774,-2.58535 37.95448,2.76489c11.39031,5.33827 12.80583,12.75918 13.63927,23.56737c0.83344,10.8082 -1.65365,24.82414 0,35.90763c1.65365,11.08349 -9.36625,15.42831 -14.24781,23.01679c-4.88156,7.58848 7.02469,23.01679 6.28385,29.67167c-0.75406,6.66685 14.03615,24.81217 1.30969,25.07549c-12.71323,0.27529 -22.47635,7.87574 -30.09635,-6.21202c-7.60677,-14.08776 -3.61156,-50.09114 -30.71812,-42.82583m88.63541,45.48299c-0.11906,-10.1858 0.15875,-19.65344 0,-29.92302c-0.15875,-10.25761 0.29104,-19.39012 0,-29.92302c-0.29104,-10.5329 0.635,-18.75575 0,-29.92302c-0.635,-11.16727 1.33615,-18.76772 0,-31.11994c-1.33615,-12.35222 1.34937,-15.77542 15.875,-15.55997c14.52562,0.21545 18.62667,1.87917 17.19792,14.36305c-1.42875,12.48388 0.88635,18.99513 0,29.92302c-0.88635,10.92789 0.9525,21.10172 0,31.11994c-0.9525,10.01823 1.70656,21.04187 0,29.92302c-1.70656,8.88115 4.37885,22.08319 -1.66687,28.4149c-6.0325,6.34368 -23.53469,-0.29923 -31.40604,2.70504m107.15625,-51.4676c4.48469,-12.38813 8.63865,-22.52605 11.81365,-35.99141c3.175,-13.47733 8.18885,-22.23879 10.66271,-37.03273c2.47385,-14.78197 23.97125,-13.0225 38.37781,-11.95724c-5.33135,19.66541 -12.83229,38.74433 -17.18469,58.66109c-4.3524,19.91676 -15.1474,37.41575 -18.24302,57.70356c-3.0824,20.28781 -45.99781,23.29208 -51.59375,3.06412c-5.58271,-20.23993 -10.46427,-39.25901 -16.6026,-59.18774c-6.1251,-19.9407 -12.99104,-39.6899 -16.76135,-60.24103c14.49917,-1.38843 33.94604,-2.20233 36.94906,12.05299c3.00302,14.2673 7.44802,23.74691 10.66271,37.03273c3.21469,13.28582 8.10948,23.04073 11.91948,35.89566m67.46875,44.28607c-3.7174,0.63437 -21.12698,3.9259 -23.8125,0c-2.3151,-3.37532 5.01385,-11.69392 5.19906,-16.84068c0.17198,-5.15873 3.91583,-11.66998 5.35781,-17.89397c1.42875,-6.23596 3.02948,-10.42518 5.29167,-17.95381c2.24896,-7.5406 2.18281,-7.95952 5.29167,-17.95381c3.09562,-10.00626 7.54062,-24.6446 10.58333,-34.71071c3.02948,-10.07807 2.88396,-9.83869 5.29167,-17.95381c2.39448,-8.12709 11.61521,-6.43943 18.54729,-5.96067c6.93208,0.47877 16.37771,-2.60929 22.58219,1.11314c6.21771,3.72242 7.03792,6.8823 9.07521,14.53062c2.03729,7.66029 2.59292,7.46879 5.29167,17.95381c2.68552,10.497 7.02469,24.40522 10.3849,34.89024c3.36021,10.48503 2.02406,7.02593 5.29167,17.95381c3.2676,10.92789 6.90562,25.25503 10.58333,35.90763c3.66448,10.6526 -0.60854,9.06069 -9.26042,10.24564c-8.6651,1.17298 -11.13896,0.37105 -20.96823,-3.24366c-9.8425,-3.60273 -21.33865,-12.12481 -28.68083,-19.53375c-7.34219,-7.40894 -7.43479,-4.69193 -12.23698,-11.66998c10.14677,0 20.28031,0 30.42708,0c-6.00604,-19.36618 -9.76312,-40.08488 -17.19792,-58.64912c-8.26823,13.69277 -7.85812,33.57363 -14.52562,47.90077c-6.65427,14.33911 -2.81781,38.31344 -22.51604,41.86829m140.22916,-128.07053c6.68073,4.27301 1.77271,18.68394 2.64583,27.52918c0.87312,8.84525 0.3175,21.25731 0,31.11994c-0.3175,9.86263 1.89177,19.13876 0,29.92302c-1.89177,10.78426 1.77271,19.48587 13.52021,18.88741c11.76073,-0.59846 21.15344,-1.18495 27.18594,5.3263c6.0325,6.52322 1.87854,17.89397 6.91885,24.86005c-26.5774,-3.11199 -54.91427,-3.04018 -80.69791,-7.18153c-6.36323,-5.75719 0.29104,-22.31061 -1.32292,-31.11994c-1.61396,-8.80934 0.11906,-24.01023 0,-33.51378c-0.11906,-9.50355 -1.46844,-23.0886 0,-32.31686c1.46844,-9.22826 -4.445,-25.23109 1.32292,-32.31686c0.29104,-0.35908 0.92604,-0.9336 1.32292,-1.19692c4.19365,-2.80079 24.96344,-2.6452 29.10417,0m88.63541,92.16291c3.55865,3.04018 0.4101,11.29893 1.32292,15.55997c2.69875,7.33713 23.11135,9.57537 27.78125,3.59076c1.03187,-1.93901 1.13771,-10.26958 1.32292,-11.96921c0,-14.07579 -5.26521,-18.52834 -19.84375,-17.95381c-14.57854,0.57452 -22.78062,0 -33.17875,-5.88885c-10.39812,-5.88885 -11.80042,-15.53603 -11.80042,-25.23109c0,-9.61127 -0.05292,-20.02449 1.32292,-28.7261c0.78052,-18.57621 16.25865,-24.16583 35.71875,-22.7415c19.4601,1.42434 42.39948,-1.06526 62.17708,0c0,14.36305 0,28.7261 0,43.08915c-7.50094,-3.36335 -28.32365,4.65602 -32.14687,-4.42861c-3.81,-9.08463 -14.85635,-11.83755 -25.02958,-9.00085c-10.17323,2.8367 -10.94052,16.7928 -2.68552,22.10713c8.26823,5.30236 23.46854,1.7116 33.40365,3.29153c9.9351,1.57994 19.07646,3.94984 23.70667,13.26188c4.64344,9.30008 3.3999,18.77969 4.07458,29.82727c0.67469,11.04758 -1.89177,21.73608 0,33.51378c1.89177,11.7777 -1.07156,21.81987 -14.55208,17.95381c-13.48052,-3.86605 -21.55031,-2.38187 -33.36396,-4.52436c-11.81365,-2.14249 -21.77521,-2.07067 -31.75,-4.78768c-9.97479,-2.71701 -15.00187,-9.47961 -18.1901,-17.05612c-3.20146,-7.56454 -5.87375,-22.52605 -1.3626,-29.88711c4.51115,-7.36106 25.79687,1.7475 33.07292,0m-87.3125,59.84604c-10.09385,10.62866 -24.23583,16.14646 -37.1475,25.03958c-12.91167,8.89312 -27.35792,14.08776 -41.01042,22.7415c-13.63927,8.66571 -28.11198,12.28041 -42.33333,21.54458c-14.20812,9.27614 -29.54073,9.74294 -43.85469,0.37105c-14.30073,-9.37189 -28.65437,-12.79508 -42.35979,-21.52064c-13.70542,-8.73752 -28.08552,-13.65687 -40.98396,-22.76544c-12.89844,-9.10857 -27.90031,-14.65031 -38.06031,-25.41063c6.00604,-2.29809 14.44625,0.76603 20.13479,-2.13052c5.68854,-2.89655 0.62177,-14.09973 2.35479,-19.41406c13.70542,5.49387 25.69104,17.4152 39.35677,23.04073c13.66573,5.6375 27.17271,17.28354 40.94427,21.60442c13.75833,4.33285 27.64896,22.25076 42.73021,19.98858c15.08125,-2.26218 26.1276,-16.58932 41.11625,-21.44882c14.97542,-4.87147 24.69885,-16.0148 40.50771,-21.99941c15.79562,-5.99657 40.74583,1.00541 58.60521,0.35908z"/>
   </g>
   <g stroke="#DF2225" id="svg_5" stroke-width="0.3" fill-opacity="0" fill="None">
    <path stroke="null" id="svg_6" d="m921.00002,404.14946c1.0451,9.79081 1.0451,21.41291 0,31.11994c-0.83344,104.8383 -35.93042,204.52984 -97.89583,290.85177c11.0199,0 22.05302,0 33.07292,0c0.62177,3.01624 -1.3626,7.45682 1.32292,9.57537c13.29531,-21.50867 27.02719,-39.31885 38.45719,-62.1561c11.44323,-22.82528 21.1799,-43.98684 29.91115,-68.69129c8.73125,-24.70445 15.59719,-50.2228 20.55812,-77.15352c4.96094,-26.91875 9.18104,-57.63174 10.29229,-86.44163c1.11125,-28.80989 -1.25677,-63.98739 -3.96875,-92.16291c-2.71198,-28.16355 -8.54604,-55.68076 -14.55208,-82.58754c-6.01927,-26.89481 -13.25562,-51.12049 -20.13479,-77.53653c-6.8924,-26.41604 -39.91239,-27.85235 -64.95521,-38.18178c-25.05604,-10.31746 -53.68396,-15.02136 -81.30646,-22.19091c-27.6225,-7.18153 -57.75854,-12.07693 -87.51094,-16.57735c-29.73917,-4.50042 -62.9576,-7.61242 -94.01969,-10.6885c-31.06208,-3.07609 -69.49281,-3.23169 -100.54166,0c-31.04885,3.23169 -64.18792,5.88885 -93.91385,10.78426c-29.73917,4.89541 -59.26667,9.99429 -87.3125,16.75689c-28.05906,6.75063 -55.94614,11.59816 -81.74302,21.79593c-25.78365,10.20974 -57.41458,12.56767 -63.88364,39.15128c-6.48229,26.57164 -16.0999,49.4448 -21.10052,76.66278c-5.01385,27.20601 -11.93271,54.34021 -14.52562,82.61148c-2.59292,28.27127 -4.5376,63.30515 -3.95552,92.15094c0.58208,28.84579 5.9399,59.23561 10.5701,86.19027c4.64344,26.94269 11.93271,52.38923 20.7301,76.99792c8.7974,24.59672 17.76677,46.28493 29.845,68.75114c12.07823,22.46621 22.93937,40.99454 38.06031,61.31826c0.58208,-14.80591 22.89969,-6.05642 34.39583,-8.37845c-10.43781,-17.43914 -21.94719,-31.93385 -32.05427,-49.99539c-10.10708,-18.07351 -18.66635,-35.15357 -27.05365,-54.51975c-8.38729,-19.37815 -14.08906,-38.34935 -20.35969,-59.37925c-6.27062,-21.0299 -10.5701,-43.87912 -13.4276,-66.84803c-2.8575,-22.96891 -4.65667,-48.85831 -5.00062,-73.2755c-0.34396,-24.41719 1.03187,-51.92243 3.98198,-75.39405c2.93687,-23.48359 7.51417,-44.29804 11.90625,-67.02757c4.39208,-22.72953 13.45406,-40.73122 16.74812,-63.84376c3.30729,-23.11254 24.96344,-29.08518 47.96896,-35.59643c23.00552,-6.52322 41.83062,-13.44142 65.35208,-18.67197c23.50823,-5.24251 46.65927,-10.61669 71.00094,-14.75803c24.34167,-4.14135 50.07239,-7.13365 75.39302,-9.58734c25.32062,-2.45369 53.37969,-6.7626 79.38823,-7.16956c26.00854,-0.40695 55.45667,2.59732 80.68469,4.79965c25.22802,2.20233 52.74469,5.70931 76.72916,9.57537c23.99771,3.85409 49.86073,7.91165 71.88729,13.9561c22.01333,6.05642 47.53239,8.49814 66.74114,17.4152c19.20875,8.92903 48.9876,7.62439 58.5126,26.05697c9.525,18.44455 10.64948,41.66482 17.19792,62.23989c6.54844,20.57507 9.2075,44.93241 13.21594,67.03954c4.00844,22.10713 5.29167,49.69616 5.29167,73.01217z"/>
   </g>
   <g stroke="#DF2125" id="svg_7" stroke-width="0.3" fill-opacity="0" fill="None">
    <path stroke="null" id="svg_8" d="m553.22919,212.64212c-108.3601,-9.49158 -210.02625,55.72864 -250.94406,145.19847c-40.93104,89.45787 -11.2051,204.55378 76.64979,267.44c87.86812,62.87425 215.19885,68.08086 307.60458,9.59931c92.40573,-58.48155 130.51896,-165.42644 98.1075,-260.56968c-32.42469,-95.13127 -126.72218,-152.49969 -231.41781,-161.6681m-13.22917,96.95059c-1.15094,-10.82016 -3.57187,-26.46392 0,-37.10455c2.83104,-8.43829 15.3326,-6.48731 14.55208,-16.75689c-0.78052,-10.26958 0.58208,-19.72526 0,-29.92302c113.05646,2.70504 214.53739,90.48722 226.21874,191.50734c-13.44083,-12.19662 -29.03802,-21.81987 -42.33333,-33.51378c-11.8401,6.05642 -16.53646,20.16812 -27.78125,27.52918c25.50583,-55.13018 4.37885,-124.76703 -55.5625,-154.40279c0.18521,19.72526 -6.5749,40.47986 -18.415,56.35104c-11.8401,15.87117 -27.17271,23.33996 -43.36521,33.77711c-16.17927,10.43715 -38.89375,11.38272 -52.91667,25.13534c-14.02292,13.76459 -24.60625,25.24306 -32.54375,43.56792c-7.9375,18.31289 -29.36875,21.4967 -47.51917,30.01878c-18.16365,8.51011 -40.9575,8.85721 -55.60219,23.90251c-14.64469,15.05726 6.82625,32.28096 22.42344,43.74746c15.59719,11.47847 43.18,6.9182 62.865,-0.09575c19.685,-7.00199 44.09281,-10.09004 65.85479,-13.42945c21.76198,-3.33941 51.07781,0.02394 71.46396,5.96067c20.39937,5.92476 35.79812,16.39782 54.21312,25.15928c3.98198,-10.25761 6.04573,-21.00596 10.58333,-31.11994c11.03312,9.51552 22.42344,22.09516 27.67542,34.80646c5.26521,12.69933 18.58698,33.7412 10.35844,46.28493c-8.22854,12.54373 -21.74875,22.1191 -34.0651,30.22225c2.32833,-18.89938 2.34156,-40.06094 -3.96875,-57.4522c-5.41073,7.8518 -12.3825,15.76345 -17.19792,23.93842c-23.9051,-24.97974 -42.33333,-59.45106 -84.2301,-65.02871c-41.91,-5.57765 -91.42677,9.83869 -131.40531,18.3488c14.30073,2.57338 32.94062,2.89655 47.63823,4.77571c14.68437,1.87917 29.99052,5.3263 43.23292,9.95838c13.25562,4.63208 22.72771,9.99429 33.81375,17.28354c11.07281,7.30122 19.38073,14.25533 27.34469,24.3334c7.95073,10.07807 14.71083,19.46193 19.65854,31.28751c4.93448,11.83755 11.72104,27.18207 -4.57729,31.23964c-16.29833,4.06953 -26.16729,8.33057 -42.3201,10.78426c-16.15281,2.45369 -32.64958,3.59076 -49.38448,3.19578c-16.7349,-0.39498 -33.69469,-1.25677 -48.96114,-4.77571c-15.25323,-3.53092 -26.43187,-7.50469 -40.99719,-11.98118c19.1426,-14.81788 41.80417,-16.19434 67.03219,-11.57422c25.22802,4.62011 56.75312,2.01083 81.13448,-3.98575c-8.06979,-8.10315 -23.75958,0.16757 -37.04167,0c-13.28208,-0.17954 -32.46437,-0.32317 -45.07177,-2.31006c-12.62062,-1.98689 -27.86062,-0.95754 -34.7001,-11.69392c-6.83948,-10.72441 -12.95135,-15.28468 -19.11615,-25.79365c-6.17802,-10.50897 -12.91167,-16.23025 -18.54729,-27.50524c-5.63562,-11.26303 -23.09812,-9.04872 -35.58646,-10.89198c-12.48833,-1.84326 -23.24365,-7.20546 -35.13667,-11.29893c-11.89302,-4.10544 -18.07104,-11.94527 -22.58219,-22.64574c-4.52437,-10.71244 -10.51719,-19.15073 -13.86417,-30.55739c-3.33375,-11.41863 -7.67292,-24.51294 -8.22854,-36.84122c-0.55562,-12.32829 6.45583,-21.71214 11.60198,-32.59216c5.14615,-10.86804 10.62302,-16.37388 17.89906,-26.89481c7.27604,-10.50897 19.73792,-12.44798 31.64417,-7.80392c11.91948,4.64405 26.53771,4.18922 38.16614,8.55798c11.64167,4.36876 29.46135,0.87375 31.6574,15.64376c19.96281,-3.41122 25.78365,-22.96891 34.39583,-37.10455c-12.68677,2.82473 -20.05542,18.36077 -32.67604,20.70673c-12.6074,2.35793 -33.28458,-4.99116 -45.46864,-8.65374c-12.18406,-3.66258 -35.8775,-1.96295 -41.34114,-14.06382c-5.46365,-12.10087 -3.57187,-33.96861 -2.3151,-47.14671c1.24354,-13.1781 13.05719,-21.83184 23.57437,-30.13847c10.51719,-8.30663 20.01573,-14.13564 31.75,-21.54458c11.73427,-7.40894 23.13781,-11.80164 36.35375,-18.57621c13.21594,-6.77457 29.7524,-0.57452 43.37844,4.48845c13.63927,5.05101 34.09156,6.1043 30.40062,23.96236c-3.69094,17.85806 3.37344,32.81957 1.32292,50.27068c11.46969,-0.58649 4.88156,-14.72213 6.61458,-21.54458m-72.76042,-74.20909c-14.39333,18.14532 -42.35979,24.39325 -61.78021,38.66054c-19.42042,14.27927 -37.38562,31.16782 -59.92812,40.33623c29.21,-38.43313 74.33469,-65.05265 121.70833,-78.99678m145.52083,163.97816c-7.24958,5.6734 -7.11729,19.56966 -17.50219,22.46621c-10.39812,2.89655 -28.2575,-2.53747 -38.06031,-3.31547c16.64229,-10.2217 35.59969,-17.04415 55.5625,-19.15073m-297.65624,43.08915c1.52135,16.05071 4.45823,33.09486 10.49073,47.96062c6.0325,14.87773 9.36625,27.67281 19.02354,41.4374c9.64406,13.77656 9.27365,34.73464 6.20448,50.64172c-37.21364,-42.6822 -56.71344,-95.14324 -52.91667,-150.81203c6.53521,2.47763 10.80823,8.163 17.19792,10.77229z"/>
   </g>
   <g stroke="#F2C911" id="svg_9" stroke-width="0.3" fill-opacity="0" fill="None">
    <path stroke="null" id="svg_10" d="m540.00003,272.48817c-2.16958,11.61013 0,25.30291 0,37.10455c-1.73302,6.82245 4.8551,20.95808 -6.61458,21.54458c2.05052,-17.45111 -5.01385,-32.41262 -1.32292,-50.27068c3.69094,-17.85806 -16.76135,-18.91135 -30.40062,-23.96236c-13.62604,-5.06298 -30.1625,-11.26303 -43.37844,-4.48845c-13.21594,6.77457 -24.61948,11.16727 -36.35375,18.57621c-11.73427,7.40894 -21.23281,13.23794 -31.75,21.54458c-10.51719,8.30663 -22.33083,16.96037 -23.57437,30.13847c-1.25677,13.1781 -3.14854,35.04584 2.3151,47.14671c5.46365,12.10087 29.15708,10.40124 41.34114,14.06382c12.18406,3.66258 32.86125,11.01167 45.46864,8.65374c12.62062,-2.34596 19.98927,-17.882 32.67604,-20.70673c-8.61219,14.13564 -14.43302,33.69332 -34.39583,37.10455c-2.19604,-14.77 -20.01573,-11.27499 -31.6574,-15.64376c-11.62844,-4.36876 -26.24667,-3.91393 -38.16614,-8.55798c-11.90625,-4.64405 -24.36812,-2.70504 -31.64417,7.80392c-7.27604,10.52093 -12.75292,16.02677 -17.89906,26.89481c-5.14615,10.88001 -12.1576,20.26387 -11.60198,32.59216c0.55562,12.32829 4.89479,25.4226 8.22854,36.84122c3.34698,11.40666 9.33979,19.84495 13.86417,30.55739c4.51115,10.70047 10.68917,18.5403 22.58219,22.64574c11.89302,4.09347 22.64833,9.45567 35.13667,11.29893c12.48833,1.84326 29.95083,-0.37105 35.58646,10.89198c5.63562,11.27499 12.36927,16.99628 18.54729,27.50524c6.16479,10.50897 12.27667,15.06923 19.11615,25.79365c6.83948,10.73638 22.07948,9.70703 34.7001,11.69392c12.6074,1.98689 31.78969,2.13052 45.07177,2.31006c13.28208,0.16757 28.97187,-8.10315 37.04167,0c-24.38135,5.99657 -55.90646,8.60586 -81.13448,3.98575c-25.22802,-4.62011 -47.88958,-3.24366 -67.03219,11.57422c14.56531,4.47648 25.74396,8.45026 40.99719,11.98118c15.26646,3.51895 32.22625,4.38073 48.96114,4.77571c16.7349,0.39498 33.23167,-0.74209 49.38448,-3.19578c16.15281,-2.45369 26.02177,-6.71473 42.3201,-10.78426c16.29833,-4.05756 9.51177,-19.40209 4.57729,-31.23964c-4.94771,-11.82558 -11.70781,-21.20944 -19.65854,-31.28751c-7.96396,-10.07807 -16.27187,-17.03218 -27.34469,-24.3334c-11.08604,-7.28925 -20.55812,-12.65145 -33.81375,-17.28354c-13.2424,-4.63208 -28.54854,-8.07922 -43.23292,-9.95838c-14.6976,-1.87917 -33.3375,-2.20233 -47.63823,-4.77571c39.97854,-8.51011 89.49531,-23.92645 131.40531,-18.3488c41.89677,5.57765 60.325,40.04897 84.2301,65.02871c4.81542,-8.17497 11.78719,-16.08662 17.19792,-23.93842c6.31031,17.39126 6.29708,38.55282 3.96875,57.4522c12.31635,-8.10315 25.83656,-17.67852 34.0651,-30.22225c8.22854,-12.54373 -5.09323,-33.5856 -10.35844,-46.28493c-5.25198,-12.7113 -16.64229,-25.29094 -27.67542,-34.80646c-4.5376,10.11398 -6.60135,20.86233 -10.58333,31.11994c-18.415,-8.76146 -33.81375,-19.23452 -54.21312,-25.15928c-20.38615,-5.93673 -49.70198,-9.30008 -71.46396,-5.96067c-21.76198,3.33941 -46.16979,6.42747 -65.85479,13.42945c-19.685,7.01396 -47.26781,11.57422 -62.865,0.09575c-15.59719,-11.4665 -37.06812,-28.69019 -22.42344,-43.74746c14.64469,-15.0453 37.43854,-15.3924 55.60219,-23.90251c18.15042,-8.52208 39.58167,-11.70589 47.51917,-30.01878c7.9375,-18.32486 18.52083,-29.80333 32.54375,-43.56792c14.02292,-13.75262 36.7374,-14.69819 52.91667,-25.13534c16.1925,-10.43715 31.5251,-17.90594 43.36521,-33.77711c11.8401,-15.87117 18.60021,-36.62578 18.415,-56.35104c59.94135,29.63576 81.06833,99.27262 55.5625,154.40279c11.24479,-7.36106 15.94115,-21.47276 27.78125,-27.52918c13.29531,11.69392 28.8925,21.31716 42.33333,33.51378c-11.68135,-101.02012 -113.16229,-188.8023 -226.21874,-191.50734c0.58208,10.19777 -0.78052,19.65344 0,29.92302c0.78052,10.26958 -11.72104,8.3186 -14.55208,16.75689m52.91667,51.4676c0,-4.10544 0.97896,-8.74949 1.32292,-11.96921c0,-15.73951 -0.18521,-31.29948 1.32292,-46.67991c18.30917,-2.04673 44.51614,17.77428 37.13427,34.79449c-7.36865,17.02021 -23.09812,27.93613 -39.7801,35.82384c0,-3.98575 0,-7.98346 0,-11.96921z"/>
   </g>
   <g stroke="#F2C712" id="svg_11" stroke-width="0.3" fill-opacity="0" fill="None">
    <path stroke="null" id="svg_12" d="m467.23961,235.38362c-47.37364,13.94413 -92.49833,40.56365 -121.70833,78.99678c22.5425,-9.16841 40.50771,-26.05697 59.92812,-40.33623c19.42042,-14.2673 47.38687,-20.51522 61.78021,-38.66054z"/>
   </g>
   <g stroke="#DF2425" id="svg_13" stroke-width="0.3" fill-opacity="0" fill="None">
    <path stroke="null" id="svg_14" d="m594.23961,311.98656c0,4.09347 -0.97896,8.74949 -1.32292,11.96921c0,3.98575 0,7.98346 0,11.96921c16.68198,-7.88771 32.41146,-18.80363 39.7801,-35.82384c7.38187,-17.02021 -18.8251,-36.84122 -37.13427,-34.79449c-1.50812,15.38043 -1.32292,30.9404 -1.32292,46.67991z"/>
   </g>
   <g stroke="#E9781B" id="svg_15" stroke-width="0.3" fill-opacity="0" fill="None">
    <path stroke="null" id="svg_16" d="m540.00003,309.59271c0,-11.80164 -2.16958,-25.49441 0,-37.10455c-3.57187,10.64063 -1.15094,26.28438 0,37.10455z"/>
   </g>
   <g stroke="#EA821A" id="svg_17" stroke-width="0.3" fill-opacity="0" fill="None">
    <path stroke="null" id="svg_18" d="m592.91669,323.95576c0.34396,-3.21972 1.32292,-7.87574 1.32292,-11.96921c-0.34396,3.21972 -1.32292,7.86377 -1.32292,11.96921z"/>
   </g>
   <g stroke="#7C6E0C" id="svg_19" stroke-width="0.3" stroke-opacity="0.31" fill-opacity="0" fill="None">
    <path stroke="null" id="svg_20" d="m110.05212,393.37718c0.67469,-2.66913 3.09562,-6.79851 2.64583,-11.96921c-0.14552,3.18381 -2.42094,8.06725 -2.64583,11.96921z"/>
   </g>
   <g stroke="#BA9E17" id="svg_21" stroke-width="0.3" stroke-opacity="0.47" fill-opacity="0" fill="None">
    <path stroke="null" id="svg_22" d="m968.62502,395.77102c0.21167,-1.42434 1.0451,-1.53206 1.32292,-2.39384c0,-1.5919 0.06615,-3.19578 0,-4.78768c0.01323,-0.09575 -3.9026,1.61584 -2.6326,3.57879c1.28323,1.96295 1.21708,2.5255 1.30969,3.60273z"/>
   </g>
   <g stroke="#C5BC96" id="svg_23" stroke-width="0.3" stroke-opacity="0.16" fill-opacity="0" fill="None">
    <path stroke="null" id="svg_24" d="m968.62502,395.77102c-0.39687,2.6811 0,5.6734 0,8.37845c0.01323,0.08378 1.32292,0 1.32292,0c0,-3.59076 0,-7.18153 0,-10.77229c-0.27781,0.86178 -1.11125,0.96951 -1.32292,2.39384z"/>
   </g>
   <g stroke="#EFE6B8" id="svg_25" stroke-width="0.3" stroke-opacity="0.18" fill-opacity="0" fill="None">
    <path stroke="null" id="svg_26" d="m110.05212,441.25401c0.06615,-0.17954 1.32292,0 1.32292,0c-1.9976,-13.53718 0.19844,-28.96549 -1.32292,-41.89223c0,13.96807 0,27.92416 0,41.89223z"/>
   </g>
   <g stroke="#F1C712" id="svg_27" stroke-width="0.3" fill-opacity="0" fill="None">
    <path stroke="null" id="svg_28" d="m612.76044,399.36178c-19.96281,2.10658 -38.92021,8.92903 -55.5625,19.15073c9.80281,0.778 27.66219,6.21202 38.06031,3.31547c10.3849,-2.89655 10.2526,-16.7928 17.50219,-22.46621z"/>
   </g>
   <g stroke="#EA831A" id="svg_29" stroke-width="0.3" fill-opacity="0" fill="None">
    <path stroke="null" id="svg_30" d="m921.00002,435.26941c1.0451,-9.70703 1.0451,-21.32913 0,-31.11994c0,10.3773 0,20.74264 0,31.11994z"/>
   </g>
   <g stroke="#F8E798" id="svg_31" stroke-width="0.3" stroke-opacity="0.35" fill-opacity="0" fill="None">
    <path stroke="null" id="svg_32" d="m968.62502,435.26941c0,-0.04788 1.32292,0 1.32292,0c0,-10.3773 0,-20.74264 0,-31.11994c0,0 -1.30969,0.08378 -1.32292,0c0,10.3773 0,20.74264 0,31.11994z"/>
   </g>
   <g stroke="#F2C912" id="svg_33" stroke-width="0.3" fill-opacity="0" fill="None">
    <path stroke="null" id="svg_34" d="m315.1042,442.45093c-6.38969,-2.60929 -10.66271,-8.29466 -17.19792,-10.77229c-3.79677,55.66879 15.70302,108.12983 52.91667,150.81203c3.06917,-15.90708 3.43958,-36.86516 -6.20448,-50.64172c-9.65729,-13.76459 -12.99104,-26.55967 -19.02354,-41.4374c-6.0325,-14.86576 -8.96937,-31.90991 -10.49073,-47.96062z"/>
   </g>
   <g stroke="#C5BD95" id="svg_35" stroke-width="0.3" stroke-opacity="0.15" fill-opacity="0" fill="None">
    <path stroke="null" id="svg_36" d="m969.94793,446.04169c0.07937,-3.59076 0,-7.18153 0,-10.77229c0,0 -1.32292,-0.04788 -1.32292,0c0,3.65061 1.08479,7.94755 1.32292,10.77229z"/>
   </g>
   <g stroke="#C1A215" id="svg_37" stroke-width="0.3" stroke-opacity="0.34" fill-opacity="0" fill="None">
    <path stroke="null" id="svg_38" d="m110.05212,447.23862c0.37042,0.29923 2.54,-0.22741 2.64583,0c-0.18521,-2.20233 -1.03187,-4.05756 -1.32292,-5.9846c0,0 -1.25677,-0.17954 -1.32292,0c0,1.98689 -0.10583,3.99772 0,5.9846z"/>
   </g>
   <g stroke="#846D0C" id="svg_39" stroke-width="0.3" stroke-opacity="0.31" fill-opacity="0" fill="None">
    <path stroke="null" id="svg_40" d="m112.69795,459.20782c0.33073,-3.83015 0.3175,-8.13906 0,-11.96921c-0.10583,-0.22741 -2.27542,0.29923 -2.64583,0c0.2249,3.98575 2.48708,8.67768 2.64583,11.96921z"/>
   </g>
   <g stroke="#DF2325" id="svg_41" stroke-width="0.3" fill-opacity="0" fill="None">
    <path stroke="null" id="svg_42" d="m278.06253,836.2379c27.10656,-7.26531 23.11135,28.73807 30.71812,42.82583c7.62,14.08776 17.38312,6.48731 30.09635,6.21202c12.72646,-0.26332 -2.06375,-18.40864 -1.30969,-25.07549c0.74083,-6.65488 -11.16542,-22.08319 -6.28385,-29.67167c4.88156,-7.58848 15.90146,-11.9333 14.24781,-23.01679c-1.65365,-11.08349 0.83344,-25.09943 0,-35.90763c-0.83344,-10.8082 -2.24896,-18.22911 -13.63927,-23.56737c-11.37708,-5.35024 -24.42104,-1.78341 -37.95448,-2.76489c-13.53344,-0.98148 -24.88406,1.20889 -39.6875,0c-14.80344,-1.20889 -10.37167,14.91363 -10.58333,26.33226c-0.21167,11.41863 0.39687,23.77085 0,35.90763c-0.39687,12.13678 0.84667,22.94497 0,35.90763c-0.84667,12.96265 1.85208,21.44882 0,35.90763c-1.85208,14.4588 3.22792,17.59474 18.5076,14.35108c15.27969,-3.23169 16.69521,-8.03134 15.88823,-21.53261c-0.80698,-13.50127 0.60854,-22.78937 0,-35.90763m30.42708,-61.04297c4.14073,2.78883 5.52979,26.09288 -0.33073,28.42687c-5.87375,2.32203 -31.14146,6.81048 -30.09635,-4.48845c1.05833,-11.3109 -5.6224,-23.93842 11.90625,-23.93842c4.86833,-0.43089 13.79802,-3.18381 18.52083,0z"/>
   </g>
   <g stroke="#DF2225" id="svg_43" stroke-width="0.3" fill-opacity="0" fill="None">
    <path stroke="null" id="svg_44" d="m366.69795,881.7209c7.87135,-3.00427 25.37354,3.63864 31.40604,-2.70504c6.04573,-6.33171 -0.03969,-19.53375 1.66687,-28.4149c1.70656,-8.88115 -0.9525,-19.90479 0,-29.92302c0.9525,-10.01823 -0.88635,-20.19206 0,-31.11994c0.88635,-10.92789 -1.42875,-17.43914 0,-29.92302c1.42875,-12.48388 -2.67229,-14.1476 -17.19792,-14.36305c-14.52562,-0.21545 -17.21115,3.20775 -15.875,15.55997c1.33615,12.35222 -0.635,19.95267 0,31.11994c0.635,11.16727 -0.29104,19.39012 0,29.92302c0.29104,10.5329 -0.15875,19.66541 0,29.92302c0.15875,10.26958 -0.11906,19.73723 0,29.92302z"/>
   </g>
   <g stroke="#DF2225" id="svg_45" stroke-width="0.3" fill-opacity="0" fill="None">
    <path stroke="null" id="svg_46" d="m473.8542,830.2533c-3.81,-12.85493 -8.70479,-22.60984 -11.91948,-35.89566c-3.21469,-13.28582 -7.65969,-22.76544 -10.66271,-37.03273c-3.00302,-14.25533 -22.4499,-13.44142 -36.94906,-12.05299c3.77031,20.55113 10.63625,40.30033 16.76135,60.24103c6.13833,19.92873 11.0199,38.94781 16.6026,59.18774c5.59594,20.22796 48.51135,17.22369 51.59375,-3.06412c3.09562,-20.28781 13.89062,-37.78679 18.24302,-57.70356c4.3524,-19.91676 11.85333,-38.99568 17.18469,-58.66109c-14.40656,-1.06526 -35.90396,-2.82473 -38.37781,11.95724c-2.47385,14.79394 -7.48771,23.5554 -10.66271,37.03273c-3.175,13.46536 -7.32896,23.60328 -11.81365,35.99141z"/>
   </g>
   <g stroke="#DF2225" id="svg_47" stroke-width="0.3" fill-opacity="0" fill="None">
    <path stroke="null" id="svg_48" d="m517.51045,874.53937c7.89781,-0.40695 15.91469,0.55058 23.8125,0c19.69823,-3.55486 15.86177,-27.52918 22.51604,-41.86829c6.6675,-14.32714 6.2574,-34.208 14.52562,-47.90077c7.43479,18.56424 11.19187,39.28294 17.19792,58.64912c-10.14677,0 -20.28031,0 -30.42708,0c4.80219,6.97805 4.89479,4.26104 12.23698,11.66998c7.34219,7.40894 18.83833,15.93102 28.68083,19.53375c9.82927,3.6147 12.30312,4.41664 20.96823,3.24366c8.65187,-1.18495 12.9249,0.40695 9.26042,-10.24564c-3.67771,-10.6526 -7.31573,-24.97974 -10.58333,-35.90763c-3.2676,-10.92789 -1.93146,-7.46879 -5.29167,-17.95381c-3.36021,-10.48503 -7.69937,-24.39325 -10.3849,-34.89024c-2.69875,-10.48503 -3.25437,-10.29352 -5.29167,-17.95381c-2.03729,-7.64832 -2.8575,-10.8082 -9.07521,-14.53062c-6.20448,-3.72242 -15.6501,-0.63437 -22.58219,-1.11314c-6.93208,-0.47877 -16.15281,-2.16643 -18.54729,5.96067c-2.40771,8.11512 -2.26219,7.87574 -5.29167,17.95381c-3.04271,10.0661 -7.48771,24.70445 -10.58333,34.71071c-3.10885,9.99429 -3.04271,10.41321 -5.29167,17.95381c-2.26219,7.52863 -3.86292,11.71786 -5.29167,17.95381c-1.44198,6.22399 -5.18583,12.73524 -5.35781,17.89397c-0.18521,5.14676 -7.51417,13.46536 -5.19906,16.84068z"/>
   </g>
   <g stroke="#E97E1B" id="svg_49" stroke-width="0.3" fill-opacity="0" fill="None">
    <path stroke="null" id="svg_50" d="m652.44794,746.46884c6.05896,-0.78997 23.70667,-2.35793 29.10417,0c-4.14073,-2.6452 -24.91052,-2.80079 -29.10417,0z"/>
   </g>
   <g stroke="#DF2125" id="svg_51" stroke-width="0.3" fill-opacity="0" fill="None">
    <path stroke="null" id="svg_52" d="m737.11461,768.01341c-0.39687,9.55143 -0.39687,20.04842 -1.32292,28.7261c0,9.69506 1.40229,19.34224 11.80042,25.23109c10.39812,5.88885 18.60021,6.46337 33.17875,5.88885c14.57854,-0.57452 19.84375,3.87802 19.84375,17.95381c0,3.88999 0.97896,9.02478 -1.32292,11.96921c-4.6699,5.9846 -25.0825,3.74636 -27.78125,-3.59076c-1.65365,-4.47648 -1.50812,-10.26958 -1.32292,-15.55997c-7.27604,1.7475 -28.56177,-7.36106 -33.07292,0c-4.51115,7.36106 -1.83885,22.32257 1.3626,29.88711c3.18823,7.57651 8.21531,14.33911 18.1901,17.05612c9.97479,2.71701 19.93635,2.6452 31.75,4.78768c11.81365,2.14249 19.88344,0.65831 33.36396,4.52436c13.48052,3.86605 16.44385,-6.17611 14.55208,-17.95381c-1.89177,-11.7777 0.67469,-22.46621 0,-33.51378c-0.67469,-11.04758 0.56885,-20.52719 -4.07458,-29.82727c-4.63021,-9.31204 -13.77156,-11.68195 -23.70667,-13.26188c-9.9351,-1.57994 -25.13542,2.01083 -33.40365,-3.29153c-8.255,-5.31433 -7.48771,-19.27043 2.68552,-22.10713c10.17323,-2.8367 21.21958,-0.08378 25.02958,9.00085c3.82323,9.08463 24.64594,1.06526 32.14687,4.42861c0,-14.36305 0,-28.7261 0,-43.08915c-19.7776,-1.06526 -42.71698,1.42434 -62.17708,0c-19.4601,-1.42434 -34.93823,4.16528 -35.71875,22.7415z"/>
   </g>
   <g stroke="#DF2025" id="svg_53" stroke-width="0.3" fill-opacity="0" fill="None">
    <path stroke="null" id="svg_54" d="m651.12503,747.66576c-1.11125,6.99002 0.44979,14.48274 0,21.54458c-0.44979,7.06183 0.07937,14.49471 0,21.54458c-0.07937,7.04986 -0.23812,14.59047 0,21.54458c0.23812,6.95411 -0.71437,14.85379 0,21.54458c0.71437,6.69079 -1.66687,15.44028 0,21.54458c1.66687,6.1043 -3.7174,16.73295 0,21.54458c25.78365,4.14135 54.12052,4.06953 80.69791,7.18153c-5.04031,-6.96608 -0.88635,-18.33683 -6.91885,-24.86005c-6.0325,-6.51125 -15.42521,-5.92476 -27.18594,-5.3263c-11.7475,0.59846 -15.41198,-8.10315 -13.52021,-18.88741c1.89177,-10.78426 -0.3175,-20.06039 0,-29.92302c0.3175,-9.86263 0.87312,-22.2747 0,-31.11994c-0.87312,-8.84525 4.0349,-23.25617 -2.64583,-27.52918c-5.3975,-2.35793 -23.04521,-0.78997 -29.10417,0c-0.39687,0.26332 -1.03187,0.83784 -1.32292,1.19692z"/>
   </g>
   <g stroke="#EA8A19" id="svg_55" stroke-width="0.3" fill-opacity="0" fill="None">
    <path stroke="null" id="svg_56" d="m651.12503,876.93321c-3.7174,-4.81162 1.66687,-15.44028 0,-21.54458c-1.66687,-6.1043 0.71437,-14.85379 0,-21.54458c-0.71437,-6.69079 0.23812,-14.59047 0,-21.54458c-0.23812,-6.95411 -0.07937,-14.49471 0,-21.54458c0.07937,-7.04986 -0.44979,-14.48274 0,-21.54458c0.44979,-7.06183 -1.11125,-14.55456 0,-21.54458c-5.76792,7.08577 0.14552,23.0886 -1.32292,32.31686c-1.46844,9.22826 -0.11906,22.81331 0,32.31686c0.11906,9.50355 -1.61396,24.70445 0,33.51378c1.61396,8.80934 -5.04031,25.36275 1.32292,31.11994z"/>
   </g>
   <g stroke="#EA811A" id="svg_57" stroke-width="0.3" fill-opacity="0" fill="None">
    <path stroke="null" id="svg_58" d="m735.79169,796.73951c0.92604,-8.67768 0.92604,-19.17467 1.32292,-28.7261c-1.37583,8.70161 -1.32292,19.11483 -1.32292,28.7261z"/>
   </g>
   <g stroke="#EA801A" id="svg_59" stroke-width="0.3" fill-opacity="0" fill="None">
    <path stroke="null" id="svg_60" d="m289.96878,775.19494c4.445,0 14.65792,-1.78341 18.52083,0c-4.72281,-3.18381 -13.6525,-0.43089 -18.52083,0z"/>
   </g>
   <g stroke="#F2C912" id="svg_61" stroke-width="0.3" fill-opacity="0" fill="None">
    <path stroke="null" id="svg_62" d="m308.48962,775.19494c-3.86292,-1.78341 -14.07583,0 -18.52083,0c-17.52865,0 -10.84792,12.62752 -11.90625,23.93842c-1.0451,11.29893 24.2226,6.81048 30.09635,4.48845c5.86052,-2.334 4.47146,-25.63805 0.33073,-28.42687z"/>
   </g>
   <g stroke="#E97F1B" id="svg_63" stroke-width="0.3" fill-opacity="0" fill="None">
    <path stroke="null" id="svg_64" d="m771.51044,854.19172c-0.91281,-4.26104 2.23573,-12.51979 -1.32292,-15.55997c-0.18521,5.29039 -0.33073,11.08349 1.32292,15.55997z"/>
   </g>
   <g stroke="#E9761C" id="svg_65" stroke-width="0.3" fill-opacity="0" fill="None">
    <path stroke="null" id="svg_66" d="m799.29169,857.78248c2.30187,-2.94443 1.32292,-8.07922 1.32292,-11.96921c-0.18521,1.69963 -0.29104,10.0302 -1.32292,11.96921z"/>
   </g>
   <g stroke="#EA811A" id="svg_67" stroke-width="0.3" fill-opacity="0" fill="None">
    <path stroke="null" id="svg_68" d="m541.32294,874.53937c-7.89781,0.55058 -15.91469,-0.40695 -23.8125,0c2.68552,3.9259 20.0951,0.63437 23.8125,0z"/>
   </g>
   <g stroke="#DF2225" id="svg_69" stroke-width="0.3" fill-opacity="0" fill="None">
    <path stroke="null" id="svg_70" d="m682.87502,898.47779c-17.85937,0.64634 -42.80958,-6.35565 -58.60521,-0.35908c-15.80885,5.9846 -25.53229,17.12794 -40.50771,21.99941c-14.98865,4.8595 -26.035,19.18664 -41.11625,21.44882c-15.08125,2.26218 -28.97187,-15.65573 -42.73021,-19.98858c-13.77156,-4.32088 -27.27854,-15.96692 -40.94427,-21.60442c-13.66573,-5.62553 -25.65135,-17.54686 -39.35677,-23.04073c-1.73302,5.31433 3.33375,16.51751 -2.35479,19.41406c-5.68854,2.89655 -14.12875,-0.16757 -20.13479,2.13052c10.16,10.76032 25.16187,16.30206 38.06031,25.41063c12.89844,9.10857 27.27854,14.02791 40.98396,22.76544c13.70542,8.72555 28.05906,12.14875 42.35979,21.52064c14.31396,9.37189 29.64656,8.90509 43.85469,-0.37105c14.22135,-9.26417 28.69406,-12.87887 42.33333,-21.54458c13.6525,-8.65374 28.09875,-13.84837 41.01042,-22.7415c12.91167,-8.89312 27.05365,-14.41093 37.1475,-25.03958z"/>
   </g>
   <g stroke="#776508" id="svg_71" stroke-width="0.3" stroke-opacity="0.42" fill-opacity="0" fill="None">
    <path stroke="null" id="svg_72" d="m225.14587,915.23468c-2.50031,-1.56797 -2.35479,-16.39782 -2.64583,-19.15073c0,6.2599 -1.83885,18.28895 2.64583,19.15073z"/>
   </g>
   <g stroke="#7F6B08" id="svg_73" stroke-width="0.3" stroke-opacity="0.44" fill-opacity="0" fill="None">
    <path stroke="null" id="svg_74" d="m311.13545,905.65931c4.57729,1.11314 9.76312,0.47877 14.55208,0c-2.89719,-0.07182 -11.86656,0.26332 -14.55208,0z"/>
   </g>
   <g stroke="None" id="svg_75" fill-opacity="0" fill="#000000">
    <path stroke="null" id="svg_76" d="m10.83337,1097.16666l1058.33331,0l0,-1114.33334l-1058.33331,0l0,1114.33334m959.11456,-708.57716c0.06615,1.5919 0,3.19578 0,4.78768c0,3.59076 0,7.18153 0,10.77229c0,10.3773 0,20.74264 0,31.11994c0,3.59076 0.07937,7.18153 0,10.77229c-0.30427,13.92019 -3.16177,24.97974 -3.95552,38.31344c-0.80698,13.3337 -3.37344,25.35078 -5.02708,37.36787c-1.64042,12.01709 -5.50333,25.09943 -8.18885,36.85319c-2.67229,11.76573 -7.23635,25.39866 -10.59656,37.09258c-3.37344,11.69392 -8.89,23.49556 -13.14979,34.78252c-4.25979,11.28696 -9.39271,22.78937 -14.605,33.46591c-5.22552,10.66457 -10.92729,21.41291 -16.93333,31.35933c-6.00604,9.94641 -11.37708,20.97005 -18.52083,29.92302c-7.14375,8.95297 -11.5226,24.15386 -22.79385,24.86005c-0.84667,9.24023 1.12448,20.93415 0,29.92302c-1.12448,8.98888 3.91583,22.41833 -3.96875,26.33226c10.78177,34.986 2.8575,74.37666 5.29167,111.31364c-25.84979,-1.32858 -56.2901,-7.30122 -82.03406,-9.5634c-25.74396,-2.27415 -59.90167,-14.31517 -80.72437,2.34596c-20.82271,16.64917 -39.42292,24.36931 -61.74052,38.70842c-22.30437,14.32714 -42.28042,18.51637 -64.88906,33.44197c-22.59542,14.93757 -50.54864,5.36221 -72.09896,-8.37845c-21.53708,-13.75262 -44.70135,-20.19206 -64.59802,-33.71726c-19.88344,-13.53718 -40.36219,-22.94497 -58.1025,-39.59414c-14.73729,1.81932 -32.04104,2.44172 -47.625,4.78768c-4.78896,0.47877 -9.97479,1.11314 -14.55208,0c-6.33677,-1.54403 -10.63625,-5.35024 -15.875,-8.37845c-14.56531,22.05925 -45.24375,13.3337 -70.11458,17.95381c-4.48469,-0.86178 -2.64583,-12.89084 -2.64583,-19.15073c0,-21.58048 1.1774,-48.3556 0,-69.42141c-1.1774,-21.06581 3.13531,-50.25871 0,-69.42141c-3.13531,-19.1627 -21.73552,-26.09288 -28.7999,-43.36444c-7.06437,-17.27157 -18.6399,-29.00139 -25.84979,-46.03358c-7.19667,-17.04415 -15.39875,-32.01763 -21.78844,-49.70812c-6.37646,-17.70246 -11.57552,-34.49526 -16.15281,-52.41317c-4.57729,-17.90594 -9.06198,-32.4964 -11.05958,-49.89963c-2.01083,-17.39126 -7.72583,-38.69645 -6.15156,-56.61436c-0.15875,-3.29153 -2.42094,-7.98346 -2.64583,-11.96921c-0.10583,-1.98689 0,-3.99772 0,-5.9846c0,-13.96807 0,-27.92416 0,-41.89223c0,-1.98689 -0.10583,-3.99772 0,-5.9846c0.2249,-3.90196 2.50031,-8.7854 2.64583,-11.96921c-3.01625,-34.33966 8.90323,-68.75114 13.21594,-100.55332c4.31271,-31.80219 17.56833,-64.60979 25.12219,-96.96256c7.54062,-32.36474 49.2125,-33.52575 78.96489,-45.85404c29.7524,-12.32829 55.25823,-15.34453 87.85489,-23.45965c32.59667,-8.11512 67.36292,-11.82558 103.17427,-16.92446c35.82458,-5.11085 80.08937,-10.00626 120.29281,-9.49158c40.20344,0.51468 82.89396,4.51239 119.16833,9.47961c36.26115,4.97919 69.98229,8.67768 103.10812,16.82871c33.13906,8.13906 59.65031,13.22598 90.03771,23.8666c30.3874,10.6526 72.05927,18.07351 77.85364,51.64714c5.78115,33.5856 20.08187,63.36499 24.68562,96.56758c4.61698,33.19062 12.32958,67.37468 13.77156,102.03751z"/>
   </g>
   <g stroke="None" id="svg_77" fill="#F1C910">
    <path stroke="null" id="svg_78" d="m112.69795,381.40797c0.44979,5.1707 -1.97115,9.30008 -2.64583,11.96921c-0.10583,1.98689 0,3.99772 0,5.9846c1.52135,12.92675 -0.67469,28.35506 1.32292,41.89223c0.29104,1.92704 1.13771,3.78227 1.32292,5.9846c0.3175,3.83015 0.33073,8.13906 0,11.96921c-1.57427,17.91791 4.14073,39.2231 6.15156,56.61436c1.9976,17.40323 6.48229,31.9937 11.05958,49.89963c4.57729,17.91791 9.77635,34.71071 16.15281,52.41317c6.38969,17.69049 14.59177,32.66397 21.78844,49.70812c7.2099,17.03218 18.78542,28.76201 25.84979,46.03358c7.06437,17.27157 25.66458,24.20174 28.7999,43.36444c3.13531,19.1627 -1.1774,48.3556 0,69.42141c1.1774,21.06581 0,47.84093 0,69.42141c0.29104,2.75292 0.14552,17.58277 2.64583,19.15073c24.87083,-4.62011 55.54927,4.10544 70.11458,-17.95381c5.23875,3.02821 9.53823,6.83442 15.875,8.37845c2.68552,0.26332 11.6549,-0.07182 14.55208,0c15.58396,-2.34596 32.88771,-2.96836 47.625,-4.78768c17.74031,16.64917 38.21906,26.05697 58.1025,39.59414c19.89667,13.52521 43.06094,19.96464 64.59802,33.71726c21.55031,13.74065 49.50354,23.31602 72.09896,8.37845c22.60865,-14.9256 42.58469,-19.11483 64.88906,-33.44197c22.3176,-14.33911 40.91781,-22.05925 61.74052,-38.70842c20.82271,-16.66114 54.98042,-4.62011 80.72437,-2.34596c25.74396,2.26218 56.18427,8.23482 82.03406,9.5634c-2.43417,-36.93698 5.4901,-76.32764 -5.29167,-111.31364c7.88458,-3.91393 2.84427,-17.34338 3.96875,-26.33226c1.12448,-8.98888 -0.84667,-20.68279 0,-29.92302c11.27125,-0.70618 15.6501,-15.90708 22.79385,-24.86005c7.14375,-8.95297 12.51479,-19.97661 18.52083,-29.92302c6.00604,-9.94641 11.70781,-20.69476 16.93333,-31.35933c5.21229,-10.67653 10.34521,-22.17894 14.605,-33.46591c4.25979,-11.28696 9.77635,-23.0886 13.14979,-34.78252c3.36021,-11.69392 7.92427,-25.32685 10.59656,-37.09258c2.68552,-11.75376 6.54844,-24.83611 8.18885,-36.85319c1.65365,-12.01709 4.2201,-24.03417 5.02708,-37.36787c0.79375,-13.3337 3.65125,-24.39325 3.95552,-38.31344c-0.23812,-2.82473 -1.32292,-7.12168 -1.32292,-10.77229c0,-10.3773 0,-20.74264 0,-31.11994c0,-2.70504 -0.39687,-5.69734 0,-8.37845c-0.0926,-1.07723 -0.02646,-1.63978 -1.30969,-3.60273c-1.27,-1.96295 2.64583,-3.67455 2.6326,-3.57879c-1.44198,-34.66283 -9.15458,-68.84689 -13.77156,-102.03751c-4.60375,-33.20259 -18.90448,-62.98198 -24.68562,-96.56758c-5.79437,-33.57363 -47.46625,-40.99454 -77.85364,-51.64714c-30.3874,-10.64063 -56.89864,-15.72754 -90.03771,-23.8666c-33.12583,-8.15103 -66.84698,-11.84952 -103.10812,-16.82871c-36.27437,-4.96722 -78.96489,-8.96494 -119.16833,-9.47961c-40.20344,-0.51468 -84.46823,4.38073 -120.29281,9.49158c-35.81135,5.09888 -70.5776,8.80934 -103.17427,16.92446c-32.59667,8.11512 -58.1025,11.13136 -87.85489,23.45965c-29.7524,12.32829 -71.42427,13.4893 -78.96489,45.85404c-7.55385,32.35277 -20.80948,65.16037 -25.12219,96.96256c-4.31271,31.80219 -16.23219,66.21366 -13.21594,100.55332m808.30207,53.86144c0,-10.3773 0,-20.74264 0,-31.11994c0,-23.31602 -1.28323,-50.90505 -5.29167,-73.01217c-4.00844,-22.10713 -6.6675,-46.46447 -13.21594,-67.03954c-6.54844,-20.57507 -7.67292,-43.79534 -17.19792,-62.23989c-9.525,-18.43258 -39.30385,-17.12794 -58.5126,-26.05697c-19.20875,-8.91706 -44.72781,-11.35878 -66.74114,-17.4152c-22.02656,-6.04445 -47.88958,-10.10201 -71.88729,-13.9561c-23.98448,-3.86605 -51.50114,-7.37303 -76.72916,-9.57537c-25.22802,-2.20233 -54.67614,-5.20661 -80.68469,-4.79965c-26.00854,0.40695 -54.0676,4.71587 -79.38823,7.16956c-25.32062,2.45369 -51.05135,5.44599 -75.39302,9.58734c-24.34167,4.14135 -47.49271,9.51552 -71.00094,14.75803c-23.52146,5.23054 -42.34656,12.14875 -65.35208,18.67197c-23.00552,6.51125 -44.66167,12.48388 -47.96896,35.59643c-3.29406,23.11254 -12.35604,41.11423 -16.74812,63.84376c-4.39208,22.72953 -8.96937,43.54398 -11.90625,67.02757c-2.9501,23.47162 -4.32594,50.97686 -3.98198,75.39405c0.34396,24.41719 2.14312,50.30658 5.00062,73.2755c2.8575,22.96891 7.15698,45.81813 13.4276,66.84803c6.27062,21.0299 11.9724,40.0011 20.35969,59.37925c8.38729,19.36618 16.94656,36.44624 27.05365,54.51975c10.10708,18.06154 21.61646,32.55625 32.05427,49.99539c-11.49615,2.32203 -33.81375,-6.42747 -34.39583,8.37845c-15.12094,-20.32372 -25.98208,-38.85205 -38.06031,-61.31826c-12.07823,-22.46621 -21.0476,-44.15441 -29.845,-68.75114c-8.7974,-24.60869 -16.08667,-50.05523 -20.7301,-76.99792c-4.63021,-26.95466 -9.98802,-57.34448 -10.5701,-86.19027c-0.58208,-28.84579 1.3626,-63.87967 3.95552,-92.15094c2.59292,-28.27127 9.51177,-55.40547 14.52562,-82.61148c5.00062,-27.21798 14.61823,-50.09114 21.10052,-76.66278c6.46906,-26.58361 38.1,-28.94155 63.88364,-39.15128c25.79687,-10.19777 53.68396,-15.0453 81.74302,-21.79593c28.04583,-6.7626 57.57333,-11.86149 87.3125,-16.75689c29.72594,-4.89541 62.865,-7.55257 93.91385,-10.78426c31.04885,-3.23169 69.47958,-3.07609 100.54166,0c31.06208,3.07609 64.28052,6.18808 94.01969,10.6885c29.7524,4.50042 59.88844,9.39583 87.51094,16.57735c27.6225,7.16956 56.25042,11.87346 81.30646,22.19091c25.04281,10.32943 58.06281,11.76573 64.95521,38.18178c6.87917,26.41604 14.11552,50.64172 20.13479,77.53653c6.00604,26.90678 11.8401,54.42399 14.55208,82.58754c2.71198,28.17552 5.08,63.35302 3.96875,92.16291c-1.11125,28.80989 -5.33135,59.52288 -10.29229,86.44163c-4.96094,26.93072 -11.82687,52.44907 -20.55812,77.15352c-8.73125,24.70445 -18.46792,45.86601 -29.91115,68.69129c-11.43,22.83725 -25.16187,40.64743 -38.45719,62.1561c-2.68552,-2.11855 -0.70115,-6.55913 -1.32292,-9.57537c-11.0199,0 -22.05302,0 -33.07292,0c61.96542,-86.32193 97.06239,-186.01347 97.89583,-290.85177m-367.77083,-222.62728c104.69562,9.16841 198.99312,66.53683 231.41781,161.6681c32.41146,95.14324 -5.70177,202.08812 -98.1075,260.56968c-92.40573,58.48155 -219.73645,53.27495 -307.60458,-9.59931c-87.85489,-62.88622 -117.58083,-177.98214 -76.64979,-267.44c40.91781,-89.46984 142.58396,-154.69006 250.94406,-145.19847m-275.16666,623.59578c0.60854,13.11825 -0.80698,22.40636 0,35.90763c0.80698,13.50127 -0.60854,18.30092 -15.88823,21.53261c-15.27969,3.24366 -20.35969,0.10772 -18.5076,-14.35108c1.85208,-14.4588 -0.84667,-22.94497 0,-35.90763c0.84667,-12.96265 -0.39687,-23.77085 0,-35.90763c0.39687,-12.13678 -0.21167,-24.489 0,-35.90763c0.21167,-11.41863 -4.2201,-27.54115 10.58333,-26.33226c14.80344,1.20889 26.15406,-0.98148 39.6875,0c13.53344,0.98148 26.5774,-2.58535 37.95448,2.76489c11.39031,5.33827 12.80583,12.75918 13.63927,23.56737c0.83344,10.8082 -1.65365,24.82414 0,35.90763c1.65365,11.08349 -9.36625,15.42831 -14.24781,23.01679c-4.88156,7.58848 7.02469,23.01679 6.28385,29.67167c-0.75406,6.66685 14.03615,24.81217 1.30969,25.07549c-12.71323,0.27529 -22.47635,7.87574 -30.09635,-6.21202c-7.60677,-14.08776 -3.61156,-50.09114 -30.71812,-42.82583m88.63541,45.48299c-0.11906,-10.1858 0.15875,-19.65344 0,-29.92302c-0.15875,-10.25761 0.29104,-19.39012 0,-29.92302c-0.29104,-10.5329 0.635,-18.75575 0,-29.92302c-0.635,-11.16727 1.33615,-18.76772 0,-31.11994c-1.33615,-12.35222 1.34937,-15.77542 15.875,-15.55997c14.52562,0.21545 18.62667,1.87917 17.19792,14.36305c-1.42875,12.48388 0.88635,18.99513 0,29.92302c-0.88635,10.92789 0.9525,21.10172 0,31.11994c-0.9525,10.01823 1.70656,21.04187 0,29.92302c-1.70656,8.88115 4.37885,22.08319 -1.66687,28.4149c-6.0325,6.34368 -23.53469,-0.29923 -31.40604,2.70504m107.15625,-51.4676c4.48469,-12.38813 8.63865,-22.52605 11.81365,-35.99141c3.175,-13.47733 8.18885,-22.23879 10.66271,-37.03273c2.47385,-14.78197 23.97125,-13.0225 38.37781,-11.95724c-5.33135,19.66541 -12.83229,38.74433 -17.18469,58.66109c-4.3524,19.91676 -15.1474,37.41575 -18.24302,57.70356c-3.0824,20.28781 -45.99781,23.29208 -51.59375,3.06412c-5.58271,-20.23993 -10.46427,-39.25901 -16.6026,-59.18774c-6.1251,-19.9407 -12.99104,-39.6899 -16.76135,-60.24103c14.49917,-1.38843 33.94604,-2.20233 36.94906,12.05299c3.00302,14.2673 7.44802,23.74691 10.66271,37.03273c3.21469,13.28582 8.10948,23.04073 11.91948,35.89566m67.46875,44.28607c-3.7174,0.63437 -21.12698,3.9259 -23.8125,0c-2.3151,-3.37532 5.01385,-11.69392 5.19906,-16.84068c0.17198,-5.15873 3.91583,-11.66998 5.35781,-17.89397c1.42875,-6.23596 3.02948,-10.42518 5.29167,-17.95381c2.24896,-7.5406 2.18281,-7.95952 5.29167,-17.95381c3.09562,-10.00626 7.54062,-24.6446 10.58333,-34.71071c3.02948,-10.07807 2.88396,-9.83869 5.29167,-17.95381c2.39448,-8.12709 11.61521,-6.43943 18.54729,-5.96067c6.93208,0.47877 16.37771,-2.60929 22.58219,1.11314c6.21771,3.72242 7.03792,6.8823 9.07521,14.53062c2.03729,7.66029 2.59292,7.46879 5.29167,17.95381c2.68552,10.497 7.02469,24.40522 10.3849,34.89024c3.36021,10.48503 2.02406,7.02593 5.29167,17.95381c3.2676,10.92789 6.90562,25.25503 10.58333,35.90763c3.66448,10.6526 -0.60854,9.06069 -9.26042,10.24564c-8.6651,1.17298 -11.13896,0.37105 -20.96823,-3.24366c-9.8425,-3.60273 -21.33865,-12.12481 -28.68083,-19.53375c-7.34219,-7.40894 -7.43479,-4.69193 -12.23698,-11.66998c10.14677,0 20.28031,0 30.42708,0c-6.00604,-19.36618 -9.76312,-40.08488 -17.19792,-58.64912c-8.26823,13.69277 -7.85812,33.57363 -14.52562,47.90077c-6.65427,14.33911 -2.81781,38.31344 -22.51604,41.86829m140.22916,-128.07053c6.68073,4.27301 1.77271,18.68394 2.64583,27.52918c0.87312,8.84525 0.3175,21.25731 0,31.11994c-0.3175,9.86263 1.89177,19.13876 0,29.92302c-1.89177,10.78426 1.77271,19.48587 13.52021,18.88741c11.76073,-0.59846 21.15344,-1.18495 27.18594,5.3263c6.0325,6.52322 1.87854,17.89397 6.91885,24.86005c-26.5774,-3.11199 -54.91427,-3.04018 -80.69791,-7.18153c-6.36323,-5.75719 0.29104,-22.31061 -1.32292,-31.11994c-1.61396,-8.80934 0.11906,-24.01023 0,-33.51378c-0.11906,-9.50355 -1.46844,-23.0886 0,-32.31686c1.46844,-9.22826 -4.445,-25.23109 1.32292,-32.31686c0.29104,-0.35908 0.92604,-0.9336 1.32292,-1.19692c4.19365,-2.80079 24.96344,-2.6452 29.10417,0m88.63541,92.16291c3.55865,3.04018 0.4101,11.29893 1.32292,15.55997c2.69875,7.33713 23.11135,9.57537 27.78125,3.59076c1.03187,-1.93901 1.13771,-10.26958 1.32292,-11.96921c0,-14.07579 -5.26521,-18.52834 -19.84375,-17.95381c-14.57854,0.57452 -22.78062,0 -33.17875,-5.88885c-10.39812,-5.88885 -11.80042,-15.53603 -11.80042,-25.23109c0,-9.61127 -0.05292,-20.02449 1.32292,-28.7261c0.78052,-18.57621 16.25865,-24.16583 35.71875,-22.7415c19.4601,1.42434 42.39948,-1.06526 62.17708,0c0,14.36305 0,28.7261 0,43.08915c-7.50094,-3.36335 -28.32365,4.65602 -32.14687,-4.42861c-3.81,-9.08463 -14.85635,-11.83755 -25.02958,-9.00085c-10.17323,2.8367 -10.94052,16.7928 -2.68552,22.10713c8.26823,5.30236 23.46854,1.7116 33.40365,3.29153c9.9351,1.57994 19.07646,3.94984 23.70667,13.26188c4.64344,9.30008 3.3999,18.77969 4.07458,29.82727c0.67469,11.04758 -1.89177,21.73608 0,33.51378c1.89177,11.7777 -1.07156,21.81987 -14.55208,17.95381c-13.48052,-3.86605 -21.55031,-2.38187 -33.36396,-4.52436c-11.81365,-2.14249 -21.77521,-2.07067 -31.75,-4.78768c-9.97479,-2.71701 -15.00187,-9.47961 -18.1901,-17.05612c-3.20146,-7.56454 -5.87375,-22.52605 -1.3626,-29.88711c4.51115,-7.36106 25.79687,1.7475 33.07292,0m-87.3125,59.84604c-10.09385,10.62866 -24.23583,16.14646 -37.1475,25.03958c-12.91167,8.89312 -27.35792,14.08776 -41.01042,22.7415c-13.63927,8.66571 -28.11198,12.28041 -42.33333,21.54458c-14.20812,9.27614 -29.54073,9.74294 -43.85469,0.37105c-14.30073,-9.37189 -28.65437,-12.79508 -42.35979,-21.52064c-13.70542,-8.73752 -28.08552,-13.65687 -40.98396,-22.76544c-12.89844,-9.10857 -27.90031,-14.65031 -38.06031,-25.41063c6.00604,-2.29809 14.44625,0.76603 20.13479,-2.13052c5.68854,-2.89655 0.62177,-14.09973 2.35479,-19.41406c13.70542,5.49387 25.69104,17.4152 39.35677,23.04073c13.66573,5.6375 27.17271,17.28354 40.94427,21.60442c13.75833,4.33285 27.64896,22.25076 42.73021,19.98858c15.08125,-2.26218 26.1276,-16.58932 41.11625,-21.44882c14.97542,-4.87147 24.69885,-16.0148 40.50771,-21.99941c15.79562,-5.99657 40.74583,1.00541 58.60521,0.35908z"/>
   </g>
   <g stroke="None" id="svg_79" fill="#DF2225">
    <path stroke="null" id="svg_80" d="m921.00002,404.14946c1.0451,9.79081 1.0451,21.41291 0,31.11994c-0.83344,104.8383 -35.93042,204.52984 -97.89583,290.85177c11.0199,0 22.05302,0 33.07292,0c0.62177,3.01624 -1.3626,7.45682 1.32292,9.57537c13.29531,-21.50867 27.02719,-39.31885 38.45719,-62.1561c11.44323,-22.82528 21.1799,-43.98684 29.91115,-68.69129c8.73125,-24.70445 15.59719,-50.2228 20.55812,-77.15352c4.96094,-26.91875 9.18104,-57.63174 10.29229,-86.44163c1.11125,-28.80989 -1.25677,-63.98739 -3.96875,-92.16291c-2.71198,-28.16355 -8.54604,-55.68076 -14.55208,-82.58754c-6.01927,-26.89481 -13.25562,-51.12049 -20.13479,-77.53653c-6.8924,-26.41604 -39.91239,-27.85235 -64.95521,-38.18178c-25.05604,-10.31746 -53.68396,-15.02136 -81.30646,-22.19091c-27.6225,-7.18153 -57.75854,-12.07693 -87.51094,-16.57735c-29.73917,-4.50042 -62.9576,-7.61242 -94.01969,-10.6885c-31.06208,-3.07609 -69.49281,-3.23169 -100.54166,0c-31.04885,3.23169 -64.18792,5.88885 -93.91385,10.78426c-29.73917,4.89541 -59.26667,9.99429 -87.3125,16.75689c-28.05906,6.75063 -55.94614,11.59816 -81.74302,21.79593c-25.78365,10.20974 -57.41458,12.56767 -63.88364,39.15128c-6.48229,26.57164 -16.0999,49.4448 -21.10052,76.66278c-5.01385,27.20601 -11.93271,54.34021 -14.52562,82.61148c-2.59292,28.27127 -4.5376,63.30515 -3.95552,92.15094c0.58208,28.84579 5.9399,59.23561 10.5701,86.19027c4.64344,26.94269 11.93271,52.38923 20.7301,76.99792c8.7974,24.59672 17.76677,46.28493 29.845,68.75114c12.07823,22.46621 22.93937,40.99454 38.06031,61.31826c0.58208,-14.80591 22.89969,-6.05642 34.39583,-8.37845c-10.43781,-17.43914 -21.94719,-31.93385 -32.05427,-49.99539c-10.10708,-18.07351 -18.66635,-35.15357 -27.05365,-54.51975c-8.38729,-19.37815 -14.08906,-38.34935 -20.35969,-59.37925c-6.27062,-21.0299 -10.5701,-43.87912 -13.4276,-66.84803c-2.8575,-22.96891 -4.65667,-48.85831 -5.00062,-73.2755c-0.34396,-24.41719 1.03187,-51.92243 3.98198,-75.39405c2.93687,-23.48359 7.51417,-44.29804 11.90625,-67.02757c4.39208,-22.72953 13.45406,-40.73122 16.74812,-63.84376c3.30729,-23.11254 24.96344,-29.08518 47.96896,-35.59643c23.00552,-6.52322 41.83062,-13.44142 65.35208,-18.67197c23.50823,-5.24251 46.65927,-10.61669 71.00094,-14.75803c24.34167,-4.14135 50.07239,-7.13365 75.39302,-9.58734c25.32062,-2.45369 53.37969,-6.7626 79.38823,-7.16956c26.00854,-0.40695 55.45667,2.59732 80.68469,4.79965c25.22802,2.20233 52.74469,5.70931 76.72916,9.57537c23.99771,3.85409 49.86073,7.91165 71.88729,13.9561c22.01333,6.05642 47.53239,8.49814 66.74114,17.4152c19.20875,8.92903 48.9876,7.62439 58.5126,26.05697c9.525,18.44455 10.64948,41.66482 17.19792,62.23989c6.54844,20.57507 9.2075,44.93241 13.21594,67.03954c4.00844,22.10713 5.29167,49.69616 5.29167,73.01217z"/>
   </g>
   <g stroke="None" id="svg_81" fill="#DF2125">
    <path stroke="null" id="svg_82" d="m553.22919,212.64212c-108.3601,-9.49158 -210.02625,55.72864 -250.94406,145.19847c-40.93104,89.45787 -11.2051,204.55378 76.64979,267.44c87.86812,62.87425 215.19885,68.08086 307.60458,9.59931c92.40573,-58.48155 130.51896,-165.42644 98.1075,-260.56968c-32.42469,-95.13127 -126.72218,-152.49969 -231.41781,-161.6681m-13.22917,96.95059c-1.15094,-10.82016 -3.57187,-26.46392 0,-37.10455c2.83104,-8.43829 15.3326,-6.48731 14.55208,-16.75689c-0.78052,-10.26958 0.58208,-19.72526 0,-29.92302c113.05646,2.70504 214.53739,90.48722 226.21874,191.50734c-13.44083,-12.19662 -29.03802,-21.81987 -42.33333,-33.51378c-11.8401,6.05642 -16.53646,20.16812 -27.78125,27.52918c25.50583,-55.13018 4.37885,-124.76703 -55.5625,-154.40279c0.18521,19.72526 -6.5749,40.47986 -18.415,56.35104c-11.8401,15.87117 -27.17271,23.33996 -43.36521,33.77711c-16.17927,10.43715 -38.89375,11.38272 -52.91667,25.13534c-14.02292,13.76459 -24.60625,25.24306 -32.54375,43.56792c-7.9375,18.31289 -29.36875,21.4967 -47.51917,30.01878c-18.16365,8.51011 -40.9575,8.85721 -55.60219,23.90251c-14.64469,15.05726 6.82625,32.28096 22.42344,43.74746c15.59719,11.47847 43.18,6.9182 62.865,-0.09575c19.685,-7.00199 44.09281,-10.09004 65.85479,-13.42945c21.76198,-3.33941 51.07781,0.02394 71.46396,5.96067c20.39937,5.92476 35.79812,16.39782 54.21312,25.15928c3.98198,-10.25761 6.04573,-21.00596 10.58333,-31.11994c11.03312,9.51552 22.42344,22.09516 27.67542,34.80646c5.26521,12.69933 18.58698,33.7412 10.35844,46.28493c-8.22854,12.54373 -21.74875,22.1191 -34.0651,30.22225c2.32833,-18.89938 2.34156,-40.06094 -3.96875,-57.4522c-5.41073,7.8518 -12.3825,15.76345 -17.19792,23.93842c-23.9051,-24.97974 -42.33333,-59.45106 -84.2301,-65.02871c-41.91,-5.57765 -91.42677,9.83869 -131.40531,18.3488c14.30073,2.57338 32.94062,2.89655 47.63823,4.77571c14.68437,1.87917 29.99052,5.3263 43.23292,9.95838c13.25562,4.63208 22.72771,9.99429 33.81375,17.28354c11.07281,7.30122 19.38073,14.25533 27.34469,24.3334c7.95073,10.07807 14.71083,19.46193 19.65854,31.28751c4.93448,11.83755 11.72104,27.18207 -4.57729,31.23964c-16.29833,4.06953 -26.16729,8.33057 -42.3201,10.78426c-16.15281,2.45369 -32.64958,3.59076 -49.38448,3.19578c-16.7349,-0.39498 -33.69469,-1.25677 -48.96114,-4.77571c-15.25323,-3.53092 -26.43187,-7.50469 -40.99719,-11.98118c19.1426,-14.81788 41.80417,-16.19434 67.03219,-11.57422c25.22802,4.62011 56.75312,2.01083 81.13448,-3.98575c-8.06979,-8.10315 -23.75958,0.16757 -37.04167,0c-13.28208,-0.17954 -32.46437,-0.32317 -45.07177,-2.31006c-12.62062,-1.98689 -27.86062,-0.95754 -34.7001,-11.69392c-6.83948,-10.72441 -12.95135,-15.28468 -19.11615,-25.79365c-6.17802,-10.50897 -12.91167,-16.23025 -18.54729,-27.50524c-5.63562,-11.26303 -23.09812,-9.04872 -35.58646,-10.89198c-12.48833,-1.84326 -23.24365,-7.20546 -35.13667,-11.29893c-11.89302,-4.10544 -18.07104,-11.94527 -22.58219,-22.64574c-4.52437,-10.71244 -10.51719,-19.15073 -13.86417,-30.55739c-3.33375,-11.41863 -7.67292,-24.51294 -8.22854,-36.84122c-0.55562,-12.32829 6.45583,-21.71214 11.60198,-32.59216c5.14615,-10.86804 10.62302,-16.37388 17.89906,-26.89481c7.27604,-10.50897 19.73792,-12.44798 31.64417,-7.80392c11.91948,4.64405 26.53771,4.18922 38.16614,8.55798c11.64167,4.36876 29.46135,0.87375 31.6574,15.64376c19.96281,-3.41122 25.78365,-22.96891 34.39583,-37.10455c-12.68677,2.82473 -20.05542,18.36077 -32.67604,20.70673c-12.6074,2.35793 -33.28458,-4.99116 -45.46864,-8.65374c-12.18406,-3.66258 -35.8775,-1.96295 -41.34114,-14.06382c-5.46365,-12.10087 -3.57187,-33.96861 -2.3151,-47.14671c1.24354,-13.1781 13.05719,-21.83184 23.57437,-30.13847c10.51719,-8.30663 20.01573,-14.13564 31.75,-21.54458c11.73427,-7.40894 23.13781,-11.80164 36.35375,-18.57621c13.21594,-6.77457 29.7524,-0.57452 43.37844,4.48845c13.63927,5.05101 34.09156,6.1043 30.40062,23.96236c-3.69094,17.85806 3.37344,32.81957 1.32292,50.27068c11.46969,-0.58649 4.88156,-14.72213 6.61458,-21.54458m-72.76042,-74.20909c-14.39333,18.14532 -42.35979,24.39325 -61.78021,38.66054c-19.42042,14.27927 -37.38562,31.16782 -59.92812,40.33623c29.21,-38.43313 74.33469,-65.05265 121.70833,-78.99678m145.52083,163.97816c-7.24958,5.6734 -7.11729,19.56966 -17.50219,22.46621c-10.39812,2.89655 -28.2575,-2.53747 -38.06031,-3.31547c16.64229,-10.2217 35.59969,-17.04415 55.5625,-19.15073m-297.65624,43.08915c1.52135,16.05071 4.45823,33.09486 10.49073,47.96062c6.0325,14.87773 9.36625,27.67281 19.02354,41.4374c9.64406,13.77656 9.27365,34.73464 6.20448,50.64172c-37.21364,-42.6822 -56.71344,-95.14324 -52.91667,-150.81203c6.53521,2.47763 10.80823,8.163 17.19792,10.77229z"/>
   </g>
   <g stroke="None" id="svg_83" fill="#F2C911">
    <path stroke="null" id="svg_84" d="m540.00003,272.48817c-2.16958,11.61013 0,25.30291 0,37.10455c-1.73302,6.82245 4.8551,20.95808 -6.61458,21.54458c2.05052,-17.45111 -5.01385,-32.41262 -1.32292,-50.27068c3.69094,-17.85806 -16.76135,-18.91135 -30.40062,-23.96236c-13.62604,-5.06298 -30.1625,-11.26303 -43.37844,-4.48845c-13.21594,6.77457 -24.61948,11.16727 -36.35375,18.57621c-11.73427,7.40894 -21.23281,13.23794 -31.75,21.54458c-10.51719,8.30663 -22.33083,16.96037 -23.57437,30.13847c-1.25677,13.1781 -3.14854,35.04584 2.3151,47.14671c5.46365,12.10087 29.15708,10.40124 41.34114,14.06382c12.18406,3.66258 32.86125,11.01167 45.46864,8.65374c12.62062,-2.34596 19.98927,-17.882 32.67604,-20.70673c-8.61219,14.13564 -14.43302,33.69332 -34.39583,37.10455c-2.19604,-14.77 -20.01573,-11.27499 -31.6574,-15.64376c-11.62844,-4.36876 -26.24667,-3.91393 -38.16614,-8.55798c-11.90625,-4.64405 -24.36812,-2.70504 -31.64417,7.80392c-7.27604,10.52093 -12.75292,16.02677 -17.89906,26.89481c-5.14615,10.88001 -12.1576,20.26387 -11.60198,32.59216c0.55562,12.32829 4.89479,25.4226 8.22854,36.84122c3.34698,11.40666 9.33979,19.84495 13.86417,30.55739c4.51115,10.70047 10.68917,18.5403 22.58219,22.64574c11.89302,4.09347 22.64833,9.45567 35.13667,11.29893c12.48833,1.84326 29.95083,-0.37105 35.58646,10.89198c5.63562,11.27499 12.36927,16.99628 18.54729,27.50524c6.16479,10.50897 12.27667,15.06923 19.11615,25.79365c6.83948,10.73638 22.07948,9.70703 34.7001,11.69392c12.6074,1.98689 31.78969,2.13052 45.07177,2.31006c13.28208,0.16757 28.97187,-8.10315 37.04167,0c-24.38135,5.99657 -55.90646,8.60586 -81.13448,3.98575c-25.22802,-4.62011 -47.88958,-3.24366 -67.03219,11.57422c14.56531,4.47648 25.74396,8.45026 40.99719,11.98118c15.26646,3.51895 32.22625,4.38073 48.96114,4.77571c16.7349,0.39498 33.23167,-0.74209 49.38448,-3.19578c16.15281,-2.45369 26.02177,-6.71473 42.3201,-10.78426c16.29833,-4.05756 9.51177,-19.40209 4.57729,-31.23964c-4.94771,-11.82558 -11.70781,-21.20944 -19.65854,-31.28751c-7.96396,-10.07807 -16.27187,-17.03218 -27.34469,-24.3334c-11.08604,-7.28925 -20.55812,-12.65145 -33.81375,-17.28354c-13.2424,-4.63208 -28.54854,-8.07922 -43.23292,-9.95838c-14.6976,-1.87917 -33.3375,-2.20233 -47.63823,-4.77571c39.97854,-8.51011 89.49531,-23.92645 131.40531,-18.3488c41.89677,5.57765 60.325,40.04897 84.2301,65.02871c4.81542,-8.17497 11.78719,-16.08662 17.19792,-23.93842c6.31031,17.39126 6.29708,38.55282 3.96875,57.4522c12.31635,-8.10315 25.83656,-17.67852 34.0651,-30.22225c8.22854,-12.54373 -5.09323,-33.5856 -10.35844,-46.28493c-5.25198,-12.7113 -16.64229,-25.29094 -27.67542,-34.80646c-4.5376,10.11398 -6.60135,20.86233 -10.58333,31.11994c-18.415,-8.76146 -33.81375,-19.23452 -54.21312,-25.15928c-20.38615,-5.93673 -49.70198,-9.30008 -71.46396,-5.96067c-21.76198,3.33941 -46.16979,6.42747 -65.85479,13.42945c-19.685,7.01396 -47.26781,11.57422 -62.865,0.09575c-15.59719,-11.4665 -37.06812,-28.69019 -22.42344,-43.74746c14.64469,-15.0453 37.43854,-15.3924 55.60219,-23.90251c18.15042,-8.52208 39.58167,-11.70589 47.51917,-30.01878c7.9375,-18.32486 18.52083,-29.80333 32.54375,-43.56792c14.02292,-13.75262 36.7374,-14.69819 52.91667,-25.13534c16.1925,-10.43715 31.5251,-17.90594 43.36521,-33.77711c11.8401,-15.87117 18.60021,-36.62578 18.415,-56.35104c59.94135,29.63576 81.06833,99.27262 55.5625,154.40279c11.24479,-7.36106 15.94115,-21.47276 27.78125,-27.52918c13.29531,11.69392 28.8925,21.31716 42.33333,33.51378c-11.68135,-101.02012 -113.16229,-188.8023 -226.21874,-191.50734c0.58208,10.19777 -0.78052,19.65344 0,29.92302c0.78052,10.26958 -11.72104,8.3186 -14.55208,16.75689m52.91667,51.4676c0,-4.10544 0.97896,-8.74949 1.32292,-11.96921c0,-15.73951 -0.18521,-31.29948 1.32292,-46.67991c18.30917,-2.04673 44.51614,17.77428 37.13427,34.79449c-7.36865,17.02021 -23.09812,27.93613 -39.7801,35.82384c0,-3.98575 0,-7.98346 0,-11.96921z"/>
   </g>
   <g stroke="None" id="svg_85" fill="#F2C712">
    <path stroke="null" id="svg_86" d="m467.23961,235.38362c-47.37364,13.94413 -92.49833,40.56365 -121.70833,78.99678c22.5425,-9.16841 40.50771,-26.05697 59.92812,-40.33623c19.42042,-14.2673 47.38687,-20.51522 61.78021,-38.66054z"/>
   </g>
   <g stroke="None" id="svg_87" fill="#DF2425">
    <path stroke="null" id="svg_88" d="m594.23961,311.98656c0,4.09347 -0.97896,8.74949 -1.32292,11.96921c0,3.98575 0,7.98346 0,11.96921c16.68198,-7.88771 32.41146,-18.80363 39.7801,-35.82384c7.38187,-17.02021 -18.8251,-36.84122 -37.13427,-34.79449c-1.50812,15.38043 -1.32292,30.9404 -1.32292,46.67991z"/>
   </g>
   <g stroke="None" id="svg_89" fill="#E9781B">
    <path stroke="null" id="svg_90" d="m540.00003,309.59271c0,-11.80164 -2.16958,-25.49441 0,-37.10455c-3.57187,10.64063 -1.15094,26.28438 0,37.10455z"/>
   </g>
   <g stroke="None" id="svg_91" fill="#EA821A">
    <path stroke="null" id="svg_92" d="m592.91669,323.95576c0.34396,-3.21972 1.32292,-7.87574 1.32292,-11.96921c-0.34396,3.21972 -1.32292,7.86377 -1.32292,11.96921z"/>
   </g>
   <g stroke="None" id="svg_93" fill-opacity="0.31" fill="#7C6E0C">
    <path stroke="null" id="svg_94" d="m110.05212,393.37718c0.67469,-2.66913 3.09562,-6.79851 2.64583,-11.96921c-0.14552,3.18381 -2.42094,8.06725 -2.64583,11.96921z"/>
   </g>
   <g stroke="None" id="svg_95" fill-opacity="0.47" fill="#BA9E17">
    <path stroke="null" id="svg_96" d="m968.62502,395.77102c0.21167,-1.42434 1.0451,-1.53206 1.32292,-2.39384c0,-1.5919 0.06615,-3.19578 0,-4.78768c0.01323,-0.09575 -3.9026,1.61584 -2.6326,3.57879c1.28323,1.96295 1.21708,2.5255 1.30969,3.60273z"/>
   </g>
   <g stroke="None" id="svg_97" fill-opacity="0.16" fill="#C5BC96">
    <path stroke="null" id="svg_98" d="m968.62502,395.77102c-0.39687,2.6811 0,5.6734 0,8.37845c0.01323,0.08378 1.32292,0 1.32292,0c0,-3.59076 0,-7.18153 0,-10.77229c-0.27781,0.86178 -1.11125,0.96951 -1.32292,2.39384z"/>
   </g>
   <g stroke="None" id="svg_99" fill-opacity="0.18" fill="#EFE6B8">
    <path stroke="null" id="svg_100" d="m110.05212,441.25401c0.06615,-0.17954 1.32292,0 1.32292,0c-1.9976,-13.53718 0.19844,-28.96549 -1.32292,-41.89223c0,13.96807 0,27.92416 0,41.89223z"/>
   </g>
   <g stroke="None" id="svg_101" fill="#F1C712">
    <path stroke="null" id="svg_102" d="m612.76044,399.36178c-19.96281,2.10658 -38.92021,8.92903 -55.5625,19.15073c9.80281,0.778 27.66219,6.21202 38.06031,3.31547c10.3849,-2.89655 10.2526,-16.7928 17.50219,-22.46621z"/>
   </g>
   <g stroke="None" id="svg_103" fill="#EA831A">
    <path stroke="null" id="svg_104" d="m921.00002,435.26941c1.0451,-9.70703 1.0451,-21.32913 0,-31.11994c0,10.3773 0,20.74264 0,31.11994z"/>
   </g>
   <g stroke="None" id="svg_105" fill-opacity="0.35" fill="#F8E798">
    <path stroke="null" id="svg_106" d="m968.62502,435.26941c0,-0.04788 1.32292,0 1.32292,0c0,-10.3773 0,-20.74264 0,-31.11994c0,0 -1.30969,0.08378 -1.32292,0c0,10.3773 0,20.74264 0,31.11994z"/>
   </g>
   <g stroke="None" id="svg_107" fill="#F2C912">
    <path stroke="null" id="svg_108" d="m315.1042,442.45093c-6.38969,-2.60929 -10.66271,-8.29466 -17.19792,-10.77229c-3.79677,55.66879 15.70302,108.12983 52.91667,150.81203c3.06917,-15.90708 3.43958,-36.86516 -6.20448,-50.64172c-9.65729,-13.76459 -12.99104,-26.55967 -19.02354,-41.4374c-6.0325,-14.86576 -8.96937,-31.90991 -10.49073,-47.96062z"/>
   </g>
   <g stroke="None" id="svg_109" fill-opacity="0.15" fill="#C5BD95">
    <path stroke="null" id="svg_110" d="m969.94793,446.04169c0.07937,-3.59076 0,-7.18153 0,-10.77229c0,0 -1.32292,-0.04788 -1.32292,0c0,3.65061 1.08479,7.94755 1.32292,10.77229z"/>
   </g>
   <g stroke="None" id="svg_111" fill-opacity="0.34" fill="#C1A215">
    <path stroke="null" id="svg_112" d="m110.05212,447.23862c0.37042,0.29923 2.54,-0.22741 2.64583,0c-0.18521,-2.20233 -1.03187,-4.05756 -1.32292,-5.9846c0,0 -1.25677,-0.17954 -1.32292,0c0,1.98689 -0.10583,3.99772 0,5.9846z"/>
   </g>
   <g stroke="None" id="svg_113" fill-opacity="0.31" fill="#846D0C">
    <path stroke="null" id="svg_114" d="m112.69795,459.20782c0.33073,-3.83015 0.3175,-8.13906 0,-11.96921c-0.10583,-0.22741 -2.27542,0.29923 -2.64583,0c0.2249,3.98575 2.48708,8.67768 2.64583,11.96921z"/>
   </g>
   <g stroke="None" id="svg_115" fill="#DF2325">
    <path stroke="null" id="svg_116" d="m278.06253,836.2379c27.10656,-7.26531 23.11135,28.73807 30.71812,42.82583c7.62,14.08776 17.38312,6.48731 30.09635,6.21202c12.72646,-0.26332 -2.06375,-18.40864 -1.30969,-25.07549c0.74083,-6.65488 -11.16542,-22.08319 -6.28385,-29.67167c4.88156,-7.58848 15.90146,-11.9333 14.24781,-23.01679c-1.65365,-11.08349 0.83344,-25.09943 0,-35.90763c-0.83344,-10.8082 -2.24896,-18.22911 -13.63927,-23.56737c-11.37708,-5.35024 -24.42104,-1.78341 -37.95448,-2.76489c-13.53344,-0.98148 -24.88406,1.20889 -39.6875,0c-14.80344,-1.20889 -10.37167,14.91363 -10.58333,26.33226c-0.21167,11.41863 0.39687,23.77085 0,35.90763c-0.39687,12.13678 0.84667,22.94497 0,35.90763c-0.84667,12.96265 1.85208,21.44882 0,35.90763c-1.85208,14.4588 3.22792,17.59474 18.5076,14.35108c15.27969,-3.23169 16.69521,-8.03134 15.88823,-21.53261c-0.80698,-13.50127 0.60854,-22.78937 0,-35.90763m30.42708,-61.04297c4.14073,2.78883 5.52979,26.09288 -0.33073,28.42687c-5.87375,2.32203 -31.14146,6.81048 -30.09635,-4.48845c1.05833,-11.3109 -5.6224,-23.93842 11.90625,-23.93842c4.86833,-0.43089 13.79802,-3.18381 18.52083,0z"/>
   </g>
   <g stroke="None" id="svg_117" fill="#DF2225">
    <path stroke="null" id="svg_118" d="m366.69795,881.7209c7.87135,-3.00427 25.37354,3.63864 31.40604,-2.70504c6.04573,-6.33171 -0.03969,-19.53375 1.66687,-28.4149c1.70656,-8.88115 -0.9525,-19.90479 0,-29.92302c0.9525,-10.01823 -0.88635,-20.19206 0,-31.11994c0.88635,-10.92789 -1.42875,-17.43914 0,-29.92302c1.42875,-12.48388 -2.67229,-14.1476 -17.19792,-14.36305c-14.52562,-0.21545 -17.21115,3.20775 -15.875,15.55997c1.33615,12.35222 -0.635,19.95267 0,31.11994c0.635,11.16727 -0.29104,19.39012 0,29.92302c0.29104,10.5329 -0.15875,19.66541 0,29.92302c0.15875,10.26958 -0.11906,19.73723 0,29.92302z"/>
   </g>
   <g stroke="None" id="svg_119" fill="#DF2225">
    <path stroke="null" id="svg_120" d="m473.8542,830.2533c-3.81,-12.85493 -8.70479,-22.60984 -11.91948,-35.89566c-3.21469,-13.28582 -7.65969,-22.76544 -10.66271,-37.03273c-3.00302,-14.25533 -22.4499,-13.44142 -36.94906,-12.05299c3.77031,20.55113 10.63625,40.30033 16.76135,60.24103c6.13833,19.92873 11.0199,38.94781 16.6026,59.18774c5.59594,20.22796 48.51135,17.22369 51.59375,-3.06412c3.09562,-20.28781 13.89062,-37.78679 18.24302,-57.70356c4.3524,-19.91676 11.85333,-38.99568 17.18469,-58.66109c-14.40656,-1.06526 -35.90396,-2.82473 -38.37781,11.95724c-2.47385,14.79394 -7.48771,23.5554 -10.66271,37.03273c-3.175,13.46536 -7.32896,23.60328 -11.81365,35.99141z"/>
   </g>
   <g stroke="None" id="svg_121" fill="#DF2225">
    <path stroke="null" id="svg_122" d="m517.51045,874.53937c7.89781,-0.40695 15.91469,0.55058 23.8125,0c19.69823,-3.55486 15.86177,-27.52918 22.51604,-41.86829c6.6675,-14.32714 6.2574,-34.208 14.52562,-47.90077c7.43479,18.56424 11.19187,39.28294 17.19792,58.64912c-10.14677,0 -20.28031,0 -30.42708,0c4.80219,6.97805 4.89479,4.26104 12.23698,11.66998c7.34219,7.40894 18.83833,15.93102 28.68083,19.53375c9.82927,3.6147 12.30312,4.41664 20.96823,3.24366c8.65187,-1.18495 12.9249,0.40695 9.26042,-10.24564c-3.67771,-10.6526 -7.31573,-24.97974 -10.58333,-35.90763c-3.2676,-10.92789 -1.93146,-7.46879 -5.29167,-17.95381c-3.36021,-10.48503 -7.69937,-24.39325 -10.3849,-34.89024c-2.69875,-10.48503 -3.25437,-10.29352 -5.29167,-17.95381c-2.03729,-7.64832 -2.8575,-10.8082 -9.07521,-14.53062c-6.20448,-3.72242 -15.6501,-0.63437 -22.58219,-1.11314c-6.93208,-0.47877 -16.15281,-2.16643 -18.54729,5.96067c-2.40771,8.11512 -2.26219,7.87574 -5.29167,17.95381c-3.04271,10.0661 -7.48771,24.70445 -10.58333,34.71071c-3.10885,9.99429 -3.04271,10.41321 -5.29167,17.95381c-2.26219,7.52863 -3.86292,11.71786 -5.29167,17.95381c-1.44198,6.22399 -5.18583,12.73524 -5.35781,17.89397c-0.18521,5.14676 -7.51417,13.46536 -5.19906,16.84068z"/>
   </g>
   <g stroke="None" id="svg_123" fill="#E97E1B">
    <path stroke="null" id="svg_124" d="m652.44794,746.46884c6.05896,-0.78997 23.70667,-2.35793 29.10417,0c-4.14073,-2.6452 -24.91052,-2.80079 -29.10417,0z"/>
   </g>
   <g stroke="None" id="svg_125" fill="#DF2125">
    <path stroke="null" id="svg_126" d="m737.11461,768.01341c-0.39687,9.55143 -0.39687,20.04842 -1.32292,28.7261c0,9.69506 1.40229,19.34224 11.80042,25.23109c10.39812,5.88885 18.60021,6.46337 33.17875,5.88885c14.57854,-0.57452 19.84375,3.87802 19.84375,17.95381c0,3.88999 0.97896,9.02478 -1.32292,11.96921c-4.6699,5.9846 -25.0825,3.74636 -27.78125,-3.59076c-1.65365,-4.47648 -1.50812,-10.26958 -1.32292,-15.55997c-7.27604,1.7475 -28.56177,-7.36106 -33.07292,0c-4.51115,7.36106 -1.83885,22.32257 1.3626,29.88711c3.18823,7.57651 8.21531,14.33911 18.1901,17.05612c9.97479,2.71701 19.93635,2.6452 31.75,4.78768c11.81365,2.14249 19.88344,0.65831 33.36396,4.52436c13.48052,3.86605 16.44385,-6.17611 14.55208,-17.95381c-1.89177,-11.7777 0.67469,-22.46621 0,-33.51378c-0.67469,-11.04758 0.56885,-20.52719 -4.07458,-29.82727c-4.63021,-9.31204 -13.77156,-11.68195 -23.70667,-13.26188c-9.9351,-1.57994 -25.13542,2.01083 -33.40365,-3.29153c-8.255,-5.31433 -7.48771,-19.27043 2.68552,-22.10713c10.17323,-2.8367 21.21958,-0.08378 25.02958,9.00085c3.82323,9.08463 24.64594,1.06526 32.14687,4.42861c0,-14.36305 0,-28.7261 0,-43.08915c-19.7776,-1.06526 -42.71698,1.42434 -62.17708,0c-19.4601,-1.42434 -34.93823,4.16528 -35.71875,22.7415z"/>
   </g>
   <g stroke="None" id="svg_127" fill="#DF2025">
    <path stroke="null" id="svg_128" d="m651.12503,747.66576c-1.11125,6.99002 0.44979,14.48274 0,21.54458c-0.44979,7.06183 0.07937,14.49471 0,21.54458c-0.07937,7.04986 -0.23812,14.59047 0,21.54458c0.23812,6.95411 -0.71437,14.85379 0,21.54458c0.71437,6.69079 -1.66687,15.44028 0,21.54458c1.66687,6.1043 -3.7174,16.73295 0,21.54458c25.78365,4.14135 54.12052,4.06953 80.69791,7.18153c-5.04031,-6.96608 -0.88635,-18.33683 -6.91885,-24.86005c-6.0325,-6.51125 -15.42521,-5.92476 -27.18594,-5.3263c-11.7475,0.59846 -15.41198,-8.10315 -13.52021,-18.88741c1.89177,-10.78426 -0.3175,-20.06039 0,-29.92302c0.3175,-9.86263 0.87312,-22.2747 0,-31.11994c-0.87312,-8.84525 4.0349,-23.25617 -2.64583,-27.52918c-5.3975,-2.35793 -23.04521,-0.78997 -29.10417,0c-0.39687,0.26332 -1.03187,0.83784 -1.32292,1.19692z"/>
   </g>
   <g stroke="None" id="svg_129" fill="#EA8A19">
    <path stroke="null" id="svg_130" d="m651.12503,876.93321c-3.7174,-4.81162 1.66687,-15.44028 0,-21.54458c-1.66687,-6.1043 0.71437,-14.85379 0,-21.54458c-0.71437,-6.69079 0.23812,-14.59047 0,-21.54458c-0.23812,-6.95411 -0.07937,-14.49471 0,-21.54458c0.07937,-7.04986 -0.44979,-14.48274 0,-21.54458c0.44979,-7.06183 -1.11125,-14.55456 0,-21.54458c-5.76792,7.08577 0.14552,23.0886 -1.32292,32.31686c-1.46844,9.22826 -0.11906,22.81331 0,32.31686c0.11906,9.50355 -1.61396,24.70445 0,33.51378c1.61396,8.80934 -5.04031,25.36275 1.32292,31.11994z"/>
   </g>
   <g stroke="None" id="svg_131" fill="#EA811A">
    <path stroke="null" id="svg_132" d="m735.79169,796.73951c0.92604,-8.67768 0.92604,-19.17467 1.32292,-28.7261c-1.37583,8.70161 -1.32292,19.11483 -1.32292,28.7261z"/>
   </g>
   <g stroke="None" id="svg_133" fill="#EA801A">
    <path stroke="null" id="svg_134" d="m289.96878,775.19494c4.445,0 14.65792,-1.78341 18.52083,0c-4.72281,-3.18381 -13.6525,-0.43089 -18.52083,0z"/>
   </g>
   <g stroke="None" id="svg_135" fill="#F2C912">
    <path stroke="null" id="svg_136" d="m308.48962,775.19494c-3.86292,-1.78341 -14.07583,0 -18.52083,0c-17.52865,0 -10.84792,12.62752 -11.90625,23.93842c-1.0451,11.29893 24.2226,6.81048 30.09635,4.48845c5.86052,-2.334 4.47146,-25.63805 0.33073,-28.42687z"/>
   </g>
   <g stroke="None" id="svg_137" fill="#E97F1B">
    <path stroke="null" id="svg_138" d="m771.51044,854.19172c-0.91281,-4.26104 2.23573,-12.51979 -1.32292,-15.55997c-0.18521,5.29039 -0.33073,11.08349 1.32292,15.55997z"/>
   </g>
   <g stroke="None" id="svg_139" fill="#E9761C">
    <path stroke="null" id="svg_140" d="m799.29169,857.78248c2.30187,-2.94443 1.32292,-8.07922 1.32292,-11.96921c-0.18521,1.69963 -0.29104,10.0302 -1.32292,11.96921z"/>
   </g>
   <g stroke="None" id="svg_141" fill="#EA811A">
    <path stroke="null" id="svg_142" d="m541.32294,874.53937c-7.89781,0.55058 -15.91469,-0.40695 -23.8125,0c2.68552,3.9259 20.0951,0.63437 23.8125,0z"/>
   </g>
   <g stroke="None" id="svg_143" fill="#DF2225">
    <path stroke="null" id="svg_144" d="m682.87502,898.47779c-17.85937,0.64634 -42.80958,-6.35565 -58.60521,-0.35908c-15.80885,5.9846 -25.53229,17.12794 -40.50771,21.99941c-14.98865,4.8595 -26.035,19.18664 -41.11625,21.44882c-15.08125,2.26218 -28.97187,-15.65573 -42.73021,-19.98858c-13.77156,-4.32088 -27.27854,-15.96692 -40.94427,-21.60442c-13.66573,-5.62553 -25.65135,-17.54686 -39.35677,-23.04073c-1.73302,5.31433 3.33375,16.51751 -2.35479,19.41406c-5.68854,2.89655 -14.12875,-0.16757 -20.13479,2.13052c10.16,10.76032 25.16187,16.30206 38.06031,25.41063c12.89844,9.10857 27.27854,14.02791 40.98396,22.76544c13.70542,8.72555 28.05906,12.14875 42.35979,21.52064c14.31396,9.37189 29.64656,8.90509 43.85469,-0.37105c14.22135,-9.26417 28.69406,-12.87887 42.33333,-21.54458c13.6525,-8.65374 28.09875,-13.84837 41.01042,-22.7415c12.91167,-8.89312 27.05365,-14.41093 37.1475,-25.03958z"/>
   </g>
   <g stroke="None" id="svg_145" fill-opacity="0.42" fill="#776508">
    <path stroke="null" id="svg_146" d="m225.14587,915.23468c-2.50031,-1.56797 -2.35479,-16.39782 -2.64583,-19.15073c0,6.2599 -1.83885,18.28895 2.64583,19.15073z"/>
   </g>
   <g stroke="None" id="svg_147" fill-opacity="0.44" fill="#7F6B08">
    <path stroke="null" id="svg_148" d="m311.13545,905.65931c4.57729,1.11314 9.76312,0.47877 14.55208,0c-2.89719,-0.07182 -11.86656,0.26332 -14.55208,0z"/>
   </g>
  </g>
 </g>
</svg>