<svg width="1080" height="1080" xmlns="http://www.w3.org/2000/svg">

 <g>
  <title>Layer 1</title>
  <g stroke="null" id="svg_201">
   <g stroke="#1D1922" id="svg_3" stroke-width="0.3" stroke-opacity="0.99" fill-opacity="0" fill="None">
    <path stroke="null" id="svg_4" d="m545.87299,9.25374c-12.13125,-6.20663 -11.35329,12.0586 -15.41325,16.92932c-4.05996,4.87073 -1.90842,20.36957 -8.81278,23.34875c-6.90436,2.991 -21.30869,2.52994 -30.47399,1.09946c-9.16529,-1.43048 -20.93187,5.22539 -11.85167,12.70882c9.09236,7.4716 10.1742,7.41249 18.23334,13.00437c8.05914,5.59188 14.38003,9.0203 9.80954,18.40709c-4.57049,9.39861 -2.13938,13.90285 -7.70662,23.24235c-5.5794,9.3395 5.15396,17.7687 12.08263,10.56901c6.92867,-7.19969 11.87598,-6.95143 18.051,-13.1817c6.17502,-6.23027 14.51374,-8.78386 20.64014,-1.79697c6.13856,6.97507 12.64178,5.4973 18.25765,12.98072c5.61587,7.48342 19.21794,5.30815 15.81438,-4.74068c-3.40356,-10.03701 -4.05996,-14.55307 -7.85249,-23.10049c-3.79253,-8.54742 -4.1572,-15.38062 4.77713,-19.4238c8.93434,-4.04318 9.50565,-9.74145 18.29412,-12.94526c8.80062,-3.2038 11.41407,-16.8111 -0.36467,-15.72346c-11.77874,1.08764 -19.97158,-1.67875 -31.60445,0c-11.63287,1.67875 -9.10451,-13.27628 -13.4562,-18.83269c-4.36385,-5.54459 -2.23662,-19.37651 -8.4238,-22.54485z"/>
   </g>
   <g stroke="#1D1922" id="svg_5" stroke-width="0.3" fill-opacity="0" fill="None">
    <path stroke="null" id="svg_6" d="m610.29745,203.13706c-11.58425,11.26651 -20.36056,15.75893 -34.13281,25.91416c-13.77225,10.15523 -36.02908,6.17116 -53.38721,7.18787c-17.35814,1.01671 -38.08337,4.1614 -54.71217,7.08147c-16.61665,2.92007 -32.10283,8.27551 -47.47961,12.93344c-15.38894,4.65793 -29.08825,11.98766 -43.2981,18.18247c-14.222,6.18299 -25.6847,13.89103 -38.36294,21.80005c-12.66609,7.90902 -24.03154,15.29787 -35.8589,24.23541c-11.8152,8.94937 -21.89216,18.33616 -33.42779,27.78206c-11.53563,9.45772 -19.46105,18.61989 -30.99667,28.96428c-11.54778,10.34438 -17.64987,20.34593 -29.78112,31.32871c-12.13125,10.9946 -3.70745,27.45104 1.49513,41.69674c5.19042,14.25752 11.07371,30.37111 15.82654,44.90054c-5.55509,2.32896 -9.70014,7.2588 -15.80223,8.27551c-17.24874,8.76022 -9.299,26.43434 -12.17987,42.53611c-2.88087,16.10177 -4.02349,29.82729 8.22931,40.51452c12.26496,10.68723 20.48212,13.40632 30.99667,23.0532c10.51456,9.6587 18.96267,16.62195 31.30056,22.75765c19.77709,9.83603 40.36861,19.24647 47.40668,41.37754c-6.90436,2.15163 -11.32898,9.69417 -18.23334,11.82215c-29.22196,26.37522 -51.47879,59.15806 -70.50224,92.2128c34.08419,-16.78746 67.35395,-33.18478 103.32225,-46.1064c14.84194,-5.33179 29.98776,-7.45978 38.80054,6.00565c8.81278,13.47726 19.145,16.76381 28.9667,27.39193c9.82169,10.61629 20.14176,16.14906 30.99667,25.41763c10.85491,9.28039 22.48778,13.95014 34.01125,22.48574c11.51131,8.53559 24.14094,11.79851 36.28434,20.27499c12.13125,8.48831 26.76654,10.85274 37.88888,0.39013c11.11018,-10.47443 22.57287,-13.73734 33.42779,-23.0532c10.84276,-9.32768 20.79816,-16.12542 31.60445,-24.82652c10.80629,-8.7011 18.79249,-18.20612 29.78112,-26.59985c10.97647,-8.39373 27.93347,-9.30403 39.9067,-16.75199c11.96107,-7.45978 24.3719,-14.22205 36.36943,-21.37445c-4.09642,9.26857 -14.07614,16.33822 -17.01778,26.00874c3.54942,0.35466 6.60047,-1.09946 9.72445,-2.36443c38.42372,-12.73246 68.82477,-34.93446 93.69505,-67.2917c24.87027,-32.34541 37.00152,-80.80442 37.58499,-121.86276c4.25445,17.78052 11.93676,34.53251 17.01778,52.01748c12.49591,-44.49859 16.76252,-100.7011 2.43111,-146.5947c-8.98296,-28.77512 -24.43267,-57.97584 -46.19112,-80.39064c4.19367,-27.92393 9.22607,-55.67052 12.15556,-83.93729c-58.0671,-21.64636 -117.34976,-40.51452 -178.68671,-52.01748c8.01051,-12.48419 15.61989,-25.1339 20.66445,-39.01311c5.88329,-16.95297 4.923,-37.00334 -2.43111,-53.19969c-11.53563,19.83757 -31.21547,35.08815 -47.40668,50.83526m35.25112,-15.3688c-2.5162,50.79979 -49.67977,84.29195 -87.82391,114.37934c-38.13199,30.0992 -82.05002,68.13107 -84.78502,118.51709c27.60527,-24.2827 56.99741,-49.54665 94.81336,-53.19969c-19.26656,23.53791 -38.11983,45.7872 -54.60277,71.0275c-16.47078,25.2403 -41.63279,52.53765 -38.99503,83.84271c-18.06316,17.54408 -46.48286,18.66718 -70.10111,25.21665c-23.61825,6.54947 -50.17815,12.76793 -72.21617,23.1596c-22.02587,10.4035 -44.00312,26.82447 -41.23166,53.29427c-14.02751,-6.32485 -27.99425,-14.88409 -38.89779,-26.00874c17.09072,-6.98689 26.24385,-25.51221 41.02501,-36.94423c14.78116,-11.43202 35.27543,-16.7047 50.14168,-28.07761c-13.97889,4.44513 -27.62958,10.17887 -41.42614,15.27422c-13.7844,5.09535 -21.28438,13.79645 -31.20332,25.21665c-9.93109,11.4202 -19.23009,22.45027 -34.61903,12.98072c-15.38894,-9.46954 -23.07125,-17.29581 -20.38487,-34.55615c2.67422,-17.26034 -0.47407,-33.58674 15.43756,-40.54999c15.89947,-6.97507 20.56721,-15.17965 33.46425,-23.01773c12.89705,-7.83809 19.66769,-16.4919 30.41321,-25.98509c10.74551,-9.49319 18.73172,-19.9558 26.3411,-31.12773c7.60938,-11.17194 12.24065,-24.29453 22.28114,-33.89411c10.05265,-9.59959 19.0356,-18.14701 29.78112,-26.59985c10.75767,-8.44102 22.23252,-16.31457 33.42779,-24.23541c11.18311,-7.93267 22.90107,-14.67129 34.58256,-21.93009c11.66934,-7.27062 23.52101,-14.31663 35.71303,-20.83063c12.17987,-6.52583 24.00723,-14.05654 36.64901,-19.92033c12.64178,-5.86379 25.42943,-13.64277 37.70654,-20.07402c12.26496,-6.43125 23.77627,-13.80828 35.25112,-21.27988c11.47485,-7.48342 22.52425,-14.49396 32.82001,-23.64431c10.2836,-9.16217 20.31194,-18.83269 26.43834,-31.03315m-240.68006,521.35697c-10.52671,0 -21.07774,-0.20098 -31.60445,0c-34.01125,0.66204 -65.26319,15.65253 -96.02891,27.19095c3.84116,-6.97507 10.64827,-12.03495 14.58667,-18.91545c4.89869,-6.39579 11.87598,-12.85068 18.23334,-17.73323c32.72276,-25.12208 65.66433,-43.29273 106.56778,-52.40761c40.91561,-9.10306 94.21774,-18.74994 135.41292,-25.53585c41.20734,-6.78592 82.40253,-44.10845 63.14813,-86.40812c-19.24225,-42.31149 -72.41066,-47.9743 -114.28656,-46.08275c28.3103,-51.85197 70.36853,-96.3742 104.5378,-144.23027c-33.76814,3.16834 -66.28426,13.09895 -96.02891,28.37317c13.38327,-17.52043 27.77545,-34.95811 46.49501,-48.17528c18.71956,-13.21717 31.72601,-37.86636 56.82724,-38.12645c25.10123,-0.26009 55.95204,8.51195 79.27855,16.29093c23.33867,7.76715 44.8297,18.25341 65.37259,30.99769c-26.43834,-0.56746 -55.24701,-7.01054 -80.22669,-3.54665c95.68856,19.30558 170.73698,109.94603 167.74671,204.52326c-14.07614,-25.86687 -25.23494,-57.16011 -51.05335,-74.47957c40.51448,82.42405 18.99914,187.97224 -55.91557,245.90079c3.3914,-19.51838 17.02994,-38.69391 15.80223,-57.92855c-44.11252,85.93523 -151.64059,113.30352 -243.11117,102.85274c24.01938,-10.90003 52.76728,-14.96685 75.36446,-28.37317c-62.26077,6.80956 -121.55559,-6.63223 -181.11782,-14.18658z"/>
   </g>
   <g stroke="#F8F9FB" id="svg_7" stroke-width="0.3" fill-opacity="0" fill="None">
    <path stroke="null" id="svg_8" d="m645.54858,187.76826c-6.1264,12.20046 -16.15474,21.87098 -26.43834,31.03315c-10.29576,9.15035 -21.34516,16.16088 -32.82001,23.64431c-11.47485,7.4716 -22.98616,14.84862 -35.25112,21.27988c-12.27711,6.43125 -25.06476,14.21023 -37.70654,20.07402c-12.64178,5.86379 -24.46914,13.3945 -36.64901,19.92033c-12.19203,6.51401 -24.0437,13.56001 -35.71303,20.83063c-11.68149,7.2588 -23.39945,13.99743 -34.58256,21.93009c-11.19527,7.92084 -22.67012,15.7944 -33.42779,24.23541c-10.74551,8.45284 -19.72847,17.00026 -29.78112,26.59985c-10.04049,9.59959 -14.67176,22.72218 -22.28114,33.89411c-7.60938,11.17194 -15.59558,21.63454 -26.3411,31.12773c-10.74551,9.49319 -17.51616,18.14701 -30.41321,25.98509c-12.89705,7.83809 -17.56478,16.04266 -33.46425,23.01773c-15.91163,6.96325 -12.76334,23.28964 -15.43756,40.54999c-2.68638,17.26034 4.99593,25.08661 20.38487,34.55615c15.38894,9.46954 24.68794,-1.56052 34.61903,-12.98072c9.91894,-11.4202 17.41892,-20.12131 31.20332,-25.21665c13.79656,-5.09535 27.44725,-10.82909 41.42614,-15.27422c-14.86625,11.37291 -35.36052,16.64559 -50.14168,28.07761c-14.78116,11.43202 -23.9343,29.95734 -41.02501,36.94423c10.90354,11.12465 24.87027,19.68389 38.89779,26.00874c-2.77147,-26.4698 19.20578,-42.89077 41.23166,-53.29427c22.03803,-10.39167 48.59792,-16.61013 72.21617,-23.1596c23.61825,-6.54947 52.03795,-7.67258 70.10111,-25.21665c-2.63776,-31.30506 22.52425,-58.60242 38.99503,-83.84271c16.48294,-25.2403 35.33621,-47.48959 54.60277,-71.0275c-37.81594,3.65305 -67.20808,28.91699 -94.81336,53.19969c2.735,-50.38602 46.65303,-88.41789 84.78502,-118.51709c38.14414,-30.08738 85.30771,-63.57954 87.82391,-114.37934m-183.54894,145.41249c-8.99511,10.36803 -23.53316,20.12131 -30.10932,33.37394c-6.57616,13.25263 -19.89865,25.51221 -24.89458,39.62786c-5.00809,14.10383 -6.58831,33.17296 -22.48778,41.96865c-15.91163,8.79568 -28.03072,15.2624 -45.27946,19.80211c16.90838,-13.08712 17.60125,-38.88306 33.6709,-51.18992c16.05749,-12.31868 35.50639,-22.21383 45.24299,-41.11745c9.72445,-18.90362 27.49587,-30.6312 43.85726,-42.46518m-223.66228,226.98535c3.63451,-11.29016 9.31116,-21.94192 13.37111,-33.10203c6.08993,12.92161 -3.92625,24.87381 -13.37111,33.10203z"/>
   </g>
   <g stroke="#0081CA" id="svg_9" stroke-width="0.3" fill-opacity="0" fill="None">
    <path stroke="null" id="svg_10" d="m210.37957,503.41976c6.10209,-1.01671 10.24714,-5.94654 15.80223,-8.27551c-4.75282,-14.52943 -10.63611,-30.64302 -15.82654,-44.90054c-5.20258,-14.2457 -13.62638,-30.70213 -1.49513,-41.69674c12.13125,-10.98278 18.23334,-20.98432 29.78112,-31.32871c11.53563,-10.34438 19.46105,-19.50655 30.99667,-28.96428c11.53563,-9.4459 21.61258,-18.83269 33.42779,-27.78206c11.82736,-8.93755 23.19281,-16.32639 35.8589,-24.23541c12.67825,-7.90902 24.14094,-15.61706 38.36294,-21.80005c14.20985,-6.19481 27.90916,-13.52454 43.2981,-18.18247c15.37678,-4.65793 30.86296,-10.01336 47.47961,-12.93344c16.6288,-2.92007 37.35403,-6.06476 54.71217,-7.08147c17.35814,-1.01671 39.61497,2.96736 53.38721,-7.18787c13.77225,-10.15523 22.54856,-14.64765 34.13281,-25.91416c-19.76494,4.98895 -46.02095,0.56746 -65.61571,4.75251c-19.58261,4.19686 -38.98288,6.76227 -57.53226,11.43202c-18.54938,4.68157 -36.32081,10.32074 -53.48446,16.55101c-17.16365,6.2421 -32.61336,12.7561 -48.14817,20.55872c-15.54696,7.7908 -30.32812,15.39244 -44.79323,23.82164c-14.46511,8.4292 -27.49587,18.77358 -41.3289,28.37317c-13.83303,9.59959 -25.32003,19.45926 -38.32648,30.11103c-13.00645,10.63994 -22.86461,21.12619 -35.73734,32.62914c-12.87274,11.50296 -20.02021,22.98227 -34.09634,35.40735c-14.07614,12.41326 -4.88653,30.26471 1.17909,46.73297c6.07778,16.45644 11.38976,33.53945 17.96592,49.91313z"/>
   </g>
   <g stroke="#0081CA" id="svg_11" stroke-width="0.3" fill-opacity="0" fill="None">
    <path stroke="null" id="svg_12" d="m852.19307,460.86c0.41329,-8.28733 5.12965,-15.88897 6.90436,-24.02262c1.76256,-8.14546 4.41247,-16.56284 6.07778,-24.82652c1.66531,-8.26369 5.59156,-15.87715 6.47891,-24.43639c0.88736,-8.57106 4.55833,-16.63377 5.66449,-25.22848c1.10616,-8.59471 3.40356,-17.49679 4.86222,-26.00874c1.45867,-8.51195 3.282,-18.27705 4.0478,-26.80082c0.77796,-8.52377 3.88978,-18.31252 4.46109,-26.39887c0.57131,-8.08635 4.86222,-21.37445 -3.64667,-24.04626c-8.50889,-2.67181 -13.88165,-5.2845 -21.88001,-8.27551c-7.99836,-3.00283 -15.63205,-4.98895 -23.64256,-7.74351c-7.99836,-2.75456 -15.68067,-5.14264 -23.73981,-7.64893c-8.04698,-2.51812 -16.59234,-4.49242 -24.88243,-6.53765c-8.27794,-2.05705 -15.85085,-5.89925 -24.49345,-6.91596c-8.6426,-1.01671 -16.96916,-4.75251 -25.61176,-5.82832c-8.6426,-1.07582 -18.97483,-3.74762 -27.69036,-3.80673c-8.70338,-0.05911 -18.47645,-6.38396 -27.00965,-4.46877c-8.5332,1.91519 -20.70092,-6.28939 -27.95778,-2.36443c-5.04456,13.87921 -12.65394,26.52891 -20.66445,39.01311c61.33695,11.50296 120.61961,30.37111 178.68671,52.01748c-2.92949,28.26677 -7.96189,56.01336 -12.15556,83.93729c21.75845,22.4148 37.20817,51.61552 46.19112,80.39064z"/>
   </g>
   <g stroke="#F8F9FB" id="svg_13" stroke-width="0.3" fill-opacity="0" fill="None">
    <path stroke="null" id="svg_14" d="m310.05516,699.66751c-5.9076,5.30815 -13.0186,11.90491 -18.23334,17.73323c-3.9384,6.88049 -10.74551,11.94038 -14.58667,18.91545c30.76572,-11.53842 62.01766,-26.52891 96.02891,-27.19095c9.9554,-1.17039 21.75845,-0.92213 31.60445,0c59.56224,7.55436 118.85705,20.99614 181.11782,14.18658c-22.59718,13.40632 -51.34508,17.47314 -75.36446,28.37317c91.47058,10.45078 198.99865,-16.9175 243.11117,-102.85274c1.22771,19.23464 -12.41083,38.41018 -15.80223,57.92855c74.91471,-57.92855 96.43005,-163.47674 55.91557,-245.90079c25.81841,17.31945 36.97721,48.6127 51.05335,74.47957c2.99027,-94.57723 -72.05815,-185.21768 -167.74671,-204.52326c24.97967,-3.46389 53.78835,2.97918 80.22669,3.54665c-20.54289,-12.74428 -42.03392,-23.23053 -65.37259,-30.99769c-23.32652,-7.77898 -54.17733,-16.55101 -79.27855,-16.29093c-25.10123,0.26009 -38.10768,24.90928 -56.82724,38.12645c-18.71956,13.21717 -33.11174,30.65484 -46.49501,48.17528c29.74465,-15.27422 62.26077,-25.20483 96.02891,-28.37317c-34.16928,47.85608 -76.22751,92.37831 -104.5378,144.23027c41.8759,-1.89154 95.04431,3.77127 114.28656,46.08275c19.2544,42.29967 -21.94078,79.6222 -63.14813,86.40812c-41.19519,6.78592 -94.49731,16.43279 -135.41292,25.53585c-40.90345,9.11488 -73.84502,27.28553 -106.56778,52.40761z"/>
   </g>
   <g stroke="#1D1922" id="svg_15" stroke-width="0.3" fill-opacity="0" fill="None">
    <path stroke="null" id="svg_16" d="m461.99964,333.18075c-16.36138,11.83398 -34.13281,23.56155 -43.85726,42.46518c-9.7366,18.90362 -29.1855,28.79877 -45.24299,41.11745c-16.06965,12.30686 -16.76252,38.1028 -33.6709,51.18992c17.24874,-4.53971 29.36783,-11.00642 45.27946,-19.80211c15.89947,-8.79568 17.47969,-27.86482 22.48778,-41.96865c4.99593,-14.11565 18.31843,-26.37522 24.89458,-39.62786c6.57616,-13.25263 21.11421,-23.00591 30.10932,-33.37394m-75.36446,83.93729c4.86222,12.37779 -7.45136,23.66795 -19.44889,24.82652c4.63127,-9.7651 7.80387,-21.31534 19.44889,-24.82652z"/>
   </g>
   <g stroke="#F8F9FB" id="svg_17" stroke-width="0.3" fill-opacity="0" fill="None">
    <path stroke="null" id="svg_18" d="m386.63518,417.11804c-11.64503,3.51118 -14.81763,15.06142 -19.44889,24.82652c11.99754,-1.15857 24.31112,-12.44873 19.44889,-24.82652z"/>
   </g>
   <g stroke="#1D1922" id="svg_19" stroke-width="0.3" fill-opacity="0" fill="None">
    <path stroke="null" id="svg_20" d="m238.33736,560.16609c9.44487,-8.22822 19.46105,-20.18042 13.37111,-33.10203c-4.05996,11.16011 -9.7366,21.81187 -13.37111,33.10203z"/>
   </g>
   <g stroke="#0081CA" id="svg_21" stroke-width="0.3" fill-opacity="0" fill="None">
    <path stroke="null" id="svg_22" d="m297.8996,685.48092c6.90436,-2.12799 11.32898,-9.67052 18.23334,-11.82215c-7.03807,-22.13107 -27.62958,-31.54151 -47.40668,-41.37754c3.57373,4.40966 5.5794,13.59548 8.78847,18.64354c3.20907,5.04806 8.32656,11.91673 10.34438,17.1303c2.02998,5.20175 10.49025,12.21228 10.04049,17.42585z"/>
   </g>
   <g stroke="#3950B5" id="svg_23" stroke-width="0.3" fill-opacity="0" fill="None">
    <path stroke="null" id="svg_24" d="m291.82182,717.40074c5.21473,-5.82832 12.32574,-12.42508 18.23334,-17.73323c-6.35736,4.88255 -13.33465,11.33745 -18.23334,17.73323z"/>
   </g>
   <g stroke="#0081CA" id="svg_25" stroke-width="0.3" fill-opacity="0" fill="None">
    <path stroke="null" id="svg_26" d="m373.26406,709.12523c10.52671,-0.20098 21.07774,0 31.60445,0c-9.846,-0.92213 -21.64905,-1.17039 -31.60445,0z"/>
   </g>
   <g stroke="#0081CA" id="svg_27" stroke-width="0.3" fill-opacity="0" fill="None">
    <path stroke="null" id="svg_28" d="m330.71961,731.58732c4.8136,8.16911 11.45054,15.688 17.32167,23.34875c5.87113,7.66076 12.581,13.37086 18.84112,20.68877c6.24796,7.32974 12.75118,13.95014 19.38812,20.15677c6.63694,6.20663 13.20094,13.77281 20.74954,20.01491c7.5486,6.2421 14.4408,12.14135 21.85569,17.75687c7.42705,5.6037 15.25523,11.49113 23.09556,16.55101c7.85249,5.04806 16.28845,12.40144 24.52992,16.33822c8.22931,3.9486 16.77467,10.82909 25.5753,14.1393c8.81278,3.3102 18.52507,11.64482 27.9821,11.77486c9.46918,0.13004 16.13043,-11.47931 24.63932,-15.0496c8.49674,-3.58211 16.15474,-12.22411 23.89783,-16.95297c7.74309,-4.72886 15.48618,-11.44384 22.88892,-16.75199c7.40274,-5.30815 14.51374,-12.5433 21.33301,-18.26523c6.80711,-5.72192 14.82978,-12.76793 21.81923,-18.97456c6.98945,-6.20663 13.16447,-13.52454 20.05667,-19.50655c6.8922,-5.98201 11.98538,-15.86533 18.90189,-20.62966c6.90436,-4.77615 10.95216,-17.10666 17.86867,-21.63454c-3.12398,1.26497 -6.17502,2.7191 -9.72445,2.36443c2.94165,-9.67052 12.92136,-16.74017 17.01778,-26.00874c-11.99754,7.1524 -24.40836,13.91467 -36.36943,21.37445c-11.97323,7.44796 -28.93023,8.35826 -39.9067,16.75199c-10.98863,8.39373 -18.97483,17.89874 -29.78112,26.59985c-10.80629,8.7011 -20.76169,15.49884 -31.60445,24.82652c-10.85491,9.31586 -22.31761,12.57877 -33.42779,23.0532c-11.12234,10.46261 -25.75763,8.09818 -37.88888,-0.39013c-12.1434,-8.47648 -24.77303,-11.7394 -36.28434,-20.27499c-11.52347,-8.53559 -23.15634,-13.20535 -34.01125,-22.48574c-10.85491,-9.26857 -21.17498,-14.80134 -30.99667,-25.41763c-9.82169,-10.62812 -20.15392,-13.91467 -28.9667,-27.39193c-8.81278,-13.46543 -23.95861,-11.33745 -38.80054,-6.00565z"/>
   </g>
   <g stroke="#1D1922" id="svg_29" stroke-width="0.3" fill-opacity="0" fill="None">
    <path stroke="null" id="svg_30" d="m150.81734,999.95021c13.06723,1.11128 25.7941,-1.47777 38.89779,0c13.10369,1.47777 14.222,-7.69622 24.00723,-14.48214c9.78522,-6.78592 7.59722,-19.56566 7.59722,-30.44205c0,-10.87638 2.17585,-23.67977 -7.59722,-30.44205c-9.77307,-6.76227 -10.91569,-15.97173 -24.00723,-14.48214c-13.09154,1.48959 -25.83056,-1.11128 -38.89779,0c0,7.48342 0,14.97867 0,22.46209c5.67665,0 11.34114,0 17.01778,0c-7.02591,9.5523 -19.0356,12.5433 -17.01778,26.00874c2.01782,13.46543 -1.50729,27.82935 0,41.37754m46.19112,-67.38628c0,14.97867 0,29.94551 0,44.92418c-7.29334,0 -14.58667,0 -21.88001,0c0,-14.97867 0,-29.94551 0,-44.92418c7.29334,0 14.58667,0 21.88001,0z"/>
   </g>
   <g stroke="#1D1922" id="svg_31" stroke-width="0.3" fill-opacity="0" fill="None">
    <path stroke="null" id="svg_32" d="m254.13959,910.10184c-8.10776,0 -16.20336,0 -24.31112,0c0,29.94551 0,59.90285 0,89.84837c23.49669,0 47.00555,0 70.50224,0c0,-29.94551 0,-59.90285 0,-89.84837c-10.12558,0 -20.26332,0 -30.3889,0c-2.66207,6.95143 -11.51131,10.71087 -14.58667,17.73323c-2.80793,-4.74068 -0.42544,-12.02313 -1.21556,-17.73323m21.88001,23.64431c0,14.57672 0,29.16525 0,43.74197c-7.29334,0 -14.58667,0 -21.88001,0c0,-14.57672 0,-29.16525 0,-43.74197c7.29334,0 14.58667,0 21.88001,0z"/>
   </g>
   <g stroke="#1D1922" id="svg_33" stroke-width="0.3" fill-opacity="0" fill="None">
    <path stroke="null" id="svg_34" d="m335.58183,910.10184c-8.50889,0 -17.01778,0 -25.52667,0c0,29.94551 0,59.90285 0,89.84837c8.50889,0 17.01778,0 25.52667,0c0,-22.06014 0,-44.14392 0,-66.20406c4.86222,0 9.72445,0 14.58667,0c0,22.07196 0,44.1321 0,66.20406c8.10776,0 16.20336,0 24.31112,0c0,-22.06014 0,-44.14392 0,-66.20406c4.86222,0 9.72445,0 14.58667,0c0,22.07196 0,44.1321 0,66.20406c8.50889,0 17.01778,0 25.52667,0c0,-29.94551 0,-59.90285 0,-89.84837c-7.36627,1.50141 -20.38487,-2.64816 -26.43834,1.47777c-6.06562,4.12593 -7.62154,10.20252 -12.45945,15.07325c-2.79578,-4.33873 -0.4376,-11.23105 -1.21556,-16.55101c-8.50889,0 -17.01778,0 -25.52667,0c-2.43111,6.20663 -9.46918,10.21434 -12.15556,16.55101c-2.79578,-4.33873 -0.4376,-11.23105 -1.21556,-16.55101z"/>
   </g>
   <g stroke="#1D1922" id="svg_35" stroke-width="0.3" fill-opacity="0" fill="None">
    <path stroke="null" id="svg_36" d="m448.62852,910.10184c-8.10776,0 -16.20336,0 -24.31112,0c0,29.94551 0,59.90285 0,89.84837c8.10776,0 16.20336,0 24.31112,0c0,-29.94551 0,-59.90285 0,-89.84837z"/>
   </g>
   <g stroke="#1D1922" id="svg_37" stroke-width="0.3" fill-opacity="0" fill="None">
    <path stroke="null" id="svg_38" d="m481.44853,910.10184c-8.10776,0 -16.20336,0 -24.31112,0c0,29.94551 0,59.90285 0,89.84837c8.10776,0 16.20336,0 24.31112,0c0,-22.06014 0,-44.14392 0,-66.20406c7.29334,0 14.58667,0 21.88001,0c0,22.07196 0,44.1321 0,66.20406c8.10776,0 16.20336,0 24.31112,0c0,-29.94551 0,-59.90285 0,-89.84837c-8.61829,1.82061 -23.32652,-2.55359 -31.30056,0.29555c-7.9862,2.84914 -6.70987,13.65459 -14.89056,16.25546c0,-5.52095 0,-11.03007 0,-16.55101z"/>
   </g>
   <g stroke="#1D1922" id="svg_39" stroke-width="0.3" fill-opacity="0" fill="None">
    <path stroke="null" id="svg_40" d="m607.86634,910.10184c-23.49669,0 -46.99339,0 -70.50224,0c0,29.94551 0,59.90285 0,89.84837c8.10776,0 16.20336,0 24.31112,0c0,-13.79645 0,-27.58108 0,-41.37754c14.16123,10.39167 27.41078,22.07196 21.88001,41.37754c8.10776,0 16.20336,0 24.31112,0c0,-29.94551 0,-59.90285 0,-89.84837m-24.31112,23.64431c0,7.09329 0,14.18658 0,21.27988c-7.29334,0 -14.58667,0 -21.88001,0c0,-7.09329 0,-14.18658 0,-21.27988c7.29334,0 14.58667,0 21.88001,0z"/>
   </g>
   <g stroke="#1D1922" id="svg_41" stroke-width="0.3" fill-opacity="0" fill="None">
    <path stroke="null" id="svg_42" d="m688.09303,910.10184c-23.50885,0 -46.99339,0 -70.50224,0c0,7.48342 0,14.97867 0,22.46209c7.69447,0 15.40109,0 23.09556,0c0,22.46209 0,44.92418 0,67.38628c8.10776,0 16.20336,0 24.31112,0c0,-22.46209 0,-44.92418 0,-67.38628c7.69447,0 15.40109,0 23.09556,0c0,-7.48342 0,-14.97867 0,-22.46209z"/>
   </g>
   <g stroke="#1D1922" id="svg_43" stroke-width="0.3" fill-opacity="0" fill="None">
    <path stroke="null" id="svg_44" d="m720.91304,910.10184c-8.10776,0 -16.20336,0 -24.31112,0c0,29.94551 0,59.90285 0,89.84837c23.49669,0 47.00555,0 70.50224,0c0,-29.94551 0,-59.90285 0,-89.84837c-10.12558,0 -20.26332,0 -30.3889,0c-2.66207,6.95143 -11.51131,10.71087 -14.58667,17.73323c-2.80793,-4.74068 -0.42544,-12.02313 -1.21556,-17.73323m21.88001,23.64431c0,14.57672 0,29.16525 0,43.74197c-7.29334,0 -14.58667,0 -21.88001,0c0,-14.57672 0,-29.16525 0,-43.74197c7.29334,0 14.58667,0 21.88001,0z"/>
   </g>
   <g stroke="#1D1922" id="svg_45" stroke-width="0.3" fill-opacity="0" fill="None">
    <path stroke="null" id="svg_46" d="m847.33085,910.10184c-23.49669,0 -47.00555,0 -70.50224,0c0,29.94551 0,59.90285 0,89.84837c8.10776,0 16.20336,0 24.31112,0c0.79011,-11.633 -1.59238,-24.72012 1.21556,-35.46646c6.68556,11.94038 23.39945,19.92033 20.66445,35.46646c7.69447,0 15.40109,0 23.09556,0c2.71069,-12.77975 -2.43111,-22.72218 -9.72445,-31.91981c21.08989,-10.06065 6.74634,-39.07222 10.94,-57.92855m-24.31112,22.46209c0,9.06759 0,18.12336 0,27.19095c-7.29334,0 -14.58667,0 -21.88001,0c0,-9.06759 0,-18.12336 0,-27.19095c7.29334,0 14.58667,0 21.88001,0z"/>
   </g>
   <g stroke="#1D1922" id="svg_47" stroke-width="0.3" fill-opacity="0" fill="None">
    <path stroke="null" id="svg_48" d="m927.55754,910.10184c-23.90998,0 -47.80781,0 -71.7178,0c0.7658,10.24981 -2.97811,26.11514 4.55833,33.39758c7.53645,7.28245 10.55102,14.11565 19.75278,18.61989c0,-9.45772 0,-18.91545 0,-28.37317c15.80223,0 31.60445,0 47.40668,0c0,-7.88538 0,-15.75893 0,-23.64431z"/>
   </g>
   <g stroke="#1D1922" id="svg_49" stroke-width="0.3" stroke-opacity="0" fill-opacity="0" fill="None">
    <path stroke="null" id="svg_50" d="m197.00846,932.56393c-7.29334,0 -14.58667,0 -21.88001,0c0,14.97867 0,29.94551 0,44.92418c7.29334,0 14.58667,0 21.88001,0c0,-14.97867 0,-29.94551 0,-44.92418z"/>
   </g>
   <g stroke="#1D1922" id="svg_51" stroke-width="0.3" stroke-opacity="0" fill-opacity="0" fill="None">
    <path stroke="null" id="svg_52" d="m823.01973,932.56393c-7.29334,0 -14.58667,0 -21.88001,0c0,9.06759 0,18.12336 0,27.19095c7.29334,0 14.58667,0 21.88001,0c0,-9.06759 0,-18.12336 0,-27.19095z"/>
   </g>
   <g stroke="#1D1922" id="svg_53" stroke-width="0.3" stroke-opacity="0" fill-opacity="0" fill="None">
    <path stroke="null" id="svg_54" d="m276.01959,933.74615c-7.29334,0 -14.58667,0 -21.88001,0c0,14.57672 0,29.16525 0,43.74197c7.29334,0 14.58667,0 21.88001,0c0,-14.57672 0,-29.16525 0,-43.74197z"/>
   </g>
   <g stroke="#1D1922" id="svg_55" stroke-width="0.3" stroke-opacity="0" fill-opacity="0" fill="None">
    <path stroke="null" id="svg_56" d="m583.55523,933.74615c-7.29334,0 -14.58667,0 -21.88001,0c0,7.09329 0,14.18658 0,21.27988c7.29334,0 14.58667,0 21.88001,0c0,-7.09329 0,-14.18658 0,-21.27988z"/>
   </g>
   <g stroke="#1D1922" id="svg_57" stroke-width="0.3" stroke-opacity="0" fill-opacity="0" fill="None">
    <path stroke="null" id="svg_58" d="m742.79304,933.74615c-7.29334,0 -14.58667,0 -21.88001,0c0,14.57672 0,29.16525 0,43.74197c7.29334,0 14.58667,0 21.88001,0c0,-14.57672 0,-29.16525 0,-43.74197z"/>
   </g>
   <g stroke="#1D1922" id="svg_59" stroke-width="0.3" fill-opacity="0" fill="None">
    <path stroke="null" id="svg_60" d="m927.55754,999.95021c-2.33387,-9.46954 4.14505,-28.40863 -2.33387,-35.56104c-6.47891,-7.1524 -14.27063,-10.9946 -21.97725,-15.27422c0,9.05577 0,18.13518 0,27.19095c-15.80223,0 -31.60445,0 -47.40668,0c0,7.87355 0,15.77075 0,23.64431c23.90998,0 47.80781,0 71.7178,0z"/>
   </g>
   <g stroke="#1D1922" id="svg_61" stroke-width="0.3" stroke-opacity="0.93" fill-opacity="0" fill="None">
    <path stroke="null" id="svg_62" d="m400.00629,1022.4123c-24.99183,-1.6551 -29.81759,43.56464 -5.76173,48.94372c24.0437,5.3909 31.84756,-47.21768 5.76173,-48.94372m6.07778,36.64868c-19.20578,16.90568 -24.17741,-27.14366 -8.41165,-27.1082c15.77792,0.02364 2.12722,18.679 8.41165,27.1082z"/>
   </g>
   <g stroke="#1D1922" id="svg_63" stroke-width="0.3" stroke-opacity="0.93" fill-opacity="0" fill="None">
    <path stroke="null" id="svg_64" d="m757.37971,1022.4123c-24.99183,-1.6551 -29.81759,43.56464 -5.76173,48.94372c24.0437,5.3909 31.84756,-47.21768 5.76173,-48.94372m6.07778,36.64868c-19.20578,16.90568 -24.17741,-27.14366 -8.41165,-27.1082c15.77792,0.02364 2.12722,18.679 8.41165,27.1082z"/>
   </g>
   <g stroke="#1D1922" id="svg_65" stroke-width="0.3" stroke-opacity="0.93" fill-opacity="0" fill="None">
    <path stroke="null" id="svg_66" d="m810.86417,1022.4123c-24.99183,-1.6551 -29.81759,43.56464 -5.76173,48.94372c24.0437,5.3909 31.84756,-47.21768 5.76173,-48.94372m6.07778,36.64868c-19.19363,16.90568 -24.18956,-27.14366 -8.41165,-27.1082c15.77792,0.02364 2.12722,18.679 8.41165,27.1082z"/>
   </g>
   <g stroke="#1D1922" id="svg_67" stroke-width="0.3" stroke-opacity="0.93" fill-opacity="0" fill="None">
    <path stroke="null" id="svg_68" d="m933.63532,1027.14116c-13.68716,-8.77204 -38.67899,-2.76638 -32.82001,17.73323c7.13531,6.80956 17.44323,6.4549 25.52667,9.45772c0.19449,14.04472 -19.98374,8.51195 -24.31112,3.54665c-0.75364,3.92495 -2.23662,4.69339 -3.64667,8.27551c10.13774,5.7101 32.74708,11.27833 36.06554,-7.48342c3.31847,-18.76176 -22.57287,-9.94243 -25.12554,-24.43639c6.53969,-4.22051 15.96025,-1.09946 21.88001,1.18222c-0.08509,-3.06194 3.19691,-5.05988 2.43111,-8.27551z"/>
   </g>
   <g stroke="#1D1922" id="svg_69" stroke-width="0.3" stroke-opacity="0.87" fill-opacity="0" fill="None">
    <path stroke="null" id="svg_70" d="m181.20623,1023.59451c-7.7674,-0.43742 -15.30385,0.59111 -23.09556,0c-7.79171,-0.59111 -15.19445,-0.47289 -12.15556,9.45772c4.0478,0 8.10776,0 12.15556,0c0,12.61424 0,25.21665 0,37.83089c3.64667,0 7.29334,0 10.94,0c0,-12.61424 0,-25.21665 0,-37.83089c7.91327,1.28861 15.10936,-0.05911 12.15556,-9.45772z"/>
   </g>
   <g stroke="#1D1922" id="svg_71" stroke-width="0.3" stroke-opacity="0.95" fill-opacity="0" fill="None">
    <path stroke="null" id="svg_72" d="m205.51735,1023.59451c-13.58991,-3.00283 -8.01051,16.31457 -8.50889,24.82652c-0.49838,8.51195 -4.02349,26.65896 9.72445,22.46209c0,-6.30121 0,-12.60242 0,-18.91545c5.67665,0 11.34114,0 17.01778,0c0.70502,8.14546 -4.08427,23.02956 9.72445,18.91545c-0.40113,-8.72475 0.53484,-19.88486 0,-28.37317c-0.53484,-8.48831 4.05996,-21.69365 -8.50889,-18.91545c0,6.70316 0,13.3945 0,20.09766c-6.47891,0 -12.96998,0 -19.44889,0c0,-6.70316 0,-13.3945 0,-20.09766z"/>
   </g>
   <g stroke="#1D1922" id="svg_73" stroke-width="0.3" stroke-opacity="0.98" fill-opacity="0" fill="None">
    <path stroke="null" id="svg_74" d="m286.95959,1023.59451c-10.94,0 -21.88001,0 -32.82001,0c0,15.75893 0,31.52968 0,47.28861c10.29576,-3.0974 34.7649,7.55436 32.82001,-8.27551c-8.10776,0 -16.20336,0 -24.31112,0c0,-3.54665 0,-7.09329 0,-10.63994c7.75525,-1.37137 24.32327,4.81162 20.66445,-8.27551c-6.8922,0 -13.77225,0 -20.66445,0c0,-3.93678 0,-7.88538 0,-11.82215c8.38734,-2.02159 27.67821,5.87561 24.31112,-8.27551z"/>
   </g>
   <g stroke="#1D1922" id="svg_75" stroke-width="0.3" stroke-opacity="0.91" fill-opacity="0" fill="None">
    <path stroke="null" id="svg_76" d="m339.2285,1023.59451c-3.64667,0 -7.29334,0 -10.94,0c5.98053,6.05294 5.81036,15.23876 11.68149,21.57543c5.87113,6.33667 -3.9384,28.58597 12.62963,25.71318c-2.68638,-24.0699 6.18718,-28.25495 14.58667,-47.28861c-3.64667,0 -7.29334,0 -10.94,0c-0.57131,6.4549 -5.56725,11.99949 -7.29334,18.91545c-6.18718,-5.1781 -7.06238,-11.70393 -9.72445,-18.91545z"/>
   </g>
   <g stroke="#1D1922" id="svg_77" stroke-width="0.3" stroke-opacity="0.89" fill-opacity="0" fill="None">
    <path stroke="null" id="svg_78" d="m444.98186,1023.59451c-3.64667,0 -7.29334,0 -10.94,0c0.34036,11.25469 -1.05753,26.59985 1.49513,36.37677c2.55267,9.77692 12.77549,13.00437 21.29654,11.81033c8.5332,-1.19404 14.50158,-8.07453 13.675,-17.4495c-0.82658,-9.37497 6.27227,-34.60344 -9.72445,-30.7376c-0.60778,12.43691 1.33711,26.55256 -1.21556,37.83089c-3.26985,0.09458 -7.73094,1.1231 -12.15556,1.18222c-5.74958,-10.75816 -0.80227,-26.03238 -2.43111,-39.01311z"/>
   </g>
   <g stroke="#1D1922" id="svg_79" stroke-width="0.3" stroke-opacity="0.95" fill-opacity="0" fill="None">
    <path stroke="null" id="svg_80" d="m502.11298,1023.59451c-4.0478,0 -8.10776,0 -12.15556,0c0.40113,8.72475 -0.53484,19.89668 0,28.37317c0.53484,8.47648 -4.05996,21.69365 8.50889,18.91545c0.79011,-11.24287 -1.59238,-23.92804 1.21556,-34.28425c3.9384,10.63994 13.0186,24.68466 15.80223,34.28425c4.0478,0 8.10776,0 12.15556,0c-0.40113,-8.72475 0.53484,-19.88486 0,-28.37317c-0.53484,-8.48831 4.05996,-21.69365 -8.50889,-18.91545c-0.79011,11.24287 1.59238,23.92804 -1.21556,34.28425c-4.27876,-10.94731 -11.35329,-22.91133 -15.80223,-34.28425z"/>
   </g>
   <g stroke="#1D1922" id="svg_81" stroke-width="0.3" stroke-opacity="0.92" fill-opacity="0" fill="None">
    <path stroke="null" id="svg_82" d="m583.55523,1037.7811c-2.39465,-10.75816 -16.26414,-16.53919 -27.95778,-13.00437c-9.299,9.42226 -14.59883,33.81136 -2.12722,43.2809c12.45945,9.45772 37.4999,-2.80185 30.08501,-23.18324c-6.07778,0 -12.15556,0 -18.23334,0c-1.71393,6.59676 1.71393,10.02519 8.50889,8.27551c1.83549,4.50424 -3.7196,4.57517 -3.64667,8.27551c-5.33629,-0.17733 -9.34762,-0.28373 -13.37111,-3.54665c3.829,-8.05089 -2.20016,-18.24158 3.64667,-24.82652c2.97811,0.62657 6.81927,0.6384 9.72445,0c0.48622,6.57312 8.73985,4.43331 13.37111,4.72886z"/>
   </g>
   <g stroke="#1D1922" id="svg_83" stroke-width="0.3" stroke-opacity="0.96" fill-opacity="0" fill="None">
    <path stroke="null" id="svg_84" d="m660.13525,1046.0566c8.3144,-1.60781 11.85167,-13.24081 4.55833,-18.61989c-7.30549,-5.36726 -21.24792,-3.83038 -31.30056,-3.8422c0,15.75893 0,31.52968 0,47.28861c11.69365,-0.70933 28.14012,3.0974 33.87754,-6.00565c5.73742,-9.11488 -0.64424,-15.73529 -7.13531,-18.82087m-1.21556,-13.00437c0.18233,3.05012 0.55916,5.66281 -1.21556,9.45772c-4.46109,-0.95759 -10.55102,0.6384 -15.80223,0c0,-3.54665 0,-7.09329 0,-10.63994c5.88329,0.08276 12.15556,-0.44924 17.01778,1.18222m-1.21556,17.73323c2.47973,3.4166 3.18476,8.05089 0,11.82215c-4.46109,-0.95759 -10.55102,0.6384 -15.80223,0c0,-3.93678 0,-7.88538 0,-11.82215c5.33629,-0.6384 11.23174,0.95759 15.80223,0z"/>
   </g>
   <g stroke="#1D1922" id="svg_85" stroke-width="0.3" stroke-opacity="0.93" fill-opacity="0" fill="None">
    <path stroke="null" id="svg_86" d="m699.03303,1023.59451c-3.24553,0 -6.47891,0 -9.72445,0c0,15.75893 0,31.52968 0,47.28861c10.68474,-3.03829 36.01692,7.86173 32.82001,-9.45772c-7.69447,0 -15.40109,0 -23.09556,0c0,-12.61424 0,-25.21665 0,-37.83089z"/>
   </g>
   <g stroke="#1D1922" id="svg_87" stroke-width="0.3" stroke-opacity="0.94" fill-opacity="0" fill="None">
    <path stroke="null" id="svg_88" d="m846.11529,1070.88313c23.11987,3.97224 37.98612,-4.40966 36.46668,-26.00874c-1.51944,-21.59907 -14.99996,-22.23747 -36.46668,-21.27988c0,15.75893 0,31.52968 0,47.28861m26.74223,-33.10203c-1.98136,5.68646 -1.95704,13.25263 0,18.91545c-1.65316,1.93883 -4.03565,3.0974 -4.86222,5.91108c-3.73176,-1.14675 -8.88571,0.7448 -13.37111,0c0,-10.24981 0,-20.48779 0,-30.7376c8.21716,-0.01182 13.90596,-0.41378 18.23334,5.91108z"/>
   </g>
   <g stroke="#1D1922" id="svg_89" stroke-width="0.3" stroke-opacity="0.05" fill-opacity="0" fill="None">
    <path stroke="null" id="svg_90" d="m406.08407,1059.06097c-6.28442,-8.4292 7.36627,-27.08455 -8.41165,-27.1082c-15.76576,-0.03547 -10.79414,44.01388 8.41165,27.1082z"/>
   </g>
   <g stroke="#1D1922" id="svg_91" stroke-width="0.3" stroke-opacity="0.1" fill-opacity="0" fill="None">
    <path stroke="null" id="svg_92" d="m658.91969,1033.05224c-4.86222,-1.63146 -11.13449,-1.09946 -17.01778,-1.18222c0,3.54665 0,7.09329 0,10.63994c5.2512,0.6384 11.34114,-0.95759 15.80223,0c1.77471,-3.79491 1.39789,-6.40761 1.21556,-9.45772z"/>
   </g>
   <g stroke="#1D1922" id="svg_93" stroke-width="0.3" stroke-opacity="0.05" fill-opacity="0" fill="None">
    <path stroke="null" id="svg_94" d="m763.45749,1059.06097c-6.28442,-8.4292 7.36627,-27.08455 -8.41165,-27.1082c-15.76576,-0.03547 -10.79414,44.01388 8.41165,27.1082z"/>
   </g>
   <g stroke="#1D1922" id="svg_95" stroke-width="0.3" stroke-opacity="0.05" fill-opacity="0" fill="None">
    <path stroke="null" id="svg_96" d="m816.94195,1059.06097c-6.28442,-8.4292 7.36627,-27.08455 -8.41165,-27.1082c-15.77792,-0.03547 -10.78198,44.01388 8.41165,27.1082z"/>
   </g>
   <g stroke="#1D1922" id="svg_97" stroke-width="0.3" stroke-opacity="0.09" fill-opacity="0" fill="None">
    <path stroke="null" id="svg_98" d="m872.85752,1037.7811c-4.32738,-6.32485 -10.01618,-5.9229 -18.23334,-5.91108c0,10.24981 0,20.48779 0,30.7376c4.4854,0.7448 9.63936,-1.14675 13.37111,0c0.82658,-2.81367 3.20907,-3.97224 4.86222,-5.91108c-1.95704,-5.66281 -1.98136,-13.22899 0,-18.91545z"/>
   </g>
   <g stroke="#1D1922" id="svg_99" stroke-width="0.3" stroke-opacity="0.09" fill-opacity="0" fill="None">
    <path stroke="null" id="svg_100" d="m657.70413,1050.78547c-4.57049,0.95759 -10.46594,-0.6384 -15.80223,0c0,3.93678 0,7.88538 0,11.82215c5.2512,0.6384 11.34114,-0.95759 15.80223,0c3.18476,-3.77127 2.47973,-8.40555 0,-11.82215z"/>
   </g>
   <g stroke="None" id="svg_103" fill-opacity="0.99" fill="#1D1922">
    <path stroke="null" id="svg_104" d="m545.87299,9.25374c-12.13125,-6.20663 -11.35329,12.0586 -15.41325,16.92932c-4.05996,4.87073 -1.90842,20.36957 -8.81278,23.34875c-6.90436,2.991 -21.30869,2.52994 -30.47399,1.09946c-9.16529,-1.43048 -20.93187,5.22539 -11.85167,12.70882c9.09236,7.4716 10.1742,7.41249 18.23334,13.00437c8.05914,5.59188 14.38003,9.0203 9.80954,18.40709c-4.57049,9.39861 -2.13938,13.90285 -7.70662,23.24235c-5.5794,9.3395 5.15396,17.7687 12.08263,10.56901c6.92867,-7.19969 11.87598,-6.95143 18.051,-13.1817c6.17502,-6.23027 14.51374,-8.78386 20.64014,-1.79697c6.13856,6.97507 12.64178,5.4973 18.25765,12.98072c5.61587,7.48342 19.21794,5.30815 15.81438,-4.74068c-3.40356,-10.03701 -4.05996,-14.55307 -7.85249,-23.10049c-3.79253,-8.54742 -4.1572,-15.38062 4.77713,-19.4238c8.93434,-4.04318 9.50565,-9.74145 18.29412,-12.94526c8.80062,-3.2038 11.41407,-16.8111 -0.36467,-15.72346c-11.77874,1.08764 -19.97158,-1.67875 -31.60445,0c-11.63287,1.67875 -9.10451,-13.27628 -13.4562,-18.83269c-4.36385,-5.54459 -2.23662,-19.37651 -8.4238,-22.54485z"/>
   </g>
   <g stroke="None" id="svg_105" fill="#1D1922">
    <path stroke="null" id="svg_106" d="m610.29745,203.13706c-11.58425,11.26651 -20.36056,15.75893 -34.13281,25.91416c-13.77225,10.15523 -36.02908,6.17116 -53.38721,7.18787c-17.35814,1.01671 -38.08337,4.1614 -54.71217,7.08147c-16.61665,2.92007 -32.10283,8.27551 -47.47961,12.93344c-15.38894,4.65793 -29.08825,11.98766 -43.2981,18.18247c-14.222,6.18299 -25.6847,13.89103 -38.36294,21.80005c-12.66609,7.90902 -24.03154,15.29787 -35.8589,24.23541c-11.8152,8.94937 -21.89216,18.33616 -33.42779,27.78206c-11.53563,9.45772 -19.46105,18.61989 -30.99667,28.96428c-11.54778,10.34438 -17.64987,20.34593 -29.78112,31.32871c-12.13125,10.9946 -3.70745,27.45104 1.49513,41.69674c5.19042,14.25752 11.07371,30.37111 15.82654,44.90054c-5.55509,2.32896 -9.70014,7.2588 -15.80223,8.27551c-17.24874,8.76022 -9.299,26.43434 -12.17987,42.53611c-2.88087,16.10177 -4.02349,29.82729 8.22931,40.51452c12.26496,10.68723 20.48212,13.40632 30.99667,23.0532c10.51456,9.6587 18.96267,16.62195 31.30056,22.75765c19.77709,9.83603 40.36861,19.24647 47.40668,41.37754c-6.90436,2.15163 -11.32898,9.69417 -18.23334,11.82215c-29.22196,26.37522 -51.47879,59.15806 -70.50224,92.2128c34.08419,-16.78746 67.35395,-33.18478 103.32225,-46.1064c14.84194,-5.33179 29.98776,-7.45978 38.80054,6.00565c8.81278,13.47726 19.145,16.76381 28.9667,27.39193c9.82169,10.61629 20.14176,16.14906 30.99667,25.41763c10.85491,9.28039 22.48778,13.95014 34.01125,22.48574c11.51131,8.53559 24.14094,11.79851 36.28434,20.27499c12.13125,8.48831 26.76654,10.85274 37.88888,0.39013c11.11018,-10.47443 22.57287,-13.73734 33.42779,-23.0532c10.84276,-9.32768 20.79816,-16.12542 31.60445,-24.82652c10.80629,-8.7011 18.79249,-18.20612 29.78112,-26.59985c10.97647,-8.39373 27.93347,-9.30403 39.9067,-16.75199c11.96107,-7.45978 24.3719,-14.22205 36.36943,-21.37445c-4.09642,9.26857 -14.07614,16.33822 -17.01778,26.00874c3.54942,0.35466 6.60047,-1.09946 9.72445,-2.36443c38.42372,-12.73246 68.82477,-34.93446 93.69505,-67.2917c24.87027,-32.34541 37.00152,-80.80442 37.58499,-121.86276c4.25445,17.78052 11.93676,34.53251 17.01778,52.01748c12.49591,-44.49859 16.76252,-100.7011 2.43111,-146.5947c-8.98296,-28.77512 -24.43267,-57.97584 -46.19112,-80.39064c4.19367,-27.92393 9.22607,-55.67052 12.15556,-83.93729c-58.0671,-21.64636 -117.34976,-40.51452 -178.68671,-52.01748c8.01051,-12.48419 15.61989,-25.1339 20.66445,-39.01311c5.88329,-16.95297 4.923,-37.00334 -2.43111,-53.19969c-11.53563,19.83757 -31.21547,35.08815 -47.40668,50.83526m35.25112,-15.3688c-2.5162,50.79979 -49.67977,84.29195 -87.82391,114.37934c-38.13199,30.0992 -82.05002,68.13107 -84.78502,118.51709c27.60527,-24.2827 56.99741,-49.54665 94.81336,-53.19969c-19.26656,23.53791 -38.11983,45.7872 -54.60277,71.0275c-16.47078,25.2403 -41.63279,52.53765 -38.99503,83.84271c-18.06316,17.54408 -46.48286,18.66718 -70.10111,25.21665c-23.61825,6.54947 -50.17815,12.76793 -72.21617,23.1596c-22.02587,10.4035 -44.00312,26.82447 -41.23166,53.29427c-14.02751,-6.32485 -27.99425,-14.88409 -38.89779,-26.00874c17.09072,-6.98689 26.24385,-25.51221 41.02501,-36.94423c14.78116,-11.43202 35.27543,-16.7047 50.14168,-28.07761c-13.97889,4.44513 -27.62958,10.17887 -41.42614,15.27422c-13.7844,5.09535 -21.28438,13.79645 -31.20332,25.21665c-9.93109,11.4202 -19.23009,22.45027 -34.61903,12.98072c-15.38894,-9.46954 -23.07125,-17.29581 -20.38487,-34.55615c2.67422,-17.26034 -0.47407,-33.58674 15.43756,-40.54999c15.89947,-6.97507 20.56721,-15.17965 33.46425,-23.01773c12.89705,-7.83809 19.66769,-16.4919 30.41321,-25.98509c10.74551,-9.49319 18.73172,-19.9558 26.3411,-31.12773c7.60938,-11.17194 12.24065,-24.29453 22.28114,-33.89411c10.05265,-9.59959 19.0356,-18.14701 29.78112,-26.59985c10.75767,-8.44102 22.23252,-16.31457 33.42779,-24.23541c11.18311,-7.93267 22.90107,-14.67129 34.58256,-21.93009c11.66934,-7.27062 23.52101,-14.31663 35.71303,-20.83063c12.17987,-6.52583 24.00723,-14.05654 36.64901,-19.92033c12.64178,-5.86379 25.42943,-13.64277 37.70654,-20.07402c12.26496,-6.43125 23.77627,-13.80828 35.25112,-21.27988c11.47485,-7.48342 22.52425,-14.49396 32.82001,-23.64431c10.2836,-9.16217 20.31194,-18.83269 26.43834,-31.03315m-240.68006,521.35697c-10.52671,0 -21.07774,-0.20098 -31.60445,0c-34.01125,0.66204 -65.26319,15.65253 -96.02891,27.19095c3.84116,-6.97507 10.64827,-12.03495 14.58667,-18.91545c4.89869,-6.39579 11.87598,-12.85068 18.23334,-17.73323c32.72276,-25.12208 65.66433,-43.29273 106.56778,-52.40761c40.91561,-9.10306 94.21774,-18.74994 135.41292,-25.53585c41.20734,-6.78592 82.40253,-44.10845 63.14813,-86.40812c-19.24225,-42.31149 -72.41066,-47.9743 -114.28656,-46.08275c28.3103,-51.85197 70.36853,-96.3742 104.5378,-144.23027c-33.76814,3.16834 -66.28426,13.09895 -96.02891,28.37317c13.38327,-17.52043 27.77545,-34.95811 46.49501,-48.17528c18.71956,-13.21717 31.72601,-37.86636 56.82724,-38.12645c25.10123,-0.26009 55.95204,8.51195 79.27855,16.29093c23.33867,7.76715 44.8297,18.25341 65.37259,30.99769c-26.43834,-0.56746 -55.24701,-7.01054 -80.22669,-3.54665c95.68856,19.30558 170.73698,109.94603 167.74671,204.52326c-14.07614,-25.86687 -25.23494,-57.16011 -51.05335,-74.47957c40.51448,82.42405 18.99914,187.97224 -55.91557,245.90079c3.3914,-19.51838 17.02994,-38.69391 15.80223,-57.92855c-44.11252,85.93523 -151.64059,113.30352 -243.11117,102.85274c24.01938,-10.90003 52.76728,-14.96685 75.36446,-28.37317c-62.26077,6.80956 -121.55559,-6.63223 -181.11782,-14.18658z"/>
   </g>
   <g stroke="None" id="svg_107" fill="#F8F9FB">
    <path stroke="null" id="svg_108" d="m645.54858,187.76826c-6.1264,12.20046 -16.15474,21.87098 -26.43834,31.03315c-10.29576,9.15035 -21.34516,16.16088 -32.82001,23.64431c-11.47485,7.4716 -22.98616,14.84862 -35.25112,21.27988c-12.27711,6.43125 -25.06476,14.21023 -37.70654,20.07402c-12.64178,5.86379 -24.46914,13.3945 -36.64901,19.92033c-12.19203,6.51401 -24.0437,13.56001 -35.71303,20.83063c-11.68149,7.2588 -23.39945,13.99743 -34.58256,21.93009c-11.19527,7.92084 -22.67012,15.7944 -33.42779,24.23541c-10.74551,8.45284 -19.72847,17.00026 -29.78112,26.59985c-10.04049,9.59959 -14.67176,22.72218 -22.28114,33.89411c-7.60938,11.17194 -15.59558,21.63454 -26.3411,31.12773c-10.74551,9.49319 -17.51616,18.14701 -30.41321,25.98509c-12.89705,7.83809 -17.56478,16.04266 -33.46425,23.01773c-15.91163,6.96325 -12.76334,23.28964 -15.43756,40.54999c-2.68638,17.26034 4.99593,25.08661 20.38487,34.55615c15.38894,9.46954 24.68794,-1.56052 34.61903,-12.98072c9.91894,-11.4202 17.41892,-20.12131 31.20332,-25.21665c13.79656,-5.09535 27.44725,-10.82909 41.42614,-15.27422c-14.86625,11.37291 -35.36052,16.64559 -50.14168,28.07761c-14.78116,11.43202 -23.9343,29.95734 -41.02501,36.94423c10.90354,11.12465 24.87027,19.68389 38.89779,26.00874c-2.77147,-26.4698 19.20578,-42.89077 41.23166,-53.29427c22.03803,-10.39167 48.59792,-16.61013 72.21617,-23.1596c23.61825,-6.54947 52.03795,-7.67258 70.10111,-25.21665c-2.63776,-31.30506 22.52425,-58.60242 38.99503,-83.84271c16.48294,-25.2403 35.33621,-47.48959 54.60277,-71.0275c-37.81594,3.65305 -67.20808,28.91699 -94.81336,53.19969c2.735,-50.38602 46.65303,-88.41789 84.78502,-118.51709c38.14414,-30.08738 85.30771,-63.57954 87.82391,-114.37934m-183.54894,145.41249c-8.99511,10.36803 -23.53316,20.12131 -30.10932,33.37394c-6.57616,13.25263 -19.89865,25.51221 -24.89458,39.62786c-5.00809,14.10383 -6.58831,33.17296 -22.48778,41.96865c-15.91163,8.79568 -28.03072,15.2624 -45.27946,19.80211c16.90838,-13.08712 17.60125,-38.88306 33.6709,-51.18992c16.05749,-12.31868 35.50639,-22.21383 45.24299,-41.11745c9.72445,-18.90362 27.49587,-30.6312 43.85726,-42.46518m-223.66228,226.98535c3.63451,-11.29016 9.31116,-21.94192 13.37111,-33.10203c6.08993,12.92161 -3.92625,24.87381 -13.37111,33.10203z"/>
   </g>
   <g stroke="None" id="svg_109" fill="#0081CA">
    <path stroke="null" id="svg_110" d="m210.37957,503.41976c6.10209,-1.01671 10.24714,-5.94654 15.80223,-8.27551c-4.75282,-14.52943 -10.63611,-30.64302 -15.82654,-44.90054c-5.20258,-14.2457 -13.62638,-30.70213 -1.49513,-41.69674c12.13125,-10.98278 18.23334,-20.98432 29.78112,-31.32871c11.53563,-10.34438 19.46105,-19.50655 30.99667,-28.96428c11.53563,-9.4459 21.61258,-18.83269 33.42779,-27.78206c11.82736,-8.93755 23.19281,-16.32639 35.8589,-24.23541c12.67825,-7.90902 24.14094,-15.61706 38.36294,-21.80005c14.20985,-6.19481 27.90916,-13.52454 43.2981,-18.18247c15.37678,-4.65793 30.86296,-10.01336 47.47961,-12.93344c16.6288,-2.92007 37.35403,-6.06476 54.71217,-7.08147c17.35814,-1.01671 39.61497,2.96736 53.38721,-7.18787c13.77225,-10.15523 22.54856,-14.64765 34.13281,-25.91416c-19.76494,4.98895 -46.02095,0.56746 -65.61571,4.75251c-19.58261,4.19686 -38.98288,6.76227 -57.53226,11.43202c-18.54938,4.68157 -36.32081,10.32074 -53.48446,16.55101c-17.16365,6.2421 -32.61336,12.7561 -48.14817,20.55872c-15.54696,7.7908 -30.32812,15.39244 -44.79323,23.82164c-14.46511,8.4292 -27.49587,18.77358 -41.3289,28.37317c-13.83303,9.59959 -25.32003,19.45926 -38.32648,30.11103c-13.00645,10.63994 -22.86461,21.12619 -35.73734,32.62914c-12.87274,11.50296 -20.02021,22.98227 -34.09634,35.40735c-14.07614,12.41326 -4.88653,30.26471 1.17909,46.73297c6.07778,16.45644 11.38976,33.53945 17.96592,49.91313z"/>
   </g>
   <g stroke="None" id="svg_111" fill="#0081CA">
    <path stroke="null" id="svg_112" d="m852.19307,460.86c0.41329,-8.28733 5.12965,-15.88897 6.90436,-24.02262c1.76256,-8.14546 4.41247,-16.56284 6.07778,-24.82652c1.66531,-8.26369 5.59156,-15.87715 6.47891,-24.43639c0.88736,-8.57106 4.55833,-16.63377 5.66449,-25.22848c1.10616,-8.59471 3.40356,-17.49679 4.86222,-26.00874c1.45867,-8.51195 3.282,-18.27705 4.0478,-26.80082c0.77796,-8.52377 3.88978,-18.31252 4.46109,-26.39887c0.57131,-8.08635 4.86222,-21.37445 -3.64667,-24.04626c-8.50889,-2.67181 -13.88165,-5.2845 -21.88001,-8.27551c-7.99836,-3.00283 -15.63205,-4.98895 -23.64256,-7.74351c-7.99836,-2.75456 -15.68067,-5.14264 -23.73981,-7.64893c-8.04698,-2.51812 -16.59234,-4.49242 -24.88243,-6.53765c-8.27794,-2.05705 -15.85085,-5.89925 -24.49345,-6.91596c-8.6426,-1.01671 -16.96916,-4.75251 -25.61176,-5.82832c-8.6426,-1.07582 -18.97483,-3.74762 -27.69036,-3.80673c-8.70338,-0.05911 -18.47645,-6.38396 -27.00965,-4.46877c-8.5332,1.91519 -20.70092,-6.28939 -27.95778,-2.36443c-5.04456,13.87921 -12.65394,26.52891 -20.66445,39.01311c61.33695,11.50296 120.61961,30.37111 178.68671,52.01748c-2.92949,28.26677 -7.96189,56.01336 -12.15556,83.93729c21.75845,22.4148 37.20817,51.61552 46.19112,80.39064z"/>
   </g>
   <g stroke="None" id="svg_113" fill="#F8F9FB">
    <path stroke="null" id="svg_114" d="m310.05516,699.66751c-5.9076,5.30815 -13.0186,11.90491 -18.23334,17.73323c-3.9384,6.88049 -10.74551,11.94038 -14.58667,18.91545c30.76572,-11.53842 62.01766,-26.52891 96.02891,-27.19095c9.9554,-1.17039 21.75845,-0.92213 31.60445,0c59.56224,7.55436 118.85705,20.99614 181.11782,14.18658c-22.59718,13.40632 -51.34508,17.47314 -75.36446,28.37317c91.47058,10.45078 198.99865,-16.9175 243.11117,-102.85274c1.22771,19.23464 -12.41083,38.41018 -15.80223,57.92855c74.91471,-57.92855 96.43005,-163.47674 55.91557,-245.90079c25.81841,17.31945 36.97721,48.6127 51.05335,74.47957c2.99027,-94.57723 -72.05815,-185.21768 -167.74671,-204.52326c24.97967,-3.46389 53.78835,2.97918 80.22669,3.54665c-20.54289,-12.74428 -42.03392,-23.23053 -65.37259,-30.99769c-23.32652,-7.77898 -54.17733,-16.55101 -79.27855,-16.29093c-25.10123,0.26009 -38.10768,24.90928 -56.82724,38.12645c-18.71956,13.21717 -33.11174,30.65484 -46.49501,48.17528c29.74465,-15.27422 62.26077,-25.20483 96.02891,-28.37317c-34.16928,47.85608 -76.22751,92.37831 -104.5378,144.23027c41.8759,-1.89154 95.04431,3.77127 114.28656,46.08275c19.2544,42.29967 -21.94078,79.6222 -63.14813,86.40812c-41.19519,6.78592 -94.49731,16.43279 -135.41292,25.53585c-40.90345,9.11488 -73.84502,27.28553 -106.56778,52.40761z"/>
   </g>
   <g stroke="None" id="svg_115" fill="#1D1922">
    <path stroke="null" id="svg_116" d="m461.99964,333.18075c-16.36138,11.83398 -34.13281,23.56155 -43.85726,42.46518c-9.7366,18.90362 -29.1855,28.79877 -45.24299,41.11745c-16.06965,12.30686 -16.76252,38.1028 -33.6709,51.18992c17.24874,-4.53971 29.36783,-11.00642 45.27946,-19.80211c15.89947,-8.79568 17.47969,-27.86482 22.48778,-41.96865c4.99593,-14.11565 18.31843,-26.37522 24.89458,-39.62786c6.57616,-13.25263 21.11421,-23.00591 30.10932,-33.37394m-75.36446,83.93729c4.86222,12.37779 -7.45136,23.66795 -19.44889,24.82652c4.63127,-9.7651 7.80387,-21.31534 19.44889,-24.82652z"/>
   </g>
   <g stroke="None" id="svg_117" fill="#F8F9FB">
    <path stroke="null" id="svg_118" d="m386.63518,417.11804c-11.64503,3.51118 -14.81763,15.06142 -19.44889,24.82652c11.99754,-1.15857 24.31112,-12.44873 19.44889,-24.82652z"/>
   </g>
   <g stroke="None" id="svg_119" fill="#1D1922">
    <path stroke="null" id="svg_120" d="m238.33736,560.16609c9.44487,-8.22822 19.46105,-20.18042 13.37111,-33.10203c-4.05996,11.16011 -9.7366,21.81187 -13.37111,33.10203z"/>
   </g>
   <g stroke="None" id="svg_121" fill="#0081CA">
    <path stroke="null" id="svg_122" d="m297.8996,685.48092c6.90436,-2.12799 11.32898,-9.67052 18.23334,-11.82215c-7.03807,-22.13107 -27.62958,-31.54151 -47.40668,-41.37754c3.57373,4.40966 5.5794,13.59548 8.78847,18.64354c3.20907,5.04806 8.32656,11.91673 10.34438,17.1303c2.02998,5.20175 10.49025,12.21228 10.04049,17.42585z"/>
   </g>
   <g stroke="None" id="svg_123" fill="#3950B5">
    <path stroke="null" id="svg_124" d="m291.82182,717.40074c5.21473,-5.82832 12.32574,-12.42508 18.23334,-17.73323c-6.35736,4.88255 -13.33465,11.33745 -18.23334,17.73323z"/>
   </g>
   <g stroke="None" id="svg_125" fill="#0081CA">
    <path stroke="null" id="svg_126" d="m373.26406,709.12523c10.52671,-0.20098 21.07774,0 31.60445,0c-9.846,-0.92213 -21.64905,-1.17039 -31.60445,0z"/>
   </g>
   <g stroke="None" id="svg_127" fill="#0081CA">
    <path stroke="null" id="svg_128" d="m330.71961,731.58732c4.8136,8.16911 11.45054,15.688 17.32167,23.34875c5.87113,7.66076 12.581,13.37086 18.84112,20.68877c6.24796,7.32974 12.75118,13.95014 19.38812,20.15677c6.63694,6.20663 13.20094,13.77281 20.74954,20.01491c7.5486,6.2421 14.4408,12.14135 21.85569,17.75687c7.42705,5.6037 15.25523,11.49113 23.09556,16.55101c7.85249,5.04806 16.28845,12.40144 24.52992,16.33822c8.22931,3.9486 16.77467,10.82909 25.5753,14.1393c8.81278,3.3102 18.52507,11.64482 27.9821,11.77486c9.46918,0.13004 16.13043,-11.47931 24.63932,-15.0496c8.49674,-3.58211 16.15474,-12.22411 23.89783,-16.95297c7.74309,-4.72886 15.48618,-11.44384 22.88892,-16.75199c7.40274,-5.30815 14.51374,-12.5433 21.33301,-18.26523c6.80711,-5.72192 14.82978,-12.76793 21.81923,-18.97456c6.98945,-6.20663 13.16447,-13.52454 20.05667,-19.50655c6.8922,-5.98201 11.98538,-15.86533 18.90189,-20.62966c6.90436,-4.77615 10.95216,-17.10666 17.86867,-21.63454c-3.12398,1.26497 -6.17502,2.7191 -9.72445,2.36443c2.94165,-9.67052 12.92136,-16.74017 17.01778,-26.00874c-11.99754,7.1524 -24.40836,13.91467 -36.36943,21.37445c-11.97323,7.44796 -28.93023,8.35826 -39.9067,16.75199c-10.98863,8.39373 -18.97483,17.89874 -29.78112,26.59985c-10.80629,8.7011 -20.76169,15.49884 -31.60445,24.82652c-10.85491,9.31586 -22.31761,12.57877 -33.42779,23.0532c-11.12234,10.46261 -25.75763,8.09818 -37.88888,-0.39013c-12.1434,-8.47648 -24.77303,-11.7394 -36.28434,-20.27499c-11.52347,-8.53559 -23.15634,-13.20535 -34.01125,-22.48574c-10.85491,-9.26857 -21.17498,-14.80134 -30.99667,-25.41763c-9.82169,-10.62812 -20.15392,-13.91467 -28.9667,-27.39193c-8.81278,-13.46543 -23.95861,-11.33745 -38.80054,-6.00565z"/>
   </g>
   <g stroke="None" id="svg_129" fill="#1D1922">
    <path stroke="null" id="svg_130" d="m150.81734,999.95021c13.06723,1.11128 25.7941,-1.47777 38.89779,0c13.10369,1.47777 14.222,-7.69622 24.00723,-14.48214c9.78522,-6.78592 7.59722,-19.56566 7.59722,-30.44205c0,-10.87638 2.17585,-23.67977 -7.59722,-30.44205c-9.77307,-6.76227 -10.91569,-15.97173 -24.00723,-14.48214c-13.09154,1.48959 -25.83056,-1.11128 -38.89779,0c0,7.48342 0,14.97867 0,22.46209c5.67665,0 11.34114,0 17.01778,0c-7.02591,9.5523 -19.0356,12.5433 -17.01778,26.00874c2.01782,13.46543 -1.50729,27.82935 0,41.37754m46.19112,-67.38628c0,14.97867 0,29.94551 0,44.92418c-7.29334,0 -14.58667,0 -21.88001,0c0,-14.97867 0,-29.94551 0,-44.92418c7.29334,0 14.58667,0 21.88001,0z"/>
   </g>
   <g stroke="None" id="svg_131" fill="#1D1922">
    <path stroke="null" id="svg_132" d="m254.13959,910.10184c-8.10776,0 -16.20336,0 -24.31112,0c0,29.94551 0,59.90285 0,89.84837c23.49669,0 47.00555,0 70.50224,0c0,-29.94551 0,-59.90285 0,-89.84837c-10.12558,0 -20.26332,0 -30.3889,0c-2.66207,6.95143 -11.51131,10.71087 -14.58667,17.73323c-2.80793,-4.74068 -0.42544,-12.02313 -1.21556,-17.73323m21.88001,23.64431c0,14.57672 0,29.16525 0,43.74197c-7.29334,0 -14.58667,0 -21.88001,0c0,-14.57672 0,-29.16525 0,-43.74197c7.29334,0 14.58667,0 21.88001,0z"/>
   </g>
   <g stroke="None" id="svg_133" fill="#1D1922">
    <path stroke="null" id="svg_134" d="m335.58183,910.10184c-8.50889,0 -17.01778,0 -25.52667,0c0,29.94551 0,59.90285 0,89.84837c8.50889,0 17.01778,0 25.52667,0c0,-22.06014 0,-44.14392 0,-66.20406c4.86222,0 9.72445,0 14.58667,0c0,22.07196 0,44.1321 0,66.20406c8.10776,0 16.20336,0 24.31112,0c0,-22.06014 0,-44.14392 0,-66.20406c4.86222,0 9.72445,0 14.58667,0c0,22.07196 0,44.1321 0,66.20406c8.50889,0 17.01778,0 25.52667,0c0,-29.94551 0,-59.90285 0,-89.84837c-7.36627,1.50141 -20.38487,-2.64816 -26.43834,1.47777c-6.06562,4.12593 -7.62154,10.20252 -12.45945,15.07325c-2.79578,-4.33873 -0.4376,-11.23105 -1.21556,-16.55101c-8.50889,0 -17.01778,0 -25.52667,0c-2.43111,6.20663 -9.46918,10.21434 -12.15556,16.55101c-2.79578,-4.33873 -0.4376,-11.23105 -1.21556,-16.55101z"/>
   </g>
   <g stroke="None" id="svg_135" fill="#1D1922">
    <path stroke="null" id="svg_136" d="m448.62852,910.10184c-8.10776,0 -16.20336,0 -24.31112,0c0,29.94551 0,59.90285 0,89.84837c8.10776,0 16.20336,0 24.31112,0c0,-29.94551 0,-59.90285 0,-89.84837z"/>
   </g>
   <g stroke="None" id="svg_137" fill="#1D1922">
    <path stroke="null" id="svg_138" d="m481.44853,910.10184c-8.10776,0 -16.20336,0 -24.31112,0c0,29.94551 0,59.90285 0,89.84837c8.10776,0 16.20336,0 24.31112,0c0,-22.06014 0,-44.14392 0,-66.20406c7.29334,0 14.58667,0 21.88001,0c0,22.07196 0,44.1321 0,66.20406c8.10776,0 16.20336,0 24.31112,0c0,-29.94551 0,-59.90285 0,-89.84837c-8.61829,1.82061 -23.32652,-2.55359 -31.30056,0.29555c-7.9862,2.84914 -6.70987,13.65459 -14.89056,16.25546c0,-5.52095 0,-11.03007 0,-16.55101z"/>
   </g>
   <g stroke="None" id="svg_139" fill="#1D1922">
    <path stroke="null" id="svg_140" d="m607.86634,910.10184c-23.49669,0 -46.99339,0 -70.50224,0c0,29.94551 0,59.90285 0,89.84837c8.10776,0 16.20336,0 24.31112,0c0,-13.79645 0,-27.58108 0,-41.37754c14.16123,10.39167 27.41078,22.07196 21.88001,41.37754c8.10776,0 16.20336,0 24.31112,0c0,-29.94551 0,-59.90285 0,-89.84837m-24.31112,23.64431c0,7.09329 0,14.18658 0,21.27988c-7.29334,0 -14.58667,0 -21.88001,0c0,-7.09329 0,-14.18658 0,-21.27988c7.29334,0 14.58667,0 21.88001,0z"/>
   </g>
   <g stroke="None" id="svg_141" fill="#1D1922">
    <path stroke="null" id="svg_142" d="m688.09303,910.10184c-23.50885,0 -46.99339,0 -70.50224,0c0,7.48342 0,14.97867 0,22.46209c7.69447,0 15.40109,0 23.09556,0c0,22.46209 0,44.92418 0,67.38628c8.10776,0 16.20336,0 24.31112,0c0,-22.46209 0,-44.92418 0,-67.38628c7.69447,0 15.40109,0 23.09556,0c0,-7.48342 0,-14.97867 0,-22.46209z"/>
   </g>
   <g stroke="None" id="svg_143" fill="#1D1922">
    <path stroke="null" id="svg_144" d="m720.91304,910.10184c-8.10776,0 -16.20336,0 -24.31112,0c0,29.94551 0,59.90285 0,89.84837c23.49669,0 47.00555,0 70.50224,0c0,-29.94551 0,-59.90285 0,-89.84837c-10.12558,0 -20.26332,0 -30.3889,0c-2.66207,6.95143 -11.51131,10.71087 -14.58667,17.73323c-2.80793,-4.74068 -0.42544,-12.02313 -1.21556,-17.73323m21.88001,23.64431c0,14.57672 0,29.16525 0,43.74197c-7.29334,0 -14.58667,0 -21.88001,0c0,-14.57672 0,-29.16525 0,-43.74197c7.29334,0 14.58667,0 21.88001,0z"/>
   </g>
   <g stroke="None" id="svg_145" fill="#1D1922">
    <path stroke="null" id="svg_146" d="m847.33085,910.10184c-23.49669,0 -47.00555,0 -70.50224,0c0,29.94551 0,59.90285 0,89.84837c8.10776,0 16.20336,0 24.31112,0c0.79011,-11.633 -1.59238,-24.72012 1.21556,-35.46646c6.68556,11.94038 23.39945,19.92033 20.66445,35.46646c7.69447,0 15.40109,0 23.09556,0c2.71069,-12.77975 -2.43111,-22.72218 -9.72445,-31.91981c21.08989,-10.06065 6.74634,-39.07222 10.94,-57.92855m-24.31112,22.46209c0,9.06759 0,18.12336 0,27.19095c-7.29334,0 -14.58667,0 -21.88001,0c0,-9.06759 0,-18.12336 0,-27.19095c7.29334,0 14.58667,0 21.88001,0z"/>
   </g>
   <g stroke="None" id="svg_147" fill="#1D1922">
    <path stroke="null" id="svg_148" d="m927.55754,910.10184c-23.90998,0 -47.80781,0 -71.7178,0c0.7658,10.24981 -2.97811,26.11514 4.55833,33.39758c7.53645,7.28245 10.55102,14.11565 19.75278,18.61989c0,-9.45772 0,-18.91545 0,-28.37317c15.80223,0 31.60445,0 47.40668,0c0,-7.88538 0,-15.75893 0,-23.64431z"/>
   </g>
   <g stroke="None" id="svg_149" fill-opacity="0" fill="#1D1922">
    <path stroke="null" id="svg_150" d="m197.00846,932.56393c-7.29334,0 -14.58667,0 -21.88001,0c0,14.97867 0,29.94551 0,44.92418c7.29334,0 14.58667,0 21.88001,0c0,-14.97867 0,-29.94551 0,-44.92418z"/>
   </g>
   <g stroke="None" id="svg_151" fill-opacity="0" fill="#1D1922">
    <path stroke="null" id="svg_152" d="m823.01973,932.56393c-7.29334,0 -14.58667,0 -21.88001,0c0,9.06759 0,18.12336 0,27.19095c7.29334,0 14.58667,0 21.88001,0c0,-9.06759 0,-18.12336 0,-27.19095z"/>
   </g>
   <g stroke="None" id="svg_153" fill-opacity="0" fill="#1D1922">
    <path stroke="null" id="svg_154" d="m276.01959,933.74615c-7.29334,0 -14.58667,0 -21.88001,0c0,14.57672 0,29.16525 0,43.74197c7.29334,0 14.58667,0 21.88001,0c0,-14.57672 0,-29.16525 0,-43.74197z"/>
   </g>
   <g stroke="None" id="svg_155" fill-opacity="0" fill="#1D1922">
    <path stroke="null" id="svg_156" d="m583.55523,933.74615c-7.29334,0 -14.58667,0 -21.88001,0c0,7.09329 0,14.18658 0,21.27988c7.29334,0 14.58667,0 21.88001,0c0,-7.09329 0,-14.18658 0,-21.27988z"/>
   </g>
   <g stroke="None" id="svg_157" fill-opacity="0" fill="#1D1922">
    <path stroke="null" id="svg_158" d="m742.79304,933.74615c-7.29334,0 -14.58667,0 -21.88001,0c0,14.57672 0,29.16525 0,43.74197c7.29334,0 14.58667,0 21.88001,0c0,-14.57672 0,-29.16525 0,-43.74197z"/>
   </g>
   <g stroke="None" id="svg_159" fill="#1D1922">
    <path stroke="null" id="svg_160" d="m927.55754,999.95021c-2.33387,-9.46954 4.14505,-28.40863 -2.33387,-35.56104c-6.47891,-7.1524 -14.27063,-10.9946 -21.97725,-15.27422c0,9.05577 0,18.13518 0,27.19095c-15.80223,0 -31.60445,0 -47.40668,0c0,7.87355 0,15.77075 0,23.64431c23.90998,0 47.80781,0 71.7178,0z"/>
   </g>
   <g stroke="None" id="svg_161" fill-opacity="0.93" fill="#1D1922">
    <path stroke="null" id="svg_162" d="m400.00629,1022.4123c-24.99183,-1.6551 -29.81759,43.56464 -5.76173,48.94372c24.0437,5.3909 31.84756,-47.21768 5.76173,-48.94372m6.07778,36.64868c-19.20578,16.90568 -24.17741,-27.14366 -8.41165,-27.1082c15.77792,0.02364 2.12722,18.679 8.41165,27.1082z"/>
   </g>
   <g stroke="None" id="svg_163" fill-opacity="0.93" fill="#1D1922">
    <path stroke="null" id="svg_164" d="m757.37971,1022.4123c-24.99183,-1.6551 -29.81759,43.56464 -5.76173,48.94372c24.0437,5.3909 31.84756,-47.21768 5.76173,-48.94372m6.07778,36.64868c-19.20578,16.90568 -24.17741,-27.14366 -8.41165,-27.1082c15.77792,0.02364 2.12722,18.679 8.41165,27.1082z"/>
   </g>
   <g stroke="None" id="svg_165" fill-opacity="0.93" fill="#1D1922">
    <path stroke="null" id="svg_166" d="m810.86417,1022.4123c-24.99183,-1.6551 -29.81759,43.56464 -5.76173,48.94372c24.0437,5.3909 31.84756,-47.21768 5.76173,-48.94372m6.07778,36.64868c-19.19363,16.90568 -24.18956,-27.14366 -8.41165,-27.1082c15.77792,0.02364 2.12722,18.679 8.41165,27.1082z"/>
   </g>
   <g stroke="None" id="svg_167" fill-opacity="0.93" fill="#1D1922">
    <path stroke="null" id="svg_168" d="m933.63532,1027.14116c-13.68716,-8.77204 -38.67899,-2.76638 -32.82001,17.73323c7.13531,6.80956 17.44323,6.4549 25.52667,9.45772c0.19449,14.04472 -19.98374,8.51195 -24.31112,3.54665c-0.75364,3.92495 -2.23662,4.69339 -3.64667,8.27551c10.13774,5.7101 32.74708,11.27833 36.06554,-7.48342c3.31847,-18.76176 -22.57287,-9.94243 -25.12554,-24.43639c6.53969,-4.22051 15.96025,-1.09946 21.88001,1.18222c-0.08509,-3.06194 3.19691,-5.05988 2.43111,-8.27551z"/>
   </g>
   <g stroke="None" id="svg_169" fill-opacity="0.87" fill="#1D1922">
    <path stroke="null" id="svg_170" d="m181.20623,1023.59451c-7.7674,-0.43742 -15.30385,0.59111 -23.09556,0c-7.79171,-0.59111 -15.19445,-0.47289 -12.15556,9.45772c4.0478,0 8.10776,0 12.15556,0c0,12.61424 0,25.21665 0,37.83089c3.64667,0 7.29334,0 10.94,0c0,-12.61424 0,-25.21665 0,-37.83089c7.91327,1.28861 15.10936,-0.05911 12.15556,-9.45772z"/>
   </g>
   <g stroke="None" id="svg_171" fill-opacity="0.95" fill="#1D1922">
    <path stroke="null" id="svg_172" d="m205.51735,1023.59451c-13.58991,-3.00283 -8.01051,16.31457 -8.50889,24.82652c-0.49838,8.51195 -4.02349,26.65896 9.72445,22.46209c0,-6.30121 0,-12.60242 0,-18.91545c5.67665,0 11.34114,0 17.01778,0c0.70502,8.14546 -4.08427,23.02956 9.72445,18.91545c-0.40113,-8.72475 0.53484,-19.88486 0,-28.37317c-0.53484,-8.48831 4.05996,-21.69365 -8.50889,-18.91545c0,6.70316 0,13.3945 0,20.09766c-6.47891,0 -12.96998,0 -19.44889,0c0,-6.70316 0,-13.3945 0,-20.09766z"/>
   </g>
   <g stroke="None" id="svg_173" fill-opacity="0.98" fill="#1D1922">
    <path stroke="null" id="svg_174" d="m286.95959,1023.59451c-10.94,0 -21.88001,0 -32.82001,0c0,15.75893 0,31.52968 0,47.28861c10.29576,-3.0974 34.7649,7.55436 32.82001,-8.27551c-8.10776,0 -16.20336,0 -24.31112,0c0,-3.54665 0,-7.09329 0,-10.63994c7.75525,-1.37137 24.32327,4.81162 20.66445,-8.27551c-6.8922,0 -13.77225,0 -20.66445,0c0,-3.93678 0,-7.88538 0,-11.82215c8.38734,-2.02159 27.67821,5.87561 24.31112,-8.27551z"/>
   </g>
   <g stroke="None" id="svg_175" fill-opacity="0.91" fill="#1D1922">
    <path stroke="null" id="svg_176" d="m339.2285,1023.59451c-3.64667,0 -7.29334,0 -10.94,0c5.98053,6.05294 5.81036,15.23876 11.68149,21.57543c5.87113,6.33667 -3.9384,28.58597 12.62963,25.71318c-2.68638,-24.0699 6.18718,-28.25495 14.58667,-47.28861c-3.64667,0 -7.29334,0 -10.94,0c-0.57131,6.4549 -5.56725,11.99949 -7.29334,18.91545c-6.18718,-5.1781 -7.06238,-11.70393 -9.72445,-18.91545z"/>
   </g>
   <g stroke="None" id="svg_177" fill-opacity="0.89" fill="#1D1922">
    <path stroke="null" id="svg_178" d="m444.98186,1023.59451c-3.64667,0 -7.29334,0 -10.94,0c0.34036,11.25469 -1.05753,26.59985 1.49513,36.37677c2.55267,9.77692 12.77549,13.00437 21.29654,11.81033c8.5332,-1.19404 14.50158,-8.07453 13.675,-17.4495c-0.82658,-9.37497 6.27227,-34.60344 -9.72445,-30.7376c-0.60778,12.43691 1.33711,26.55256 -1.21556,37.83089c-3.26985,0.09458 -7.73094,1.1231 -12.15556,1.18222c-5.74958,-10.75816 -0.80227,-26.03238 -2.43111,-39.01311z"/>
   </g>
   <g stroke="None" id="svg_179" fill-opacity="0.95" fill="#1D1922">
    <path stroke="null" id="svg_180" d="m502.11298,1023.59451c-4.0478,0 -8.10776,0 -12.15556,0c0.40113,8.72475 -0.53484,19.89668 0,28.37317c0.53484,8.47648 -4.05996,21.69365 8.50889,18.91545c0.79011,-11.24287 -1.59238,-23.92804 1.21556,-34.28425c3.9384,10.63994 13.0186,24.68466 15.80223,34.28425c4.0478,0 8.10776,0 12.15556,0c-0.40113,-8.72475 0.53484,-19.88486 0,-28.37317c-0.53484,-8.48831 4.05996,-21.69365 -8.50889,-18.91545c-0.79011,11.24287 1.59238,23.92804 -1.21556,34.28425c-4.27876,-10.94731 -11.35329,-22.91133 -15.80223,-34.28425z"/>
   </g>
   <g stroke="None" id="svg_181" fill-opacity="0.92" fill="#1D1922">
    <path stroke="null" id="svg_182" d="m583.55523,1037.7811c-2.39465,-10.75816 -16.26414,-16.53919 -27.95778,-13.00437c-9.299,9.42226 -14.59883,33.81136 -2.12722,43.2809c12.45945,9.45772 37.4999,-2.80185 30.08501,-23.18324c-6.07778,0 -12.15556,0 -18.23334,0c-1.71393,6.59676 1.71393,10.02519 8.50889,8.27551c1.83549,4.50424 -3.7196,4.57517 -3.64667,8.27551c-5.33629,-0.17733 -9.34762,-0.28373 -13.37111,-3.54665c3.829,-8.05089 -2.20016,-18.24158 3.64667,-24.82652c2.97811,0.62657 6.81927,0.6384 9.72445,0c0.48622,6.57312 8.73985,4.43331 13.37111,4.72886z"/>
   </g>
   <g stroke="None" id="svg_183" fill-opacity="0.96" fill="#1D1922">
    <path stroke="null" id="svg_184" d="m660.13525,1046.0566c8.3144,-1.60781 11.85167,-13.24081 4.55833,-18.61989c-7.30549,-5.36726 -21.24792,-3.83038 -31.30056,-3.8422c0,15.75893 0,31.52968 0,47.28861c11.69365,-0.70933 28.14012,3.0974 33.87754,-6.00565c5.73742,-9.11488 -0.64424,-15.73529 -7.13531,-18.82087m-1.21556,-13.00437c0.18233,3.05012 0.55916,5.66281 -1.21556,9.45772c-4.46109,-0.95759 -10.55102,0.6384 -15.80223,0c0,-3.54665 0,-7.09329 0,-10.63994c5.88329,0.08276 12.15556,-0.44924 17.01778,1.18222m-1.21556,17.73323c2.47973,3.4166 3.18476,8.05089 0,11.82215c-4.46109,-0.95759 -10.55102,0.6384 -15.80223,0c0,-3.93678 0,-7.88538 0,-11.82215c5.33629,-0.6384 11.23174,0.95759 15.80223,0z"/>
   </g>
   <g stroke="None" id="svg_185" fill-opacity="0.93" fill="#1D1922">
    <path stroke="null" id="svg_186" d="m699.03303,1023.59451c-3.24553,0 -6.47891,0 -9.72445,0c0,15.75893 0,31.52968 0,47.28861c10.68474,-3.03829 36.01692,7.86173 32.82001,-9.45772c-7.69447,0 -15.40109,0 -23.09556,0c0,-12.61424 0,-25.21665 0,-37.83089z"/>
   </g>
   <g stroke="None" id="svg_187" fill-opacity="0.94" fill="#1D1922">
    <path stroke="null" id="svg_188" d="m846.11529,1070.88313c23.11987,3.97224 37.98612,-4.40966 36.46668,-26.00874c-1.51944,-21.59907 -14.99996,-22.23747 -36.46668,-21.27988c0,15.75893 0,31.52968 0,47.28861m26.74223,-33.10203c-1.98136,5.68646 -1.95704,13.25263 0,18.91545c-1.65316,1.93883 -4.03565,3.0974 -4.86222,5.91108c-3.73176,-1.14675 -8.88571,0.7448 -13.37111,0c0,-10.24981 0,-20.48779 0,-30.7376c8.21716,-0.01182 13.90596,-0.41378 18.23334,5.91108z"/>
   </g>
   <g stroke="None" id="svg_189" fill-opacity="0.05" fill="#1D1922">
    <path stroke="null" id="svg_190" d="m406.08407,1059.06097c-6.28442,-8.4292 7.36627,-27.08455 -8.41165,-27.1082c-15.76576,-0.03547 -10.79414,44.01388 8.41165,27.1082z"/>
   </g>
   <g stroke="None" id="svg_191" fill-opacity="0.1" fill="#1D1922">
    <path stroke="null" id="svg_192" d="m658.91969,1033.05224c-4.86222,-1.63146 -11.13449,-1.09946 -17.01778,-1.18222c0,3.54665 0,7.09329 0,10.63994c5.2512,0.6384 11.34114,-0.95759 15.80223,0c1.77471,-3.79491 1.39789,-6.40761 1.21556,-9.45772z"/>
   </g>
   <g stroke="None" id="svg_193" fill-opacity="0.05" fill="#1D1922">
    <path stroke="null" id="svg_194" d="m763.45749,1059.06097c-6.28442,-8.4292 7.36627,-27.08455 -8.41165,-27.1082c-15.76576,-0.03547 -10.79414,44.01388 8.41165,27.1082z"/>
   </g>
   <g stroke="None" id="svg_195" fill-opacity="0.05" fill="#1D1922">
    <path stroke="null" id="svg_196" d="m816.94195,1059.06097c-6.28442,-8.4292 7.36627,-27.08455 -8.41165,-27.1082c-15.77792,-0.03547 -10.78198,44.01388 8.41165,27.1082z"/>
   </g>
   <g stroke="None" id="svg_197" fill-opacity="0.09" fill="#1D1922">
    <path stroke="null" id="svg_198" d="m872.85752,1037.7811c-4.32738,-6.32485 -10.01618,-5.9229 -18.23334,-5.91108c0,10.24981 0,20.48779 0,30.7376c4.4854,0.7448 9.63936,-1.14675 13.37111,0c0.82658,-2.81367 3.20907,-3.97224 4.86222,-5.91108c-1.95704,-5.66281 -1.98136,-13.22899 0,-18.91545z"/>
   </g>
   <g stroke="None" id="svg_199" fill-opacity="0.09" fill="#1D1922">
    <path stroke="null" id="svg_200" d="m657.70413,1050.78547c-4.57049,0.95759 -10.46594,-0.6384 -15.80223,0c0,3.93678 0,7.88538 0,11.82215c5.2512,0.6384 11.34114,-0.95759 15.80223,0c3.18476,-3.77127 2.47973,-8.40555 0,-11.82215z"/>
   </g>
  </g>
 </g>
</svg>