<svg transform="scale(1)" version="1.1" id="KmfFop8uaC" xmlns="http://www.w3.org/2000/svg" xmlns:xlink="http://www.w3.org/1999/xlink" x="0px" y="0px" viewBox="0 0 500 500" xml:space="preserve" class="pbimage_pbimage__wrapper__image__0LEis false"><title>Password 4</title><style type="text/css"> .st0{fill:#000005;} .st1{fill:#FFFFFF;} .st2{fill:none;} .st3{fill:#59BE4C;}
 .st3{fill:#59BE4C;}
 .st1{fill:#FFFFFF;}
 .st0{fill:#000005;}</style><g id="padlock"><path class="st0" d="M86.3,124.9c-4.4-10.1-8.7-20.6-9.2-31.8C76.7,84,79,74,85.6,67.3c6.1-6.2,15-8.9,23.5-7.2
		c8.5,1.8,15.1,8.2,20,15c2.8,4.1,5.4,8.5,7.5,13c2.8,5.4,5.1,11.1,6.9,16.9c0.6,2.2,5.5,1.3,4.8-1.2c-1.7-5.6-3.9-11-6.6-16.2
		c-2-4.3-4.4-8.5-7-12.6c-5.2-7.8-12.1-14.9-21.3-17.7c-9.7-2.9-20.2-1.1-28.4,4.9c-8.2,6.1-12.2,16.2-12.8,26.2
		c-0.8,13.2,4.2,25.8,9.4,37.7C82.5,128.2,87.4,127.3,86.3,124.9L86.3,124.9z" fill="#000005"></path><g id="padlock-2"><path class="st1" d="M174.6,89.9c0,0,32.8,66.5,38.2,102.9s-49.5,45-75.9,48.8s-70-78.3-70.6-84.1s2.9-24.1,7.5-28.9
			S174.6,89.9,174.6,89.9z"></path><path class="st0" d="M172.2,90.3c1.6,3.2,3,6.3,4.5,9.5c3.7,7.8,7.2,15.7,10.6,23.7c4.3,10.1,8.4,20.3,12.2,30.7
			c3.7,10,6.8,20.1,9.3,30.5c1.2,4.4,1.9,8.9,2,13.5c0,4.1-1,8.1-2.8,11.8c-3.7,7.4-10.6,12.6-17.7,16.4c-8.3,4.4-17.3,7.2-26.4,9.4
			c-8.2,2-16.7,3.4-25.2,4.7l-2.6,0.4c-0.7,0.1,0.4,0-0.3,0c-0.2,0-1.1,0-0.8,0s-0.4,0-0.6-0.1l-0.4-0.1c-0.5,0,0.3,0.1-0.1,0
			c-0.7-0.1-1.3-0.3-2-0.5c-0.4-0.1,0.3,0.1-0.1,0l-0.6-0.2c-0.3-0.1-0.7-0.2-1-0.4c-0.7-0.3-1.4-0.6-2.1-0.9
			c-1.3-0.7-2.6-1.5-3.9-2.4c-6.5-4.5-12-10.4-17.1-16.4c-5.9-7.1-11.3-14.5-16.3-22.2c-4.7-7.1-9-14.4-13.1-21.8
			c-2.8-5-5.4-10-7.7-15.3c-0.3-0.7-0.6-1.4-0.8-2.1c0.1,0.3-0.1-0.3-0.1-0.5c-0.1-0.3-0.1-0.6-0.1-0.9c-0.2-4.5,0.7-9.2,1.7-13.6
			c1-4.6,2.2-9.7,5-13.6c0.3-0.5,0.8-1,1.3-1.3c0.3-0.2,0.1,0,0,0l0.4-0.2l1-0.5c4.7-2.4,9.6-4.3,14.5-6.2
			c7.3-2.9,14.7-5.8,22.1-8.5c8.1-3,16.4-6.1,24.4-9c7.2-2.6,14.4-5.2,21.6-7.8c4.4-1.6,8.8-3.2,13.3-4.7l1.8-0.7
			c0.7-0.2,1.7-0.8,0.9-1.5c-1-0.6-2.3-0.7-3.4-0.3c-2.5,0.9-5,1.8-7.5,2.7c-6.2,2.2-12.5,4.5-18.7,6.7c-8.2,3-16.5,6-24.7,9
			c-8.1,3-16.2,6-24.3,9.2c-6.3,2.4-12.6,4.9-18.7,7.6c-1.9,0.8-3.7,1.7-5.5,2.6c-1.7,0.8-3.1,2.1-4,3.7c-2.5,4.4-3.8,9.6-4.8,14.5
			c-0.5,2.5-0.9,5-1.2,7.6c-0.3,1.7-0.3,3.4-0.2,5.1c0.3,1.3,0.8,2.6,1.4,3.8c1,2.3,2.1,4.6,3.2,6.8c3.4,6.8,7.2,13.4,11.2,19.9
			c4.8,7.9,9.9,15.7,15.4,23.1c5.2,7.2,11.1,14,17.5,20.1c5,4.6,10.8,9.1,17.5,10.8c3.2,0.7,6.6,0.7,9.8,0.1c4.1-0.6,8.2-1.2,12.3-2
			c9.5-1.6,18.9-3.9,28-7c8.7-3,17.4-6.9,24.4-13c6.3-5.6,10.6-13,10.9-21.5c0.2-4.6-0.8-9.1-1.8-13.6c-1.1-5-2.5-10-4-15
			c-3.3-10.8-7.2-21.4-11.4-31.9c-3.8-9.6-7.9-19.2-12.1-28.6c-2.7-6-5.4-11.9-8.3-17.8c-0.4-0.8-0.8-1.6-1.2-2.4
			C176.4,88.3,171.5,88.8,172.2,90.3z"></path><path class="st0" d="M165.1,186c0,0-10.6-21.5-10.7-24.6s2.5-16-7.8-19.6s-20.3,1.4-16.4,12s13.6,8.3,17.9,12.7
			s7.8,21.1,10.7,23.1S166.6,189.2,165.1,186z"></path><path class="st0" d="M167.4,186.6c-3.3-6.8-6.7-13.6-9.4-20.6c-0.6-1.2-1-2.4-1.2-3.8c-0.1-1.5,0.2-3,0.2-4.5
			c0.1-4.6-0.6-9.7-4.1-13c-2.5-2.4-6.1-3.5-9.4-4.3c-3.1-0.8-6.3-0.8-9.3-0.2c-2.5,0.5-4.6,2-6.1,4.1c-1.3,2.5-1.5,5.4-0.6,8
			c0.8,2.9,2.6,5.6,5,7.4c2.3,1.6,4.9,2.9,7.6,3.6c1.1,0.4,2.2,0.7,3.4,1.1h-0.1l0.4,0.2c0.4,0.1-0.1-0.1,0.3,0.1
			c0.4,0.2,0.7,0.4,1,0.6c1.7,1.2,2.7,3.4,3.5,5.2c2.2,4.9,3.6,10.2,5.8,15.2c0.9,1.9,1.7,3.3,3.6,4.2c2.6,1.2,6.7,2.2,8.9-0.3
			C167.8,189,167.9,187.7,167.4,186.6c-0.3-0.7-2.1-1-2.8-1.2c-0.2-0.1-2.1-0.5-1.9,0c0.5,1.1,0.2,2.3-0.7,3.1
			c-0.5,0.4-1,0.7-1.6,0.9c-0.3,0.1-0.5,0.1-0.8,0.2c-0.1,0-0.3,0-0.4,0c-0.6,0.2,1.7,0.3,1.7,0.6c0-0.1-0.9-1.1-1-1.4
			c-0.5-0.9-0.9-1.7-1.2-2.6c-1.9-4.7-3.3-9.5-5.3-14.1c-0.7-1.9-1.8-3.7-3.2-5.1c-1.8-1.5-3.9-2.6-6.2-3.2c-1-0.3-2-0.6-3-1
			c-0.8-0.2-1.6-0.5-2.4-0.9c-2.1-1.1-3.9-2.8-5-4.9c-2.6-4.7-2.8-11,2.5-13.8c4.1-2.2,10.1-2.2,13.2,1.5c2.8,3.4,3.2,8,3,12.1
			c-0.1,1.3-0.2,2.7-0.2,4c0.2,1.2,0.5,2.3,1,3.4c2.7,7.1,6.1,13.9,9.4,20.7l0.2,0.5c0.4,0.7,2.1,1.1,2.8,1.3
			C165.8,186.7,167.7,187.1,167.4,186.6z"></path><path class="st0" d="M71.7,129.4c2.8,5.6,5.8,11.1,8.8,16.6c6.4,11.8,12.9,23.4,19.9,34.9c6.6,10.7,13.4,21.7,21.8,31.1
			c4.3,4.8,9.8,8.4,16,10.4c6.9,2,14,2.9,21.2,2.5c9.8-0.3,19.6-2,29-4.9l0.5-0.1c1-0.2,1.6-1.2,1.4-2.1c0-0.1-0.1-0.3-0.1-0.4
			c-0.7-1.1-2.1-1.5-3.3-1.2c-2.3,0.8-4.6,1.3-6.9,1.9c-1.2,0.3-2.3,0.5-3.5,0.8l-1.9,0.4c-0.1,0-0.5,0.1-0.1,0l-0.5,0.1l-1.2,0.2
			c-3.1,0.5-6.1,0.9-9.2,1.2c-12.4,1.1-26.7,0.2-35.9-9.2c-3.6-3.8-6.9-7.8-9.8-12.1c-3.9-5.3-7.4-10.9-10.9-16.5
			c-7.1-11.4-13.8-23.2-20.2-35c-3.5-6.5-6.8-13.1-10.4-19.5c-0.1-0.1-0.1-0.2-0.2-0.3C75.1,125.8,70.4,126.8,71.7,129.4L71.7,129.4
			z"></path></g></g><g id="character"><path class="st0" d="M391.5,425.9l-7.8,0.1c0,0-22.1,8.8-20.1,12.9s19.1,3.3,34.3,2.6c18.1-0.9,16-5,10.7-15.4L391.5,425.9z"></path><path class="st0" d="M389.6,424.8c-2.5,0-5.1-0.1-7.6,0.1c-1.5,0.4-2.9,0.9-4.2,1.6c-3,1.3-6,2.7-8.9,4.3c-2.5,1.4-5.3,2.9-7.1,5.1
		s0.8,4,2.8,4.9c4.1,1.9,8.9,2.1,13.4,2.2c5.9,0.2,11.8-0.1,17.7-0.4c4.8-0.2,9.9-0.2,14.6-1.6c2.5-0.7,4.6-2.2,4.4-5
		c-0.2-3.3-2.3-6.5-3.7-9.4c-0.5-1.1-2.7-1.7-3.8-1.7l-17.1-0.3c-0.9,0-1.1,0.4-0.4,1c1,0.7,2.1,1.1,3.4,1.2l17.1,0.3l-3.8-1.7
		c1.3,2.6,2.9,5.3,3.5,8.1c0.6,1.8-0.2,3.8-1.9,4.7c-3,1.7-7,1.8-10.4,2c-5.7,0.4-11.4,0.6-17.1,0.6c-4.4,0.1-9.1,0.2-13.5-0.8
		c0.2,0-0.6-0.1-0.7-0.2c-0.4-0.1,0.5,0.2-0.1,0c-0.1,0-0.5-0.2,0.1,0c-0.3-0.1,0.1,0.1-0.1,0c0.2,0.2-0.2-0.3-0.2-0.3
		c-0.3-0.6-0.2-1.3,0.3-1.8c1.4-2.1,4.1-3.5,6.3-4.7c2.8-1.6,5.6-2.9,8.5-4.2c1.1-0.5,2.3-1,3.5-1.5c0.3-0.1,0.7-0.3,1-0.4
		s0.3,0,0,0c2.6-0.1,5.1-0.1,7.7-0.1c1.1,0-0.2-1.1-0.5-1.2C391.9,425.2,390.7,424.9,389.6,424.8z"></path><path class="st1" d="M371,323.5c0,0,19.5,94.7,19.1,96.9s-19.5,11-17.6,12.1s6.5,0.5,19.9-1.5c12.4-1.8,16.6-1.4,16.8-4.1
		s-5.1-92.4-5.1-92.4L371,323.5z"></path><path class="st0" d="M368.5,323.7c0.9,4.6,1.9,9.1,2.8,13.6c2.1,10.2,4.2,20.5,6.2,30.7c2.2,10.8,4.3,21.6,6.5,32.5
		c1.2,6.4,2.7,12.7,3.5,19.2c0,0.2,0.1,0.5,0.1,0.7c0,0.1,0,0.1,0,0.2c0.1-0.3-0.3,0.4-0.1,0.2c-1.3,1.4-3.4,2.4-5,3.4
		c-2.4,1.4-4.9,2.8-7.3,4.2c-1.6,0.9-3.9,2-5,3.5s1.6,1.9,2.5,2c2.4,0.2,4.9,0.2,7.2-0.2c4.3-0.5,8.5-1.1,12.8-1.8
		c4-0.6,8-0.9,12-1.5c2-0.3,5.1-0.6,6.5-2.4c0.4-0.6,0.6-1.3,0.5-2.1c0-2.4-0.2-4.8-0.3-7.2c-0.5-9.7-1-19.4-1.6-29.1
		c-0.6-11.2-1.3-22.5-1.9-33.7c-0.4-6.9-0.8-13.7-1.2-20.6l-0.1-1c0-0.3-0.6-0.5-0.8-0.6l-29.1-9.7l-4.1-1.4
		c-1.2-0.3-2.4-0.2-3.5,0.4c-0.9,0.5-0.8,1,0.1,1.3l29.1,9.7l4.1,1.4l-0.8-0.6l0.8,14.3c0.6,10.5,1.2,21,1.8,31.5s1.2,21.1,1.8,31.7
		c0.2,3.5,0.4,7.1,0.5,10.6c0,1,0.1,2,0.1,3.1c0.1,0.5,0.1,1,0,1.5c0,0.1-0.1,0.2-0.2,0.3c-0.2,0.3,0,0-0.1,0.1s-0.4,0.3-0.1,0.1
		c-0.1,0-0.1,0.1-0.2,0.1c-0.4,0.2,0.4-0.1,0,0l-0.6,0.2c0.6-0.2-0.1,0-0.3,0l-0.8,0.1c-0.5,0.1-0.1,0,0,0l-0.7,0.1
		c-4.1,0.6-8.3,1-12.5,1.6s-8,1.2-12.1,1.6c-0.6,0.1-1.2,0.1-1.8,0.2s0.1,0-0.3,0h-0.9h-0.6c0.7,0,0.1,0-0.1,0l-0.5-0.1
		c0.6,0.1,0.1,0-0.1,0s0.4,0.1,0,0c-0.1,0-0.2-0.2-0.3-0.2c0.1,0,0.3,0.2,0.2,0.2s-0.2,0.1,0.1,0s-0.1,0.1,0-0.1s0.2-0.2,0.3-0.3
		c0.3-0.3,0.7-0.5,1-0.8c2-1.3,4.1-2.5,6.2-3.7c2.4-1.3,4.7-2.7,7-4.1c1-0.6,2.9-1.6,3-2.9c0-1.6-0.3-3.1-0.7-4.6
		c-0.6-3.5-1.3-6.9-1.9-10.3c-2-10.2-4-20.4-6-30.6c-2.1-10.6-4.3-21.2-6.5-31.8c-1.3-6.2-2.5-12.4-3.8-18.6l-0.2-0.9
		C373.2,321.8,368.3,322.5,368.5,323.7z"></path><path class="st0" d="M325.6,423l-7.8,0.1c0,0-22.1,8.8-20.1,12.9s19.1,3.3,34.3,2.6c18.1-0.9,16-5,10.7-15.4L325.6,423z"></path><path class="st0" d="M327.1,421.4c-2.6,0-5.1,0.1-7.7,0.1c-1.7,0-3.7,1.2-5.3,1.9c-3.2,1.4-6.3,2.9-9.4,4.6c-2.8,1.5-5.9,3.2-8,5.7
		c-0.9,0.8-1.4,1.9-1.4,3c0.1,1.2,1.3,2,2.3,2.4c3.8,1.7,8.5,1.6,12.5,1.7c6,0.1,12.1-0.2,18.1-0.5c4.7-0.2,9.7-0.2,14.2-1.9
		c3-1.1,6.4-3.3,6.2-6.9c-0.2-3.4-2.3-6.7-3.8-9.6c-0.1-0.2-0.4-0.3-0.6-0.3L327.1,421.4c-1.2,0-2.3,0.6-3.1,1.4
		c-0.4,0.4-1.1,1.7,0,1.8l17.1,0.3l-0.6-0.3c1.3,2.3,2.4,4.8,3.3,7.3c0.3,0.8,0.4,1.6,0.3,2.4c0,0.3-0.1,0.6-0.2,0.8
		c-0.1,0.4,0.1-0.2-0.1,0.2c0,0.1-0.2,0.4,0.1-0.1c0,0.1-0.2,0.2-0.2,0.2s0.4-0.3,0.1-0.1c-0.1,0.1-0.4,0.2,0.2-0.1
		c-0.5,0.3,0.2,0-0.1,0.1c-0.1,0.1-0.8,0.3-0.3,0.1c-0.3,0.1-0.7,0.2-1,0.3c-1.5,0.4-3,0.6-4.5,0.8c-4.8,0.5-9.7,0.6-14.5,0.8
		c-4.6,0.2-9.2,0.3-13.9,0c-2.8-0.2-6.2-0.2-8.8-1.7c-0.3-0.2-0.6-0.4-0.9-0.7c-0.3-0.4-0.3-0.4-0.2-0.7s0,0,0-0.1s0.2-0.5,0-0.1
		c0.1-0.1,0.2-0.3,0.3-0.4c-0.3,0.5,0.1-0.1,0.3-0.3c0.4-0.5-0.1,0.1,0.2-0.2s0.4-0.4,0.7-0.5l0.6-0.5c0.3-0.2-0.4,0.2,0,0l0.5-0.4
		c1.1-0.8,2.3-1.4,3.5-2.1c0.1,0,0.4-0.2,0.1,0l0.5-0.3l1.1-0.6l2.1-1c1.3-0.6,2.6-1.2,4-1.8s2.7-1.2,4.1-1.7l-1.5,0.4l7.8-0.1
		c1.2-0.1,2.3-0.6,3.1-1.5C327.5,422.7,328.3,421.3,327.1,421.4z"></path><path class="st1" d="M325.4,314.5c0,0-0.8,100.7-1.2,102.9s-19.5,11-17.6,12.1s6.5,0.5,19.9-1.5c12.4-1.8,16.6-1.4,16.8-4.1
		S356.5,319,356.5,319L325.4,314.5z"></path><path class="st0" d="M322.9,314.1l-0.1,15.4c-0.1,11.3-0.2,22.6-0.3,33.9c-0.1,11.7-0.2,23.4-0.4,35.1c0,4.1-0.1,8.2-0.2,12.3
		c0,2-0.3,4-0.2,6c0,0.1,0,0.1,0,0.2s0.2-0.7,0.1-0.3c0.3-0.7,0.2-0.1,0,0c-0.1,0.1-0.2,0.2-0.3,0.3c0.5-0.5,0,0-0.1,0.1
		c-0.4,0.3-0.9,0.6-1.4,0.9c-2.4,1.6-5,3-7.5,4.4c-2.3,1.2-4.4,2.5-6.5,4c-0.9,0.5-1.6,1.4-1.9,2.4c-0.2,1.4,0.9,2.3,2.1,2.8
		c2,0.8,4.4,0.6,6.5,0.4c4.1-0.4,8.2-1,12.4-1.6c4.5-0.6,9.1-1.1,13.7-1.8c2.2-0.3,4.9-0.6,6.4-2.5c1.1-1.4,1-3.9,1.2-5.6
		c0.4-3.5,0.9-7.1,1.3-10.6c1.4-11.1,2.8-22.2,4.1-33.2c1.5-11.8,3-23.7,4.5-35.5l2.6-21l0.1-1c0-1.3-0.9-2.4-2.2-2.5l-27.1-4
		l-3.9-0.6c-1.1-0.3-2.4,0.3-2.7,1.5c-0.3,1.1,0.3,2.4,1.5,2.7c0.2,0.1,0.4,0.1,0.7,0.1l27.1,4l3.9,0.6l-2.2-2.5
		c-0.6,4.8-1.2,9.6-1.8,14.5c-1.4,10.9-2.8,21.9-4.2,32.9c-1.5,11.7-2.9,23.3-4.4,35c-0.9,7.1-1.8,14.2-2.6,21.4
		c-0.1,0.5-0.2,1-0.2,1.6c0,0.3,0.2-0.5,0,0c0-0.1,0.3-0.4,0-0.1c-0.1,0.1,0.5-0.3,0,0c-0.3,0.2,0.5-0.2-0.1,0
		c-0.2,0.1-0.4,0.1-0.6,0.2s-0.7,0.2-0.2,0.1c-0.7,0.1-1.4,0.3-2.1,0.4c-4.5,0.6-9,1.1-13.4,1.8c-4.1,0.6-8.2,1.3-12.4,1.6
		c-0.6,0-1.1,0.1-1.7,0.1h-0.8c-0.7,0,0.4,0.1-0.2,0l-1.1-0.1c-0.6-0.1,0.5,0.1,0.1,0c-0.1-0.1-0.3-0.1-0.4-0.2
		c0.9,0.1,1.6,2.1,0.9,2.6c0.1-0.1,0.2-0.2,0.3-0.3c0.4-0.2-0.5,0.3,0.1-0.1c0.9-0.6,1.8-1.2,2.7-1.8c2.5-1.5,5.1-2.9,7.6-4.4
		c2.2-1.1,4.3-2.5,6.2-4.1c1.5-1.4,1.2-3.2,1.3-5.1c0.1-3.4,0.1-6.7,0.2-10.1c0.1-10.9,0.3-21.7,0.4-32.6
		c0.1-11.7,0.2-23.4,0.3-35.1l0.2-20.9v-1c0-1.3-0.9-2.3-2.2-2.5C324.6,312.2,322.9,312.8,322.9,314.1z"></path><path class="st1" d="M323.6,240.1c0,0-19.2,144.5-4.9,165s37.5,13.1,44.4-11.6c2.1-7.6-6.5-58.6-6.5-58.6s3.5,60.5,19.7,74
		s37.8,10.8,41.2-13.8S397,237.6,397,237.6L323.6,240.1z"></path><path class="st0" d="M321.6,238.6c-0.4,3.2-0.8,6.4-1.2,9.6c-1,8.2-2,16.4-2.8,24.7c-1.2,11.2-2.3,22.4-3.2,33.5
		c-1,12.1-1.9,24.2-2.4,36.3c-0.5,10.9-0.8,21.9-0.4,32.8c0.3,7.8,0.6,15.9,2.9,23.3c1.1,3.5,3,6.8,5.5,9.5
		c4.6,5.3,11,9.8,18.1,10.3c6.1,0.4,12.1-1.8,16.5-5.9c2.6-2.4,4.8-5.2,6.5-8.3c1.8-3.1,3.2-6.5,4-10c0.7-3.5,0.1-7.4-0.1-10.9
		c-0.5-5.8-1.2-11.5-2-17.3c-1.3-9.5-2.7-19-4.3-28.5c-0.1-0.6-0.2-1.3-0.3-1.9c-0.1-0.9-1.4-1.9-2.1-2.3c-0.2-0.1-1.8-1-1.8-0.2
		c0.4,6.2,1,12.5,1.8,18.7c1.5,12,3.5,24.2,7.2,35.8c1.5,5.2,3.6,10.2,6.4,14.9c3.3,5.1,7.8,9.2,13.2,11.9c5.5,3,12,4.8,18.3,3.7
		c5.8-1,10.9-4.5,13.9-9.6c4.6-7.7,4.7-16.6,4.2-25.3c-0.5-9.8-1.6-19.6-2.8-29.3c-1.5-12-3.1-24-4.9-36s-3.6-23.8-5.6-35.7
		c-1.6-9.5-3.2-19.1-4.8-28.6c-0.9-4.9-1.7-9.8-2.6-14.6c0-0.2-0.1-0.4-0.1-0.6c-0.6-1.5-2-2.6-3.6-2.9l-24.8,0.8L331,238l-9.1,0.3
		c-0.9,0,0.5,1.8,0.6,1.9c0.7,0.9,1.6,1.4,2.7,1.6L350,241l39.5-1.3l9.1-0.3l-3.6-2.8c0.6,3.3,1.2,6.5,1.7,9.8
		c1.5,8.3,2.9,16.6,4.3,24.9c1.9,11.3,3.7,22.5,5.4,33.8c1.9,11.9,3.6,23.9,5.2,35.9c1.4,10.5,2.6,21,3.5,31.5
		c0.5,6.8,1.3,13.8,0.5,20.6c-0.7,6.3-3,12.8-7.8,17.1c-4.2,3.8-9.9,5.5-15.5,4.8c-5.9-0.8-11.5-3.3-16-7.3
		c-0.5-0.4,0.3,0.3-0.1-0.1c-0.2-0.2-0.3-0.4-0.5-0.5l-0.4-0.4c0.2,0.2,0-0.1-0.1-0.1l-0.3-0.4c-0.6-0.8-1.2-1.6-1.7-2.5
		c-1.3-2.1-2.3-4.3-3.2-6.6c-4.5-11-6.8-22.9-8.5-34.6c-1.2-8.2-2.2-16.6-2.8-24.9c0-0.4-0.1-0.9-0.1-1.3l-3.9-2.5
		c0,0.1,0,0.3,0.1,0.4s0.1,0.6,0,0.2c0,0.3,0.1,0.5,0.1,0.8c0.3,1.5,0.5,3.1,0.8,4.6c0.8,4.9,1.5,9.9,2.3,14.8
		c1.5,10.7,3.3,21.5,3.5,32.3c0.1,1.5,0,3-0.2,4.4c-0.7,3.3-1.9,6.4-3.6,9.3c-3.1,5.7-7.9,11-14.1,13.3c-5.4,2.1-11.5,1.5-16.5-1.5
		c-2.7-1.8-5-4.1-6.8-6.8c-0.6-0.8,0.1,0.3-0.3-0.5c-0.1-0.2-0.3-0.5-0.4-0.7l-0.2-0.4c-0.2-0.4,0.1,0.2,0-0.1s-0.2-0.6-0.4-0.9
		c-2.5-6.5-2.9-13.8-3.3-20.7c-0.6-10.4-0.4-20.8,0-31.1c0.4-11.8,1.2-23.6,2.1-35.5c0.9-11.3,1.9-22.6,3.1-33.9
		c0.9-8.9,1.9-17.7,3-26.6c0.5-4.4,1.1-8.9,1.6-13.3c0-0.2,0.1-0.4,0.1-0.6C325.8,240.1,321.8,237.5,321.6,238.6z"></path><line class="st2" x1="343.2" y1="257.5" x2="364" y2="384.8"></line><path class="st0" d="M340.7,257.4l2.1,12.7l5,30.5l6,36.7l5.2,31.7l1.7,10.5c0.2,1.7,0.4,3.3,0.8,4.9c0,0.1,0,0.2,0,0.2
		c0.2,1.2,5.1,0.9,5,0.1l-2.1-12.7l-5-30.5l-6-36.7l-5.2-31.7l-1.7-10.5c-0.2-1.7-0.4-3.3-0.8-4.9c0-0.1,0-0.1,0-0.2
		C345.5,256.3,340.6,256.6,340.7,257.4L340.7,257.4z"></path><path class="st0" d="M359.8,139.6c0,0-1.1-6-18.5,3.1c0,0-95.2,57.2-23,105.2l83.2-5C467.2,253.3,421.4,160.8,359.8,139.6z"></path><path class="st0" d="M361.4,141.4c-0.6-2-1.9-3.8-3.7-4.9c-2.1-1.4-5-0.8-7.3-0.2c-4.7,1.3-9.2,3.4-13.2,6.1
		c-9.2,6-17.8,13-25.5,20.8c-9.9,10-19.2,22.4-21.5,36.7c-1.1,7.3-0.1,14.8,3.1,21.5c4.2,9.1,11.1,16.7,18.8,22.9
		c1.1,0.9,2.2,1.8,3.4,2.6l1.8,1.3c0.7,0.6,1.4,1.1,2.2,1.5c0.3,0.1,0.6,0.2,0.9,0.1l4.1-0.2l17.5-1l46-2.7l13.7-0.8
		c1.5,0,2.9,0.1,4.4,0.3c3.9,0.5,7.8,0.5,11.7,0c5.5-0.7,11-2.9,14.2-7.6c3-4.4,3.7-10,3.2-15.2c-0.7-7-3.1-13.9-6.2-20.2
		c-3.8-7.9-8.5-15.3-14-22.2C403,165,388.2,151.8,371,143c-4-2.1-8.2-3.9-12.5-5.3c-0.5-0.2,0.6,1.6,0.6,1.7
		c0.5,0.7,1.3,1.9,2.1,2.2c10.5,3.7,20.3,9.1,29.2,15.9c4.4,3.3,8.6,7,12.6,10.8c3.7,3.6,7.2,7.4,10.4,11.5c3.1,3.8,5.9,7.8,8.4,12
		c2.3,3.9,4.4,7.9,6.1,12.1c2.8,6.8,4.9,14.5,3.9,21.9c-0.7,6-4.5,11.2-10,13.7c-3.5,1.5-7.2,2.2-11,2.3c-2.5,0.1-4.9,0-7.4-0.3
		c-1.2-0.2-2.5-0.4-3.7-0.4c-4.5,0.1-9.1,0.5-13.6,0.8l-26.1,1.6l-26.9,1.6l-15.6,0.9h-0.8l0.4,0.1c-3.7-2.4-7.3-5.1-10.6-8.1
		c-1.4-1.2-2.7-2.6-4-3.9c-0.5-0.6-1-1.2-1.5-1.8c-0.2-0.3-1.1-1.4-1.3-1.6c-3.4-4.6-5.7-10-6.6-15.7c-1.7-11,2.1-21.8,7.8-31
		s13.5-17.3,21.7-24.4c5.6-4.9,11.6-9.4,17.9-13.5c2.4-1.6,5-2.9,7.7-4c2.8-1.2,6-2.5,9.1-2.4c0.8,0,1.5,0.1,2.2,0.4
		c0,0,0.4,0.3,0.5,0.3c-0.1,0.1-1.4-1.6-1.6-2c0,0.1-0.4-0.7-0.2-0.5s0-0.2,0-0.1c0.3,1,0.9,1.9,1.6,2.6
		C360,140.6,361.5,141.9,361.4,141.4z"></path><path class="st0" d="M380.3,117.2c0.6-30.5-19.3-36.8-32.9-36.4s-22,6.4-23.9,12.2c-1.5,4.4,11.1,28.1,11.1,28.1l25.3,18.5
		C359.8,139.6,379.8,140.5,380.3,117.2z"></path><path class="st1" d="M322.9,135.1c-9.1-8.8,1.8-37.1,1.8-37.1c4.9-1.1,12.8-6.1,12.8-6.1c-1.9,15,15.8,18.5,15.8,18.5
		c3.2-8.2,12.8-5.7,12.6,2.2s-7.8,9.1-7.8,9.1s4.7,19.3,4.1,22.5c0,0-12.5,9.5-21-1.6C341.3,142.7,329.1,141.1,322.9,135.1z"></path><path class="st0" d="M325.1,134.1c-4.1-4-3.8-11-3.2-16.2c0.7-5.7,2-11.4,3.9-16.8c0.4-1.2,0.8-2.4,1.2-3.6l-2.7,1.6
		c5.2-1.3,10.1-4,14.6-6.8l-3.8,0.3c-0.7,4.8,1,9.7,4.5,13.1c2.7,2.5,6,4.3,9.6,5.4c0.7,0.3,1.5,0.5,2.3,0.6
		c1.2,0.2,3.7-0.4,4.2-1.7c0.5-1.3,1.4-2.5,2.5-3.3c-0.2,0.1-0.1,0.1,0.1,0c-0.1,0.1-0.2,0.1-0.4,0.1c0.5,0-0.2,0,0.3,0
		c0.4,0,0.9,0.1,1.3,0.2c2.5,0.8,3.8,3.2,4,5.7c0.3,2.8-0.8,5.6-2.9,7.4c-0.1,0.1-0.3,0.2-0.4,0.3l-0.3,0.2c0.2-0.1,0.3-0.1,0,0
		l-0.5,0.2c0.7-0.3,0,0-0.1,0c-0.8,0.3,0.4-0.1-0.4,0.1c-0.6,0.1,0.2,0,0.2,0c-0.7,0.1-3.6,0.8-3.3,2c0.8,3.3,1.6,6.6,2.3,9.9
		c0.5,2.5,1,5,1.4,7.5c0.4,1.6,0.5,3.2,0.4,4.8l0.5-0.6c-0.3,0.2-0.1,0,0.1-0.1c-0.3,0.2-0.5,0.4-0.8,0.5s-0.8,0.4-1.1,0.6
		c0.5-0.2-0.2,0.1-0.3,0.2c-0.3,0.2-0.6,0.3-1,0.4s-0.1,0,0,0l-0.4,0.2l-0.9,0.3c0.4-0.1-0.4,0.1-0.6,0.1c-0.3,0.1-0.6,0.1-1,0.2
		c-1.4,0.2-2.9,0.1-4.3-0.3c-1.8-0.5-3.4-1.5-4.7-2.8c-0.9-0.8-1.4-2-2.6-2.2c-2.3-0.4-4.6-1-6.9-1.6c-4-1.1-7.7-3.1-10.8-5.8
		c-1-0.9-5.4,1.1-4.4,2.1c3.2,3.1,7.5,4.8,11.7,6.1c2.3,0.7,4.6,1.3,7,1.6l-0.5-0.3c3,4,7.9,6.2,12.9,5.6c3.9-0.4,7.6-1.8,10.9-3.9
		c0.7-0.4,1.7-0.9,1.9-1.7c0.1-1.2,0.1-2.5-0.2-3.6c-0.5-3.8-1.3-7.5-2.1-11.2c-0.6-2.6-1.2-5.2-1.8-7.8l-3.3,2
		c4.3-0.7,9-3.4,10.5-7.7c1-2.7,0.9-6.1-1-8.4c-1.7-2-4.4-3-7-2.5c-3.8,0.5-7.1,3-8.6,6.6l4.2-1.7c-5.5-1.1-11.5-4.5-14.1-9.7
		c-1.2-2.6-1.7-5.4-1.3-8.2c0.2-1.4-3.3,0-3.8,0.3c-3.1,2-6.3,3.7-9.8,5c-1.2,0.4-3.4,0.7-4.1,2.3c-0.3,0.8-0.6,1.7-0.9,2.6
		c-2.5,7.4-4.5,15.2-4.4,23c0,4.1,0.7,8.6,3.8,11.6C321.6,137,326,135,325.1,134.1z"></path><path class="st0" d="M345.9,121.7c0.2,0.6,0.3,1.1,0.4,1.7l-0.1-0.5c0.1,0.9,0.1,1.7,0,2.6l0.1-0.5c-0.1,0.4-0.2,0.8-0.4,1.1
		l0.3-0.5c-0.1,0.2-0.3,0.4-0.5,0.6l0.4-0.4c-0.1,0.1-0.3,0.3-0.5,0.3l0.5-0.3c-0.2,0.1-0.4,0.2-0.6,0.2l0.6-0.1
		c-0.3,0.1-0.5,0.1-0.8,0.1h0.7c-0.4,0-0.8-0.1-1.2-0.2l0.7,0.2h-0.2c-0.6-0.2-1.3-0.2-1.9,0c-0.5,0.2-1,0.6-1.2,1.1
		c-0.2,1.2,0.5,2.4,1.7,2.7c1.5,0.5,3.1,0.5,4.6,0c1.1-0.5,2-1.4,2.4-2.5c0.5-1.7,0.5-3.4,0-5.1c-0.1-0.3-0.2-0.7-0.3-1
		c-0.2-0.6-0.6-1-1.1-1.4c-0.6-0.3-1.2-0.5-1.9-0.4c-0.6,0.1-1.1,0.3-1.5,0.8c-0.3,0.4-0.4,1-0.3,1.6L345.9,121.7z"></path><path class="st1" d="M330.4,113.1c-2.7,2.3-5.7,4.1-9,5.5c-10.9,4.9-11.1,9.2-7,10.5s19.1-4.5,19.1-4.5"></path><path class="st0" d="M328.5,111.9c-0.3,0.3,0.4-0.3,0.3-0.2s-0.4,0.3-0.6,0.5c-0.7,0.5-1.4,1-2.1,1.5c-2.4,1.5-4.9,2.8-7.5,4
		c-2.4,1.1-4.7,2.6-6.7,4.4c-1.2,1.1-2.1,2.5-2.4,4.1c-0.5,3.3,2.9,5.1,5.7,5.2c3.8,0.1,7.6-1.2,11.2-2.3c2.6-0.8,5.2-1.7,7.7-2.7
		c1-0.4,2-1.7,1.5-2.8s-2-1.3-3.1-0.9c-1.8,0.7-3.7,1.4-5.6,2l-2.5,0.8l-0.6,0.2h-0.2l-1.3,0.4c-1.6,0.4-3.3,0.8-4.9,1l-0.5,0.1
		c-0.1,0-0.7,0-0.3,0s-0.1,0-0.2,0H316h-0.4c-0.4,0-0.1-0.1,0.1,0c-0.3-0.1-0.5-0.1-0.8-0.1c-0.1,0,0.4,0.2,0,0l-0.3-0.2l-0.3-0.2
		c0.3,0.2,0.3,0.3,0.1,0c0-0.1-0.1-0.2-0.2-0.2s0.4,0.3,0.1,0.1c-0.1,0,0-0.2-0.1-0.3c0.1,0.1-0.1,0.4,0,0.1c0,0,0-0.6,0-0.1
		s0,0,0-0.1s0.1-0.5,0-0.1s0-0.1,0.1-0.2s0.1-0.2,0.2-0.4c0.2-0.3-0.3,0.3,0,0s0.5-0.6,0.8-0.9c0.1-0.1,0.4-0.4,0.1-0.1
		c0.2-0.2,0.3-0.3,0.5-0.4c0.4-0.3,0.9-0.6,1.3-0.9c1-0.7,2.1-1.3,3.2-1.8c4-2,8.1-3.9,11.5-7c0.8-0.7,0.8-1.9,0.1-2.6
		c-0.1-0.1-0.2-0.2-0.3-0.3c-1.2-0.6-2.6-0.3-3.4,0.6L328.5,111.9z"></path><path class="st0" d="M336.9,109.8c-0.9,0.1-1.5,1-1.4,1.8c0,0.1,0,0.2,0.1,0.2c0.5,1.7,2.6,1.1,2.7-0.5c0.1-0.7-0.4-1.5-1.1-1.6
		C337,109.8,337,109.8,336.9,109.8z"></path><path class="st0" d="M324.9,109.3c-0.9,0.1-1.5,1-1.4,1.8c0,0.1,0,0.2,0.1,0.3c0.5,1.7,2.6,1.1,2.7-0.5c0.1-0.8-0.4-1.5-1.2-1.6
		C325,109.3,324.9,109.3,324.9,109.3z"></path><path class="st0" d="M369.4,125.9c2.7,6,10.1,17.2,17.7,10.9c3.7-3.1,6.5-9.5,3-13.7c-2.6-3.2-8-3.9-10.9-0.8
		c-3.9,4.2-0.4,11.1,2.3,14.9c3.3,4.6,8.4,8.8,14,10c2.3,0.6,4.7,0.2,6.6-1.2c1.7-1.6,2.5-4,2.1-6.4c-0.5-4.1-4.1-6.7-7.9-7.6
		c-3.3-0.8-7.6-0.5-10,2.1c-3.3,3.6-0.7,8.6,1.8,11.8c1.1,1.4,2.3,2.6,3.5,3.8c0.9,1,2.3,1.2,3.5,0.6c1-0.5,1.3-1.8,0.7-2.7
		c-0.1-0.1-0.2-0.2-0.2-0.3c-1.9-1.7-3.5-3.7-4.9-5.8c-0.2-0.4-0.4-0.8-0.6-1.2c-0.1-0.2-0.2-0.4-0.2-0.6c0.1,0.4,0-0.1,0-0.2
		c-0.1-0.3-0.1-0.6-0.1-1c0-0.1-0.1,0.4,0,0c0-0.1,0-0.3,0.1-0.5s0.1-0.3,0.1-0.4c-0.1,0.4-0.1,0.3,0,0c0.1-0.1,0.1-0.2,0.2-0.3
		c0.2-0.4-0.2,0.2,0,0s0.3-0.4,0.5-0.5c-0.5,0.5,0.1,0,0.3-0.2s0.6-0.2,0,0c0.1,0,0.2-0.1,0.4-0.1l0.9-0.2c0.1,0-0.5,0.1,0,0
		l0.5-0.1c0.3,0,0.7,0,1,0c0.6,0,0,0,0,0h0.5c0.3,0,0.7,0.1,1,0.2l0.5,0.1c0.4,0.1-0.5-0.2,0,0s0.7,0.2,1,0.4l0.4,0.2
		c0.4,0.2-0.4-0.3,0,0s0.6,0.4,0.8,0.6l0.4,0.3c0.1,0.1-0.3-0.4,0,0s0.5,0.5,0.7,0.8c0.1,0.1-0.2-0.4,0,0c0.1,0.1,0.1,0.3,0.2,0.4
		c0.1,0.1,0.1,0.3,0.2,0.4s0-0.3,0,0.1c0.1,0.7,0.1,1.4,0,2.1c0,0.2-0.1,0.6,0,0.2c-0.1,0.2-0.1,0.3-0.2,0.5s-0.2,0.4,0,0.1
		c-0.1,0.1-0.2,0.3-0.4,0.4h-0.1c-0.4,0.2,0.4-0.1,0,0c-0.1,0.1-0.3,0.1-0.5,0.1c0.5-0.1,0.2,0-0.1,0h-0.5c-0.1,0,0.4,0.1-0.1,0
		s-0.9-0.1-1.4-0.2h0.1l-0.3-0.1l-0.6-0.2c-0.5-0.2-1-0.4-1.5-0.6c-1.9-1-3.6-2.3-5.2-3.8c-1.8-1.7-3.3-3.7-4.4-5.9
		c-0.6-1-1-2.1-1.3-3.3c-0.1-0.5-0.2-1-0.2-1.4c0-0.1,0-0.7,0-0.3c0-0.2,0-0.5,0.1-0.7c0-0.2,0.1-0.4,0.1-0.6c0.1-0.4-0.1,0.3,0-0.1
		c0.1-0.1,0.1-0.3,0.2-0.4c0.1-0.3-0.3,0.2,0.1-0.1c0.1-0.1,0.2-0.2,0.3-0.3c0.3-0.3-0.1,0.1,0,0l0.4-0.2c0.2-0.2-0.5,0.2-0.2,0.1
		l0.3-0.1l0.4-0.1c0.1,0-0.5,0-0.1,0c0.1,0,0.3,0,0.4,0c0,0-0.5-0.1,0,0c0.3,0.1,1,0.3,0.4,0c0.2,0.1,1.1,0.6,0.5,0.2
		c0.3,0.2,0.5,0.3,0.7,0.5c-0.5-0.4,0.2,0.2,0.3,0.4s-0.1-0.3,0,0.1c0.1,0.2,0.2,0.3,0.2,0.5c0.2,0.4,0-0.3,0,0.1
		c0,0.2,0.1,0.4,0.1,0.6s0,0.6,0,0.4s0,0.3,0,0.4c0,0.5-0.2,1-0.3,1.4c0.1-0.2-0.2,0.4-0.2,0.5c-0.1,0.2-0.2,0.5-0.3,0.7
		c-0.2,0.6-0.5,1.2-0.8,1.7c-0.5,0.8-1.2,1.5-2,2c-0.4,0.2,0.2-0.1-0.2,0.1c-0.2,0.1-0.3,0.1-0.5,0.2c0.5-0.1,0.1,0.1-0.1,0
		c-0.3-0.2,0.4,0.1-0.1,0c-0.1,0-0.7-0.1-0.3,0s-0.2-0.1-0.3-0.1s-0.4-0.2-0.6-0.3c-0.4-0.2,0.2,0.2-0.2-0.1s-0.6-0.5-1-0.7
		l-0.3-0.3l-0.4-0.4c-0.6-0.7-1.2-1.4-1.8-2.1c-0.3-0.3-0.5-0.7-0.7-1c-0.1-0.2-0.2-0.4-0.3-0.5c-0.2-0.3,0.1,0.2-0.2-0.3
		c-0.7-1.1-1.3-2.2-1.9-3.4c-0.1-0.2-0.2-0.4-0.3-0.6c-1.1-2.5-5.9-1.3-4.6,1.5L369.4,125.9z"></path><path class="st3" d="M331.3,145.3c-16.9,0-34.4,19.9-34.4,19.9c-2.3-1.3-4.6-2.4-7.1-3.4c-3.7-1.4-6.8,2.4-6.8,2.4
		S168.8,81.9,162,80.9s-10.8,7.4-10.1,9.8s15.9,10.1,15.9,10.1S158,113,158,114.7s2.7,5.4,6.1,5.7s14.2-10.8,14.2-10.8l8.8,7.1
		c0,0-5.4,9.1-5.7,12.5c-0.3,3.4,2,4.4,4.1,5.1s11.1-10.4,11.1-10.4l80.9,52.6c0,0-3.7,2.7-2.4,6.1s11.1,4.7,11.1,4.7
		c-7.8,14.8-8.2,49.9,20.8,61.7c29,11.8,59.4-21.6,62.4-54S348.2,145.3,331.3,145.3z M355.3,210.1c-14.5,36.8-51.5,37.3-61.7,6.4
		s23.3-54,23.3-54C338.4,146.7,369.8,173.3,355.3,210.1z"></path><path class="st3" d="M333.2,143.9c-7.4,0.1-14.4,3.5-20.5,7.4c-5.4,3.5-10.4,7.6-15,12.1c-0.9,0.9-1.9,1.9-2.7,2.9l4-2.4
		c-1.1-0.7-2.3-1.3-3.5-1.8c-1.8-0.9-4-2.1-6.1-1.8c-3.1,0.4-6.3,2.8-8.3,5.1l4-2.4c-1.5-1.1-3-2.1-4.4-3.2c-4-2.8-7.9-5.7-11.9-8.5
		c-5.7-4-11.3-8.1-17-12.1c-6.7-4.7-13.3-9.4-20-14.2c-6.9-4.9-13.8-9.7-20.8-14.6c-6.5-4.5-12.9-9-19.4-13.4
		c-5.2-3.6-10.4-7.1-15.7-10.5c-3.2-2.1-6.5-4.2-9.9-6c-1-0.6-2.1-1-3.3-1c-2.9,0-5.6,1.8-7.8,3.5c-1.9,1.5-3.4,3.3-4.4,5.5
		c-0.5,1.1-1.2,2.8-0.6,4s2.1,2,3.1,2.7c3.4,2.2,6.8,4.2,10.4,6c0.7,0.4,1.4,0.8,2.2,1.1l0.1-0.4c-1.6,1.9-3.1,3.9-4.6,5.9
		c-1.1,1.5-2.2,3-3.3,4.5c-0.8,1-1.5,2.1-2,3.3c-0.4,1.4,0.9,3.1,1.8,4c1.3,1.3,3.4,2.7,5.3,2.2c1.8-0.6,3.4-1.4,4.9-2.6
		c1.7-1.2,3.4-2.5,5-3.9c2.4-2,4.6-4.2,6.8-6.4l-3.7,2.2l7.2,5.9c0.4,0.3,0.9,0.7,1.3,1.1c0.1,0.1,0.2,0.2,0.2,0
		c0,0.1-0.2,0.3-0.2,0.4c-0.9,1.5-1.8,3-2.5,4.6c-1.6,3.2-5.4,9.3-0.9,11.9c0.7,0.5,1.5,0.8,2.3,0.9c0.7-0.1,1.5-0.4,2.1-0.8
		c2-1.2,3.9-2.6,5.6-4.3c2.5-2.5,4.9-5.1,7.1-7.8l-4,2.4l8,5.2l19.4,12.6l23.3,15.2l20.3,13.2l6.7,4.3c1,0.8,2,1.5,3.2,2.1
		c0,0,0.1,0.1,0.1,0.1l1.3-1.4c-2.4,1.8-5.8,5.9-2.7,8.7c2.4,2.2,6.4,2.9,9.5,3.4c0.3,0,0.6,0.1,0.9,0.1c-0.1-0.2-0.9,1.5-1,1.7
		c-0.6,1.4-1.1,2.8-1.5,4.3c-1,3.3-1.6,6.7-1.9,10.2c-1.3,16.2,4.5,33.3,18.8,42.3c8.1,5.2,17.9,6.9,27.2,4.7
		c10-2.5,19.2-8.9,26.2-16.3c14.4-15.1,23.4-38,18.4-58.9c-3.7-15.6-16.3-29.4-32.5-32.1C336.5,144,334.9,143.9,333.2,143.9
		c-0.9,0-1.9,0.9-2.7,1.4c-0.2,0.1-1.6,1.4-1.1,1.4c13,0.1,25.2,8.8,31.7,19.6c9.4,15.6,7.7,35.2,0.4,51.2
		c-6.8,15-19.5,30.2-36.8,32c-15.9,1.7-30.8-8.8-37-23.1c-5-11.9-5.4-25.2-1-37.3c0.4-1.1,0.9-2.3,1.5-3.4c0.1-0.1,0-0.2-0.1-0.2
		c-2.8-0.3-5.6-1.1-8.2-2.3c-1.5-0.8-3-1.8-3.1-3.7c0-1,0.4-2.1,1-2.9c0.2-0.3,0.5-0.5,0.7-0.8c-0.3,0.3-0.1,0,0,0s-0.5,0.4-0.3,0.2
		s1.5-1.2,1.3-1.4l-8-5.2L252,157.1L228.7,142l-20.3-13.2l-6.6-4.3c-1-0.8-2-1.5-3.2-2.1l-0.1-0.1c-0.4-0.3-1.5,0.5-1.8,0.7
		c-0.8,0.5-1.6,1.1-2.2,1.8c-0.9,1.2-1.9,2.3-2.9,3.4s-1.7,1.9-2.6,2.8c-0.4,0.5-0.9,0.9-1.4,1.4l-0.5,0.4l-0.6,0.5
		c0.2-0.1-0.5,0.3,0.1,0c0.1-0.1,0.9-0.6,0.7-0.4c0.2-0.2,0.3,0,0.1-0.1s-0.6-0.2-0.9-0.3c-1.4-0.4-2.5-1.5-3-2.9
		c-0.8-2.6,1.1-5.8,2.3-8.1c1-2.1,2.1-4.1,3.3-6.1v-0.2l-8.8-7.1c-0.7-0.6-3.3,1.7-3.7,2.1c-1.4,1.5-2.9,2.9-4.5,4.3
		c-1.2,1.1-2.6,2.3-3.8,3.2l-0.5,0.4c-0.4,0.3,0.5-0.3-0.1,0.1l-0.4,0.3c0.5-0.3-0.1,0.1-0.2,0.1c-0.3,0.2,0.1,0-0.1,0.1
		c-0.2,0.1-0.4,0.2-0.6,0.2c-1.8,0.2-3.7-1.2-4.8-2.5c-0.7-0.9-1.9-2.3-1.4-3.5c0.5-1,1.1-2,1.8-2.9c0.9-1.4,1.9-2.7,3-4.1
		c1.6-2,3.1-4.1,4.7-6.1c0.1-0.1,0.2-0.2,0.1-0.4c-2.4-1.2-4.8-2.5-7.1-3.8c-1.8-1-3.6-2.1-5.4-3.3c-1.2-0.7-2.3-1.5-3.2-2.6
		c-0.7-1.1,0.1-2.8,0.6-3.9c0.4-0.8,0.9-1.6,1.4-2.4c0.3-0.3,0.5-0.6,0.9-0.9c-0.3,0.3-0.3,0.2,0.1,0c1.5-0.5,3.1-0.3,4.4,0.4
		c3.2,1.7,6.3,3.6,9.3,5.6c5,3.2,10,6.6,14.9,9.9c13.1,8.9,26,17.9,38.9,27c12.4,8.8,24.8,17.5,37.2,26.4c4.2,3,8.4,6,12.7,9.1
		c1.3,1,2.7,1.9,4.1,2.9c0.7,0.5,1.4,1.1,2.1,1.5c0.1,0.1,0.2,0.1,0.3,0.2c0.4,0.3,1.5-0.5,1.8-0.7c0.8-0.5,1.6-1.1,2.2-1.8
		c0.2-0.2-0.2,0.2,0.1-0.1s-0.2,0,0.2-0.2c-0.1,0.1-0.6,0.5-0.6,0.4c0.5-0.2,1-0.3,1.5-0.3c0.8,0,1.6,0.2,2.4,0.6
		c2.2,0.8,4.2,1.8,6.2,3c0.4,0.2,1.5-0.5,1.8-0.7c0.8-0.5,1.6-1.1,2.2-1.8l0.1-0.1l0.1-0.1c0.4-0.4,0.8-0.9,1.3-1.3
		c1.5-1.5,2.9-2.9,4.5-4.2c4.2-3.8,8.9-7,14.1-9.3c3.3-1.5,6.9-2.2,10.5-2.3c0.9,0,2-0.9,2.7-1.4
		C332.3,145.2,333.8,143.9,333.2,143.9z"></path><path class="st3" d="M353.2,211.3c-3.2,8-8.1,16.2-15.1,21.2c-0.3,0.2-1.1,0.7-1.6,1s-1.2,0.7-1.9,1c-1.5,0.7-3.1,1.3-4.7,1.7
		c-3.2,0.9-6.5,1.1-9.8,0.8c-15.7-1.7-25.7-17.4-26.3-32.2c-0.7-15,8.2-28.6,18.9-38.4c-0.3,0.2,0.3-0.3,0.4-0.4l0.6-0.6
		c0.4-0.4,0.9-0.7,1.3-1.1l0.5-0.4l0.2-0.2c0.2-0.2-0.5,0.4-0.1,0.1s0.6-0.5,0.9-0.7s1.5-1,0.5-0.4c0.7-0.5,1.5-1,2.3-1.5
		c6-3.1,13.4-2.8,19.4,0.1c6.6,3.2,11.9,8.7,14.8,15.5c3.8,8.3,4.1,17.8,2.1,26.6C355,206.3,354.2,208.8,353.2,211.3
		c-0.2,0.5,1.7-0.5,1.8-0.5c0.7-0.4,2-1.1,2.4-2c3.7-9.4,5-19.8,2.2-29.6c-2.1-7.8-7-14.5-13.8-18.9c-6.1-3.9-13.6-4.9-20.5-2.7
		c-2,0.7-4,1.6-5.8,2.7c-1.1,0.6-2.1,1.3-3.1,2.1c0.6-0.4,0.3-0.2,0.2-0.1c-1.4,1-2.7,2-4,3.1c-11.1,9.2-21.2,22.1-22.6,36.9
		c-1.6,15.7,7.5,33.9,23.9,37.3c16.8,3.5,32.7-9.8,40.3-23.6c1.3-2.3,2.4-4.7,3.4-7.2c0.2-0.6-1.7,0.4-1.8,0.5
		C354.8,209.8,353.5,210.5,353.2,211.3z"></path><path class="st1" d="M368.3,204.4c0,0-13.3-11.2-18.8-13.9s-7.5,2.6-2.5,9.2c0,0-4.8-4.3-6,1.7s5.8,14.1,5.8,14.1
		s-11.3-5.8-12.3-1.3s62,29.5,67.1,28.7s7.2-32.9,5.3-35s-30.8-4.5-30.8-4.5l-1.9-6.5"></path><path class="st0" d="M370,203.5c-3.4-2.8-6.9-5.6-10.4-8.3c-2.4-1.9-4.9-3.6-7.5-5.2c-2.5-1.5-6.5-3.3-9.1-0.9
		c-3.1,2.9,0,8.4,1.9,11.1l3.8-1.3c-1.5-1.4-3.5-2.3-5.5-2.4c-3.3,0-4.7,3.1-4.7,6c0,3.2,1.5,6.3,3.1,9c0.9,1.6,2,3.1,3.2,4.5
		l3.2-1.7c-2.4-1.3-5-2.3-7.6-3c-1.7-0.6-3.6-0.7-5.4-0.4c-1.4,0.3-2.9,1.3-2.9,2.9c0,1.4,1.3,2.5,2.3,3.2c1.7,1.3,3.5,2.4,5.3,3.4
		c12,6.5,24.8,11.6,37.5,16.5c5.6,2.2,11.3,4.3,17.1,6.1c1.9,0.6,3.8,1.1,5.7,1.5c1.7,0.3,3.4,0.4,4.7-0.9c1.6-1.7,2.3-4.4,2.8-6.6
		c0.8-3.5,1.4-7,1.8-10.6c0.4-3.5,0.6-7,0.7-10.6c0.2-2.4,0-4.8-0.5-7.2c-0.6-2.3-3-2.9-5-3.4c-2.9-0.7-5.9-1.2-8.9-1.5
		c-6.3-0.9-12.6-1.5-19-2l-1.2-0.1l3,1.8l-1.9-6.5c-0.6-2-5.4-2.6-4.6,0l1.9,6.5c0.4,1.2,1.9,1.7,3,1.8l1.1,0.1l1.2,0.1l0.8,0.1
		c-0.7-0.1,0.4,0,0.6,0.1c3,0.3,6.1,0.6,9.1,0.9c3.3,0.4,6.6,0.8,10,1.3c1.3,0.2,2.7,0.4,4,0.7l1.5,0.4c-0.9-0.2,0.4,0.2,0.6,0.2
		c0.5,0.1-0.6-0.4-0.2-0.1c0,0-0.5-0.5-0.6-0.5s-0.1-0.5-0.1-0.1c0,0.2,0.1,0.3,0.1,0.5c-0.1-0.6,0.1,0.4,0.1,0.7
		c0.1,0.6,0.1,1.1,0.1,1.6c0.1,2.9,0,5.7-0.2,8.6c-0.4,6.2-0.9,12.8-3.1,18.7c-0.2,0.5-0.4,0.9-0.6,1.4c-0.1,0.2-0.2,0.4-0.3,0.6
		c-0.2,0.4,0.1-0.2,0,0s-0.1,0.2-0.2,0.3l-0.4,0.4c-0.3,0.3,0.3-0.1,0,0c-0.5,0.2,0.6-0.1,0.3,0c-0.7,0.1,0.4,0.1,0,0
		c-0.3-0.1-0.5-0.1-0.8-0.1c-0.7-0.1-1.4-0.3-2.1-0.5c-0.2-0.1-1-0.3-0.1,0l-0.7-0.2l-1.5-0.4c-1.1-0.4-2.3-0.7-3.4-1.1
		c-2.7-0.9-5.4-1.9-8.1-2.9c-12.4-4.6-24.7-9.6-36.6-15.3c0.6,0.3-0.4-0.2-0.5-0.3l-0.9-0.4c-0.6-0.3-1.1-0.6-1.7-0.9
		c-1-0.5-2-1.1-3-1.6s-1.7-1-2.5-1.5c-0.3-0.2-0.6-0.4-0.9-0.6s0.5,0.4,0,0l-0.4-0.3c-0.2-0.2-0.4-0.4-0.5-0.5
		c0.6,0.5,0.2,0.3,0.1,0.1c-0.2-0.4,0.1,0.2,0,0.1c-0.1-0.4,0.1,0.5,0,0.1c0.1,0.6,0,0.1,0.2-0.2c-0.2,0.3,0.1,0,0.1-0.1
		c-0.2,0.2,0,0,0.1,0c-0.5,0.2,0.7-0.1,0.1,0c0.3,0,0.6,0,0.9,0c0.4,0-0.6-0.1,0.1,0l0.4,0.1c0.5,0.1,0.9,0.2,1.4,0.3
		c0.7,0.2-0.3-0.1,0.2,0l0.6,0.2c0.4,0.1,0.8,0.2,1.1,0.4c0.7,0.2,1.4,0.5,2,0.8c0.5,0.2,1,0.4,1.5,0.7s-0.6-0.3,0,0
		c0.9,0.6,1.9,0.7,2.9,0.3c0.6-0.3,0.9-1.1,0.5-1.7c0-0.1-0.1-0.2-0.2-0.3c-2.5-2.8-4.4-6.2-5.4-9.8c-0.3-1.1-0.3-2.2-0.1-3.3
		c0.1-0.6,0.3-1.1,0.6-1.6c0.1-0.1,0.4-0.4,0.3-0.4s0.1-0.1,0.2,0s-0.1,0-0.3,0h0.2c-0.4-0.1-0.4-0.1-0.1,0c0,0,0.8,0.4,0,0
		c0.1,0.1,0.3,0.1,0.4,0.2c0.1,0.1,0.2,0.2,0.4,0.2c0.4,0.2-0.4-0.3-0.1-0.1l0.3,0.2c0.8,0.8,2,1.1,3.2,0.8c0.7-0.2,1.1-0.9,0.9-1.6
		c-0.1-0.2-0.1-0.3-0.3-0.5c-1.1-1.4-1.9-3-2.3-4.7c-0.2-0.9-0.2-2.3,0.4-2.9c0.1-0.1,0.2-0.2,0.3-0.2c-0.1,0,0.1,0,0.1,0
		c0.1,0,0.1,0,0.2,0l0.8,0.3c0.6,0.3,1.8,1,2.5,1.5c4.3,2.9,8.4,6,12.3,9.3c1.1,0.9,2.1,1.7,3.2,2.6c0.9,0.9,2.2,1.1,3.4,0.7
		C371,205.3,370.8,204.1,370,203.5L370,203.5z"></path><path class="st0" d="M356.5,211l-7.4-11.1l-1.1-1.6c-0.6-0.9-2.1-1.6-3.1-1.1s-0.7,2-0.1,2.8l7.4,11.1l1.1,1.6
		c0.6,0.9,2.1,1.6,3.1,1.1S357,211.8,356.5,211L356.5,211z"></path><path class="st1" d="M279.7,201.1c0,0,16.1-4.1,18.4,0c1.4,2.5-1.6,6.5-1.6,6.5s6.7,2,0.8,7c-5.2,4.3-16.4,5.9-16.4,5.9
		s15.4,4.4,13.6,9.4c-2.2,6.3-19.7-0.6-21.9-2.6c-5.2-4.9-13.3-19.2,9.8-39.7"></path><path class="st0" d="M280.4,201.4l1.1-0.3l1.1-0.2l0.3-0.1l0.8-0.2c2.2-0.5,4.5-0.7,6.7-0.8c1.5,0,3.9,0,5,1.3
		c1.5,1.9-0.2,5-1.4,6.6c-0.1,0.1-0.1,0.2,0,0.3c1.2,0.3,2.3,1.1,2.9,2.1c1.1,2.6-2.5,5-4.4,6c-2.5,1.3-5.1,2.3-7.8,2.9
		c-0.6,0.1-1.1,0.3-1.7,0.4c-0.1,0-0.2,0.1-0.3,0.1l-0.6,0.1c-0.3,0.1-2.2,0.4-0.8,0.1c-0.9,0.1-1.7,0.3-2.5,0.6
		c-0.4,0.2-0.7,0.4-0.1,0.6c0,0-0.2-0.1,0.2,0.1l1.2,0.4c1.2,0.4,2.4,0.8,3.5,1.3c2.6,1,5.5,2.3,7.5,4.4c0.7,0.7,1.1,1.7,1,2.6
		c-0.1,0.5-0.3,1-0.6,1.3c-0.2,0.2-0.3,0.3-0.5,0.5c-0.1,0.1-0.2,0.1-0.3,0.2c-0.1,0,0,0,0,0s-0.3,0.1,0,0c0,0,0.7-0.2,0.4-0.1
		s0.4,0-0.1,0h-0.2c-0.7,0-1.4,0-2.1-0.1c-1.6-0.2-3.2-0.6-4.8-1c-2.7-0.7-5.4-1.8-7.9-3.2c-1.3-0.9-2.5-2-3.3-3.3
		c-2.6-3.8-3.8-8.5-3.2-13.1c1.1-9.6,8.4-17.6,15.3-23.8c0.5-0.4-1.7-0.3-1.8-0.3c-1.1,0-2.1,0.3-3,0.9c-6.8,6-13.6,13.7-15.2,22.9
		c-0.9,5,0.2,10.2,3.1,14.4c0.9,1.4,2.2,2.7,3.7,3.6c2.8,1.5,5.7,2.6,8.7,3.4c3.5,1.1,7.3,1.3,10.9,0.8c2.3-0.4,6.6-1.6,5.8-4.9
		c-0.7-2.9-4.9-4.7-7.3-5.8c-2.2-1-4.4-1.8-6.7-2.4l-2.6,1.2c4.1-0.6,8.2-1.6,12.2-3c2.6-0.8,4.9-2.1,7.1-3.7
		c1.5-1.2,3.6-3.5,2.1-5.5c-0.8-0.8-1.7-1.4-2.8-1.8c0.2,0.1-0.1,0.3,0.2,0.1c0.1-0.1,0.2-0.2,0.2-0.4c0.3-0.4,0.5-0.8,0.8-1.3
		c0.6-1.1,1-2.4,0.9-3.6c-0.4-4.1-7.4-3.3-10.2-3.1c-4,0.3-7.9,1-11.8,2c-0.3,0.1-2,0.4-1.6,0.9S280.1,201.5,280.4,201.4
		L280.4,201.4z"></path><path class="st0" d="M295.9,205.7c-0.9-0.2-1.9-0.1-2.8,0.2c-1.3,0.3-2.5,0.6-3.8,1c-2.9,0.8-5.8,1.6-8.7,2.4
		c-0.8,0.2-1.5,0.5-2.3,0.6c-0.8,0.1-1.4,0.9-1.3,1.7c0,0.2,0.1,0.4,0.2,0.6c0.7,1.1,1.9,1.7,3.2,1.5c0.6-0.1,1.2-0.3,1.8-0.5
		l3.8-1.1c2.8-0.8,5.7-1.6,8.5-2.3c0.5-0.1,1-0.3,1.6-0.4l0.5-0.1c0.1,0,0.1,0,0.2,0c-0.3,0.1-0.7,0-1-0.1c1,0.3,2.4,0,2.5-1.2
		S297,206,295.9,205.7L295.9,205.7z"></path><path class="st3" d="M153.5,173.6c-17.1,10.4-25.7,31.5-22.9,51c3,20.9,17.7,40.3,36.7,49.4c10.1,4.8,21.5,6.2,31.9,1.6
		c5-2.4,9.6-5.6,13.7-9.4c4-3.5,7.6-7.4,10.8-11.7c3.1-4.2,5.5-8.9,7.1-13.9c0.7-2.5,1.1-5,1.2-7.6c0.1-2.5-0.1-5.1-2-7.1
		c-2-2.1-5.2-2.5-7.6-0.9c-2.2,1.4-3.6,3.9-4.6,6.3c-1.9,4.9-2.1,10.3-0.6,15.4c1.6,5.4,4.4,10.3,8.3,14.4c3.7,4.1,8,7.7,12.7,10.5
		c4.8,2.8,10.4,4.9,16,4.4c4.7-0.4,9.1-2.6,12.2-6.1c1.4-1.7,2.4-3.8,2.8-6c0.4-2.1-4-4.4-4.5-2c-0.8,4.1-3.7,7.1-7.4,8.8
		c-4,1.8-8.6,1.9-12.8,0.3c-4.5-1.7-8.6-4.3-12.1-7.7c-3.6-3.1-6.7-6.9-9-11.1c-2.2-4.2-3.1-9-2.6-13.7c0.3-2.3,1-4.6,2.1-6.6
		c0.7-1.3,2.4-4.1,4.3-3.8c-0.4-0.1-0.2-0.4-0.1,0.2c0,0.4,0.2,0.8,0.2,1.1c0.1,1.1,0.1,2.2,0,3.2c-0.2,2.3-0.7,4.6-1.4,6.9
		c-1.5,4.5-3.8,8.7-6.6,12.4c-2.9,3.8-6.2,7.4-9.8,10.6c-3.7,3.5-7.8,6.4-12.3,8.8c-8.9,4.5-18.9,3.8-27.9-0.1
		c-16.8-7.4-30-24.1-33.7-42.1c-3.6-17.3,2.1-36.5,15.8-48c1.7-1.4,3.5-2.7,5.4-3.9C159,175.9,155.4,172.5,153.5,173.6L153.5,173.6z
		"></path><path class="st3" d="M272.1,254.6v-5.7c-0.1-0.6-0.4-1.1-0.9-1.4c-1.1-0.7-2.6-0.6-3.5,0.3c-0.4,0.4-0.6,1-0.6,1.5v5.6
		c0.1,0.6,0.4,1.1,0.9,1.4c0.5,0.4,1.2,0.5,1.8,0.5c0.6-0.1,1.2-0.3,1.7-0.8C271.9,255.7,272.1,255.1,272.1,254.6L272.1,254.6z"></path></g></svg>