<svg transform="scale(1)" id="T1tgdbktkc" data-name="0081_under_constructions" xmlns="http://www.w3.org/2000/svg" viewBox="0 0 500 500" class="pbimage_pbimage__wrapper__image__0LEis false"><title>Under Constructions</title><defs><style> .cls-1{fill:#fff;} .cls-2{fill:#111;} .cls-3{fill:#128fff;}
 .cls-3{fill:#37003c;}
 .cls-2{fill:#d10f0f;}
 .cls-1{fill:#FFFFFF;}</style></defs><g id="shadow"><path class="cls-1" d="M13.42,424.33A7.41,7.41,0,0,0,17.1,437.9c32.71,1.92,66.47-11,99.09-5.13,18.19,3.29,36.22,12.39,54.29,8.45,9.9-2.16,18.5-8,27.62-12.48,28.09-13.67,61.06-13.45,91.84-8.09s60.59,15.49,91.38,20.82,63.76,5.53,91.83-8.2c10.05-4.91,20.53-15,16.71-25.56-3.12-8.6-13.74-11.32-22.81-12.49a395.48,395.48,0,0,0-63-3.06c-17.71.56-35.56,2.3-53.07-.39-14.72-2.25-28.75-7.57-43.06-11.67-37.68-10.8-78.42-13.09-116-1.94-22.54,6.68-43.4,18-65.21,26.72-22.94,9.21-45.33,13.39-70,11.42C41.4,415.07,25.65,416,13.42,424.33Z" fill="#FFFFFF"></path><path class="cls-2" d="M417.68,445.56a213.66,213.66,0,0,1-36.49-3.35c-15.45-2.68-30.89-6.62-45.83-10.44s-30.21-7.72-45.55-10.38c-36.61-6.37-67.36-3.67-91.38,8-2.54,1.23-5.09,2.61-7.56,3.94-6.39,3.45-13,7-20.23,8.6-12.65,2.76-25.43-.83-37.79-4.29-5.5-1.55-11.2-3.15-16.8-4.16-18.12-3.27-37-.64-55.17,1.9-14.42,2-29.34,4.09-43.83,3.24A8.16,8.16,0,0,1,13,423.71h0c10.49-7.11,24.42-9.7,43.83-8.16,23.52,1.88,45.65-1.73,69.64-11.36,7.74-3.11,15.5-6.6,23-10,13.62-6.13,27.71-12.46,42.28-16.78,35.26-10.46,75.51-9.79,116.42,1.94,4.07,1.17,8.19,2.45,12.17,3.7,10,3.12,20.32,6.35,30.79,7.95,13.75,2.11,28,1.47,41.72.84,3.68-.17,7.48-.34,11.22-.46a398.22,398.22,0,0,1,63.08,3.06c8.42,1.09,20,3.62,23.42,13,3.84,10.58-6.16,21.16-17.09,26.5C457.66,441.68,439,445.56,417.68,445.56Zm-164.27-29a214.9,214.9,0,0,1,36.66,3.38c15.39,2.68,30.78,6.61,45.66,10.41s30.32,7.75,45.72,10.41c36.61,6.35,67.35,3.61,91.37-8.13,10.34-5.06,19.87-14.92,16.34-24.64C486,399.37,475,397,467,396a396.38,396.38,0,0,0-62.84-3c-3.73.12-7.53.29-11.21.46-13.82.63-28.11,1.28-42-.86-10.58-1.62-21-4.86-31-8-4-1.24-8.08-2.53-12.14-3.69-40.62-11.65-80.59-12.32-115.58-1.94-14.47,4.29-28.51,10.6-42.09,16.71-7.51,3.38-15.28,6.87-23.06,10-24.2,9.72-46.54,13.36-70.31,11.47C37.66,415.53,24,418,13.84,425h0a6.56,6.56,0,0,0-2.73,7.34,6.49,6.49,0,0,0,6,4.86c14.34.84,29.18-1.23,43.53-3.23C79,431.36,98,428.72,116.32,432c5.67,1,11.4,2.63,16.94,4.18,12.18,3.42,24.77,6.95,37.06,4.27,7-1.53,13.54-5.05,19.84-8.45,2.48-1.34,5-2.72,7.61-4C213.55,420.38,232.18,416.53,253.41,416.53Zm-240,7.8h0Z" fill="#d10f0f"></path><path class="cls-3" d="M68.24,395.59A16.61,16.61,0,0,0,62,397.85c-1.82,1.29-3.13,3.55-2.64,5.72.7,3.15,4.46,4.41,7.65,4.93A85.41,85.41,0,0,0,101.16,407c4.1-1,25.87-6.53,25.08-12.43C124.64,382.49,73.82,394.39,68.24,395.59Z" fill="#37003c"></path><path class="cls-3" d="M230.53,432.79a12.11,12.11,0,0,0-5.17,2.66c-1.37,1.4-2,3.7-1,5.35s3.4,2.08,5.43,2.27l78.6,7.11c3.32.3,6.77.58,9.89-.59s5.79-4.28,5.32-7.58c-.66-4.61-6.26-6.39-10.85-7.18C285.71,430.17,257.51,424.35,230.53,432.79Z" fill="#37003c"></path></g><g id="text"><path class="cls-2" d="M111.73,77.52c-11.39,1.36-23.8,3.38-31.41,12-6.67,7.53-8,18.26-8.77,28.29a781.52,781.52,0,0,0,2,146.14C74.64,274,76.34,285,83.7,292.05c5,4.83,12,7,18.7,8.93,79.11,22.45,162.5,25,244.68,22.17,15-.53,31.18-1.7,42.53-11.49,15.1-13,15.72-35.83,15.17-55.77q-1.77-64.14-3.55-128.28c-.54-19.37-3.35-38.63-20.63-50.44-12.38-8.47-31.11-6.33-45.37-7.07a1317.64,1317.64,0,0,0-143.18.37Q151.79,72.77,111.73,77.52Z"></path><path class="cls-2" d="M221,358.35A310,310,0,0,0,174,375.58c-4.37,2-9.5,5.83-8,10.41,1.08,3.32,5,4.56,8.45,5.27a309.81,309.81,0,0,0,125.74,0c6.67-1.39,15.1-5.79,13.26-12.35-1.16-4.1-5.84-5.91-9.91-7.14l-46.78-14.1-3.18-45.82c-9.64-1.38-26.55-8.2-31.79,3C216.69,325.64,221,346.54,221,358.35Z"></path><path class="cls-1" d="M91,126q-4,52.35-4.74,104.89c-.2,13.7.13,28.54,8.44,39.37,9,11.72,24.78,15.39,39.34,17.56,64.9,9.65,131,4.82,196.42,0,15.28-1.13,31.83-2.79,43.1-13.28,13.91-13,14.78-34.48,14.16-53.55q-1.69-52.48-8.51-104.62c-.76-5.84-1.78-12.1-5.88-16.29-5.16-5.28-13.4-5.53-20.76-5.43-78.61,1-157.34,1.13-235.89,2.16C99.53,97,92.27,109.62,91,126Z"></path><path class="cls-1" d="M320.73,300.44a7.54,7.54,0,1,0,13.41,6.81C337.79,298.79,325.49,292.34,320.73,300.44Z"></path><path class="cls-1" d="M342.2,298.75a7.54,7.54,0,1,0,13.42,6.8C359.26,297.09,347,290.65,342.2,298.75Z"></path><path class="cls-1" d="M221.61,386.75q-11.73,0-23.46-.68c-6.94-.4-14.79-1.26-19.91-6.43A.83.83,0,0,1,178,379a.85.85,0,0,1,.35-.6l3.51-2.43a.82.82,0,1,1,.93,1.35l-2.68,1.85c4.74,4.17,11.82,4.92,18.14,5.28a407,407,0,0,0,96.38-5.93.81.81,0,0,1,.95.65.83.83,0,0,1-.66,1A408.7,408.7,0,0,1,221.61,386.75Z"></path><path class="cls-3" d="M119.55,163.29c1.42,9.69,5.35,19.28,12.49,26,5.16,4.84,12.38,8.08,19.32,6.65,7.86-1.61,13.59-8.91,15.6-16.68s1-16-.42-23.88-3.09-15.88-2.37-23.87L151.08,131a222.38,222.38,0,0,1-.83,37.57c-.29,2.72-.67,5.55-2.18,7.83s-4.5,3.82-7,2.81c-2.9-1.15-3.8-4.75-4.22-7.84a155.26,155.26,0,0,1-.35-38.23c-.15,1.26-10.16.8-11.17.91-4.87.56-4.26-.49-5.54,4.51C117.84,146.05,118.44,155.69,119.55,163.29Z"></path><path class="cls-3" d="M177.17,193.22l16.5,1.57-1.62-31.67,6.69,24.74c.61,2.25,1.28,4.61,3,6.22,4.92,4.72,13.56-.46,19.77,2.35q0-32.28,0-64.57l-13.66.53q-1,20.21-2.05,40.4a134.12,134.12,0,0,1-14.58-40.45c-3.91-.63-11-3.25-14.23.24s-1.54,13.27-1.53,17.71Q175.49,171.77,177.17,193.22Z"></path><path class="cls-3" d="M262.33,144.43c-5.41-8.39-29.15-23.51-31.44-5.89-.63,4.83,2,58.3,1.42,58.33,12.2-.47,24.12-7.18,30.34-17.68S268.94,154.69,262.33,144.43Zm-13.3,28c-1.5,1.94-4.12,2.51-6.52,3q-.28-9-.56-18.08c0-1.85-.93-5.49.77-6.85s4.05,0,5.13,1.38a11.34,11.34,0,0,1,2,5.48,55,55,0,0,1,.64,9.5C250.42,168.76,250.23,170.85,249,172.4Z"></path><path class="cls-3" d="M272,195a2.13,2.13,0,0,0,.27,1.23,2.15,2.15,0,0,0,1.77.61l30.86.65a2.43,2.43,0,0,0,3.08-3q-.37-7-.74-14a90.38,90.38,0,0,1-18.5,1.43l0-8.94a148.65,148.65,0,0,0,18.74,1.21,90,90,0,0,0-.39-17.44,72.44,72.44,0,0,1-18,0l-1.05-10,18.83,1-1.62-15.79q-10.08,0-20.13-.88c-3.73-.34-12.4-3.49-13.57,1.79-.64,2.87-.07,6.37,0,9.31l.09,10.19q.09,10.19.19,20.37Q271.92,183.83,272,195Z"></path><path class="cls-3" d="M336.34,167.38c3.48.61,7-1.76,8.67-4.87s1.94-6.78,1.89-10.32a70.53,70.53,0,0,0-1.25-12.39,14.51,14.51,0,0,0-2.35-6.27c-2-2.62-5.38-3.77-8.61-4.38a41.25,41.25,0,0,0-16.49.26c-1.78.39-5.3.74-6.17,2.54s.07,6.43.14,8.58q.54,18.38,1.81,36.72.72,10.38,1.66,20.74a32.29,32.29,0,0,1,13.16.78q-.07-11.84-.14-23.67l15.15,23.22a25.3,25.3,0,0,1,12.84.48A150,150,0,0,0,336.34,167.38Zm-.58-17.64a7.65,7.65,0,0,1-1.41,4.39,6,6,0,0,1-3.88,1.93,17.73,17.73,0,0,1-4.42-.17q-.19-4.47-.19-9c0-1.84-.54-4.91.71-6.48,2.84-3.58,7.81.93,8.74,3.91A14.34,14.34,0,0,1,335.76,149.74Z"></path><path class="cls-3" d="M114,211.28c-2.47,2.38-3.28,5.71-3.6,8.91a53.66,53.66,0,0,0,.26,11.47c.29,2.48.77,5.11,2.69,7a10,10,0,0,0,6.43,2.41,26.37,26.37,0,0,0,7.07-.84c-.17-2.29-.35-4.58-.52-6.88-1.22,1.17-3.55.88-4.84-.22a6.93,6.93,0,0,1-2.06-4.27,24.5,24.5,0,0,1-.3-6.51,6.75,6.75,0,0,1,1.85-4.61c1.32-1.19,3.88-1.46,5-.13-.8-.94.08-5.11.06-6.34,0-2.14,0-1.92-2.07-2.07C120.29,208.88,116.78,208.58,114,211.28Z"></path><path class="cls-3" d="M144.64,222.29a56.22,56.22,0,0,0-.83-6.33c-.85-3.47-3.28-6.82-7.89-6.54a5.71,5.71,0,0,0-3.86,1.79c-1.23,1.36-1.49,3.17-1.72,4.89-.7,5.34-1.39,10.72-.73,16.06a13.09,13.09,0,0,0,1.33,4.71,7.23,7.23,0,0,0,3.84,3.38,8.16,8.16,0,0,0,8.28-2.27,10.88,10.88,0,0,0,2.57-7.63A73.58,73.58,0,0,0,144.64,222.29Zm-5.57,5.44a4,4,0,0,1-.73,1.47,2,2,0,0,1-3.44-.44,4.92,4.92,0,0,1-.35-2.15,18.27,18.27,0,0,1,.69-6.46,2.31,2.31,0,0,1,2.42-1.66c1.14.17,1.32,1.31,1.54,2.15A12.85,12.85,0,0,1,139.07,227.73Z"></path><path class="cls-3" d="M147.48,239.78l8-.12a86.66,86.66,0,0,1-.9-12.77L159.78,241l6.7-.49a2.9,2.9,0,0,0,1.38-.33,2.16,2.16,0,0,0,.77-1.89q.7-14.64.52-29.31l-7.26,1.15a172.09,172.09,0,0,0,0,17.74L154.11,210a11.13,11.13,0,0,1-3.68.49c-.73,0-2.42-.63-3-.18s-.12,2.7-.12,3.31c0,1.2,0,2.39,0,3.59l.09,14.54C147.44,232.44,147.5,239.78,147.48,239.78Z"></path><path class="cls-3" d="M178.47,209.63a6.11,6.11,0,0,0-3.52,3,21.15,21.15,0,0,0-1.63,9.77,5.8,5.8,0,0,0,3.49,4.36c2.26.86,5.24.22,7,1.71A3.08,3.08,0,0,1,184,233a5.77,5.77,0,0,1-5.12,1.37,8.27,8.27,0,0,1-4.56-2.71,21.23,21.23,0,0,0-.21,7.37,26.56,26.56,0,0,0,8.26,1.65c2.83,0,5.83-1.16,7.12-3.37a7.47,7.47,0,0,0,.58-5.06,21.62,21.62,0,0,0-2.22-6.6,5.46,5.46,0,0,0-2.58-2.72c-1.31-.53-2.93-.29-4.17-.93a3.93,3.93,0,0,1-1.79-3.92,2.54,2.54,0,0,1,.84-2,3.29,3.29,0,0,1,3.33.11,15.08,15.08,0,0,0,3.06,1.59,20.94,20.94,0,0,1,.57-4.72c.25-1,1-1.94-.45-2.2-.5-.1-1.05,0-1.56-.07a10.83,10.83,0,0,1-2-.77A7.22,7.22,0,0,0,178.47,209.63Z"></path><path class="cls-3" d="M191.34,215.21a34.81,34.81,0,0,0,6.92.63l0,24.8a24.36,24.36,0,0,0,7.38-.26c.59-8.19-.67-16.38-1.76-24.52,3.15.29,6.32.49,9.49.61-.06-1.91-.13-3.83-.19-5.74l-12.46-1c-2-.17-4-.4-6-.49-1.07,0-2.44-.06-3.09.84C190.69,211.3,191.31,213.82,191.34,215.21Z"></path><path class="cls-3" d="M226.19,226c2.78-.32,5.75-1.14,7.26-3.2,1.4-1.89,1.21-4.32.89-6.55a13.79,13.79,0,0,0-1.05-4.08,6.16,6.16,0,0,0-3.09-3.09,11.45,11.45,0,0,0-5.26-.46l-4.49.31c-1.08.07-3.19-.15-4.13.32s-.58,1.87-.58,2.73c0,1.3,0,2.59,0,3.89l-.09,15.88c0,.73,0,8.73,0,8.73l6.67.72q-.39-5.94-.77-11.88a112.42,112.42,0,0,1,6.69,12.21,32.81,32.81,0,0,1,7.86-.08A59.36,59.36,0,0,0,226.19,226Zm-3.26-4.93c0-1.44-.09-2.89-.13-4.34,0-.88-.53-2.84.08-3.58,1.29-1.56,4.91.47,5.77,1.52a4,4,0,0,1-.06,5.15A5.26,5.26,0,0,1,222.93,221.05Z"></path><path class="cls-3" d="M238.64,233.22c1,3.23,3.09,6.8,6.87,7.27a7.73,7.73,0,0,0,7.08-3.48,14.93,14.93,0,0,0,2-7.25,70.71,70.71,0,0,0-1.07-19.09,13.45,13.45,0,0,0-6.32-1.16,80.14,80.14,0,0,1,.6,21.15c-.08.81-.35,1.8-1.25,2-1.23.29-2-1.14-2.19-2.24a73,73,0,0,1-.67-20.61c.07-.58-4.86-.11-5.54.94-1.1,1.69-.69,5.17-.81,7.08A44.13,44.13,0,0,0,238.64,233.22Z"></path><path class="cls-3" d="M263.37,209.22a10,10,0,0,0-3.87,6.31,26.56,26.56,0,0,0-.13,7.29c.37,5,.79,10.23,3.47,14.7a12,12,0,0,0,6,5.27,8.71,8.71,0,0,0,6.87-.3,4.89,4.89,0,0,0,2.74-5.31,3.26,3.26,0,0,0-2.16-2.33,19.8,19.8,0,0,0-2.57-.26c-2.4-.37-3.84-2.52-4.6-4.55a18.45,18.45,0,0,1-.52-11.26,6.09,6.09,0,0,1,1.78-3.2,3.49,3.49,0,0,1,3.77-.54c-.48-.28.46-5.2.52-5.89.11-1.56.49-2.29-1.31-2.47-1.25-.12-3.13.85-4.43,1C266.82,207.93,265.11,208,263.37,209.22Z"></path><path class="cls-3" d="M277.88,217.19l9-.3a121,121,0,0,0,.3,25.8l9.67,0a148.87,148.87,0,0,1-2.83-26.09l9.8.3,0-8.76a90.72,90.72,0,0,1-12.77.45c-4.2-.14-8.34-1-12.49-1.22C278.33,208.15,278,217.19,277.88,217.19Z"></path><path class="cls-3" d="M306.06,243.28c1.39-.61,3.05-.24,4.59,0s3.41.09,4.25-1.06a3.6,3.6,0,0,0,.48-2.19q.09-16.34.17-32.67c-2.7-.26-7.39-1.77-8.29,1.19-1,3.38-.28,8-.4,11.5Q306.45,231.65,306.06,243.28Z"></path><path class="cls-3" d="M333.8,212.33c-1-1.8-2.48-4.3-4.88-4.9-2.72-.69-6.14.76-7.84,2.55-1.92,2-2.67,4.71-3.14,7.31a47.07,47.07,0,0,0-.57,12.48c.28,3.21.94,6.51,3,9.16a9.87,9.87,0,0,0,9.49,3.64,8.91,8.91,0,0,0,5.95-5.07,19,19,0,0,0,1.31-7.41C337.34,224.12,337,217.76,333.8,212.33Zm-3.62,17.79c-.11,1.12-.39,2.42-1.54,2.92a3.24,3.24,0,0,1-3.39-1,8.14,8.14,0,0,1-1.87-5.59,26,26,0,0,1,.87-7.44c1-3.69,5.45-2.48,5.82.77A51.05,51.05,0,0,1,330.18,230.12Z"></path><path class="cls-3" d="M340.81,242.35a34.56,34.56,0,0,1,9,1L349.14,226q3,8.85,5.9,17.7a30.32,30.32,0,0,1,9.3-1L364.23,207a14.34,14.34,0,0,0-4.3-.62,4.39,4.39,0,0,0-3.6,1.87,4.8,4.8,0,0,0-.34,2.68q.56,9,1.12,18l-8.19-19.2a5.39,5.39,0,0,0-1.71-2.5c-2-1.4-6-.57-6.66,1.59-1,3.16.05,7.76.08,11.05Z"></path><path class="cls-2" d="M164.75,123.84a52.61,52.61,0,0,1-19.45-3.65c-17.32-6.89-30-24.16-30.73-42a.5.5,0,0,1,1,0c.76,17.45,13.14,34.35,30.1,41.1,16.38,6.52,36.08,4,51.39-6.53,14.27-9.84,24.46-26.63,27.25-44.93a.5.5,0,0,1,1,.16c-2.83,18.56-13.18,35.6-27.67,45.59A58.29,58.29,0,0,1,164.75,123.84Z"></path><path class="cls-2" d="M205.05,108.26A74,74,0,0,1,143.24,74.2a.49.49,0,0,1,.16-.69.5.5,0,0,1,.69.15A71.82,71.82,0,0,0,268.7,68.41a.5.5,0,0,1,.67-.22.51.51,0,0,1,.22.68A74,74,0,0,1,208,108.2Q206.51,108.26,205.05,108.26Z"></path><path class="cls-2" d="M95.27,215.81h0a.5.5,0,0,1-.5-.5L94.82,80a.5.5,0,0,1,.5-.5h0a.5.5,0,0,1,.5.5l0,135.35A.51.51,0,0,1,95.27,215.81Z"></path><path class="cls-2" d="M110.21,149.72h0a.5.5,0,0,1-.48-.52,399.41,399.41,0,0,0-3.21-70.75.51.51,0,0,1,.43-.57.5.5,0,0,1,.56.43,400.49,400.49,0,0,1,3.22,70.93A.5.5,0,0,1,110.21,149.72Z"></path></g><g id="cone"><path class="cls-1" d="M381.66,245.86q-18,74.88-36,149.76c-10.05,1.87-16.31,14.65-11.62,23.74,2.79,5.43,8.45,8.91,14.35,10.49s12.09,1.48,18.19,1.37L439.88,430c8.47-.14,18.19-.89,23.26-7.68a13.93,13.93,0,0,0-13.46-22.08c1.3-.22-16.59-89.66-18.37-97.75q-5.43-24.65-11.62-49.12c-2-8-2.84-25.18-10.81-30C393.27,214,384.38,234.5,381.66,245.86Z"></path><path class="cls-2" d="M362.07,432a53.57,53.57,0,0,1-13.85-1.45c-6.8-1.81-12.2-5.77-14.83-10.86A18.06,18.06,0,0,1,345.07,395l35.86-149.3h0c.8-3.33,5.31-20.16,15.54-24.46,4-1.68,8.31-1.17,12.8,1.52,6.42,3.85,8.32,14.87,9.84,23.73.44,2.5.84,4.87,1.3,6.68,4.12,16.25,8,32.78,11.63,49.15.87,3.94,5.68,27.76,10.25,51.33,6.51,33.64,8,43,8.15,45.72a14.69,14.69,0,0,1,13.3,23.39c-5,6.74-14.44,7.82-23.85,8L366.61,432C365.11,432,363.59,432,362.07,432Zm20.32-186-36,149.77a.74.74,0,0,1-.59.56A16.52,16.52,0,0,0,334.72,419c2.44,4.71,7.49,8.4,13.88,10.1,5.84,1.56,12,1.45,18,1.35l73.28-1.25c8.41-.14,17.79-.84,22.67-7.38A13.18,13.18,0,0,0,449.8,401h0a.75.75,0,0,1-.86-.62.67.67,0,0,1,.06-.44c.22-4.61-16.17-87.06-18.42-97.27-3.6-16.35-7.51-32.87-11.62-49.1-.47-1.87-.89-4.26-1.32-6.8-1.4-8.1-3.31-19.19-9.15-22.69-4.05-2.43-7.9-2.91-11.44-1.43-7.42,3.12-12.54,14.57-14.66,23.43Zm67.14,153.44Zm0,0h0Zm-103.87-3.85h0Z"></path><path class="cls-3" d="M395.65,395.17c11.22-4.91,19.78-14.41,30.4-20.5,3.25-1.87,9.13-6,11.3-9.06,3.36-4.74-6.15-25.47-5.17-31.2a787.22,787.22,0,0,0-67.59,42.91c-3.58,2.53-7.18,5.14-9.93,8.57-1.9,2.37-6,8.87-3.26,11.66,2.11,2.13,11.38,1.47,14.29,1.64C375.81,399.79,386.25,399.29,395.65,395.17Z"></path><path class="cls-3" d="M362.29,348.6l57.3-36.77a8.8,8.8,0,0,0,3.61-3.46,8.7,8.7,0,0,0,.28-4.62q-1.51-13-3.05-26a407,407,0,0,1-41.18,27.7c-2.63,1.55-6.87,3-8.43,5.58-1.91,3.13-2.09,9.22-2.9,12.78L365,336.62C364.54,338.67,363.84,347.6,362.29,348.6Z"></path><path class="cls-3" d="M377.12,285.76a278.49,278.49,0,0,1,32.78-18.17c2.45-1.15,5.15-2.5,6.11-5,.68-1.76.35-3.73,0-5.59q-1.5-8.28-3-16.57c.34,1.92-13.92,7.79-15.71,8.47-3.19,1.22-7.42,1.71-10.16,3.87-3.58,2.82-4,8.31-5,12.42Z"></path><path class="cls-2" d="M359.47,416.43h-2c-4.54,0-9.28-.27-12.89-2.9a9.42,9.42,0,0,1-3.72-7,6.21,6.21,0,0,1,2-5.08.49.49,0,0,1,.7.05.51.51,0,0,1-.05.71,5.22,5.22,0,0,0-1.69,4.28,8.41,8.41,0,0,0,3.31,6.23c3.37,2.46,7.92,2.69,12.3,2.71,12.6.08,25.41-.54,37.78-1.13l48.32-2.3c4.49-.22,9.49-.74,12-4.27a.5.5,0,1,1,.81.58c-2.79,3.89-8.06,4.46-12.79,4.68l-48.31,2.31C383.57,415.85,371.46,416.43,359.47,416.43Z"></path></g><g id="constructor-at"><path class="cls-1" d="M326.15,62c-1.7,5.88-.79,12.19.63,18.15,8.75,36.7,36.13,66.69,67.88,87.08,5.48,3.52,11.39,6.9,17.9,7.29s13.69-3.1,15.44-9.38c1.06-3.8,0-7.83,0-11.77-.1-7.52,3.38-14.54,5.57-21.74,7-22.91-.25-49.52-17.83-65.79s-44.67-21.4-67-12.68c.68-.26-4.32-3.71-5.26-3.92-2.51-.56-4.45.56-6.69,1.43A16.88,16.88,0,0,0,326.15,62Z"></path><path class="cls-2" d="M413.52,175.25c-.34,0-.67,0-1,0-6.85-.41-13-4-18.26-7.41-36-23.14-60.26-54.23-68.2-87.54-1.26-5.27-2.47-12.14-.62-18.53h0a17.7,17.7,0,0,1,11.08-11.82l1.06-.43c1.83-.76,3.73-1.55,6.07-1a20.29,20.29,0,0,1,5.45,3.71c22.54-8.52,49.43-3.3,67.13,13.07,17.86,16.53,25.11,43.28,18,66.56-.59,1.93-1.27,3.87-1.94,5.75-1.81,5.1-3.67,10.38-3.6,15.76,0,1.24.13,2.51.25,3.75a22.79,22.79,0,0,1-.24,8.23C426.88,171.9,419.72,175.25,413.52,175.25ZM326.87,62.16h0c-1.75,6-.58,12.67.64,17.76,7.85,32.93,31.84,63.69,67.55,86.63,5.08,3.26,11.05,6.78,17.54,7.17,5.82.35,12.95-2.62,14.68-8.83a21.24,21.24,0,0,0,.2-7.69c-.12-1.27-.24-2.57-.26-3.87-.08-5.65,1.84-11.06,3.69-16.28.66-1.86,1.34-3.79,1.91-5.68,6.91-22.75-.17-48.88-17.62-65S371.15,45.16,349,53.81h0a.76.76,0,0,1-1-.43.75.75,0,0,1,0-.26,22.42,22.42,0,0,0-4.67-3.2c-1.87-.41-3.4.22-5.17,1l-1.09.44A16,16,0,0,0,326.87,62.16Z"></path><path class="cls-3" d="M406.53,120.41a15.27,15.27,0,0,0-.19,7.2,6.66,6.66,0,0,0,4.8,5c4.26.81,7.49-3.73,9.18-7.73,2.45-5.76,11.45-24.31,1.56-25.46C412.82,98.32,407.86,114.23,406.53,120.41Z"></path><path class="cls-3" d="M381.59,97.33c-.75,2.68-.23,5.86,1.87,7.69,6.89,6,28.75-7.2,24.56-16.25C402.14,76.07,384,88.79,381.59,97.33Z"></path><path class="cls-3" d="M361.83,56.37a6.6,6.6,0,0,0-3.66,6.11A11.15,11.15,0,0,0,361,69.34c5.11,6.21,34.85,13.94,36.27,1.9C398.56,60.08,368.29,53.59,361.83,56.37Z"></path><path class="cls-2" d="M416.82,155.22h0c-12.5-.65-22.59-10.08-30.82-19.22a336.8,336.8,0,0,1-36-48c-2.7-4.35-5.43-9-6.6-14.14C342,68.05,343,62.51,346,58.64a.5.5,0,0,1,.79.61c-2.78,3.58-3.68,9-2.43,14.37,1.15,5,3.72,9.37,6.48,13.83a335,335,0,0,0,35.89,47.88c8.09,9,18,18.26,30.13,18.89a.5.5,0,0,1,0,1Z"></path></g><g id="barrier"><path class="cls-3" d="M26.45,280.8c-3.72,1.05-4.44,5.93-4.45,9.79l-.27,132.49a10.09,10.09,0,0,0,.36,2.85c1.25,4.37,4.66,5.48,8.35,5.33a6.11,6.11,0,0,0,5.82-6c1.07-41.16,1-82.38-.43-123.53C35.64,296.51,35.34,278.3,26.45,280.8Z"></path><path class="cls-3" d="M24.49,292.11c-1.94.18-4,.4-5.54,1.62-2.68,2.13-2.3,6.82.43,8.89,2.38,1.8,5.64,1.71,8.62,1.54l7.15-.41a6.78,6.78,0,0,0,3-.65c1.91-1.1,2.28-3.7,2-5.89-.49-4.51.68-6.13-4-6.18C32.39,291,28.33,291.76,24.49,292.11Z"></path><path class="cls-3" d="M160,280.8c-3.73,1.05-4.45,5.93-4.46,9.79l-.27,132.49a10.09,10.09,0,0,0,.36,2.85c1.25,4.37,4.66,5.48,8.35,5.33a6.11,6.11,0,0,0,5.82-6c1.07-41.16,1-82.38-.43-123.53C169.18,296.51,168.88,278.3,160,280.8Z"></path><path class="cls-3" d="M158,292.11c-1.94.18-4,.4-5.54,1.62-2.68,2.13-2.3,6.82.43,8.89,2.38,1.8,5.64,1.71,8.63,1.54l7.15-.41a6.84,6.84,0,0,0,3-.65c1.9-1.1,2.27-3.7,2-5.89-.49-4.51.68-6.13-4-6.18C165.93,291,161.87,291.76,158,292.11Z"></path><path class="cls-1" d="M16.42,315.22c-1.74,3.13-1.75,6.88-1.72,10.46l.15,19.79c0,3,.26,6.55,2.68,8.41,1.81,1.4,4.29,1.41,6.58,1.36l140.8-3.11c3.15-.07,6.63-.26,8.91-2.44,2.58-2.47,2.65-6.48,2.55-10l-.51-18.29c-.09-3.34-.32-7-2.68-9.4s-6.39-2.64-9.91-2.62q-59.84.36-119.66,1.4c-5.63.1-11.29.41-16.92.31C22.59,311,18.67,311.15,16.42,315.22Z"></path><path class="cls-2" d="M23.09,356c-2.23,0-4.33-.22-6-1.52-2.56-2-2.94-5.49-3-9L14,325.68c0-3.31-.06-7.44,1.81-10.82h0c2.41-4.35,6.55-4.64,11-4.56,3.75.07,7.59-.05,11.3-.16,1.87-.06,3.73-.12,5.59-.15,35.74-.67,73.76-1.12,119.67-1.4,3.84,0,7.8.18,10.44,2.84,2.5,2.51,2.8,6.27,2.9,9.91l.51,18.28c.11,3.75,0,8-2.78,10.61-2.42,2.31-6,2.58-9.42,2.65L24.12,356Zm-6-40.41h0c-1.68,3-1.65,6.78-1.62,10.08l.15,19.79c0,2.92.23,6.17,2.39,7.83,1.55,1.2,3.77,1.25,6.1,1.2l140.8-3.11c3.28-.07,6.38-.3,8.41-2.24,2.33-2.22,2.42-5.9,2.32-9.47l-.51-18.29c-.09-3.48-.35-6.77-2.46-8.89s-5.85-2.41-9.37-2.4c-45.9.28-83.92.73-119.65,1.4-1.86,0-3.71.09-5.57.15-3.73.11-7.59.23-11.38.16C22.47,311.72,19.08,312,17.07,315.59Z"></path><path class="cls-1" d="M16.42,390.62c-1.74-1.33-1.75-2.93-1.72-4.46l.15-8.43a3.37,3.37,0,0,1,2.68-3.59,22.13,22.13,0,0,1,6.58-.57l140.8,1.32c3.15,0,6.63.11,8.91,1,2.58,1.05,2.65,2.76,2.55,4.28l-.51,7.79a4,4,0,0,1-2.68,4c-2.48,1.06-6.39,1.12-9.91,1.12q-59.84-.17-119.66-.6c-5.63,0-11.29-.18-16.92-.13C22.59,392.43,18.67,392.35,16.42,390.62Z"></path><path class="cls-2" d="M163.68,393.88h-.41c-45.91-.13-83.94-.31-119.66-.6l-5.6-.06c-3.72-.05-7.56-.1-11.31-.07-4.45,0-8.34-.09-10.74-1.94h0c-2.08-1.59-2-3.6-2-5.06l.15-8.43a4.09,4.09,0,0,1,3.2-4.29,22.35,22.35,0,0,1,6.81-.61l140.8,1.32c3.51,0,6.85.14,9.19,1.1a4.45,4.45,0,0,1,3,5l-.51,7.79a4.7,4.7,0,0,1-3.13,4.65C171,393.76,167.31,393.88,163.68,393.88ZM29,391.64c3,0,6,0,9,.08l5.59.06c35.72.29,73.74.47,119.66.6,3.59,0,7.3-.07,9.61-1.06a3.29,3.29,0,0,0,2.23-3.37l.51-7.79c.09-1.43,0-2.68-2.09-3.53s-5.42-1-8.64-1L24.1,374.32a21.31,21.31,0,0,0-6.34.54,2.61,2.61,0,0,0-2.16,2.88l-.15,8.44c0,1.63.05,2.79,1.42,3.84,2,1.56,5.64,1.66,9.82,1.63Z"></path><path class="cls-3" d="M31.69,389.78a.62.62,0,0,0,.34.68,7.76,7.76,0,0,0,3,.63,147.9,147.9,0,0,0,14.85.11,23.94,23.94,0,0,0,5-.47,3.35,3.35,0,0,0,2.58-2.35,38,38,0,0,1,7.31-11.2c.37-.4.57-1-.6-1.33a7.69,7.69,0,0,0-1.75-.24c-2.67-.15-5.2-.09-7.71,0l-12.25.28a14,14,0,0,0-3.68.29c-.86.32-1.1,1-1.49,1.41a23,23,0,0,0-4.64,7.65A18.54,18.54,0,0,0,31.69,389.78Z"></path><path class="cls-3" d="M76.69,389.78a.65.65,0,0,0,.34.68,7.77,7.77,0,0,0,3,.63,147.86,147.86,0,0,0,14.85.11,23.84,23.84,0,0,0,5-.47,3.35,3.35,0,0,0,2.59-2.35,37.78,37.78,0,0,1,7.3-11.2c.37-.4.58-1-.6-1.33a7.62,7.62,0,0,0-1.75-.24c-2.66-.15-5.2-.09-7.71,0l-12.24.28a14,14,0,0,0-3.69.29c-.85.32-1.09,1-1.49,1.41a22.78,22.78,0,0,0-4.63,7.65A18.56,18.56,0,0,0,76.69,389.78Z"></path><path class="cls-3" d="M125.12,389.78a.62.62,0,0,0,.34.68,7.76,7.76,0,0,0,3,.63,147.88,147.88,0,0,0,14.85.11,23.94,23.94,0,0,0,5-.47,3.35,3.35,0,0,0,2.58-2.35,38,38,0,0,1,7.31-11.2c.37-.4.57-1-.6-1.33a7.69,7.69,0,0,0-1.75-.24c-2.67-.15-5.2-.09-7.71,0l-12.25.28a14,14,0,0,0-3.68.29c-.86.32-1.1,1-1.49,1.41a23,23,0,0,0-4.64,7.65A18.54,18.54,0,0,0,125.12,389.78Z"></path><path class="cls-3" d="M33.07,348.75a3,3,0,0,0-.27,1.75c.27,1,1.42,1.39,2.42,1.58,4.84,1,9.83.63,14.75.3a12.94,12.94,0,0,0,5.45-1.19c2.25-1.26,3.51-3.71,4.68-6a227.83,227.83,0,0,1,17.23-28.49c.72-1,1.43-2.49.57-3.4a2.55,2.55,0,0,0-1.53-.61,37.9,37.9,0,0,0-7.68-.08l-12.5.71c-1.3.08-2.84-.07-3.94.74s-2,2.45-2.74,3.59a143.85,143.85,0,0,0-11.42,19.48Q35.33,342.82,33.07,348.75Z"></path><path class="cls-3" d="M78.07,347.92a2.78,2.78,0,0,0-.26,1.71c.26,1,1.42,1.36,2.42,1.55,4.83.93,9.82.61,14.74.28a12.93,12.93,0,0,0,5.46-1.16c2.24-1.22,3.5-3.62,4.67-5.86a221.87,221.87,0,0,1,17.23-27.85c.72-1,1.44-2.43.58-3.32a2.66,2.66,0,0,0-1.54-.6,39.4,39.4,0,0,0-7.68-.08l-12.5.7c-1.29.07-2.83-.06-3.94.72s-1.94,2.4-2.74,3.51a139.1,139.1,0,0,0-11.41,19Q80.33,342.13,78.07,347.92Z"></path><path class="cls-3" d="M122.71,347.26a2.69,2.69,0,0,0-.27,1.68c.27.94,1.42,1.33,2.42,1.52,4.84.91,9.83.6,14.75.28a13.37,13.37,0,0,0,5.45-1.14c2.25-1.21,3.51-3.56,4.67-5.76A218.57,218.57,0,0,1,167,316.51c.73-1,1.44-2.38.58-3.25a2.62,2.62,0,0,0-1.53-.59,39.41,39.41,0,0,0-7.68-.08l-12.5.69c-1.3.07-2.84-.07-3.94.7s-1.95,2.36-2.74,3.45a136.36,136.36,0,0,0-11.42,18.67Q125,341.58,122.71,347.26Z"></path></g></svg>